%TF.GenerationSoftware,KiCad,Pcbnew,9.0.3*%
%TF.CreationDate,2025-09-08T02:13:57+08:00*%
%TF.ProjectId,IR_AC,49525f41-432e-46b6-9963-61645f706362,rev?*%
%TF.SameCoordinates,Original*%
%TF.FileFunction,Copper,L1,Top*%
%TF.FilePolarity,Positive*%
%FSLAX46Y46*%
G04 Gerber Fmt 4.6, Leading zero omitted, Abs format (unit mm)*
G04 Created by KiCad (PCBNEW 9.0.3) date 2025-09-08 02:13:57*
%MOMM*%
%LPD*%
G01*
G04 APERTURE LIST*
G04 Aperture macros list*
%AMRoundRect*
0 Rectangle with rounded corners*
0 $1 Rounding radius*
0 $2 $3 $4 $5 $6 $7 $8 $9 X,Y pos of 4 corners*
0 Add a 4 corners polygon primitive as box body*
4,1,4,$2,$3,$4,$5,$6,$7,$8,$9,$2,$3,0*
0 Add four circle primitives for the rounded corners*
1,1,$1+$1,$2,$3*
1,1,$1+$1,$4,$5*
1,1,$1+$1,$6,$7*
1,1,$1+$1,$8,$9*
0 Add four rect primitives between the rounded corners*
20,1,$1+$1,$2,$3,$4,$5,0*
20,1,$1+$1,$4,$5,$6,$7,0*
20,1,$1+$1,$6,$7,$8,$9,0*
20,1,$1+$1,$8,$9,$2,$3,0*%
G04 Aperture macros list end*
%TA.AperFunction,ComponentPad*%
%ADD10O,1.800000X1.200000*%
%TD*%
%TA.AperFunction,ComponentPad*%
%ADD11O,2.000000X1.100000*%
%TD*%
%TA.AperFunction,SMDPad,CuDef*%
%ADD12R,1.100000X0.550000*%
%TD*%
%TA.AperFunction,SMDPad,CuDef*%
%ADD13R,1.100000X0.300000*%
%TD*%
%TA.AperFunction,ComponentPad*%
%ADD14C,0.800000*%
%TD*%
%TA.AperFunction,SMDPad,CuDef*%
%ADD15RoundRect,0.227500X0.382500X-0.227500X0.382500X0.227500X-0.382500X0.227500X-0.382500X-0.227500X0*%
%TD*%
%TA.AperFunction,SMDPad,CuDef*%
%ADD16RoundRect,0.243750X0.243750X0.456250X-0.243750X0.456250X-0.243750X-0.456250X0.243750X-0.456250X0*%
%TD*%
%TA.AperFunction,SMDPad,CuDef*%
%ADD17RoundRect,0.200000X-0.200000X-0.275000X0.200000X-0.275000X0.200000X0.275000X-0.200000X0.275000X0*%
%TD*%
%TA.AperFunction,SMDPad,CuDef*%
%ADD18RoundRect,0.200000X0.200000X0.275000X-0.200000X0.275000X-0.200000X-0.275000X0.200000X-0.275000X0*%
%TD*%
%TA.AperFunction,SMDPad,CuDef*%
%ADD19RoundRect,0.243750X-0.243750X-0.456250X0.243750X-0.456250X0.243750X0.456250X-0.243750X0.456250X0*%
%TD*%
%TA.AperFunction,SMDPad,CuDef*%
%ADD20RoundRect,0.155000X0.155000X0.395000X-0.155000X0.395000X-0.155000X-0.395000X0.155000X-0.395000X0*%
%TD*%
%TA.AperFunction,SMDPad,CuDef*%
%ADD21RoundRect,0.250000X0.250000X0.475000X-0.250000X0.475000X-0.250000X-0.475000X0.250000X-0.475000X0*%
%TD*%
%TA.AperFunction,SMDPad,CuDef*%
%ADD22RoundRect,0.135000X0.135000X0.185000X-0.135000X0.185000X-0.135000X-0.185000X0.135000X-0.185000X0*%
%TD*%
%TA.AperFunction,SMDPad,CuDef*%
%ADD23RoundRect,0.150000X-0.587500X-0.150000X0.587500X-0.150000X0.587500X0.150000X-0.587500X0.150000X0*%
%TD*%
%TA.AperFunction,SMDPad,CuDef*%
%ADD24RoundRect,0.200000X0.275000X-0.200000X0.275000X0.200000X-0.275000X0.200000X-0.275000X-0.200000X0*%
%TD*%
%TA.AperFunction,SMDPad,CuDef*%
%ADD25RoundRect,0.250000X0.625000X-0.312500X0.625000X0.312500X-0.625000X0.312500X-0.625000X-0.312500X0*%
%TD*%
%TA.AperFunction,HeatsinkPad*%
%ADD26C,0.600000*%
%TD*%
%TA.AperFunction,HeatsinkPad*%
%ADD27R,3.900000X3.900000*%
%TD*%
%TA.AperFunction,SMDPad,CuDef*%
%ADD28R,1.500000X0.900000*%
%TD*%
%TA.AperFunction,SMDPad,CuDef*%
%ADD29R,0.900000X1.500000*%
%TD*%
%TA.AperFunction,SMDPad,CuDef*%
%ADD30RoundRect,0.250000X0.500000X-0.365000X0.500000X0.365000X-0.500000X0.365000X-0.500000X-0.365000X0*%
%TD*%
%TA.AperFunction,ComponentPad*%
%ADD31C,1.500000*%
%TD*%
%TA.AperFunction,SMDPad,CuDef*%
%ADD32RoundRect,0.225000X-0.225000X-0.250000X0.225000X-0.250000X0.225000X0.250000X-0.225000X0.250000X0*%
%TD*%
%TA.AperFunction,ComponentPad*%
%ADD33C,1.800000*%
%TD*%
%TA.AperFunction,ComponentPad*%
%ADD34C,1.700000*%
%TD*%
%TA.AperFunction,ComponentPad*%
%ADD35R,1.700000X1.700000*%
%TD*%
%TA.AperFunction,SMDPad,CuDef*%
%ADD36RoundRect,0.225000X-0.250000X0.225000X-0.250000X-0.225000X0.250000X-0.225000X0.250000X0.225000X0*%
%TD*%
%TA.AperFunction,SMDPad,CuDef*%
%ADD37RoundRect,0.200000X-0.275000X0.200000X-0.275000X-0.200000X0.275000X-0.200000X0.275000X0.200000X0*%
%TD*%
%TA.AperFunction,SMDPad,CuDef*%
%ADD38RoundRect,0.140000X0.170000X-0.140000X0.170000X0.140000X-0.170000X0.140000X-0.170000X-0.140000X0*%
%TD*%
%TA.AperFunction,SMDPad,CuDef*%
%ADD39R,1.500000X1.000000*%
%TD*%
%TA.AperFunction,SMDPad,CuDef*%
%ADD40RoundRect,0.075000X-0.350000X0.075000X-0.350000X-0.075000X0.350000X-0.075000X0.350000X0.075000X0*%
%TD*%
%TA.AperFunction,ViaPad*%
%ADD41C,0.600000*%
%TD*%
%TA.AperFunction,ViaPad*%
%ADD42C,1.000000*%
%TD*%
%TA.AperFunction,Conductor*%
%ADD43C,0.300000*%
%TD*%
%TA.AperFunction,Conductor*%
%ADD44C,1.000000*%
%TD*%
%TA.AperFunction,Conductor*%
%ADD45C,0.200000*%
%TD*%
%TA.AperFunction,Conductor*%
%ADD46C,0.500000*%
%TD*%
%TA.AperFunction,Conductor*%
%ADD47C,0.700000*%
%TD*%
G04 APERTURE END LIST*
D10*
%TO.P,J1,14,SHELL*%
%TO.N,GND*%
X-22380000Y-15070000D03*
D11*
X-18170000Y-15070000D03*
D10*
%TO.P,J1,13,SHELL*%
X-22380000Y-6430000D03*
D11*
X-18170000Y-6430000D03*
D12*
%TO.P,J1,12,GND*%
X-17620000Y-13950000D03*
%TO.P,J1,11,VBUS*%
%TO.N,/V_BUS*%
X-17620000Y-13150000D03*
D13*
%TO.P,J1,10,CC2*%
%TO.N,/CC2*%
X-17620000Y-12500000D03*
%TO.P,J1,9,SBU1*%
%TO.N,unconnected-(J1-SBU1-Pad9)*%
X-17620000Y-12000000D03*
%TO.P,J1,8,DP2*%
%TO.N,D+*%
X-17620000Y-11500000D03*
%TO.P,J1,7,DN1*%
%TO.N,D-*%
X-17620000Y-11000000D03*
%TO.P,J1,6,DP1*%
%TO.N,D+*%
X-17620000Y-10500000D03*
%TO.P,J1,5,DN2*%
%TO.N,D-*%
X-17620000Y-10000000D03*
%TO.P,J1,4,CC1*%
%TO.N,/CC1*%
X-17620000Y-9500000D03*
%TO.P,J1,3,SBU2*%
%TO.N,unconnected-(J1-SBU2-Pad3)*%
X-17620000Y-9000000D03*
D12*
%TO.P,J1,2,VBUS*%
%TO.N,/V_BUS*%
X-17620000Y-8350000D03*
%TO.P,J1,1,GND*%
%TO.N,GND*%
X-17620000Y-7550000D03*
D14*
%TO.P,J1,*%
X-18700000Y-13640000D03*
X-18700000Y-7860000D03*
%TD*%
D15*
%TO.P,D1,2,A*%
%TO.N,/V_BUS*%
X-14500000Y-15360000D03*
%TO.P,D1,1,K*%
%TO.N,VDC*%
X-14500000Y-18640000D03*
%TD*%
D16*
%TO.P,D2,1,K*%
%TO.N,GND*%
X4937500Y-29750000D03*
%TO.P,D2,2,A*%
%TO.N,Net-(D2-A)*%
X3062500Y-29750000D03*
%TD*%
D17*
%TO.P,R1,1*%
%TO.N,Net-(D2-A)*%
X2925000Y-27750000D03*
%TO.P,R1,2*%
%TO.N,+3V3*%
X4575000Y-27750000D03*
%TD*%
D18*
%TO.P,R2,2*%
%TO.N,VDC*%
X-1075000Y-27750000D03*
%TO.P,R2,1*%
%TO.N,Net-(D3-A)*%
X575000Y-27750000D03*
%TD*%
D19*
%TO.P,D3,2,A*%
%TO.N,Net-(D3-A)*%
X437500Y-29750000D03*
%TO.P,D3,1,K*%
%TO.N,GND*%
X-1437500Y-29750000D03*
%TD*%
D20*
%TO.P,U1,1,VIN*%
%TO.N,VDC*%
X-12300000Y-20000000D03*
%TO.P,U1,2,GND*%
%TO.N,GND*%
X-13250000Y-20000000D03*
%TO.P,U1,3,EN*%
%TO.N,VDC*%
X-14200000Y-20000000D03*
%TO.P,U1,4,NC*%
%TO.N,unconnected-(U1-NC-Pad4)*%
X-14200000Y-22600000D03*
%TO.P,U1,5,VOUT*%
%TO.N,+3V3*%
X-12300000Y-22600000D03*
%TD*%
D21*
%TO.P,C3,1*%
%TO.N,+3V3*%
X-12300000Y-24300000D03*
%TO.P,C3,2*%
%TO.N,GND*%
X-14200000Y-24300000D03*
%TD*%
%TO.P,C2,1*%
%TO.N,VDC*%
X-18850000Y-19000000D03*
%TO.P,C2,2*%
%TO.N,GND*%
X-20750000Y-19000000D03*
%TD*%
D22*
%TO.P,R4,2*%
%TO.N,/CC2*%
X-14510000Y-12500000D03*
%TO.P,R4,1*%
%TO.N,GND*%
X-13490000Y-12500000D03*
%TD*%
%TO.P,R3,2*%
%TO.N,/CC1*%
X-14510000Y-9000000D03*
%TO.P,R3,1*%
%TO.N,GND*%
X-13490000Y-9000000D03*
%TD*%
D23*
%TO.P,Q1,3,S*%
%TO.N,GND*%
X-6187500Y-40950000D03*
%TO.P,Q1,2,G*%
%TO.N,Net-(Q1-G)*%
X-6187500Y-39050000D03*
%TO.P,Q1,1,D*%
%TO.N,Net-(D6-K)*%
X-4312500Y-40000000D03*
%TD*%
D24*
%TO.P,R11,1*%
%TO.N,GND*%
X-9500000Y-42250000D03*
%TO.P,R11,2*%
%TO.N,Net-(Q1-G)*%
X-9500000Y-40600000D03*
%TD*%
D18*
%TO.P,R10,1*%
%TO.N,Net-(Q1-G)*%
X-9425000Y-39000000D03*
%TO.P,R10,2*%
%TO.N,IR_LED_DRIVE*%
X-11075000Y-39000000D03*
%TD*%
D25*
%TO.P,R8,1*%
%TO.N,Net-(D6-A)*%
X4500000Y-40000000D03*
%TO.P,R8,2*%
%TO.N,VDC*%
X4500000Y-37075000D03*
%TD*%
D26*
%TO.P,U3,41,GND*%
%TO.N,GND*%
X-100000Y-3160000D03*
X-100000Y-1760000D03*
X-800000Y-3860000D03*
X-800000Y-2460000D03*
X-800000Y-1060000D03*
X-1500000Y-3160000D03*
D27*
X-1500000Y-2460000D03*
D26*
X-1500000Y-1760000D03*
X-2200000Y-3860000D03*
X-2200000Y-2460000D03*
X-2200000Y-1060000D03*
X-2900000Y-3160000D03*
X-2900000Y-1760000D03*
D28*
%TO.P,U3,40,GND*%
X8750000Y5260000D03*
%TO.P,U3,39,IO1*%
%TO.N,unconnected-(U3-IO1-Pad39)*%
X8750000Y3990000D03*
%TO.P,U3,38,IO2*%
%TO.N,unconnected-(U3-IO2-Pad38)*%
X8750000Y2720000D03*
%TO.P,U3,37,TXD0*%
%TO.N,TX*%
X8750000Y1450000D03*
%TO.P,U3,36,RXD0*%
%TO.N,RX*%
X8750000Y180000D03*
%TO.P,U3,35,IO42*%
%TO.N,unconnected-(U3-IO42-Pad35)*%
X8750000Y-1090000D03*
%TO.P,U3,34,IO41*%
%TO.N,unconnected-(U3-IO41-Pad34)*%
X8750000Y-2360000D03*
%TO.P,U3,33,IO40*%
%TO.N,unconnected-(U3-IO40-Pad33)*%
X8750000Y-3630000D03*
%TO.P,U3,32,IO39*%
%TO.N,unconnected-(U3-IO39-Pad32)*%
X8750000Y-4900000D03*
%TO.P,U3,31,IO38*%
%TO.N,unconnected-(U3-IO38-Pad31)*%
X8750000Y-6170000D03*
%TO.P,U3,30,IO37*%
%TO.N,unconnected-(U3-IO37-Pad30)*%
X8750000Y-7440000D03*
%TO.P,U3,29,IO36*%
%TO.N,unconnected-(U3-IO36-Pad29)*%
X8750000Y-8710000D03*
%TO.P,U3,28,IO35*%
%TO.N,unconnected-(U3-IO35-Pad28)*%
X8750000Y-9980000D03*
%TO.P,U3,27,IO0*%
%TO.N,BOOT*%
X8750000Y-11250000D03*
D29*
%TO.P,U3,26,IO45*%
%TO.N,unconnected-(U3-IO45-Pad26)*%
X6985000Y-12500000D03*
%TO.P,U3,25,IO48*%
%TO.N,unconnected-(U3-IO48-Pad25)*%
X5715000Y-12500000D03*
%TO.P,U3,24,IO47*%
%TO.N,unconnected-(U3-IO47-Pad24)*%
X4445000Y-12500000D03*
%TO.P,U3,23,IO21*%
%TO.N,unconnected-(U3-IO21-Pad23)*%
X3175000Y-12500000D03*
%TO.P,U3,22,IO14*%
%TO.N,DEBUG*%
X1905000Y-12500000D03*
%TO.P,U3,21,IO13*%
%TO.N,IR_LED_DRIVE*%
X635000Y-12500000D03*
%TO.P,U3,20,IO12*%
%TO.N,LED_STATUS*%
X-635000Y-12500000D03*
%TO.P,U3,19,IO11*%
%TO.N,unconnected-(U3-IO11-Pad19)*%
X-1905000Y-12500000D03*
%TO.P,U3,18,IO10*%
%TO.N,unconnected-(U3-IO10-Pad18)*%
X-3175000Y-12500000D03*
%TO.P,U3,17,IO9*%
%TO.N,unconnected-(U3-IO9-Pad17)*%
X-4445000Y-12500000D03*
%TO.P,U3,16,IO46*%
%TO.N,unconnected-(U3-IO46-Pad16)*%
X-5715000Y-12500000D03*
%TO.P,U3,15,IO3*%
%TO.N,unconnected-(U3-IO3-Pad15)*%
X-6985000Y-12500000D03*
D28*
%TO.P,U3,14,USB_D+*%
%TO.N,D+*%
X-8750000Y-11250000D03*
%TO.P,U3,13,USB_D-*%
%TO.N,D-*%
X-8750000Y-9980000D03*
%TO.P,U3,12,IO8*%
%TO.N,unconnected-(U3-IO8-Pad12)*%
X-8750000Y-8710000D03*
%TO.P,U3,11,IO18*%
%TO.N,unconnected-(U3-IO18-Pad11)*%
X-8750000Y-7440000D03*
%TO.P,U3,10,IO17*%
%TO.N,unconnected-(U3-IO17-Pad10)*%
X-8750000Y-6170000D03*
%TO.P,U3,9,IO16*%
%TO.N,unconnected-(U3-IO16-Pad9)*%
X-8750000Y-4900000D03*
%TO.P,U3,8,IO15*%
%TO.N,unconnected-(U3-IO15-Pad8)*%
X-8750000Y-3630000D03*
%TO.P,U3,7,IO7*%
%TO.N,unconnected-(U3-IO7-Pad7)*%
X-8750000Y-2360000D03*
%TO.P,U3,6,IO6*%
%TO.N,unconnected-(U3-IO6-Pad6)*%
X-8750000Y-1090000D03*
%TO.P,U3,5,IO5*%
%TO.N,unconnected-(U3-IO5-Pad5)*%
X-8750000Y180000D03*
%TO.P,U3,4,IO4*%
%TO.N,unconnected-(U3-IO4-Pad4)*%
X-8750000Y1450000D03*
%TO.P,U3,3,EN*%
%TO.N,EN*%
X-8750000Y2720000D03*
%TO.P,U3,2,3V3*%
%TO.N,+3V3*%
X-8750000Y3990000D03*
%TO.P,U3,1,GND*%
%TO.N,GND*%
X-8750000Y5260000D03*
%TD*%
D30*
%TO.P,SW2,1,1*%
%TO.N,GND*%
X23000000Y-24180000D03*
%TO.P,SW2,2,2*%
%TO.N,BOOT*%
X23000000Y-19820000D03*
%TD*%
D31*
%TO.P,TP4,1,1*%
%TO.N,IR_LED_DRIVE*%
X-15000000Y-39000000D03*
%TD*%
D32*
%TO.P,C7,2*%
%TO.N,GND*%
X23775000Y-18000000D03*
%TO.P,C7,1*%
%TO.N,BOOT*%
X22225000Y-18000000D03*
%TD*%
D21*
%TO.P,C1,2*%
%TO.N,GND*%
X-20750000Y-21000000D03*
%TO.P,C1,1*%
%TO.N,VDC*%
X-18850000Y-21000000D03*
%TD*%
D31*
%TO.P,TP2,1,1*%
%TO.N,VDC*%
X-500000Y-25500000D03*
%TD*%
D33*
%TO.P,D6,2,A*%
%TO.N,Net-(D6-A)*%
X1270000Y-40000000D03*
%TO.P,D6,1,K*%
%TO.N,Net-(D6-K)*%
X-1270000Y-40000000D03*
%TD*%
D31*
%TO.P,TP1,1,1*%
%TO.N,+3V3*%
X4000000Y-25500000D03*
%TD*%
D34*
%TO.P,J2,4,Pin_4*%
%TO.N,GND*%
X23250000Y-9290000D03*
%TO.P,J2,3,Pin_3*%
%TO.N,RX*%
X23250000Y-6750000D03*
%TO.P,J2,2,Pin_2*%
%TO.N,TX*%
X23250000Y-4210000D03*
D35*
%TO.P,J2,1,Pin_1*%
%TO.N,+3V3*%
X23250000Y-1670000D03*
%TD*%
D19*
%TO.P,D5,2,A*%
%TO.N,Net-(D5-A)*%
X10937500Y-27587500D03*
%TO.P,D5,1,K*%
%TO.N,GND*%
X9062500Y-27587500D03*
%TD*%
D36*
%TO.P,C6,2*%
%TO.N,GND*%
X-20000000Y-1525000D03*
%TO.P,C6,1*%
%TO.N,EN*%
X-20000000Y25000D03*
%TD*%
D31*
%TO.P,TP3,1,1*%
%TO.N,DEBUG*%
X10000000Y-23337500D03*
%TD*%
D19*
%TO.P,D7,2,A*%
%TO.N,Net-(D7-A)*%
X937500Y-35750000D03*
%TO.P,D7,1,K*%
%TO.N,Net-(D6-K)*%
X-937500Y-35750000D03*
%TD*%
D17*
%TO.P,R9,2*%
%TO.N,VDC*%
X2825000Y-34000000D03*
%TO.P,R9,1*%
%TO.N,Net-(D7-A)*%
X1175000Y-34000000D03*
%TD*%
D37*
%TO.P,R6,2*%
%TO.N,+3V3*%
X-18250000Y-1575000D03*
%TO.P,R6,1*%
%TO.N,EN*%
X-18250000Y75000D03*
%TD*%
D38*
%TO.P,C5,2*%
%TO.N,GND*%
X-10750000Y5000000D03*
%TO.P,C5,1*%
%TO.N,+3V3*%
X-10750000Y4040000D03*
%TD*%
D21*
%TO.P,C4,2*%
%TO.N,GND*%
X-15950000Y3500000D03*
%TO.P,C4,1*%
%TO.N,+3V3*%
X-14050000Y3500000D03*
%TD*%
D37*
%TO.P,R7,2*%
%TO.N,+3V3*%
X20000000Y-20825000D03*
%TO.P,R7,1*%
%TO.N,BOOT*%
X20000000Y-19175000D03*
%TD*%
D18*
%TO.P,R5,2*%
%TO.N,DEBUG*%
X9175000Y-25587500D03*
%TO.P,R5,1*%
%TO.N,Net-(D5-A)*%
X10825000Y-25587500D03*
%TD*%
D39*
%TO.P,U2,4,DIN*%
%TO.N,LED_STATUS*%
X-16000000Y-32000000D03*
%TO.P,U2,3,GND*%
%TO.N,GND*%
X-16000000Y-35000000D03*
%TO.P,U2,2,DOU*%
%TO.N,unconnected-(U2-DOU-Pad2)*%
X-21000000Y-35000000D03*
%TO.P,U2,1,VDD*%
%TO.N,VDC*%
X-21000000Y-32000000D03*
%TD*%
D30*
%TO.P,SW1,2,2*%
%TO.N,EN*%
X-22750000Y-70000D03*
%TO.P,SW1,1,1*%
%TO.N,GND*%
X-22750000Y-4430000D03*
%TD*%
D40*
%TO.P,D4,1,D-*%
%TO.N,D-*%
X-13030000Y-10250000D03*
X-14470000Y-10250000D03*
%TO.P,D4,2,D+*%
%TO.N,D+*%
X-13030000Y-11250000D03*
X-14470000Y-11250000D03*
%TO.P,D4,3,GND*%
%TO.N,GND*%
X-14470000Y-10750000D03*
%TO.P,D4,4,VCC*%
%TO.N,/V_BUS*%
X-13030000Y-10750000D03*
%TD*%
D41*
%TO.N,GND*%
X-7750000Y-17750000D03*
X-7750000Y-18750000D03*
X-8750000Y-17750000D03*
X-8750000Y-18750000D03*
D42*
%TO.N,+3V3*%
X-8000000Y-14250000D03*
D41*
X-13750000Y-1750000D03*
%TO.N,GND*%
X-17000000Y-37000000D03*
X-16000000Y-37000000D03*
X-15000000Y-37000000D03*
X-11250000Y-40500000D03*
X-11250000Y-41500000D03*
X-11250000Y-42500000D03*
X-1500000Y-32000000D03*
X-2750000Y-32000000D03*
X7500000Y-30000000D03*
X8750000Y-30000000D03*
X7500000Y-31250000D03*
X8750000Y-31250000D03*
X5750000Y-14750000D03*
X7000000Y-14750000D03*
X5750000Y-16000000D03*
X7000000Y-16000000D03*
X17000000Y-24750000D03*
X18250000Y-24750000D03*
X17000000Y-26000000D03*
X18250000Y-26000000D03*
X20250000Y-12000000D03*
X21500000Y-12000000D03*
X20250000Y-13250000D03*
X21500000Y-13250000D03*
X-14250000Y-6750000D03*
X-15500000Y-6750000D03*
X-13000000Y-6750000D03*
X-13000000Y-5750000D03*
X-14250000Y-5750000D03*
X-15500000Y-5750000D03*
X-18000000Y-16750000D03*
X-19250000Y-16750000D03*
X-23000000Y-21750000D03*
X-23000000Y-19250000D03*
X-23000000Y-18000000D03*
X-23000000Y-20500000D03*
X-21750000Y-16750000D03*
X-20500000Y-16750000D03*
X-23000000Y-16750000D03*
X-23000000Y-8750000D03*
X-20500000Y-8750000D03*
X-21750000Y-8750000D03*
X-23000000Y-9750000D03*
X-20500000Y-9750000D03*
X-21750000Y-9750000D03*
X-23000000Y-12750000D03*
X-20500000Y-12750000D03*
X-21750000Y-12750000D03*
X-23000000Y-11750000D03*
X-20500000Y-11750000D03*
X-21750000Y-11750000D03*
X-23000000Y-10750000D03*
X-21750000Y-10750000D03*
X-20500000Y-10750000D03*
X-5000000Y-9000000D03*
X-2000000Y-9000000D03*
X3000000Y-9000000D03*
X5000000Y-9000000D03*
X-4101377Y-9005221D03*
X4000000Y-9000000D03*
X1000000Y-9000000D03*
X2000000Y-9000000D03*
X-1000000Y-9000000D03*
X0Y-9000000D03*
X-3000000Y-9000000D03*
X6000000Y-8000000D03*
X6000000Y-6000000D03*
X6000000Y-9000000D03*
X6000000Y-3000000D03*
X6000000Y-5000000D03*
X5994779Y101377D03*
X6000000Y2000000D03*
X6000000Y-4000000D03*
X6000000Y-2000000D03*
X6000000Y-7000000D03*
X6000000Y1000000D03*
X6000000Y-1000000D03*
X-6000000Y1000000D03*
X-6000000Y2000000D03*
X-6000000Y-2000000D03*
X-6000000Y-7000000D03*
X-6000000Y-9000000D03*
X-6005221Y101377D03*
X-6000000Y-8000000D03*
X-6000000Y-5000000D03*
X-6000000Y-6000000D03*
X-6000000Y-3000000D03*
X-6000000Y-4000000D03*
X-6000000Y-1000000D03*
X-6000000Y3000000D03*
X-5000000Y3000000D03*
X-2000000Y3000000D03*
X-4101377Y2994779D03*
X-3000000Y3000000D03*
X-1000000Y3000000D03*
X6000000Y3000000D03*
X5000000Y3000000D03*
X4000000Y3000000D03*
X3000000Y3000000D03*
X2000000Y3000000D03*
X1000000Y3000000D03*
X0Y3000000D03*
X-13000000Y-17750000D03*
X-12000000Y-17750000D03*
X-12000000Y-18750000D03*
X-13000000Y-18750000D03*
%TO.N,+3V3*%
X20000000Y-21750000D03*
%TO.N,GND*%
X10500000Y2750000D03*
X11750000Y2750000D03*
X10500000Y4000000D03*
X11750000Y4000000D03*
X11750000Y5250000D03*
X10500000Y5250000D03*
X-12500000Y5250000D03*
X-13750000Y5250000D03*
X-15000000Y5250000D03*
X-17500000Y5250000D03*
%TO.N,+3V3*%
X-11750000Y3000000D03*
X-12750000Y3000000D03*
X-11750000Y4000000D03*
X-12750000Y4000000D03*
X-9250000Y-23500000D03*
X-9250000Y-24250000D03*
X-10500000Y-25000000D03*
%TO.N,VDC*%
X4500000Y-35750000D03*
X5500000Y-35750000D03*
X6500000Y-35750000D03*
X4500000Y-34750000D03*
X5500000Y-34750000D03*
X6500000Y-34750000D03*
X6500000Y-33750000D03*
X5500000Y-33750000D03*
X4500000Y-33750000D03*
X-17500000Y-21000000D03*
X-16500000Y-21000000D03*
X-17500000Y-20250000D03*
X-16500000Y-20250000D03*
X-17500000Y-19500000D03*
X-16500000Y-19500000D03*
X-16500000Y-18750000D03*
X-17500000Y-18750000D03*
%TO.N,+3V3*%
X-9250000Y-25000000D03*
X-10500000Y-24250000D03*
X-10500000Y-23500000D03*
X-10500000Y-22750000D03*
X-9250000Y-22750000D03*
%TO.N,/V_BUS*%
X-16400000Y-13200000D03*
X-16400000Y-8300000D03*
%TO.N,GND*%
X-12500000Y-12500000D03*
X-12500000Y-9000000D03*
X-4000000Y-42500000D03*
X-8000000Y-40500000D03*
X-8000000Y-41500000D03*
X-8000000Y-42500000D03*
X-7000000Y-42500000D03*
X-5967067Y-42494018D03*
X-5000000Y-42500000D03*
%TO.N,/V_BUS*%
X-12000000Y-10750000D03*
%TO.N,GND*%
X-15500000Y-10750000D03*
X-17500000Y4000000D03*
X-16250000Y5250000D03*
X-17500000Y2750000D03*
%TD*%
D43*
%TO.N,/V_BUS*%
X-13030000Y-10750000D02*
X-12000000Y-10750000D01*
D44*
%TO.N,+3V3*%
X-8000000Y-14250000D02*
X-10500000Y-16750000D01*
X-10500000Y-16750000D02*
X-10500000Y-22750000D01*
D45*
%TO.N,D-*%
X-17537500Y-11000000D02*
X-18339500Y-11000000D01*
X-18339500Y-10000000D02*
X-17537500Y-10000000D01*
X-18339500Y-11000000D02*
X-18600000Y-10739500D01*
X-18600000Y-10739500D02*
X-18600000Y-10260500D01*
X-18600000Y-10260500D02*
X-18339500Y-10000000D01*
X-17537500Y-10000000D02*
X-17517500Y-9980000D01*
X-14470000Y-10250000D02*
X-13030000Y-10250000D01*
%TO.N,D+*%
X-14470000Y-11250000D02*
X-13030000Y-11250000D01*
D43*
%TO.N,+3V3*%
X-13925000Y-1575000D02*
X-13750000Y-1750000D01*
X-18250000Y-1575000D02*
X-13925000Y-1575000D01*
%TO.N,RX*%
X23250000Y-6750000D02*
X16320000Y180000D01*
X16320000Y180000D02*
X8750000Y180000D01*
%TO.N,TX*%
X23250000Y-4210000D02*
X17590000Y1450000D01*
X17590000Y1450000D02*
X8750000Y1450000D01*
D46*
%TO.N,VDC*%
X-21000000Y-28000000D02*
X-17500000Y-24500000D01*
X-17500000Y-24500000D02*
X-17500000Y-21000000D01*
X-21000000Y-32000000D02*
X-21000000Y-28000000D01*
D43*
%TO.N,+3V3*%
X20000000Y-20825000D02*
X20000000Y-21750000D01*
%TO.N,IR_LED_DRIVE*%
X-11075000Y-39000000D02*
X-11075000Y-33075000D01*
X-11075000Y-33075000D02*
X635000Y-21365000D01*
X635000Y-21365000D02*
X635000Y-12500000D01*
%TO.N,LED_STATUS*%
X-16000000Y-32000000D02*
X-13500000Y-32000000D01*
X-13500000Y-32000000D02*
X-635000Y-19135000D01*
X-635000Y-19135000D02*
X-635000Y-12500000D01*
%TO.N,DEBUG*%
X10000000Y-23337500D02*
X10000000Y-22500000D01*
X10000000Y-22500000D02*
X1905000Y-14405000D01*
%TO.N,Net-(D2-A)*%
X3062500Y-29750000D02*
X3062500Y-27887500D01*
X3062500Y-27887500D02*
X2925000Y-27750000D01*
%TO.N,Net-(D3-A)*%
X437500Y-29750000D02*
X437500Y-27887500D01*
X437500Y-27887500D02*
X575000Y-27750000D01*
%TO.N,VDC*%
X-1075000Y-27750000D02*
X-1075000Y-26075000D01*
X-1075000Y-26075000D02*
X-500000Y-25500000D01*
%TO.N,+3V3*%
X4575000Y-27750000D02*
X4575000Y-26075000D01*
X4575000Y-26075000D02*
X4000000Y-25500000D01*
%TO.N,DEBUG*%
X1905000Y-14405000D02*
X1905000Y-12500000D01*
%TO.N,Net-(D5-A)*%
X10825000Y-25587500D02*
X10825000Y-27475000D01*
X10825000Y-27475000D02*
X10937500Y-27587500D01*
%TO.N,DEBUG*%
X9175000Y-25587500D02*
X9175000Y-24162500D01*
X9175000Y-24162500D02*
X10000000Y-23337500D01*
%TO.N,IR_LED_DRIVE*%
X-11075000Y-39000000D02*
X-15000000Y-39000000D01*
%TO.N,VDC*%
X-12300000Y-20000000D02*
X-12300000Y-21050000D01*
X-12300000Y-21050000D02*
X-12750000Y-21500000D01*
X-12750000Y-21500000D02*
X-13750000Y-21500000D01*
X-13750000Y-21500000D02*
X-14200000Y-21050000D01*
X-14200000Y-21050000D02*
X-14200000Y-20000000D01*
D46*
%TO.N,/V_BUS*%
X-16400000Y-13200000D02*
X-16400000Y-13460000D01*
X-16400000Y-13460000D02*
X-14500000Y-15360000D01*
X-16400000Y-13200000D02*
X-17570000Y-13200000D01*
X-16450000Y-8350000D02*
X-16400000Y-8300000D01*
X-17620000Y-8350000D02*
X-16450000Y-8350000D01*
X-17570000Y-13200000D02*
X-17620000Y-13150000D01*
D43*
%TO.N,Net-(Q1-G)*%
X-9500000Y-40600000D02*
X-9500000Y-39075000D01*
X-9500000Y-39075000D02*
X-9425000Y-39000000D01*
X-9425000Y-39000000D02*
X-6237500Y-39000000D01*
X-6237500Y-39000000D02*
X-6187500Y-39050000D01*
%TO.N,Net-(D7-A)*%
X937500Y-35750000D02*
X937500Y-34237500D01*
X937500Y-34237500D02*
X1175000Y-34000000D01*
%TO.N,/CC2*%
X-14510000Y-12500000D02*
X-17620000Y-12500000D01*
%TO.N,/CC1*%
X-15500000Y-9000000D02*
X-16000000Y-9500000D01*
X-14510000Y-9000000D02*
X-15500000Y-9000000D01*
X-16000000Y-9500000D02*
X-17620000Y-9500000D01*
%TO.N,BOOT*%
X20000000Y-19175000D02*
X16675000Y-19175000D01*
X16675000Y-19175000D02*
X8750000Y-11250000D01*
D47*
%TO.N,Net-(D6-A)*%
X1270000Y-40000000D02*
X4500000Y-40000000D01*
D43*
%TO.N,Net-(D6-K)*%
X-937500Y-35750000D02*
X-937500Y-39667500D01*
X-937500Y-39667500D02*
X-1270000Y-40000000D01*
D47*
X-1270000Y-40000000D02*
X-4312500Y-40000000D01*
D43*
%TO.N,EN*%
X-18250000Y75000D02*
X-12675000Y75000D01*
X-10030000Y2720000D02*
X-8750000Y2720000D01*
X-12675000Y75000D02*
X-10030000Y2720000D01*
X-20000000Y25000D02*
X-18300000Y25000D01*
X-18300000Y25000D02*
X-18250000Y75000D01*
X-22750000Y-70000D02*
X-20095000Y-70000D01*
X-20095000Y-70000D02*
X-20000000Y25000D01*
D45*
%TO.N,D+*%
X-13030000Y-11250000D02*
X-12780000Y-11500000D01*
X-12780000Y-11500000D02*
X-9000000Y-11500000D01*
%TO.N,D-*%
X-13030000Y-10250000D02*
X-12760000Y-9980000D01*
X-12760000Y-9980000D02*
X-8750000Y-9980000D01*
%TO.N,D+*%
X-14470000Y-11250000D02*
X-14720000Y-11500000D01*
X-14720000Y-11500000D02*
X-16835500Y-11500000D01*
%TO.N,D-*%
X-14470000Y-10250000D02*
X-14720000Y-10000000D01*
X-14720000Y-10000000D02*
X-17620000Y-10000000D01*
D43*
%TO.N,GND*%
X-14470000Y-10750000D02*
X-15500000Y-10750000D01*
%TO.N,BOOT*%
X22225000Y-18000000D02*
X22225000Y-19045000D01*
X22225000Y-19045000D02*
X22355000Y-19175000D01*
X20000000Y-19175000D02*
X22355000Y-19175000D01*
X22355000Y-19175000D02*
X23000000Y-19820000D01*
D45*
%TO.N,D+*%
X-17537500Y-11500000D02*
X-16835500Y-11500000D01*
X-16735500Y-10500000D02*
X-17537500Y-10500000D01*
X-16686500Y-10549000D02*
X-16735500Y-10500000D01*
X-16835500Y-11500000D02*
X-16686500Y-11351000D01*
X-16686500Y-11351000D02*
X-16686500Y-10549000D01*
X-8750000Y-11250000D02*
X-9000000Y-11500000D01*
%TD*%
%TA.AperFunction,Conductor*%
%TO.N,VDC*%
G36*
X-13806961Y-18019685D02*
G01*
X-13761206Y-18072489D01*
X-13750000Y-18124000D01*
X-13750000Y-19264588D01*
X-13769685Y-19331627D01*
X-13774230Y-19338221D01*
X-13812260Y-19389750D01*
X-13812263Y-19389756D01*
X-13857614Y-19519358D01*
X-13857614Y-19519360D01*
X-13860500Y-19550132D01*
X-13860500Y-20449867D01*
X-13857614Y-20480639D01*
X-13857614Y-20480641D01*
X-13834938Y-20545442D01*
X-13812263Y-20610245D01*
X-13774229Y-20661778D01*
X-13750259Y-20727406D01*
X-13750000Y-20735411D01*
X-13750000Y-21626000D01*
X-13752550Y-21634685D01*
X-13751262Y-21643647D01*
X-13762240Y-21667687D01*
X-13769685Y-21693039D01*
X-13776525Y-21698966D01*
X-13780287Y-21707203D01*
X-13802521Y-21721492D01*
X-13822489Y-21738794D01*
X-13833003Y-21741081D01*
X-13839065Y-21744977D01*
X-13874000Y-21750000D01*
X-13979004Y-21750000D01*
X-13987239Y-21749614D01*
X-13987240Y-21749635D01*
X-13990125Y-21749500D01*
X-13990136Y-21749500D01*
X-14409864Y-21749500D01*
X-14409875Y-21749500D01*
X-14412760Y-21749635D01*
X-14412760Y-21749614D01*
X-14420996Y-21750000D01*
X-19626000Y-21750000D01*
X-19693039Y-21730315D01*
X-19738794Y-21677511D01*
X-19750000Y-21626000D01*
X-19750000Y-18124000D01*
X-19730315Y-18056961D01*
X-19677511Y-18011206D01*
X-19626000Y-18000000D01*
X-13874000Y-18000000D01*
X-13806961Y-18019685D01*
G37*
%TD.AperFunction*%
%TD*%
%TA.AperFunction,Conductor*%
%TO.N,+3V3*%
G36*
X-8306961Y-22019685D02*
G01*
X-8261206Y-22072489D01*
X-8250000Y-22124000D01*
X-8250000Y-25876000D01*
X-8269685Y-25943039D01*
X-8322489Y-25988794D01*
X-8374000Y-26000000D01*
X-12876000Y-26000000D01*
X-12943039Y-25980315D01*
X-12988794Y-25927511D01*
X-13000000Y-25876000D01*
X-13000000Y-22124000D01*
X-12980315Y-22056961D01*
X-12927511Y-22011206D01*
X-12876000Y-22000000D01*
X-8374000Y-22000000D01*
X-8306961Y-22019685D01*
G37*
%TD.AperFunction*%
%TD*%
%TA.AperFunction,Conductor*%
%TO.N,VDC*%
G36*
X7693039Y-33019685D02*
G01*
X7738794Y-33072489D01*
X7750000Y-33124000D01*
X7750000Y-38126000D01*
X7730315Y-38193039D01*
X7677511Y-38238794D01*
X7626000Y-38250000D01*
X2124000Y-38250000D01*
X2056961Y-38230315D01*
X2011206Y-38177511D01*
X2000000Y-38126000D01*
X2000000Y-33124000D01*
X2019685Y-33056961D01*
X2072489Y-33011206D01*
X2124000Y-33000000D01*
X7626000Y-33000000D01*
X7693039Y-33019685D01*
G37*
%TD.AperFunction*%
%TD*%
%TA.AperFunction,Conductor*%
%TO.N,+3V3*%
G36*
X-11147789Y4480315D02*
G01*
X-11141199Y4475773D01*
X-11128157Y4466148D01*
X-11128155Y4466147D01*
X-11002826Y4422291D01*
X-11002814Y4422289D01*
X-10973070Y4419500D01*
X-10973066Y4419500D01*
X-10526930Y4419500D01*
X-10497185Y4422289D01*
X-10497173Y4422291D01*
X-10371844Y4466147D01*
X-10358806Y4475770D01*
X-10293177Y4499741D01*
X-10285172Y4500000D01*
X-8124000Y4500000D01*
X-8056961Y4480315D01*
X-8011206Y4427511D01*
X-8000000Y4376000D01*
X-8000000Y3624000D01*
X-8019685Y3556961D01*
X-8072489Y3511206D01*
X-8124000Y3500000D01*
X-11250000Y3500000D01*
X-11250000Y2624000D01*
X-11269685Y2556961D01*
X-11322489Y2511206D01*
X-11374000Y2500000D01*
X-14626000Y2500000D01*
X-14693039Y2519685D01*
X-14738794Y2572489D01*
X-14750000Y2624000D01*
X-14750000Y4376000D01*
X-14730315Y4443039D01*
X-14677511Y4488794D01*
X-14626000Y4500000D01*
X-11214828Y4500000D01*
X-11147789Y4480315D01*
G37*
%TD.AperFunction*%
%TD*%
%TA.AperFunction,Conductor*%
%TO.N,GND*%
G36*
X22506498Y5999074D02*
G01*
X22531470Y5997437D01*
X22747975Y5983246D01*
X22773781Y5979848D01*
X23004712Y5933914D01*
X23029857Y5927177D01*
X23252825Y5851489D01*
X23276873Y5841528D01*
X23488052Y5737386D01*
X23510596Y5724370D01*
X23706372Y5593556D01*
X23727023Y5577710D01*
X23904053Y5422459D01*
X23922459Y5404053D01*
X24077710Y5227023D01*
X24093556Y5206372D01*
X24224370Y5010596D01*
X24237386Y4988052D01*
X24341528Y4776873D01*
X24351489Y4752825D01*
X24427177Y4529857D01*
X24433914Y4504712D01*
X24479848Y4273781D01*
X24483246Y4247975D01*
X24499074Y4006500D01*
X24499500Y3993484D01*
X24499500Y-413360D01*
X24479793Y-499703D01*
X24424574Y-568944D01*
X24344782Y-607371D01*
X24256218Y-607371D01*
X24216395Y-590218D01*
X24215850Y-591535D01*
X24197742Y-584034D01*
X24154033Y-575340D01*
X24124674Y-569500D01*
X22375326Y-569500D01*
X22346099Y-575313D01*
X22302257Y-584034D01*
X22219398Y-639398D01*
X22164034Y-722257D01*
X22149500Y-795328D01*
X22149500Y-2062679D01*
X22129793Y-2149022D01*
X22074574Y-2218263D01*
X21994782Y-2256690D01*
X21906218Y-2256690D01*
X21826426Y-2218263D01*
X21809786Y-2203393D01*
X19826893Y-220500D01*
X17835913Y1770480D01*
X17744588Y1823207D01*
X17642727Y1850500D01*
X17642726Y1850500D01*
X9928568Y1850500D01*
X9842225Y1870207D01*
X9772984Y1925426D01*
X9742305Y1979449D01*
X9736572Y1994692D01*
X9735966Y1997740D01*
X9734730Y1999588D01*
X9728954Y2014949D01*
X9723412Y2055651D01*
X9716530Y2096157D01*
X9717386Y2099909D01*
X9717006Y2102703D01*
X9720446Y2113315D01*
X9731365Y2161155D01*
X9735962Y2172255D01*
X9735966Y2172260D01*
X9750500Y2245326D01*
X9750500Y3194674D01*
X9735966Y3267740D01*
X9735961Y3267746D01*
X9731365Y3278845D01*
X9716530Y3366157D01*
X9731365Y3431155D01*
X9735962Y3442255D01*
X9735966Y3442260D01*
X9750500Y3515326D01*
X9750500Y4106286D01*
X21149500Y4106286D01*
X21149500Y3893713D01*
X21182752Y3683765D01*
X21182756Y3683748D01*
X21248441Y3481592D01*
X21248445Y3481581D01*
X21344947Y3292187D01*
X21469893Y3120210D01*
X21620210Y2969893D01*
X21792187Y2844947D01*
X21981581Y2748445D01*
X21981592Y2748441D01*
X22183748Y2682756D01*
X22183765Y2682752D01*
X22393713Y2649500D01*
X22606287Y2649500D01*
X22816234Y2682752D01*
X22816241Y2682753D01*
X22816243Y2682754D01*
X22816244Y2682754D01*
X22816251Y2682756D01*
X23018407Y2748441D01*
X23018418Y2748445D01*
X23207812Y2844947D01*
X23207816Y2844949D01*
X23298071Y2910523D01*
X23379789Y2969893D01*
X23530106Y3120210D01*
X23584206Y3194674D01*
X23655051Y3292184D01*
X23731518Y3442259D01*
X23751554Y3481581D01*
X23751558Y3481592D01*
X23769865Y3537933D01*
X23817246Y3683757D01*
X23850500Y3893713D01*
X23850500Y4106287D01*
X23817246Y4316243D01*
X23751557Y4518412D01*
X23655051Y4707816D01*
X23530104Y4879792D01*
X23379792Y5030104D01*
X23207816Y5155051D01*
X23018412Y5251557D01*
X22816243Y5317246D01*
X22606287Y5350500D01*
X22393713Y5350500D01*
X22183757Y5317246D01*
X21981588Y5251557D01*
X21981584Y5251555D01*
X21981581Y5251554D01*
X21892907Y5206372D01*
X21792184Y5155051D01*
X21684424Y5076759D01*
X21620210Y5030106D01*
X21469893Y4879789D01*
X21415920Y4805500D01*
X21344949Y4707816D01*
X21344947Y4707812D01*
X21248445Y4518418D01*
X21248441Y4518407D01*
X21182756Y4316251D01*
X21182752Y4316234D01*
X21149500Y4106286D01*
X9750500Y4106286D01*
X9750500Y4464674D01*
X9735966Y4537740D01*
X9680601Y4620601D01*
X9670171Y4627570D01*
X9597742Y4675965D01*
X9597741Y4675965D01*
X9597740Y4675966D01*
X9524674Y4690500D01*
X7975326Y4690500D01*
X7902260Y4675966D01*
X7902259Y4675965D01*
X7902257Y4675965D01*
X7819398Y4620601D01*
X7764034Y4537742D01*
X7760189Y4518412D01*
X7749500Y4464674D01*
X7749500Y3515326D01*
X7758338Y3470894D01*
X7764034Y3442259D01*
X7768636Y3431150D01*
X7783469Y3343837D01*
X7768636Y3278850D01*
X7764034Y3267740D01*
X7749500Y3194674D01*
X7749500Y2245326D01*
X7755992Y2212688D01*
X7764034Y2172259D01*
X7768636Y2161150D01*
X7783469Y2073837D01*
X7768636Y2008850D01*
X7764034Y1997740D01*
X7749500Y1924674D01*
X7749500Y1924671D01*
X7749500Y975328D01*
X7764034Y902259D01*
X7768636Y891150D01*
X7783469Y803837D01*
X7768636Y738850D01*
X7764034Y727740D01*
X7749500Y654674D01*
X7749500Y-294674D01*
X7755684Y-325763D01*
X7764034Y-367740D01*
X7768636Y-378850D01*
X7783469Y-466163D01*
X7768636Y-531150D01*
X7764034Y-542259D01*
X7760074Y-562167D01*
X7749500Y-615326D01*
X7749500Y-1564674D01*
X7756512Y-1599926D01*
X7764034Y-1637740D01*
X7768636Y-1648850D01*
X7783469Y-1736163D01*
X7768636Y-1801150D01*
X7764034Y-1812259D01*
X7764034Y-1812260D01*
X7749500Y-1885326D01*
X7749500Y-2834674D01*
X7764033Y-2907736D01*
X7764034Y-2907740D01*
X7768636Y-2918850D01*
X7783469Y-3006163D01*
X7768636Y-3071150D01*
X7764034Y-3082259D01*
X7764034Y-3082260D01*
X7749500Y-3155326D01*
X7749500Y-4104674D01*
X7753223Y-4123389D01*
X7764034Y-4177740D01*
X7768636Y-4188850D01*
X7783469Y-4276163D01*
X7768636Y-4341150D01*
X7764034Y-4352259D01*
X7764034Y-4352260D01*
X7749500Y-4425326D01*
X7749500Y-5374674D01*
X7752015Y-5387317D01*
X7764034Y-5447740D01*
X7768636Y-5458850D01*
X7783469Y-5546163D01*
X7768636Y-5611150D01*
X7764034Y-5622259D01*
X7764034Y-5622260D01*
X7749500Y-5695326D01*
X7749500Y-6644674D01*
X7753223Y-6663389D01*
X7764034Y-6717740D01*
X7768636Y-6728850D01*
X7783469Y-6816163D01*
X7768636Y-6881150D01*
X7764034Y-6892259D01*
X7764034Y-6892260D01*
X7749500Y-6965326D01*
X7749500Y-7914674D01*
X7750541Y-7919906D01*
X7764034Y-7987740D01*
X7768636Y-7998850D01*
X7783469Y-8086163D01*
X7768636Y-8151150D01*
X7764034Y-8162259D01*
X7764034Y-8162260D01*
X7749500Y-8235326D01*
X7749500Y-9184674D01*
X7759567Y-9235282D01*
X7764034Y-9257740D01*
X7768636Y-9268850D01*
X7783469Y-9356163D01*
X7768636Y-9421150D01*
X7764034Y-9432259D01*
X7764034Y-9432260D01*
X7749500Y-9505326D01*
X7749500Y-10454674D01*
X7755576Y-10485218D01*
X7764034Y-10527740D01*
X7768636Y-10538850D01*
X7783469Y-10626163D01*
X7768636Y-10691150D01*
X7764034Y-10702259D01*
X7749500Y-10775328D01*
X7749500Y-11314668D01*
X7729793Y-11401011D01*
X7674574Y-11470252D01*
X7594782Y-11508679D01*
X7511678Y-11509844D01*
X7459674Y-11499500D01*
X6510326Y-11499500D01*
X6470812Y-11507360D01*
X6437259Y-11514034D01*
X6426150Y-11518636D01*
X6338837Y-11533469D01*
X6273850Y-11518636D01*
X6262740Y-11514034D01*
X6189674Y-11499500D01*
X5240326Y-11499500D01*
X5200812Y-11507360D01*
X5167259Y-11514034D01*
X5156150Y-11518636D01*
X5068837Y-11533469D01*
X5003850Y-11518636D01*
X4992740Y-11514034D01*
X4919674Y-11499500D01*
X3970326Y-11499500D01*
X3930812Y-11507360D01*
X3897259Y-11514034D01*
X3886150Y-11518636D01*
X3798837Y-11533469D01*
X3733850Y-11518636D01*
X3722740Y-11514034D01*
X3649674Y-11499500D01*
X2700326Y-11499500D01*
X2660812Y-11507360D01*
X2627259Y-11514034D01*
X2616150Y-11518636D01*
X2528837Y-11533469D01*
X2463850Y-11518636D01*
X2452740Y-11514034D01*
X2379674Y-11499500D01*
X1430326Y-11499500D01*
X1390812Y-11507360D01*
X1357259Y-11514034D01*
X1346150Y-11518636D01*
X1258837Y-11533469D01*
X1193850Y-11518636D01*
X1182740Y-11514034D01*
X1109674Y-11499500D01*
X160326Y-11499500D01*
X120812Y-11507360D01*
X87259Y-11514034D01*
X76150Y-11518636D01*
X-11163Y-11533469D01*
X-76150Y-11518636D01*
X-87259Y-11514034D01*
X-120812Y-11507360D01*
X-160326Y-11499500D01*
X-1109674Y-11499500D01*
X-1182740Y-11514034D01*
X-1193850Y-11518636D01*
X-1281163Y-11533469D01*
X-1346150Y-11518636D01*
X-1357259Y-11514034D01*
X-1390812Y-11507360D01*
X-1430326Y-11499500D01*
X-2379674Y-11499500D01*
X-2452740Y-11514034D01*
X-2463850Y-11518636D01*
X-2551163Y-11533469D01*
X-2616150Y-11518636D01*
X-2627259Y-11514034D01*
X-2660812Y-11507360D01*
X-2700326Y-11499500D01*
X-3649674Y-11499500D01*
X-3722740Y-11514034D01*
X-3733850Y-11518636D01*
X-3821163Y-11533469D01*
X-3886150Y-11518636D01*
X-3897259Y-11514034D01*
X-3930812Y-11507360D01*
X-3970326Y-11499500D01*
X-4919674Y-11499500D01*
X-4992740Y-11514034D01*
X-5003850Y-11518636D01*
X-5091163Y-11533469D01*
X-5156150Y-11518636D01*
X-5167259Y-11514034D01*
X-5200812Y-11507360D01*
X-5240326Y-11499500D01*
X-6189674Y-11499500D01*
X-6262740Y-11514034D01*
X-6273850Y-11518636D01*
X-6361163Y-11533469D01*
X-6426150Y-11518636D01*
X-6437259Y-11514034D01*
X-6470812Y-11507360D01*
X-6510326Y-11499500D01*
X-7459674Y-11499500D01*
X-7511678Y-11509844D01*
X-7600206Y-11507360D01*
X-7678890Y-11466711D01*
X-7732144Y-11395948D01*
X-7749500Y-11314668D01*
X-7749500Y-10775328D01*
X-7764034Y-10702259D01*
X-7768636Y-10691150D01*
X-7783469Y-10603837D01*
X-7768636Y-10538850D01*
X-7764034Y-10527740D01*
X-7755576Y-10485218D01*
X-7749500Y-10454674D01*
X-7749500Y-9505326D01*
X-7764034Y-9432260D01*
X-7764033Y-9432260D01*
X-7764034Y-9432259D01*
X-7768636Y-9421150D01*
X-7783469Y-9333837D01*
X-7768636Y-9268850D01*
X-7764034Y-9257740D01*
X-7759567Y-9235282D01*
X-7749500Y-9184674D01*
X-7749500Y-8235326D01*
X-7764034Y-8162260D01*
X-7764033Y-8162260D01*
X-7764034Y-8162259D01*
X-7768636Y-8151150D01*
X-7783469Y-8063837D01*
X-7768636Y-7998850D01*
X-7764034Y-7987740D01*
X-7750541Y-7919906D01*
X-7749500Y-7914674D01*
X-7749500Y-6965326D01*
X-7764034Y-6892260D01*
X-7764033Y-6892260D01*
X-7764034Y-6892259D01*
X-7768636Y-6881150D01*
X-7783469Y-6793837D01*
X-7768636Y-6728850D01*
X-7764034Y-6717740D01*
X-7753223Y-6663389D01*
X-7749500Y-6644674D01*
X-7749500Y-5695326D01*
X-7764034Y-5622260D01*
X-7764033Y-5622260D01*
X-7764034Y-5622259D01*
X-7768636Y-5611150D01*
X-7783469Y-5523837D01*
X-7768636Y-5458850D01*
X-7764034Y-5447740D01*
X-7752015Y-5387317D01*
X-7749500Y-5374674D01*
X-7749500Y-4425326D01*
X-7764034Y-4352260D01*
X-7764033Y-4352260D01*
X-7764034Y-4352259D01*
X-7768636Y-4341150D01*
X-7783469Y-4253837D01*
X-7768636Y-4188850D01*
X-7764034Y-4177740D01*
X-7753223Y-4123389D01*
X-7749500Y-4104674D01*
X-7749500Y-3155326D01*
X-7764034Y-3082260D01*
X-7764033Y-3082260D01*
X-7764034Y-3082259D01*
X-7768636Y-3071150D01*
X-7783469Y-2983837D01*
X-7768636Y-2918850D01*
X-7764034Y-2907740D01*
X-7764033Y-2907736D01*
X-7749500Y-2834674D01*
X-7749500Y-1885326D01*
X-7764034Y-1812260D01*
X-7764033Y-1812260D01*
X-7764034Y-1812259D01*
X-7768636Y-1801150D01*
X-7783469Y-1713837D01*
X-7768636Y-1648850D01*
X-7764034Y-1637740D01*
X-7756512Y-1599926D01*
X-7749500Y-1564674D01*
X-7749500Y-615326D01*
X-7760074Y-562167D01*
X-7764034Y-542259D01*
X-7768636Y-531150D01*
X-7783469Y-443837D01*
X-7768636Y-378850D01*
X-7764034Y-367740D01*
X-7755684Y-325763D01*
X-7749500Y-294674D01*
X-7749500Y654674D01*
X-7764034Y727740D01*
X-7768636Y738850D01*
X-7783469Y826163D01*
X-7768636Y891150D01*
X-7764034Y902259D01*
X-7749500Y975328D01*
X-7749500Y1924671D01*
X-7749500Y1924674D01*
X-7764034Y1997740D01*
X-7768636Y2008850D01*
X-7783469Y2096163D01*
X-7768636Y2161150D01*
X-7764034Y2172259D01*
X-7755992Y2212688D01*
X-7749500Y2245326D01*
X-7749500Y3194674D01*
X-7749499Y3194674D01*
X-7767857Y3286964D01*
X-7764168Y3287697D01*
X-7773349Y3341718D01*
X-7752048Y3420763D01*
X-7726563Y3470883D01*
X-7726559Y3470894D01*
X-7706875Y3537929D01*
X-7706874Y3537933D01*
X-7694500Y3623996D01*
X-7694500Y4375994D01*
X-7694500Y4376000D01*
X-7697649Y4405289D01*
X-7701481Y4440939D01*
X-7701482Y4440940D01*
X-7706645Y4464671D01*
X-7712688Y4492452D01*
X-7712688Y4492454D01*
X-7712691Y4492465D01*
X-7712693Y4492475D01*
X-7723643Y4530653D01*
X-7723645Y4530656D01*
X-7780324Y4627570D01*
X-7780326Y4627573D01*
X-7826081Y4680377D01*
X-7826085Y4680381D01*
X-7870809Y4722551D01*
X-7877264Y4725833D01*
X-7970889Y4773439D01*
X-8037928Y4793124D01*
X-8037930Y4793124D01*
X-8037933Y4793125D01*
X-8075442Y4798518D01*
X-8123997Y4805499D01*
X-8123998Y4805500D01*
X-8124000Y4805500D01*
X-10285172Y4805500D01*
X-10295051Y4805340D01*
X-10303056Y4805081D01*
X-10397988Y4786699D01*
X-10434289Y4773440D01*
X-10463608Y4762732D01*
X-10463609Y4762730D01*
X-10463617Y4762728D01*
X-10476735Y4755679D01*
X-10505195Y4743146D01*
X-10522041Y4737251D01*
X-10525148Y4736165D01*
X-10590867Y4725000D01*
X-10909133Y4725000D01*
X-10974857Y4736167D01*
X-10997167Y4743974D01*
X-11017013Y4752145D01*
X-11039235Y4762730D01*
X-11061717Y4773439D01*
X-11128756Y4793124D01*
X-11128759Y4793124D01*
X-11128761Y4793125D01*
X-11166270Y4798518D01*
X-11214825Y4805499D01*
X-11214826Y4805500D01*
X-11214828Y4805500D01*
X-14626000Y4805500D01*
X-14690941Y4798518D01*
X-14742452Y4787312D01*
X-14742468Y4787307D01*
X-14742475Y4787306D01*
X-14780653Y4776356D01*
X-14780654Y4776355D01*
X-14780658Y4776354D01*
X-14877571Y4719675D01*
X-14928013Y4675966D01*
X-14930377Y4673918D01*
X-14930381Y4673914D01*
X-14972551Y4629190D01*
X-14972551Y4629188D01*
X-14972553Y4629187D01*
X-15023439Y4529111D01*
X-15043124Y4462072D01*
X-15055500Y4376000D01*
X-15055500Y2624000D01*
X-15048518Y2559059D01*
X-15037312Y2507548D01*
X-15037308Y2507534D01*
X-15037306Y2507524D01*
X-15026356Y2469346D01*
X-15026354Y2469343D01*
X-15026354Y2469342D01*
X-14969675Y2372429D01*
X-14969673Y2372426D01*
X-14923918Y2319622D01*
X-14923914Y2319618D01*
X-14879190Y2277448D01*
X-14779111Y2226561D01*
X-14779105Y2226559D01*
X-14712070Y2206875D01*
X-14712066Y2206874D01*
X-14626003Y2194500D01*
X-11602321Y2194500D01*
X-11515978Y2174793D01*
X-11446737Y2119574D01*
X-11408310Y2039782D01*
X-11408310Y1951218D01*
X-11446737Y1871426D01*
X-11461607Y1854786D01*
X-12782607Y533786D01*
X-12857595Y486667D01*
X-12923321Y475500D01*
X-17462608Y475500D01*
X-17548951Y495207D01*
X-17618192Y550426D01*
X-17622723Y556330D01*
X-17652849Y597150D01*
X-17762114Y677790D01*
X-17762118Y677793D01*
X-17890301Y722646D01*
X-17920734Y725500D01*
X-18579266Y725500D01*
X-18609699Y722646D01*
X-18737882Y677793D01*
X-18847150Y597150D01*
X-18891295Y537335D01*
X-18914177Y506331D01*
X-18917060Y503849D01*
X-18918709Y500426D01*
X-18950494Y475077D01*
X-18981306Y448562D01*
X-18984976Y447578D01*
X-18987950Y445207D01*
X-19027590Y436159D01*
X-19066851Y425639D01*
X-19074293Y425500D01*
X-19187792Y425500D01*
X-19274135Y445207D01*
X-19343376Y500426D01*
X-19347100Y505244D01*
X-19383005Y553207D01*
X-19410313Y589687D01*
X-19494283Y652546D01*
X-19519772Y671627D01*
X-19519773Y671627D01*
X-19519774Y671628D01*
X-19647886Y719412D01*
X-19704515Y725500D01*
X-20295484Y725499D01*
X-20295488Y725499D01*
X-20327844Y722020D01*
X-20352114Y719412D01*
X-20480226Y671628D01*
X-20553200Y617000D01*
X-20589686Y589688D01*
X-20589688Y589686D01*
X-20616996Y553206D01*
X-20671628Y480226D01*
X-20679188Y459957D01*
X-20727826Y385945D01*
X-20803761Y340366D01*
X-20865641Y330500D01*
X-21590892Y330500D01*
X-21677235Y350207D01*
X-21746476Y405426D01*
X-21777345Y459956D01*
X-21806204Y537331D01*
X-21806207Y537335D01*
X-21892453Y652546D01*
X-21986094Y722645D01*
X-22007669Y738796D01*
X-22142517Y789091D01*
X-22202127Y795500D01*
X-23297872Y795499D01*
X-23297876Y795499D01*
X-23337612Y791227D01*
X-23357483Y789091D01*
X-23492331Y738796D01*
X-23607546Y652546D01*
X-23693796Y537331D01*
X-23744091Y402483D01*
X-23750500Y342873D01*
X-23750499Y-220500D01*
X-23750499Y-482876D01*
X-23749711Y-490207D01*
X-23744091Y-542483D01*
X-23693796Y-677331D01*
X-23607546Y-792546D01*
X-23492331Y-878796D01*
X-23357483Y-929091D01*
X-23297873Y-935500D01*
X-22202128Y-935499D01*
X-22202123Y-935499D01*
X-22152452Y-930159D01*
X-22142517Y-929091D01*
X-22007669Y-878796D01*
X-21965546Y-847263D01*
X-21892453Y-792546D01*
X-21806207Y-677335D01*
X-21806202Y-677328D01*
X-21777346Y-599958D01*
X-21728709Y-525946D01*
X-21652775Y-480366D01*
X-21590893Y-470500D01*
X-20926234Y-470500D01*
X-20839891Y-490207D01*
X-20770650Y-545426D01*
X-20732223Y-625218D01*
X-20732223Y-713782D01*
X-20770650Y-793574D01*
X-20785520Y-810214D01*
X-20822569Y-847263D01*
X-20911548Y-991519D01*
X-20964854Y-1152387D01*
X-20975000Y-1251693D01*
X-20975000Y-1275000D01*
X-20199000Y-1275000D01*
X-20177142Y-1279989D01*
X-20154718Y-1279989D01*
X-20134516Y-1289717D01*
X-20112657Y-1294707D01*
X-20095125Y-1308688D01*
X-20074926Y-1318416D01*
X-20060946Y-1335946D01*
X-20043416Y-1349926D01*
X-20033688Y-1370125D01*
X-20019707Y-1387657D01*
X-20014717Y-1409516D01*
X-20004989Y-1429718D01*
X-20000000Y-1474000D01*
X-20000000Y-1525000D01*
X-19949000Y-1525000D01*
X-19862657Y-1544707D01*
X-19793416Y-1599926D01*
X-19754989Y-1679718D01*
X-19750000Y-1724000D01*
X-19750000Y-2474999D01*
X-19701687Y-2474999D01*
X-19701680Y-2474998D01*
X-19602394Y-2464856D01*
X-19602389Y-2464855D01*
X-19441519Y-2411548D01*
X-19297263Y-2322569D01*
X-19177429Y-2202735D01*
X-19142891Y-2146741D01*
X-19080790Y-2083600D01*
X-18997442Y-2053656D01*
X-18909356Y-2062841D01*
X-18855350Y-2091098D01*
X-18847150Y-2097149D01*
X-18847150Y-2097150D01*
X-18737882Y-2177793D01*
X-18609699Y-2222646D01*
X-18579266Y-2225500D01*
X-18579261Y-2225500D01*
X-17920739Y-2225500D01*
X-17920734Y-2225500D01*
X-17890301Y-2222646D01*
X-17762118Y-2177793D01*
X-17723134Y-2149022D01*
X-17652849Y-2097150D01*
X-17622723Y-2056330D01*
X-17555595Y-1998561D01*
X-17470049Y-1975639D01*
X-17462608Y-1975500D01*
X-14370362Y-1975500D01*
X-14284019Y-1995207D01*
X-14214778Y-2050426D01*
X-14198024Y-2074997D01*
X-14190509Y-2088015D01*
X-14088015Y-2190509D01*
X-13962485Y-2262984D01*
X-13822475Y-2300500D01*
X-13822472Y-2300500D01*
X-13677528Y-2300500D01*
X-13677525Y-2300500D01*
X-13537515Y-2262984D01*
X-13411985Y-2190509D01*
X-13309491Y-2088015D01*
X-13301976Y-2075000D01*
X-13237016Y-1962485D01*
X-13199500Y-1822477D01*
X-13199500Y-1677522D01*
X-13237016Y-1537514D01*
X-13309490Y-1411985D01*
X-13411985Y-1309490D01*
X-13537514Y-1237016D01*
X-13677522Y-1199500D01*
X-13677525Y-1199500D01*
X-13752773Y-1199500D01*
X-13804278Y-1192719D01*
X-13872273Y-1174500D01*
X-17462608Y-1174500D01*
X-17548951Y-1154793D01*
X-17618192Y-1099574D01*
X-17622723Y-1093670D01*
X-17652849Y-1052849D01*
X-17762114Y-972209D01*
X-17762114Y-972208D01*
X-17806672Y-956616D01*
X-17860356Y-937831D01*
X-17935344Y-890714D01*
X-17982462Y-815725D01*
X-17992378Y-727719D01*
X-17963127Y-644125D01*
X-17900503Y-581502D01*
X-17860358Y-562168D01*
X-17762118Y-527793D01*
X-17762116Y-527791D01*
X-17762114Y-527791D01*
X-17762114Y-527790D01*
X-17652849Y-447150D01*
X-17622723Y-406330D01*
X-17555595Y-348561D01*
X-17470049Y-325639D01*
X-17462608Y-325500D01*
X-12622274Y-325500D01*
X-12622273Y-325500D01*
X-12520412Y-298207D01*
X-12514292Y-294674D01*
X-12429087Y-245480D01*
X-12429085Y-245478D01*
X-10088126Y2095480D01*
X-10013137Y2142599D01*
X-9925131Y2152515D01*
X-9841538Y2123264D01*
X-9778914Y2060640D01*
X-9749663Y1977047D01*
X-9751463Y1934588D01*
X-9749542Y1934399D01*
X-9750500Y1924674D01*
X-9750500Y975326D01*
X-9735966Y902260D01*
X-9735962Y902255D01*
X-9731365Y891155D01*
X-9716530Y803843D01*
X-9731365Y738845D01*
X-9735961Y727746D01*
X-9735966Y727740D01*
X-9750500Y654674D01*
X-9750500Y-294674D01*
X-9735966Y-367740D01*
X-9735961Y-367746D01*
X-9731365Y-378845D01*
X-9716530Y-466157D01*
X-9731365Y-531155D01*
X-9735962Y-542255D01*
X-9735966Y-542260D01*
X-9750500Y-615326D01*
X-9750500Y-1564674D01*
X-9735966Y-1637740D01*
X-9735961Y-1637746D01*
X-9731365Y-1648845D01*
X-9716530Y-1736157D01*
X-9731365Y-1801155D01*
X-9735962Y-1812255D01*
X-9735966Y-1812260D01*
X-9750500Y-1885326D01*
X-9750500Y-2834674D01*
X-9735966Y-2907740D01*
X-9735961Y-2907746D01*
X-9731365Y-2918845D01*
X-9716530Y-3006157D01*
X-9731365Y-3071155D01*
X-9735962Y-3082255D01*
X-9735966Y-3082260D01*
X-9750500Y-3155326D01*
X-9750500Y-4104674D01*
X-9735966Y-4177740D01*
X-9735961Y-4177746D01*
X-9731365Y-4188845D01*
X-9716530Y-4276157D01*
X-9731365Y-4341155D01*
X-9735962Y-4352255D01*
X-9735966Y-4352260D01*
X-9750500Y-4425326D01*
X-9750500Y-5374674D01*
X-9735966Y-5447740D01*
X-9735961Y-5447746D01*
X-9731365Y-5458845D01*
X-9716530Y-5546157D01*
X-9731365Y-5611155D01*
X-9735962Y-5622255D01*
X-9735966Y-5622260D01*
X-9750500Y-5695326D01*
X-9750500Y-6644674D01*
X-9735966Y-6717740D01*
X-9735961Y-6717746D01*
X-9731365Y-6728845D01*
X-9716530Y-6816157D01*
X-9731365Y-6881155D01*
X-9735962Y-6892255D01*
X-9735966Y-6892260D01*
X-9750500Y-6965326D01*
X-9750500Y-7914674D01*
X-9735966Y-7987740D01*
X-9735961Y-7987746D01*
X-9731365Y-7998845D01*
X-9716530Y-8086157D01*
X-9731365Y-8151155D01*
X-9735962Y-8162255D01*
X-9735966Y-8162260D01*
X-9750500Y-8235326D01*
X-9750500Y-9184674D01*
X-9735966Y-9257740D01*
X-9735961Y-9257746D01*
X-9731365Y-9268845D01*
X-9727847Y-9289548D01*
X-9719532Y-9308829D01*
X-9721460Y-9327137D01*
X-9716530Y-9356157D01*
X-9723217Y-9397316D01*
X-9730516Y-9424103D01*
X-9735966Y-9432260D01*
X-9744693Y-9476133D01*
X-9746514Y-9482816D01*
X-9764186Y-9515915D01*
X-9779511Y-9550162D01*
X-9784902Y-9554714D01*
X-9788227Y-9560941D01*
X-9818510Y-9583094D01*
X-9847177Y-9607301D01*
X-9854010Y-9609063D01*
X-9859706Y-9613230D01*
X-9896599Y-9620049D01*
X-9932933Y-9629422D01*
X-9938514Y-9629500D01*
X-12557841Y-9629500D01*
X-12644184Y-9609793D01*
X-12713425Y-9554574D01*
X-12751852Y-9474782D01*
X-12751852Y-9386218D01*
X-12748939Y-9374980D01*
X-12722833Y-9285126D01*
X-12722833Y-9285125D01*
X-12720069Y-9250000D01*
X-13291000Y-9250000D01*
X-13312858Y-9245011D01*
X-13335282Y-9245011D01*
X-13355483Y-9235282D01*
X-13377343Y-9230293D01*
X-13394874Y-9216311D01*
X-13415074Y-9206584D01*
X-13429053Y-9189053D01*
X-13446584Y-9175074D01*
X-13456311Y-9154874D01*
X-13470293Y-9137343D01*
X-13475282Y-9115483D01*
X-13485011Y-9095282D01*
X-13490000Y-9051000D01*
X-13490000Y-9000000D01*
X-13541000Y-9000000D01*
X-13627343Y-8980293D01*
X-13696584Y-8925074D01*
X-13735011Y-8845282D01*
X-13740000Y-8801000D01*
X-13740000Y-8750000D01*
X-13240000Y-8750000D01*
X-12720069Y-8750000D01*
X-12720069Y-8749999D01*
X-12722833Y-8714874D01*
X-12722833Y-8714872D01*
X-12767594Y-8560804D01*
X-12849264Y-8422710D01*
X-12962710Y-8309264D01*
X-13100806Y-8227594D01*
X-13100805Y-8227594D01*
X-13240000Y-8187153D01*
X-13240000Y-8750000D01*
X-13740000Y-8750000D01*
X-13740000Y-8187153D01*
X-13879194Y-8227594D01*
X-14017289Y-8309264D01*
X-14092470Y-8384445D01*
X-14167458Y-8431564D01*
X-14255465Y-8441480D01*
X-14261874Y-8440652D01*
X-14338418Y-8429500D01*
X-14681582Y-8429500D01*
X-14756515Y-8440417D01*
X-14756516Y-8440417D01*
X-14872101Y-8496923D01*
X-14916392Y-8541214D01*
X-14991380Y-8588333D01*
X-15057106Y-8599500D01*
X-15552727Y-8599500D01*
X-15605061Y-8613522D01*
X-15693562Y-8616832D01*
X-15774735Y-8581415D01*
X-15832503Y-8514286D01*
X-15855424Y-8428740D01*
X-15850551Y-8385493D01*
X-15851203Y-8385408D01*
X-15849500Y-8372472D01*
X-15849500Y-8227522D01*
X-15887016Y-8087514D01*
X-15959490Y-7961985D01*
X-16061985Y-7859490D01*
X-16187514Y-7787016D01*
X-16327522Y-7749500D01*
X-16327525Y-7749500D01*
X-16472475Y-7749500D01*
X-16472477Y-7749500D01*
X-16612485Y-7787016D01*
X-16674532Y-7822839D01*
X-16681767Y-7825071D01*
X-16687689Y-7829793D01*
X-16723782Y-7838031D01*
X-16759161Y-7848944D01*
X-16774032Y-7849500D01*
X-16907409Y-7849500D01*
X-16952570Y-7840515D01*
X-16953036Y-7842857D01*
X-17045326Y-7824500D01*
X-18194674Y-7824500D01*
X-18221283Y-7829793D01*
X-18267742Y-7839034D01*
X-18350601Y-7894398D01*
X-18405965Y-7977257D01*
X-18405965Y-7977259D01*
X-18405966Y-7977260D01*
X-18420500Y-8050326D01*
X-18420500Y-8649674D01*
X-18410752Y-8698679D01*
X-18410752Y-8776320D01*
X-18420500Y-8825326D01*
X-18420500Y-8825329D01*
X-18420500Y-9174673D01*
X-18413239Y-9211177D01*
X-18409574Y-9257953D01*
X-18410197Y-9273530D01*
X-18420500Y-9325326D01*
X-18420500Y-9531126D01*
X-18420659Y-9535102D01*
X-18431215Y-9574098D01*
X-18440207Y-9613492D01*
X-18442739Y-9616667D01*
X-18443801Y-9620588D01*
X-18470236Y-9651146D01*
X-18495426Y-9682733D01*
X-18500629Y-9686281D01*
X-18501743Y-9687568D01*
X-18503865Y-9688487D01*
X-18519999Y-9699488D01*
X-18554711Y-9719529D01*
X-18554712Y-9719530D01*
X-18880470Y-10045288D01*
X-18909691Y-10095901D01*
X-18911767Y-10099497D01*
X-18911769Y-10099499D01*
X-18921907Y-10117059D01*
X-18926614Y-10125212D01*
X-18950500Y-10214356D01*
X-18950500Y-10785644D01*
X-18929736Y-10863135D01*
X-18929736Y-10863138D01*
X-18926615Y-10874785D01*
X-18926614Y-10874788D01*
X-18880470Y-10954712D01*
X-18554712Y-11280470D01*
X-18554709Y-11280471D01*
X-18554709Y-11280472D01*
X-18520002Y-11300510D01*
X-18511893Y-11308032D01*
X-18501742Y-11312431D01*
X-18479734Y-11337871D01*
X-18455080Y-11360747D01*
X-18451038Y-11371044D01*
X-18443801Y-11379411D01*
X-18436912Y-11407036D01*
X-18422723Y-11443188D01*
X-18420659Y-11464897D01*
X-18420500Y-11468872D01*
X-18420500Y-11674674D01*
X-18410197Y-11726469D01*
X-18409574Y-11742047D01*
X-18413239Y-11761693D01*
X-18413239Y-11788823D01*
X-18420500Y-11825326D01*
X-18420500Y-12174673D01*
X-18413239Y-12211177D01*
X-18413239Y-12288823D01*
X-18420500Y-12325326D01*
X-18420500Y-12674674D01*
X-18410752Y-12723679D01*
X-18410752Y-12801320D01*
X-18420500Y-12850326D01*
X-18420500Y-13449674D01*
X-18405966Y-13522740D01*
X-18405965Y-13522741D01*
X-18405965Y-13522742D01*
X-18350601Y-13605601D01*
X-18267742Y-13660965D01*
X-18267741Y-13660965D01*
X-18267740Y-13660966D01*
X-18194674Y-13675500D01*
X-17755392Y-13675500D01*
X-17703886Y-13682281D01*
X-17635892Y-13700500D01*
X-17504107Y-13700500D01*
X-16949742Y-13700500D01*
X-16863399Y-13720207D01*
X-16809028Y-13758786D01*
X-16800500Y-13767313D01*
X-16800500Y-13767314D01*
X-16098901Y-14468913D01*
X-15418785Y-15149028D01*
X-15371666Y-15224016D01*
X-15360499Y-15289742D01*
X-15360499Y-15633216D01*
X-15354379Y-15690151D01*
X-15306344Y-15818937D01*
X-15223972Y-15928972D01*
X-15113937Y-16011344D01*
X-14985151Y-16059379D01*
X-14928217Y-16065500D01*
X-14071784Y-16065499D01*
X-14071779Y-16065499D01*
X-14014853Y-16059380D01*
X-14014851Y-16059379D01*
X-14014849Y-16059379D01*
X-13886063Y-16011344D01*
X-13886062Y-16011343D01*
X-13886061Y-16011343D01*
X-13776027Y-15928972D01*
X-13693657Y-15818939D01*
X-13645621Y-15690151D01*
X-13645621Y-15690149D01*
X-13645620Y-15690146D01*
X-13639500Y-15633217D01*
X-13639500Y-15633216D01*
X-13639500Y-15086779D01*
X-13645619Y-15029853D01*
X-13645621Y-15029848D01*
X-13693656Y-14901061D01*
X-13776027Y-14791027D01*
X-13886060Y-14708657D01*
X-14014848Y-14660621D01*
X-14014851Y-14660620D01*
X-14048645Y-14656987D01*
X-14071783Y-14654500D01*
X-14071788Y-14654500D01*
X-14415257Y-14654500D01*
X-14501600Y-14634793D01*
X-14555971Y-14596214D01*
X-15791214Y-13360971D01*
X-15808129Y-13334050D01*
X-15828359Y-13309516D01*
X-15831270Y-13297222D01*
X-15838333Y-13285983D01*
X-15849473Y-13223506D01*
X-15849500Y-13221852D01*
X-15849500Y-13127525D01*
X-15851140Y-13121403D01*
X-15851445Y-13102749D01*
X-15844595Y-13070305D01*
X-15841499Y-13037293D01*
X-15835537Y-13027399D01*
X-15833151Y-13016096D01*
X-15812901Y-12989835D01*
X-15795789Y-12961438D01*
X-15786124Y-12955110D01*
X-15779070Y-12945962D01*
X-15749432Y-12931088D01*
X-15721693Y-12912927D01*
X-15708538Y-12910565D01*
X-15699916Y-12906238D01*
X-15682884Y-12905959D01*
X-15652472Y-12900500D01*
X-15057106Y-12900500D01*
X-14970763Y-12920207D01*
X-14916392Y-12958786D01*
X-14872102Y-13003076D01*
X-14756518Y-13059582D01*
X-14681582Y-13070500D01*
X-14338418Y-13070500D01*
X-14261873Y-13059348D01*
X-14173591Y-13066401D01*
X-14097112Y-13111060D01*
X-14092468Y-13115556D01*
X-14017288Y-13190736D01*
X-13879194Y-13272405D01*
X-13740000Y-13312844D01*
X-13240000Y-13312844D01*
X-13100805Y-13272405D01*
X-12962710Y-13190735D01*
X-12849264Y-13077289D01*
X-12767594Y-12939195D01*
X-12722833Y-12785127D01*
X-12722833Y-12785125D01*
X-12720069Y-12750000D01*
X-13240000Y-12750000D01*
X-13240000Y-13312844D01*
X-13740000Y-13312844D01*
X-13740000Y-12699000D01*
X-13735011Y-12677141D01*
X-13735011Y-12654718D01*
X-13725282Y-12634516D01*
X-13720293Y-12612657D01*
X-13706311Y-12595125D01*
X-13696584Y-12574926D01*
X-13679053Y-12560946D01*
X-13665074Y-12543416D01*
X-13644874Y-12533688D01*
X-13627343Y-12519707D01*
X-13605483Y-12514717D01*
X-13585282Y-12504989D01*
X-13541000Y-12500000D01*
X-13490000Y-12500000D01*
X-13490000Y-12449000D01*
X-13470293Y-12362657D01*
X-13415074Y-12293416D01*
X-13335282Y-12254989D01*
X-13291000Y-12250000D01*
X-12720069Y-12250000D01*
X-12720069Y-12249999D01*
X-12722833Y-12214874D01*
X-12722834Y-12214869D01*
X-12754749Y-12105019D01*
X-12759914Y-12016607D01*
X-12726206Y-11934709D01*
X-12660302Y-11875547D01*
X-12575255Y-11850839D01*
X-12563651Y-11850500D01*
X-9786016Y-11850500D01*
X-9699673Y-11870207D01*
X-9675459Y-11884037D01*
X-9597741Y-11935965D01*
X-9597740Y-11935966D01*
X-9524674Y-11950500D01*
X-9524672Y-11950500D01*
X-7975329Y-11950500D01*
X-7975326Y-11950500D01*
X-7923319Y-11940155D01*
X-7834797Y-11942638D01*
X-7756113Y-11983286D01*
X-7702857Y-12054048D01*
X-7685500Y-12135331D01*
X-7685500Y-13274674D01*
X-7684542Y-13284399D01*
X-7687648Y-13284705D01*
X-7689594Y-13354945D01*
X-7730214Y-13433644D01*
X-7800958Y-13486924D01*
X-7887814Y-13504233D01*
X-7921117Y-13500487D01*
X-7926079Y-13499500D01*
X-7926082Y-13499500D01*
X-8073918Y-13499500D01*
X-8121813Y-13509027D01*
X-8218910Y-13528341D01*
X-8218911Y-13528341D01*
X-8218913Y-13528342D01*
X-8258914Y-13544911D01*
X-8355494Y-13584915D01*
X-8355499Y-13584918D01*
X-8366434Y-13592225D01*
X-8378818Y-13600500D01*
X-8436537Y-13639066D01*
X-8478412Y-13667045D01*
X-8478418Y-13667050D01*
X-11082947Y-16271578D01*
X-11082952Y-16271584D01*
X-11132186Y-16345270D01*
X-11165084Y-16394505D01*
X-11221658Y-16531087D01*
X-11221658Y-16531089D01*
X-11250500Y-16676082D01*
X-11250500Y-21495500D01*
X-11270207Y-21581843D01*
X-11325426Y-21651084D01*
X-11405218Y-21689511D01*
X-11449500Y-21694500D01*
X-11897679Y-21694500D01*
X-11984022Y-21674793D01*
X-12053263Y-21619574D01*
X-12091690Y-21539782D01*
X-12091690Y-21451218D01*
X-12053263Y-21371426D01*
X-12038393Y-21354786D01*
X-11979519Y-21295912D01*
X-11926793Y-21204589D01*
X-11913146Y-21153657D01*
X-11899500Y-21102727D01*
X-11899500Y-20997273D01*
X-11899500Y-20805392D01*
X-11879793Y-20719049D01*
X-11841212Y-20664676D01*
X-11812853Y-20636318D01*
X-11754539Y-20521870D01*
X-11754539Y-20521868D01*
X-11742291Y-20444537D01*
X-11739500Y-20426916D01*
X-11739500Y-19573084D01*
X-11750284Y-19504998D01*
X-11754539Y-19478131D01*
X-11754539Y-19478129D01*
X-11812853Y-19363681D01*
X-11903681Y-19272853D01*
X-12018130Y-19214539D01*
X-12113084Y-19199500D01*
X-12486916Y-19199500D01*
X-12581868Y-19214539D01*
X-12581870Y-19214539D01*
X-12696318Y-19272853D01*
X-12787146Y-19363681D01*
X-12845460Y-19478129D01*
X-12845460Y-19478130D01*
X-12845461Y-19478132D01*
X-12860500Y-19573084D01*
X-12860500Y-20426916D01*
X-12845461Y-20521868D01*
X-12787146Y-20636318D01*
X-12760641Y-20662822D01*
X-12748712Y-20681806D01*
X-12732858Y-20697661D01*
X-12725453Y-20718820D01*
X-12713525Y-20737804D01*
X-12711013Y-20760086D01*
X-12703607Y-20781254D01*
X-12706117Y-20803534D01*
X-12703607Y-20825811D01*
X-12711012Y-20846975D01*
X-12713523Y-20869261D01*
X-12725451Y-20888244D01*
X-12732855Y-20909405D01*
X-12760642Y-20944249D01*
X-12857607Y-21041214D01*
X-12932595Y-21088333D01*
X-12998321Y-21099500D01*
X-13245500Y-21099500D01*
X-13331843Y-21079793D01*
X-13401084Y-21024574D01*
X-13439511Y-20944782D01*
X-13444500Y-20900500D01*
X-13444500Y-20735414D01*
X-13444659Y-20725538D01*
X-13444919Y-20717529D01*
X-13444919Y-20717528D01*
X-13451121Y-20685499D01*
X-13463300Y-20622597D01*
X-13475285Y-20589783D01*
X-13487271Y-20556965D01*
X-13531303Y-20475007D01*
X-13554806Y-20389619D01*
X-13555000Y-20380827D01*
X-13555000Y-19620407D01*
X-13535293Y-19534064D01*
X-13519849Y-19507473D01*
X-13518147Y-19505003D01*
X-13518146Y-19505000D01*
X-13518144Y-19504998D01*
X-13518141Y-19504993D01*
X-13476564Y-19417706D01*
X-13476560Y-19417696D01*
X-13456874Y-19350654D01*
X-13444500Y-19264591D01*
X-13444500Y-18124005D01*
X-13444500Y-18124000D01*
X-13447124Y-18099591D01*
X-13451481Y-18059060D01*
X-13451482Y-18059059D01*
X-13462691Y-18007534D01*
X-13462693Y-18007524D01*
X-13473643Y-17969346D01*
X-13473645Y-17969343D01*
X-13530324Y-17872429D01*
X-13530326Y-17872426D01*
X-13576081Y-17819622D01*
X-13576085Y-17819618D01*
X-13620809Y-17777448D01*
X-13720888Y-17726561D01*
X-13720894Y-17726559D01*
X-13787929Y-17706875D01*
X-13787933Y-17706874D01*
X-13873996Y-17694500D01*
X-13874000Y-17694500D01*
X-19626000Y-17694500D01*
X-19652392Y-17697337D01*
X-19690939Y-17701481D01*
X-19690941Y-17701482D01*
X-19742452Y-17712688D01*
X-19742454Y-17712688D01*
X-19742465Y-17712691D01*
X-19742475Y-17712693D01*
X-19780653Y-17723643D01*
X-19780656Y-17723645D01*
X-19877570Y-17780324D01*
X-19877573Y-17780326D01*
X-19930377Y-17826081D01*
X-19930381Y-17826085D01*
X-19972551Y-17870809D01*
X-19972553Y-17870813D01*
X-20023439Y-17970889D01*
X-20023440Y-17970894D01*
X-20043124Y-18037929D01*
X-20043125Y-18037933D01*
X-20048051Y-18072199D01*
X-20055500Y-18124000D01*
X-20055500Y-21626000D01*
X-20048518Y-21690941D01*
X-20037312Y-21742452D01*
X-20037308Y-21742465D01*
X-20037306Y-21742475D01*
X-20026356Y-21780653D01*
X-20026355Y-21780654D01*
X-20026354Y-21780658D01*
X-19969675Y-21877571D01*
X-19969673Y-21877573D01*
X-19923918Y-21930377D01*
X-19923914Y-21930381D01*
X-19879190Y-21972551D01*
X-19879188Y-21972551D01*
X-19879187Y-21972553D01*
X-19779111Y-22023439D01*
X-19712072Y-22043124D01*
X-19712067Y-22043124D01*
X-19712066Y-22043125D01*
X-19695329Y-22045531D01*
X-19626003Y-22055499D01*
X-19626003Y-22055500D01*
X-19626000Y-22055500D01*
X-18199500Y-22055500D01*
X-18113157Y-22075207D01*
X-18043916Y-22130426D01*
X-18005489Y-22210218D01*
X-18000500Y-22254500D01*
X-18000500Y-24210258D01*
X-18020207Y-24296601D01*
X-18058786Y-24350972D01*
X-21307314Y-27599500D01*
X-21400500Y-27692686D01*
X-21466392Y-27806814D01*
X-21500500Y-27934108D01*
X-21500500Y-27934110D01*
X-21500500Y-31050500D01*
X-21520207Y-31136843D01*
X-21575426Y-31206084D01*
X-21655218Y-31244511D01*
X-21699500Y-31249500D01*
X-21774674Y-31249500D01*
X-21811207Y-31256767D01*
X-21847742Y-31264034D01*
X-21930601Y-31319398D01*
X-21985965Y-31402257D01*
X-21985965Y-31402258D01*
X-21985966Y-31402260D01*
X-22000500Y-31475326D01*
X-22000500Y-32524674D01*
X-21985966Y-32597740D01*
X-21985965Y-32597741D01*
X-21985965Y-32597742D01*
X-21930601Y-32680601D01*
X-21847742Y-32735965D01*
X-21847741Y-32735965D01*
X-21847740Y-32735966D01*
X-21774674Y-32750500D01*
X-21774672Y-32750500D01*
X-20225328Y-32750500D01*
X-20225326Y-32750500D01*
X-20152260Y-32735966D01*
X-20152259Y-32735965D01*
X-20152257Y-32735965D01*
X-20069398Y-32680601D01*
X-20014034Y-32597742D01*
X-20006662Y-32560677D01*
X-19999500Y-32524674D01*
X-19999500Y-31475326D01*
X-20005576Y-31444782D01*
X-20014034Y-31402257D01*
X-20069398Y-31319398D01*
X-20152257Y-31264034D01*
X-20196099Y-31255313D01*
X-20225326Y-31249500D01*
X-20225328Y-31249500D01*
X-20300500Y-31249500D01*
X-20386843Y-31229793D01*
X-20456084Y-31174574D01*
X-20494511Y-31094782D01*
X-20499500Y-31050500D01*
X-20499500Y-28289742D01*
X-20479793Y-28203399D01*
X-20441214Y-28149028D01*
X-17099502Y-24807317D01*
X-17099500Y-24807315D01*
X-17068768Y-24754086D01*
X-17033608Y-24693186D01*
X-16999500Y-24565892D01*
X-16999500Y-22254500D01*
X-16979793Y-22168157D01*
X-16924574Y-22098916D01*
X-16844782Y-22060489D01*
X-16800500Y-22055500D01*
X-14959500Y-22055500D01*
X-14873157Y-22075207D01*
X-14803916Y-22130426D01*
X-14765489Y-22210218D01*
X-14760500Y-22254500D01*
X-14760500Y-23026916D01*
X-14745461Y-23121868D01*
X-14687146Y-23236318D01*
X-14596318Y-23327146D01*
X-14481868Y-23385461D01*
X-14386916Y-23400500D01*
X-14013084Y-23400500D01*
X-13918132Y-23385461D01*
X-13918130Y-23385460D01*
X-13918129Y-23385460D01*
X-13803681Y-23327146D01*
X-13712856Y-23236321D01*
X-13705908Y-23222685D01*
X-13681809Y-23175388D01*
X-13625053Y-23107406D01*
X-13544418Y-23070780D01*
X-13455877Y-23072767D01*
X-13376966Y-23112973D01*
X-13323315Y-23183436D01*
X-13305500Y-23265735D01*
X-13305500Y-25876000D01*
X-13298518Y-25940941D01*
X-13287312Y-25992452D01*
X-13287308Y-25992465D01*
X-13287306Y-25992475D01*
X-13276356Y-26030653D01*
X-13276355Y-26030654D01*
X-13276354Y-26030658D01*
X-13219675Y-26127571D01*
X-13210824Y-26137785D01*
X-13173918Y-26180377D01*
X-13173914Y-26180381D01*
X-13129190Y-26222551D01*
X-13129188Y-26222551D01*
X-13129187Y-26222553D01*
X-13029111Y-26273439D01*
X-12962072Y-26293124D01*
X-12962067Y-26293124D01*
X-12962066Y-26293125D01*
X-12945329Y-26295531D01*
X-12876003Y-26305499D01*
X-12876003Y-26305500D01*
X-8852321Y-26305500D01*
X-8765978Y-26325207D01*
X-8696737Y-26380426D01*
X-8658310Y-26460218D01*
X-8658310Y-26548782D01*
X-8696737Y-26628574D01*
X-8711607Y-26645214D01*
X-13607607Y-31541214D01*
X-13682595Y-31588333D01*
X-13748321Y-31599500D01*
X-14811486Y-31599500D01*
X-14897829Y-31579793D01*
X-14967070Y-31524574D01*
X-15005497Y-31444782D01*
X-15006662Y-31439323D01*
X-15014034Y-31402258D01*
X-15014034Y-31402257D01*
X-15069398Y-31319398D01*
X-15152257Y-31264034D01*
X-15196099Y-31255313D01*
X-15225326Y-31249500D01*
X-16774674Y-31249500D01*
X-16811207Y-31256767D01*
X-16847742Y-31264034D01*
X-16930601Y-31319398D01*
X-16985965Y-31402257D01*
X-16985965Y-31402258D01*
X-16985966Y-31402260D01*
X-17000500Y-31475326D01*
X-17000500Y-32524674D01*
X-16985966Y-32597740D01*
X-16985965Y-32597741D01*
X-16985965Y-32597742D01*
X-16930601Y-32680601D01*
X-16847742Y-32735965D01*
X-16847741Y-32735965D01*
X-16847740Y-32735966D01*
X-16774674Y-32750500D01*
X-16774672Y-32750500D01*
X-15225328Y-32750500D01*
X-15225326Y-32750500D01*
X-15152260Y-32735966D01*
X-15152259Y-32735965D01*
X-15152257Y-32735965D01*
X-15069398Y-32680601D01*
X-15014034Y-32597742D01*
X-15014034Y-32597741D01*
X-15006662Y-32560677D01*
X-14970489Y-32479838D01*
X-14902823Y-32422699D01*
X-14817067Y-32400578D01*
X-14811486Y-32400500D01*
X-13447274Y-32400500D01*
X-13447273Y-32400500D01*
X-13345412Y-32373207D01*
X-13254087Y-32320480D01*
X-6785512Y-25851905D01*
X-314523Y-19380917D01*
X-314517Y-19380909D01*
X-304574Y-19363686D01*
X-304572Y-19363682D01*
X-261793Y-19289587D01*
X-234500Y-19187727D01*
X-234500Y-13678568D01*
X-214793Y-13592225D01*
X-159574Y-13522984D01*
X-105551Y-13492305D01*
X-90307Y-13486572D01*
X-87260Y-13485966D01*
X-85411Y-13484730D01*
X-70051Y-13478954D01*
X-29348Y-13473412D01*
X11157Y-13466530D01*
X14909Y-13467386D01*
X17703Y-13467006D01*
X28315Y-13470446D01*
X76155Y-13481365D01*
X87255Y-13485963D01*
X87260Y-13485966D01*
X87265Y-13485967D01*
X105369Y-13493466D01*
X104147Y-13496414D01*
X104786Y-13497024D01*
X155153Y-13519558D01*
X212296Y-13587221D01*
X234421Y-13672976D01*
X234500Y-13678568D01*
X234500Y-21116679D01*
X214793Y-21203022D01*
X176214Y-21257393D01*
X-11395480Y-32829087D01*
X-11419568Y-32870809D01*
X-11448207Y-32920412D01*
X-11475500Y-33022273D01*
X-11475500Y-38212608D01*
X-11495207Y-38298951D01*
X-11526248Y-38345357D01*
X-11539885Y-38360587D01*
X-11597150Y-38402850D01*
X-11677793Y-38512118D01*
X-11679218Y-38516191D01*
X-11694492Y-38533249D01*
X-11723143Y-38553536D01*
X-11749757Y-38576439D01*
X-11758979Y-38578910D01*
X-11766771Y-38584427D01*
X-11801387Y-38590273D01*
X-11835302Y-38599361D01*
X-11842744Y-38599500D01*
X-13957946Y-38599500D01*
X-14044289Y-38579793D01*
X-14113530Y-38524574D01*
X-14123408Y-38511059D01*
X-14222858Y-38362222D01*
X-14222864Y-38362214D01*
X-14362214Y-38222864D01*
X-14362222Y-38222858D01*
X-14526083Y-38113369D01*
X-14526090Y-38113365D01*
X-14708163Y-38037949D01*
X-14708167Y-38037948D01*
X-14853464Y-38009046D01*
X-14901459Y-37999500D01*
X-15098541Y-37999500D01*
X-15162389Y-38012200D01*
X-15291832Y-38037948D01*
X-15291836Y-38037949D01*
X-15473909Y-38113365D01*
X-15473916Y-38113369D01*
X-15492824Y-38126003D01*
X-15637782Y-38222861D01*
X-15777139Y-38362218D01*
X-15818367Y-38423920D01*
X-15886630Y-38526083D01*
X-15886634Y-38526090D01*
X-15913219Y-38590273D01*
X-15962051Y-38708165D01*
X-16000500Y-38901459D01*
X-16000500Y-39098541D01*
X-15962051Y-39291835D01*
X-15886632Y-39473914D01*
X-15777139Y-39637782D01*
X-15637782Y-39777139D01*
X-15473914Y-39886632D01*
X-15291835Y-39962051D01*
X-15098541Y-40000500D01*
X-15098540Y-40000500D01*
X-14901460Y-40000500D01*
X-14901459Y-40000500D01*
X-14708165Y-39962051D01*
X-14631962Y-39930487D01*
X-14526090Y-39886634D01*
X-14526083Y-39886630D01*
X-14463691Y-39844941D01*
X-14362218Y-39777139D01*
X-14222861Y-39637782D01*
X-14184264Y-39580017D01*
X-14123408Y-39488941D01*
X-14059052Y-39428098D01*
X-13974671Y-39401204D01*
X-13957946Y-39400500D01*
X-11842744Y-39400500D01*
X-11756401Y-39420207D01*
X-11687160Y-39475426D01*
X-11682629Y-39481330D01*
X-11625775Y-39558364D01*
X-11597150Y-39597150D01*
X-11487882Y-39677793D01*
X-11359699Y-39722646D01*
X-11329266Y-39725500D01*
X-11329261Y-39725500D01*
X-10820739Y-39725500D01*
X-10820734Y-39725500D01*
X-10790301Y-39722646D01*
X-10662118Y-39677793D01*
X-10610399Y-39639623D01*
X-10552849Y-39597150D01*
X-10472209Y-39487885D01*
X-10472208Y-39487884D01*
X-10472207Y-39487882D01*
X-10437831Y-39389641D01*
X-10390714Y-39314656D01*
X-10315726Y-39267537D01*
X-10227719Y-39257621D01*
X-10144126Y-39286872D01*
X-10081502Y-39349496D01*
X-10076108Y-39358610D01*
X-10067807Y-39373528D01*
X-10027793Y-39487882D01*
X-9947150Y-39597150D01*
X-9940744Y-39601877D01*
X-9925608Y-39629080D01*
X-9916705Y-39659651D01*
X-9903969Y-39688843D01*
X-9901957Y-39710293D01*
X-9900846Y-39714111D01*
X-9901328Y-39717002D01*
X-9900500Y-39725840D01*
X-9900500Y-39832256D01*
X-9920207Y-39918599D01*
X-9975426Y-39987840D01*
X-9981330Y-39992371D01*
X-10097150Y-40077849D01*
X-10128413Y-40120210D01*
X-10177793Y-40187118D01*
X-10222646Y-40315301D01*
X-10225500Y-40345734D01*
X-10225500Y-40854266D01*
X-10222646Y-40884699D01*
X-10177793Y-41012882D01*
X-10097150Y-41122150D01*
X-10097142Y-41122155D01*
X-10086904Y-41132395D01*
X-10039784Y-41207383D01*
X-10029866Y-41295389D01*
X-10059114Y-41378983D01*
X-10121737Y-41441609D01*
X-10124664Y-41443413D01*
X-10209875Y-41494925D01*
X-10330076Y-41615126D01*
X-10418016Y-41760596D01*
X-10418018Y-41760602D01*
X-10468592Y-41922897D01*
X-10475000Y-41993415D01*
X-10475000Y-42000000D01*
X-8525001Y-42000000D01*
X-8525001Y-41993425D01*
X-8531409Y-41922893D01*
X-8531409Y-41922891D01*
X-8581981Y-41760602D01*
X-8581983Y-41760596D01*
X-8669923Y-41615126D01*
X-8790122Y-41494927D01*
X-8875336Y-41443413D01*
X-8939031Y-41381878D01*
X-8969719Y-41298802D01*
X-8961323Y-41210638D01*
X-8915505Y-41134847D01*
X-8913098Y-41132399D01*
X-8902850Y-41122151D01*
X-8822209Y-41012885D01*
X-8822208Y-41012884D01*
X-8822207Y-41012882D01*
X-8777354Y-40884699D01*
X-8774500Y-40854266D01*
X-8774500Y-40345734D01*
X-8777354Y-40315301D01*
X-8822207Y-40187118D01*
X-8822208Y-40187116D01*
X-8822209Y-40187114D01*
X-8902849Y-40077849D01*
X-9011564Y-39997615D01*
X-9069333Y-39930487D01*
X-9092255Y-39844941D01*
X-9075790Y-39757922D01*
X-9034660Y-39697339D01*
X-9016941Y-39679480D01*
X-9012118Y-39677793D01*
X-8902850Y-39597150D01*
X-8822207Y-39487882D01*
X-8819681Y-39480665D01*
X-8798522Y-39459339D01*
X-8773076Y-39443210D01*
X-8750243Y-39423561D01*
X-8736091Y-39419769D01*
X-8723719Y-39411927D01*
X-8693798Y-39408436D01*
X-8664698Y-39400639D01*
X-8657256Y-39400500D01*
X-7223320Y-39400500D01*
X-7136977Y-39420207D01*
X-7082605Y-39458787D01*
X-7013342Y-39528050D01*
X-6900304Y-39585646D01*
X-6806519Y-39600500D01*
X-5568482Y-39600499D01*
X-5528715Y-39594201D01*
X-5440354Y-39600159D01*
X-5363327Y-39643866D01*
X-5312893Y-39716666D01*
X-5299039Y-39804139D01*
X-5300138Y-39813892D01*
X-5300496Y-39818461D01*
X-5300500Y-39818481D01*
X-5300499Y-40181518D01*
X-5285646Y-40275304D01*
X-5228050Y-40388342D01*
X-5138342Y-40478050D01*
X-5025304Y-40535646D01*
X-4931519Y-40550500D01*
X-4604362Y-40550499D01*
X-4552857Y-40557280D01*
X-4544284Y-40559577D01*
X-4391557Y-40600500D01*
X-2357204Y-40600500D01*
X-2270861Y-40620207D01*
X-2201620Y-40675426D01*
X-2196210Y-40682531D01*
X-2195319Y-40683757D01*
X-2147553Y-40749501D01*
X-2019501Y-40877553D01*
X-1872994Y-40983996D01*
X-1711639Y-41066211D01*
X-1539409Y-41122171D01*
X-1360546Y-41150500D01*
X-1179454Y-41150500D01*
X-1000591Y-41122171D01*
X-1000585Y-41122169D01*
X-1000581Y-41122168D01*
X-828367Y-41066213D01*
X-828366Y-41066212D01*
X-828361Y-41066211D01*
X-828355Y-41066207D01*
X-828348Y-41066205D01*
X-667011Y-40983999D01*
X-667008Y-40983997D01*
X-667006Y-40983996D01*
X-520499Y-40877553D01*
X-392447Y-40749501D01*
X-286004Y-40602994D01*
X-286003Y-40602992D01*
X-286000Y-40602988D01*
X-203794Y-40441651D01*
X-203786Y-40441632D01*
X-189260Y-40396923D01*
X-143837Y-40320896D01*
X-69924Y-40272107D01*
X17837Y-40260218D01*
X102066Y-40287585D01*
X166080Y-40348788D01*
X189260Y-40396923D01*
X203786Y-40441632D01*
X203794Y-40441651D01*
X286000Y-40602988D01*
X286003Y-40602992D01*
X286004Y-40602994D01*
X392447Y-40749501D01*
X520499Y-40877553D01*
X667006Y-40983996D01*
X667008Y-40983997D01*
X667011Y-40983999D01*
X828348Y-41066205D01*
X828355Y-41066207D01*
X828361Y-41066211D01*
X828366Y-41066212D01*
X828367Y-41066213D01*
X1000581Y-41122168D01*
X1000585Y-41122169D01*
X1000591Y-41122171D01*
X1179454Y-41150500D01*
X1360546Y-41150500D01*
X1539409Y-41122171D01*
X1711639Y-41066211D01*
X1872994Y-40983996D01*
X1997259Y-40893713D01*
X21149500Y-40893713D01*
X21149500Y-41106287D01*
X21156503Y-41150500D01*
X21182752Y-41316234D01*
X21182756Y-41316251D01*
X21248441Y-41518407D01*
X21248445Y-41518418D01*
X21297721Y-41615126D01*
X21344949Y-41707816D01*
X21410523Y-41798071D01*
X21469893Y-41879789D01*
X21620210Y-42030106D01*
X21674688Y-42069685D01*
X21792184Y-42155051D01*
X21883589Y-42201624D01*
X21981581Y-42251554D01*
X21981584Y-42251555D01*
X21981588Y-42251557D01*
X22183757Y-42317246D01*
X22393713Y-42350500D01*
X22606287Y-42350500D01*
X22816243Y-42317246D01*
X23018412Y-42251557D01*
X23207816Y-42155051D01*
X23379792Y-42030104D01*
X23530104Y-41879792D01*
X23655051Y-41707816D01*
X23751557Y-41518412D01*
X23817246Y-41316243D01*
X23850500Y-41106287D01*
X23850500Y-40893713D01*
X23817246Y-40683757D01*
X23751557Y-40481588D01*
X23751555Y-40481584D01*
X23751554Y-40481581D01*
X23683892Y-40348788D01*
X23655051Y-40292184D01*
X23569685Y-40174688D01*
X23530106Y-40120210D01*
X23379789Y-39969893D01*
X23296600Y-39909454D01*
X23207816Y-39844949D01*
X23182905Y-39832256D01*
X23018418Y-39748445D01*
X23018407Y-39748441D01*
X22816251Y-39682756D01*
X22816234Y-39682752D01*
X22606287Y-39649500D01*
X22393713Y-39649500D01*
X22183765Y-39682752D01*
X22183748Y-39682756D01*
X21981592Y-39748441D01*
X21981581Y-39748445D01*
X21792187Y-39844947D01*
X21620210Y-39969893D01*
X21469893Y-40120210D01*
X21344947Y-40292187D01*
X21248445Y-40481581D01*
X21248441Y-40481592D01*
X21182756Y-40683748D01*
X21182752Y-40683765D01*
X21150928Y-40884698D01*
X21149500Y-40893713D01*
X1997259Y-40893713D01*
X2019501Y-40877553D01*
X2147553Y-40749501D01*
X2195319Y-40683757D01*
X2196210Y-40682531D01*
X2262904Y-40624261D01*
X2348276Y-40600700D01*
X2357204Y-40600500D01*
X3365781Y-40600500D01*
X3452124Y-40620207D01*
X3505002Y-40662376D01*
X3507394Y-40659985D01*
X3517451Y-40670042D01*
X3517454Y-40670046D01*
X3632669Y-40756296D01*
X3767517Y-40806591D01*
X3827127Y-40813000D01*
X5172872Y-40812999D01*
X5172876Y-40812999D01*
X5212612Y-40808727D01*
X5232483Y-40806591D01*
X5367331Y-40756296D01*
X5377928Y-40748362D01*
X5407018Y-40726587D01*
X5482546Y-40670046D01*
X5490078Y-40659985D01*
X5568796Y-40554831D01*
X5619091Y-40419983D01*
X5625500Y-40360373D01*
X5625499Y-39639628D01*
X5625499Y-39639623D01*
X5619091Y-39580018D01*
X5611014Y-39558361D01*
X5568796Y-39445169D01*
X5534538Y-39399406D01*
X5482546Y-39329953D01*
X5367335Y-39243707D01*
X5367331Y-39243704D01*
X5232483Y-39193409D01*
X5172873Y-39187000D01*
X5172867Y-39187000D01*
X3827123Y-39187000D01*
X3767518Y-39193408D01*
X3632670Y-39243703D01*
X3632664Y-39243707D01*
X3517458Y-39329950D01*
X3507394Y-39340015D01*
X3504557Y-39337179D01*
X3457599Y-39377052D01*
X3371903Y-39399406D01*
X3365781Y-39399500D01*
X2357204Y-39399500D01*
X2270861Y-39379793D01*
X2201620Y-39324574D01*
X2196210Y-39317469D01*
X2147557Y-39250504D01*
X2147551Y-39250497D01*
X2019503Y-39122449D01*
X2019501Y-39122447D01*
X1872994Y-39016004D01*
X1872992Y-39016003D01*
X1872988Y-39016000D01*
X1711651Y-38933794D01*
X1711632Y-38933786D01*
X1539418Y-38877831D01*
X1539407Y-38877828D01*
X1360546Y-38849500D01*
X1179454Y-38849500D01*
X1000592Y-38877828D01*
X1000581Y-38877831D01*
X828367Y-38933786D01*
X828348Y-38933794D01*
X667011Y-39016000D01*
X520496Y-39122449D01*
X392449Y-39250496D01*
X286000Y-39397011D01*
X203794Y-39558348D01*
X203788Y-39558364D01*
X189260Y-39603077D01*
X143836Y-39679104D01*
X69923Y-39727893D01*
X-17839Y-39739781D01*
X-102067Y-39712413D01*
X-166080Y-39651210D01*
X-189260Y-39603077D01*
X-203788Y-39558364D01*
X-203794Y-39558348D01*
X-286000Y-39397011D01*
X-392449Y-39250496D01*
X-478714Y-39164232D01*
X-525833Y-39089244D01*
X-537000Y-39023518D01*
X-537000Y-36805914D01*
X-517293Y-36719571D01*
X-462074Y-36650330D01*
X-457256Y-36646606D01*
X-454447Y-36644503D01*
X-454446Y-36644503D01*
X-340669Y-36559331D01*
X-255497Y-36445554D01*
X-205829Y-36312391D01*
X-199500Y-36253521D01*
X-199500Y-35750500D01*
X-199500Y-35246477D01*
X199500Y-35246477D01*
X199500Y-36253524D01*
X205827Y-36312386D01*
X205828Y-36312388D01*
X205828Y-36312390D01*
X205829Y-36312391D01*
X255497Y-36445554D01*
X340669Y-36559331D01*
X454446Y-36644503D01*
X587609Y-36694171D01*
X646479Y-36700500D01*
X1228520Y-36700499D01*
X1228524Y-36700499D01*
X1287386Y-36694172D01*
X1287388Y-36694171D01*
X1287391Y-36694171D01*
X1420554Y-36644503D01*
X1420556Y-36644501D01*
X1425954Y-36642488D01*
X1513740Y-36630778D01*
X1597913Y-36658316D01*
X1661802Y-36719648D01*
X1692753Y-36802627D01*
X1694500Y-36828940D01*
X1694500Y-38126000D01*
X1697649Y-38155289D01*
X1701481Y-38190939D01*
X1701482Y-38190941D01*
X1708426Y-38222861D01*
X1712691Y-38242465D01*
X1712693Y-38242475D01*
X1723643Y-38280653D01*
X1723645Y-38280656D01*
X1780324Y-38377570D01*
X1780326Y-38377573D01*
X1826081Y-38430377D01*
X1826085Y-38430381D01*
X1870809Y-38472551D01*
X1870813Y-38472553D01*
X1970889Y-38523439D01*
X2037928Y-38543124D01*
X2037930Y-38543124D01*
X2037933Y-38543125D01*
X2072199Y-38548051D01*
X2123996Y-38555499D01*
X2123997Y-38555500D01*
X2124000Y-38555500D01*
X7625995Y-38555500D01*
X7626000Y-38555500D01*
X7690941Y-38548518D01*
X7742452Y-38537312D01*
X7742468Y-38537307D01*
X7742475Y-38537306D01*
X7780653Y-38526356D01*
X7780654Y-38526355D01*
X7780658Y-38526354D01*
X7877571Y-38469675D01*
X7930375Y-38423920D01*
X7950242Y-38402850D01*
X7972551Y-38379190D01*
X7972553Y-38379187D01*
X8023439Y-38279111D01*
X8043124Y-38212072D01*
X8055500Y-38126000D01*
X8055500Y-33124000D01*
X8048518Y-33059059D01*
X8037312Y-33007548D01*
X8037308Y-33007534D01*
X8037306Y-33007524D01*
X8026356Y-32969346D01*
X8026354Y-32969343D01*
X8026354Y-32969342D01*
X7969675Y-32872429D01*
X7969673Y-32872426D01*
X7923918Y-32819622D01*
X7923914Y-32819618D01*
X7879190Y-32777448D01*
X7779111Y-32726561D01*
X7779105Y-32726559D01*
X7712070Y-32706875D01*
X7712066Y-32706874D01*
X7626003Y-32694500D01*
X7626000Y-32694500D01*
X2124000Y-32694500D01*
X2099591Y-32697124D01*
X2059060Y-32701481D01*
X2059059Y-32701482D01*
X2007534Y-32712691D01*
X2007524Y-32712693D01*
X1969346Y-32723643D01*
X1969343Y-32723645D01*
X1872429Y-32780324D01*
X1872426Y-32780326D01*
X1819622Y-32826081D01*
X1819618Y-32826085D01*
X1777448Y-32870809D01*
X1726561Y-32970888D01*
X1726559Y-32970894D01*
X1706875Y-33037929D01*
X1706875Y-33037930D01*
X1696416Y-33110667D01*
X1664620Y-33193326D01*
X1600108Y-33254003D01*
X1515659Y-33280681D01*
X1471822Y-33277751D01*
X1471754Y-33278485D01*
X1459700Y-33277354D01*
X1459699Y-33277354D01*
X1429266Y-33274500D01*
X920734Y-33274500D01*
X890301Y-33277354D01*
X762118Y-33322207D01*
X762116Y-33322208D01*
X762114Y-33322209D01*
X652849Y-33402849D01*
X572209Y-33512114D01*
X572208Y-33512116D01*
X572207Y-33512118D01*
X527354Y-33640301D01*
X524500Y-33670739D01*
X524500Y-34329261D01*
X527354Y-34359703D01*
X529938Y-34371530D01*
X528629Y-34371815D01*
X537000Y-34421077D01*
X537000Y-34694085D01*
X517293Y-34780428D01*
X462074Y-34849669D01*
X457257Y-34853392D01*
X340669Y-34940668D01*
X255497Y-35054446D01*
X205829Y-35187609D01*
X199500Y-35246477D01*
X-199500Y-35246477D01*
X-199500Y-35246475D01*
X-205827Y-35187613D01*
X-205828Y-35187611D01*
X-255497Y-35054445D01*
X-340669Y-34940669D01*
X-454446Y-34855497D01*
X-587609Y-34805829D01*
X-646477Y-34799500D01*
X-1228524Y-34799500D01*
X-1287386Y-34805827D01*
X-1287388Y-34805828D01*
X-1287390Y-34805828D01*
X-1287391Y-34805829D01*
X-1420554Y-34855497D01*
X-1534331Y-34940669D01*
X-1619503Y-35054446D01*
X-1669171Y-35187609D01*
X-1675500Y-35246479D01*
X-1675499Y-36253520D01*
X-1669171Y-36312391D01*
X-1619503Y-36445554D01*
X-1534331Y-36559331D01*
X-1420554Y-36644503D01*
X-1420552Y-36644503D01*
X-1417744Y-36646606D01*
X-1360433Y-36714126D01*
X-1338093Y-36799825D01*
X-1338000Y-36805914D01*
X-1338000Y-38675966D01*
X-1357707Y-38762309D01*
X-1412926Y-38831550D01*
X-1492718Y-38869977D01*
X-1505866Y-38872515D01*
X-1539401Y-38877827D01*
X-1539418Y-38877831D01*
X-1711632Y-38933786D01*
X-1711651Y-38933794D01*
X-1872988Y-39016000D01*
X-1872992Y-39016003D01*
X-1872994Y-39016004D01*
X-2019501Y-39122447D01*
X-2019503Y-39122449D01*
X-2147551Y-39250497D01*
X-2147557Y-39250504D01*
X-2196210Y-39317469D01*
X-2262904Y-39375739D01*
X-2348276Y-39399300D01*
X-2357204Y-39399500D01*
X-4391557Y-39399500D01*
X-4552854Y-39442719D01*
X-4599987Y-39449452D01*
X-4602176Y-39449500D01*
X-4931518Y-39449501D01*
X-4984577Y-39457904D01*
X-4998039Y-39458200D01*
X-5028561Y-39451935D01*
X-5059648Y-39449839D01*
X-5071472Y-39443128D01*
X-5084794Y-39440395D01*
X-5109578Y-39421505D01*
X-5136674Y-39406130D01*
X-5144416Y-39394954D01*
X-5155232Y-39386711D01*
X-5169364Y-39358941D01*
X-5187108Y-39333330D01*
X-5189234Y-39319899D01*
X-5195402Y-39307782D01*
X-5196086Y-39276631D01*
X-5200960Y-39245857D01*
X-5199861Y-39236099D01*
X-5199501Y-39231526D01*
X-5199500Y-39231519D01*
X-5199500Y-39089244D01*
X-5199500Y-38868481D01*
X-5214354Y-38774696D01*
X-5214354Y-38774694D01*
X-5271951Y-38661655D01*
X-5361657Y-38571949D01*
X-5474692Y-38514355D01*
X-5474699Y-38514353D01*
X-5568481Y-38499500D01*
X-6806518Y-38499500D01*
X-6886160Y-38512114D01*
X-6900304Y-38514354D01*
X-6900308Y-38514355D01*
X-7024844Y-38577810D01*
X-7110723Y-38599450D01*
X-7115188Y-38599500D01*
X-8657256Y-38599500D01*
X-8743599Y-38579793D01*
X-8812840Y-38524574D01*
X-8817371Y-38518670D01*
X-8902849Y-38402849D01*
X-9012114Y-38322209D01*
X-9012116Y-38322208D01*
X-9012118Y-38322207D01*
X-9140301Y-38277354D01*
X-9170734Y-38274500D01*
X-9679266Y-38274500D01*
X-9709699Y-38277354D01*
X-9837882Y-38322207D01*
X-9837884Y-38322208D01*
X-9837885Y-38322209D01*
X-9947150Y-38402849D01*
X-10027790Y-38512114D01*
X-10027791Y-38512114D01*
X-10027791Y-38512116D01*
X-10027793Y-38512118D01*
X-10058369Y-38599500D01*
X-10062167Y-38610355D01*
X-10109286Y-38685344D01*
X-10184275Y-38732462D01*
X-10272281Y-38742378D01*
X-10355875Y-38713127D01*
X-10418498Y-38650503D01*
X-10437833Y-38610355D01*
X-10441631Y-38599500D01*
X-10472207Y-38512118D01*
X-10472208Y-38512116D01*
X-10472209Y-38512114D01*
X-10552849Y-38402849D01*
X-10593670Y-38372723D01*
X-10651439Y-38305595D01*
X-10674361Y-38220049D01*
X-10674500Y-38212608D01*
X-10674500Y-33323321D01*
X-10654793Y-33236978D01*
X-10616214Y-33182607D01*
X-7689407Y-30255800D01*
X-2425000Y-30255800D01*
X-2414591Y-30357678D01*
X-2359909Y-30522702D01*
X-2359906Y-30522708D01*
X-2268629Y-30670691D01*
X-2268627Y-30670694D01*
X-2145694Y-30793627D01*
X-2145691Y-30793629D01*
X-1997708Y-30884906D01*
X-1997702Y-30884909D01*
X-1832678Y-30939591D01*
X-1832679Y-30939591D01*
X-1730800Y-30950000D01*
X-1687500Y-30950000D01*
X-1687500Y-30000000D01*
X-2425000Y-30000000D01*
X-2425000Y-30255800D01*
X-7689407Y-30255800D01*
X-6677806Y-29244199D01*
X-2425000Y-29244199D01*
X-2425000Y-29500000D01*
X-1636500Y-29500000D01*
X-1614642Y-29504989D01*
X-1592218Y-29504989D01*
X-1572016Y-29514717D01*
X-1550157Y-29519707D01*
X-1532625Y-29533688D01*
X-1512426Y-29543416D01*
X-1498446Y-29560946D01*
X-1480916Y-29574926D01*
X-1471188Y-29595125D01*
X-1457207Y-29612657D01*
X-1452217Y-29634516D01*
X-1442489Y-29654718D01*
X-1437500Y-29699000D01*
X-1437500Y-29750000D01*
X-1386500Y-29750000D01*
X-1300157Y-29769707D01*
X-1230916Y-29824926D01*
X-1192489Y-29904718D01*
X-1187500Y-29949000D01*
X-1187500Y-30950000D01*
X-1144200Y-30950000D01*
X-1042321Y-30939591D01*
X-877297Y-30884909D01*
X-877291Y-30884906D01*
X-729308Y-30793629D01*
X-729305Y-30793627D01*
X-606372Y-30670694D01*
X-606367Y-30670687D01*
X-520244Y-30531059D01*
X-458143Y-30467916D01*
X-374796Y-30437971D01*
X-286710Y-30447155D01*
X-211332Y-30493648D01*
X-191568Y-30516266D01*
X-159331Y-30559331D01*
X-45554Y-30644503D01*
X87609Y-30694171D01*
X146479Y-30700500D01*
X728520Y-30700499D01*
X728524Y-30700499D01*
X787386Y-30694172D01*
X787387Y-30694171D01*
X787391Y-30694171D01*
X920554Y-30644503D01*
X1034331Y-30559331D01*
X1119503Y-30445554D01*
X1169171Y-30312391D01*
X1175500Y-30253521D01*
X1175499Y-29246480D01*
X1175499Y-29246477D01*
X1175499Y-29246475D01*
X1169172Y-29187613D01*
X1169171Y-29187611D01*
X1169171Y-29187609D01*
X1119503Y-29054446D01*
X1034331Y-28940669D01*
X1034330Y-28940668D01*
X917743Y-28853392D01*
X915728Y-28851018D01*
X912926Y-28849669D01*
X887165Y-28817366D01*
X860433Y-28785872D01*
X859648Y-28782862D01*
X857707Y-28780428D01*
X848511Y-28740141D01*
X838093Y-28700173D01*
X838000Y-28694085D01*
X838000Y-28621436D01*
X857707Y-28535093D01*
X912926Y-28465852D01*
X971270Y-28433605D01*
X987882Y-28427793D01*
X1097150Y-28347150D01*
X1177793Y-28237882D01*
X1222646Y-28109699D01*
X1225500Y-28079266D01*
X1225500Y-27420734D01*
X2274500Y-27420734D01*
X2274500Y-28079266D01*
X2277354Y-28109699D01*
X2322207Y-28237882D01*
X2322208Y-28237884D01*
X2322209Y-28237885D01*
X2402849Y-28347150D01*
X2512114Y-28427790D01*
X2512118Y-28427793D01*
X2528727Y-28433604D01*
X2556995Y-28451366D01*
X2587074Y-28465852D01*
X2594129Y-28474698D01*
X2603712Y-28480720D01*
X2621475Y-28508988D01*
X2642293Y-28535093D01*
X2644811Y-28546126D01*
X2650832Y-28555708D01*
X2662000Y-28621436D01*
X2662000Y-28694085D01*
X2642293Y-28780428D01*
X2587074Y-28849669D01*
X2582257Y-28853392D01*
X2465669Y-28940668D01*
X2380497Y-29054446D01*
X2330829Y-29187609D01*
X2324500Y-29246477D01*
X2324500Y-30253524D01*
X2330827Y-30312386D01*
X2330828Y-30312388D01*
X2330828Y-30312390D01*
X2330829Y-30312391D01*
X2380497Y-30445554D01*
X2465669Y-30559331D01*
X2579446Y-30644503D01*
X2712609Y-30694171D01*
X2771479Y-30700500D01*
X3353520Y-30700499D01*
X3353524Y-30700499D01*
X3412386Y-30694172D01*
X3412387Y-30694171D01*
X3412391Y-30694171D01*
X3545554Y-30644503D01*
X3659331Y-30559331D01*
X3691564Y-30516271D01*
X3759081Y-30458962D01*
X3844780Y-30436621D01*
X3931686Y-30453677D01*
X4002585Y-30506750D01*
X4020244Y-30531059D01*
X4106367Y-30670687D01*
X4106372Y-30670694D01*
X4229305Y-30793627D01*
X4229308Y-30793629D01*
X4377291Y-30884906D01*
X4377297Y-30884909D01*
X4542321Y-30939591D01*
X4542320Y-30939591D01*
X4644200Y-30950000D01*
X4687500Y-30950000D01*
X5187500Y-30950000D01*
X5230800Y-30950000D01*
X5332678Y-30939591D01*
X5497702Y-30884909D01*
X5497708Y-30884906D01*
X5645691Y-30793629D01*
X5645694Y-30793627D01*
X5768627Y-30670694D01*
X5768629Y-30670691D01*
X5859906Y-30522708D01*
X5859909Y-30522702D01*
X5914591Y-30357678D01*
X5925000Y-30255800D01*
X5925000Y-30000000D01*
X5187500Y-30000000D01*
X5187500Y-30950000D01*
X4687500Y-30950000D01*
X4687500Y-29949000D01*
X4692489Y-29927141D01*
X4692489Y-29904718D01*
X4702217Y-29884516D01*
X4707207Y-29862657D01*
X4721188Y-29845125D01*
X4730916Y-29824926D01*
X4748446Y-29810946D01*
X4762426Y-29793416D01*
X4782625Y-29783688D01*
X4800157Y-29769707D01*
X4822016Y-29764717D01*
X4842218Y-29754989D01*
X4886500Y-29750000D01*
X4937500Y-29750000D01*
X4937500Y-29699000D01*
X4957207Y-29612657D01*
X5012426Y-29543416D01*
X5092218Y-29504989D01*
X5136500Y-29500000D01*
X5925000Y-29500000D01*
X5925000Y-29244199D01*
X5914591Y-29142321D01*
X5859909Y-28977297D01*
X5859906Y-28977291D01*
X5768629Y-28829308D01*
X5768627Y-28829305D01*
X5645694Y-28706372D01*
X5645691Y-28706370D01*
X5497708Y-28615093D01*
X5497702Y-28615090D01*
X5332678Y-28560408D01*
X5332672Y-28560406D01*
X5314345Y-28558534D01*
X5230453Y-28530151D01*
X5167184Y-28468179D01*
X5137069Y-28384893D01*
X5146072Y-28296789D01*
X5174464Y-28242392D01*
X5177793Y-28237882D01*
X5222646Y-28109699D01*
X5224184Y-28093300D01*
X8075000Y-28093300D01*
X8085408Y-28195178D01*
X8140090Y-28360202D01*
X8140093Y-28360208D01*
X8231370Y-28508191D01*
X8231372Y-28508194D01*
X8354305Y-28631127D01*
X8354308Y-28631129D01*
X8502291Y-28722406D01*
X8502297Y-28722409D01*
X8667321Y-28777091D01*
X8667320Y-28777091D01*
X8769200Y-28787500D01*
X8812500Y-28787500D01*
X8812500Y-27837500D01*
X8075000Y-27837500D01*
X8075000Y-28093300D01*
X5224184Y-28093300D01*
X5225500Y-28079266D01*
X5225500Y-27420734D01*
X5222646Y-27390301D01*
X5177793Y-27262118D01*
X5172876Y-27255456D01*
X5097150Y-27152849D01*
X5056330Y-27122723D01*
X4998561Y-27055595D01*
X4975639Y-26970049D01*
X4975500Y-26962608D01*
X4975500Y-26022274D01*
X4966316Y-25987996D01*
X4966316Y-25987995D01*
X4950209Y-25927884D01*
X4946897Y-25839383D01*
X4958575Y-25800226D01*
X4962051Y-25791835D01*
X5000500Y-25598541D01*
X5000500Y-25401459D01*
X4962051Y-25208165D01*
X4886632Y-25026086D01*
X4777139Y-24862218D01*
X4637782Y-24722861D01*
X4555297Y-24667746D01*
X4473916Y-24613369D01*
X4473909Y-24613365D01*
X4291836Y-24537949D01*
X4291832Y-24537948D01*
X4162389Y-24512200D01*
X4098541Y-24499500D01*
X3901459Y-24499500D01*
X3853464Y-24509046D01*
X3708167Y-24537948D01*
X3708163Y-24537949D01*
X3526090Y-24613365D01*
X3526083Y-24613369D01*
X3362222Y-24722858D01*
X3362214Y-24722864D01*
X3222864Y-24862214D01*
X3222862Y-24862217D01*
X3113369Y-25026083D01*
X3113365Y-25026090D01*
X3037949Y-25208163D01*
X3037948Y-25208167D01*
X2999500Y-25401459D01*
X2999500Y-25598540D01*
X3037948Y-25791832D01*
X3037949Y-25791836D01*
X3113365Y-25973909D01*
X3113369Y-25973916D01*
X3125763Y-25992465D01*
X3222861Y-26137782D01*
X3362218Y-26277139D01*
X3493378Y-26364777D01*
X3526083Y-26386630D01*
X3526090Y-26386634D01*
X3647472Y-26436911D01*
X3708165Y-26462051D01*
X3901459Y-26500500D01*
X3901460Y-26500500D01*
X3975500Y-26500500D01*
X3997358Y-26505489D01*
X4019782Y-26505489D01*
X4039983Y-26515217D01*
X4061843Y-26520207D01*
X4079374Y-26534188D01*
X4099574Y-26543916D01*
X4113553Y-26561446D01*
X4131084Y-26575426D01*
X4140811Y-26595625D01*
X4154793Y-26613157D01*
X4159782Y-26635016D01*
X4169511Y-26655218D01*
X4174500Y-26699500D01*
X4174500Y-26962608D01*
X4154793Y-27048951D01*
X4099574Y-27118192D01*
X4093670Y-27122723D01*
X4052849Y-27152849D01*
X3972209Y-27262114D01*
X3972208Y-27262114D01*
X3972207Y-27262118D01*
X3938935Y-27357207D01*
X3937833Y-27360355D01*
X3890714Y-27435344D01*
X3815725Y-27482462D01*
X3727719Y-27492378D01*
X3644125Y-27463127D01*
X3581502Y-27400503D01*
X3562167Y-27360355D01*
X3527793Y-27262118D01*
X3522876Y-27255456D01*
X3447150Y-27152849D01*
X3337885Y-27072209D01*
X3337884Y-27072208D01*
X3337882Y-27072207D01*
X3209699Y-27027354D01*
X3179266Y-27024500D01*
X2670734Y-27024500D01*
X2640301Y-27027354D01*
X2512118Y-27072207D01*
X2512116Y-27072208D01*
X2512114Y-27072209D01*
X2402849Y-27152849D01*
X2322209Y-27262114D01*
X2322208Y-27262116D01*
X2322207Y-27262118D01*
X2277354Y-27390301D01*
X2274500Y-27420734D01*
X1225500Y-27420734D01*
X1222646Y-27390301D01*
X1177793Y-27262118D01*
X1172876Y-27255456D01*
X1097150Y-27152849D01*
X987885Y-27072209D01*
X987884Y-27072208D01*
X987882Y-27072207D01*
X859699Y-27027354D01*
X829266Y-27024500D01*
X320734Y-27024500D01*
X290301Y-27027354D01*
X162118Y-27072207D01*
X162116Y-27072208D01*
X162114Y-27072209D01*
X52849Y-27152849D01*
X-27790Y-27262114D01*
X-27791Y-27262114D01*
X-27791Y-27262116D01*
X-27793Y-27262118D01*
X-62167Y-27360355D01*
X-109286Y-27435344D01*
X-184275Y-27482462D01*
X-272281Y-27492378D01*
X-355875Y-27463127D01*
X-418498Y-27400503D01*
X-437833Y-27360355D01*
X-472207Y-27262118D01*
X-472208Y-27262116D01*
X-472209Y-27262114D01*
X-552849Y-27152849D01*
X-593670Y-27122723D01*
X-596150Y-27119840D01*
X-599574Y-27118192D01*
X-624914Y-27086416D01*
X-651439Y-27055595D01*
X-652422Y-27051922D01*
X-654793Y-27048951D01*
X-663838Y-27009318D01*
X-674361Y-26970049D01*
X-674500Y-26962608D01*
X-674500Y-26699500D01*
X-654793Y-26613157D01*
X-599574Y-26543916D01*
X-519782Y-26505489D01*
X-475500Y-26500500D01*
X-401460Y-26500500D01*
X-401459Y-26500500D01*
X-208165Y-26462051D01*
X-147472Y-26436911D01*
X-26090Y-26386634D01*
X-26083Y-26386630D01*
X-16798Y-26380426D01*
X137782Y-26277139D01*
X277139Y-26137782D01*
X386632Y-25973914D01*
X462051Y-25791835D01*
X500500Y-25598541D01*
X500500Y-25401459D01*
X462051Y-25208165D01*
X386632Y-25026086D01*
X277139Y-24862218D01*
X137782Y-24722861D01*
X93370Y-24693186D01*
X-26083Y-24613369D01*
X-26090Y-24613365D01*
X-208163Y-24537949D01*
X-208167Y-24537948D01*
X-353464Y-24509046D01*
X-401459Y-24499500D01*
X-598541Y-24499500D01*
X-662389Y-24512200D01*
X-791832Y-24537948D01*
X-791836Y-24537949D01*
X-973909Y-24613365D01*
X-973916Y-24613369D01*
X-1055297Y-24667746D01*
X-1137782Y-24722861D01*
X-1277139Y-24862218D01*
X-1386632Y-25026086D01*
X-1462051Y-25208165D01*
X-1500500Y-25401459D01*
X-1500500Y-25598541D01*
X-1462051Y-25791835D01*
X-1458576Y-25800223D01*
X-1443741Y-25887532D01*
X-1450209Y-25927884D01*
X-1466316Y-25987995D01*
X-1466316Y-25987996D01*
X-1475500Y-26022274D01*
X-1475500Y-26962608D01*
X-1495207Y-27048951D01*
X-1550426Y-27118192D01*
X-1556330Y-27122723D01*
X-1597150Y-27152849D01*
X-1672876Y-27255456D01*
X-1677793Y-27262118D01*
X-1722646Y-27390301D01*
X-1725500Y-27420734D01*
X-1725500Y-28079266D01*
X-1722646Y-28109699D01*
X-1677793Y-28237882D01*
X-1674465Y-28242390D01*
X-1639048Y-28323556D01*
X-1642354Y-28412058D01*
X-1683732Y-28490361D01*
X-1754986Y-28542956D01*
X-1814345Y-28558534D01*
X-1832672Y-28560406D01*
X-1832678Y-28560408D01*
X-1997702Y-28615090D01*
X-1997708Y-28615093D01*
X-2145691Y-28706370D01*
X-2145694Y-28706372D01*
X-2268627Y-28829305D01*
X-2268629Y-28829308D01*
X-2359906Y-28977291D01*
X-2359909Y-28977297D01*
X-2414591Y-29142321D01*
X-2425000Y-29244199D01*
X-6677806Y-29244199D01*
X-6532019Y-29098412D01*
X-2831286Y-25397679D01*
X955480Y-21610913D01*
X1008207Y-21519588D01*
X1035500Y-21417727D01*
X1035500Y-21312273D01*
X1035500Y-13678568D01*
X1055207Y-13592225D01*
X1110426Y-13522984D01*
X1164449Y-13492305D01*
X1179692Y-13486572D01*
X1182740Y-13485966D01*
X1184588Y-13484730D01*
X1199949Y-13478954D01*
X1240651Y-13473412D01*
X1281157Y-13466530D01*
X1284909Y-13467386D01*
X1287703Y-13467006D01*
X1298315Y-13470446D01*
X1346155Y-13481365D01*
X1357255Y-13485963D01*
X1357260Y-13485966D01*
X1357265Y-13485967D01*
X1375369Y-13493466D01*
X1374147Y-13496414D01*
X1374786Y-13497024D01*
X1425153Y-13519558D01*
X1482296Y-13587221D01*
X1504421Y-13672976D01*
X1504500Y-13678568D01*
X1504500Y-14352273D01*
X1504500Y-14457727D01*
X1507497Y-14468913D01*
X1531793Y-14559589D01*
X1584519Y-14650912D01*
X1584520Y-14650913D01*
X5505816Y-18572209D01*
X9287379Y-22353771D01*
X9334498Y-22428759D01*
X9344414Y-22516766D01*
X9315163Y-22600359D01*
X9287380Y-22635198D01*
X9222865Y-22699713D01*
X9222858Y-22699722D01*
X9113369Y-22863583D01*
X9113365Y-22863590D01*
X9037949Y-23045663D01*
X9037948Y-23045667D01*
X8999500Y-23238959D01*
X8999500Y-23436041D01*
X8999499Y-23436041D01*
X9034422Y-23611609D01*
X9031938Y-23700137D01*
X8991289Y-23778821D01*
X8979961Y-23791144D01*
X8854522Y-23916584D01*
X8854521Y-23916585D01*
X8801792Y-24007913D01*
X8795012Y-24033219D01*
X8795012Y-24033220D01*
X8774500Y-24109772D01*
X8774500Y-24800108D01*
X8754793Y-24886451D01*
X8699574Y-24955692D01*
X8693670Y-24960223D01*
X8652849Y-24990349D01*
X8572209Y-25099614D01*
X8572208Y-25099616D01*
X8572207Y-25099618D01*
X8527354Y-25227801D01*
X8524500Y-25258234D01*
X8524500Y-25916766D01*
X8527354Y-25947199D01*
X8572207Y-26075382D01*
X8572208Y-26075384D01*
X8619226Y-26139092D01*
X8654641Y-26220266D01*
X8651329Y-26308768D01*
X8609945Y-26387068D01*
X8538687Y-26439658D01*
X8521706Y-26446160D01*
X8502293Y-26452592D01*
X8502291Y-26452593D01*
X8354308Y-26543870D01*
X8354305Y-26543872D01*
X8231372Y-26666805D01*
X8231370Y-26666808D01*
X8140093Y-26814791D01*
X8140090Y-26814797D01*
X8085408Y-26979821D01*
X8075000Y-27081699D01*
X8075000Y-27337500D01*
X8863500Y-27337500D01*
X8885358Y-27342489D01*
X8907782Y-27342489D01*
X8927983Y-27352217D01*
X8949843Y-27357207D01*
X8967374Y-27371188D01*
X8987574Y-27380916D01*
X9001553Y-27398446D01*
X9019084Y-27412426D01*
X9028811Y-27432625D01*
X9042793Y-27450157D01*
X9047782Y-27472016D01*
X9057511Y-27492218D01*
X9062500Y-27536500D01*
X9062500Y-27587500D01*
X9113500Y-27587500D01*
X9199843Y-27607207D01*
X9269084Y-27662426D01*
X9307511Y-27742218D01*
X9312500Y-27786500D01*
X9312500Y-28787500D01*
X9355800Y-28787500D01*
X9457678Y-28777091D01*
X9622702Y-28722409D01*
X9622708Y-28722406D01*
X9770691Y-28631129D01*
X9770694Y-28631127D01*
X9893627Y-28508194D01*
X9893632Y-28508188D01*
X9979755Y-28368559D01*
X10041855Y-28305417D01*
X10125202Y-28275472D01*
X10213288Y-28284655D01*
X10288666Y-28331148D01*
X10308433Y-28353768D01*
X10340669Y-28396831D01*
X10454446Y-28482003D01*
X10587609Y-28531671D01*
X10646479Y-28538000D01*
X11228520Y-28537999D01*
X11228524Y-28537999D01*
X11287386Y-28531672D01*
X11287387Y-28531671D01*
X11287391Y-28531671D01*
X11420554Y-28482003D01*
X11534331Y-28396831D01*
X11619503Y-28283054D01*
X11669171Y-28149891D01*
X11675500Y-28091021D01*
X11675499Y-27083980D01*
X11675499Y-27083979D01*
X11675499Y-27083975D01*
X11669172Y-27025113D01*
X11669171Y-27025111D01*
X11669171Y-27025109D01*
X11619503Y-26891946D01*
X11534331Y-26778169D01*
X11420554Y-26692997D01*
X11354955Y-26668529D01*
X11328713Y-26651283D01*
X11300426Y-26637661D01*
X11292102Y-26627224D01*
X11280944Y-26619891D01*
X11264783Y-26592968D01*
X11245207Y-26568420D01*
X11242236Y-26555403D01*
X11235365Y-26543956D01*
X11225500Y-26482077D01*
X11225500Y-26374891D01*
X11245207Y-26288548D01*
X11300426Y-26219307D01*
X11306301Y-26214797D01*
X11347150Y-26184650D01*
X11427793Y-26075382D01*
X11472646Y-25947199D01*
X11475500Y-25916766D01*
X11475500Y-25258234D01*
X11472646Y-25227801D01*
X11427793Y-25099618D01*
X11394784Y-25054892D01*
X11347150Y-24990349D01*
X11237885Y-24909709D01*
X11237884Y-24909708D01*
X11237882Y-24909707D01*
X11109699Y-24864854D01*
X11079266Y-24862000D01*
X10570734Y-24862000D01*
X10540301Y-24864854D01*
X10412118Y-24909707D01*
X10412116Y-24909708D01*
X10412114Y-24909709D01*
X10302849Y-24990349D01*
X10222209Y-25099614D01*
X10222208Y-25099614D01*
X10187833Y-25197855D01*
X10140714Y-25272844D01*
X10065725Y-25319962D01*
X9977719Y-25329878D01*
X9894125Y-25300627D01*
X9831502Y-25238003D01*
X9812167Y-25197855D01*
X9777793Y-25099618D01*
X9744784Y-25054892D01*
X9697150Y-24990349D01*
X9656330Y-24960223D01*
X9653849Y-24957340D01*
X9650426Y-24955692D01*
X9625085Y-24923916D01*
X9598561Y-24893095D01*
X9597577Y-24889422D01*
X9595207Y-24886451D01*
X9586161Y-24846818D01*
X9575639Y-24807549D01*
X9575500Y-24800108D01*
X9575500Y-24594983D01*
X21750001Y-24594983D01*
X21760493Y-24697695D01*
X21760493Y-24697696D01*
X21815641Y-24864120D01*
X21907682Y-25013342D01*
X21907685Y-25013346D01*
X22031653Y-25137314D01*
X22031657Y-25137317D01*
X22180878Y-25229357D01*
X22347299Y-25284504D01*
X22450029Y-25294999D01*
X22749999Y-25294999D01*
X22750000Y-25294998D01*
X22750000Y-24430000D01*
X21750001Y-24430000D01*
X21750001Y-24594983D01*
X9575500Y-24594983D01*
X9575500Y-24515644D01*
X9595207Y-24429301D01*
X9650426Y-24360060D01*
X9730218Y-24321633D01*
X9813320Y-24320468D01*
X9901459Y-24338000D01*
X9901461Y-24338000D01*
X10098540Y-24338000D01*
X10098541Y-24338000D01*
X10291835Y-24299551D01*
X10473914Y-24224132D01*
X10637782Y-24114639D01*
X10777139Y-23975282D01*
X10886632Y-23811414D01*
X10905845Y-23765029D01*
X21750000Y-23765029D01*
X21750000Y-23930000D01*
X22750000Y-23930000D01*
X22750000Y-23065000D01*
X22450023Y-23065000D01*
X22450016Y-23065001D01*
X22347304Y-23075493D01*
X22347303Y-23075493D01*
X22180879Y-23130641D01*
X22031657Y-23222682D01*
X22031653Y-23222685D01*
X21907685Y-23346653D01*
X21907682Y-23346657D01*
X21815642Y-23495878D01*
X21760495Y-23662299D01*
X21750000Y-23765029D01*
X10905845Y-23765029D01*
X10962051Y-23629335D01*
X11000500Y-23436041D01*
X11000500Y-23238959D01*
X10962051Y-23045665D01*
X10886632Y-22863586D01*
X10777139Y-22699718D01*
X10637782Y-22560361D01*
X10555297Y-22505246D01*
X10473916Y-22450869D01*
X10465437Y-22446337D01*
X10398579Y-22388255D01*
X10386178Y-22369064D01*
X10373612Y-22346925D01*
X10373207Y-22345413D01*
X10373207Y-22345412D01*
X10346843Y-22299750D01*
X10320480Y-22254087D01*
X10320479Y-22254086D01*
X10238975Y-22172581D01*
X10238952Y-22172560D01*
X2363786Y-14297393D01*
X2316667Y-14222405D01*
X2305500Y-14156679D01*
X2305500Y-13678568D01*
X2325207Y-13592225D01*
X2380426Y-13522984D01*
X2434449Y-13492305D01*
X2449692Y-13486572D01*
X2452740Y-13485966D01*
X2454588Y-13484730D01*
X2469949Y-13478954D01*
X2510651Y-13473412D01*
X2551157Y-13466530D01*
X2554909Y-13467386D01*
X2557703Y-13467006D01*
X2568315Y-13470446D01*
X2616155Y-13481365D01*
X2627255Y-13485962D01*
X2627260Y-13485966D01*
X2700326Y-13500500D01*
X2700328Y-13500500D01*
X3649672Y-13500500D01*
X3649674Y-13500500D01*
X3722740Y-13485966D01*
X3722746Y-13485961D01*
X3733845Y-13481365D01*
X3821157Y-13466530D01*
X3886155Y-13481365D01*
X3897255Y-13485962D01*
X3897260Y-13485966D01*
X3970326Y-13500500D01*
X3970328Y-13500500D01*
X4919672Y-13500500D01*
X4919674Y-13500500D01*
X4992740Y-13485966D01*
X4992746Y-13485961D01*
X5003845Y-13481365D01*
X5091157Y-13466530D01*
X5156155Y-13481365D01*
X5167255Y-13485962D01*
X5167260Y-13485966D01*
X5240326Y-13500500D01*
X5240328Y-13500500D01*
X6189672Y-13500500D01*
X6189674Y-13500500D01*
X6262740Y-13485966D01*
X6262746Y-13485961D01*
X6273845Y-13481365D01*
X6361157Y-13466530D01*
X6426155Y-13481365D01*
X6437255Y-13485962D01*
X6437260Y-13485966D01*
X6510326Y-13500500D01*
X6510328Y-13500500D01*
X7459672Y-13500500D01*
X7459674Y-13500500D01*
X7532740Y-13485966D01*
X7532741Y-13485965D01*
X7532742Y-13485965D01*
X7615601Y-13430601D01*
X7670965Y-13347742D01*
X7670965Y-13347741D01*
X7670966Y-13347740D01*
X7685500Y-13274674D01*
X7685500Y-12135331D01*
X7705207Y-12048988D01*
X7760426Y-11979747D01*
X7840218Y-11941320D01*
X7923319Y-11940155D01*
X7975326Y-11950500D01*
X8801679Y-11950500D01*
X8888022Y-11970207D01*
X8942393Y-12008786D01*
X16429088Y-19495481D01*
X16429092Y-19495484D01*
X16520409Y-19548205D01*
X16520413Y-19548207D01*
X16622273Y-19575500D01*
X16727726Y-19575500D01*
X19212608Y-19575500D01*
X19298951Y-19595207D01*
X19368192Y-19650426D01*
X19372723Y-19656330D01*
X19402849Y-19697150D01*
X19512114Y-19777790D01*
X19512114Y-19777791D01*
X19512116Y-19777791D01*
X19512118Y-19777793D01*
X19610356Y-19812168D01*
X19685344Y-19859286D01*
X19732462Y-19934275D01*
X19742378Y-20022281D01*
X19713127Y-20105875D01*
X19650503Y-20168498D01*
X19610358Y-20187831D01*
X19556672Y-20206616D01*
X19512114Y-20222208D01*
X19512114Y-20222209D01*
X19402849Y-20302849D01*
X19322209Y-20412114D01*
X19322208Y-20412116D01*
X19322207Y-20412118D01*
X19277354Y-20540301D01*
X19274500Y-20570734D01*
X19274500Y-21079266D01*
X19277354Y-21109699D01*
X19322207Y-21237882D01*
X19322208Y-21237884D01*
X19322209Y-21237885D01*
X19402848Y-21347148D01*
X19402849Y-21347148D01*
X19402850Y-21347150D01*
X19406536Y-21349871D01*
X19412506Y-21356807D01*
X19413395Y-21357696D01*
X19413328Y-21357762D01*
X19464307Y-21416997D01*
X19487232Y-21502542D01*
X19480590Y-21561494D01*
X19449501Y-21677519D01*
X19449500Y-21677527D01*
X19449500Y-21822477D01*
X19487016Y-21962485D01*
X19543598Y-22060489D01*
X19559491Y-22088015D01*
X19661985Y-22190509D01*
X19787515Y-22262984D01*
X19927525Y-22300500D01*
X19927528Y-22300500D01*
X20072472Y-22300500D01*
X20072475Y-22300500D01*
X20212485Y-22262984D01*
X20338015Y-22190509D01*
X20440509Y-22088015D01*
X20512984Y-21962485D01*
X20550500Y-21822475D01*
X20550500Y-21677525D01*
X20519408Y-21561492D01*
X20516097Y-21472995D01*
X20551512Y-21391821D01*
X20593461Y-21349873D01*
X20597150Y-21347150D01*
X20663393Y-21257393D01*
X20677793Y-21237882D01*
X20722646Y-21109699D01*
X20725500Y-21079266D01*
X20725500Y-20570734D01*
X20722646Y-20540301D01*
X20677793Y-20412118D01*
X20654699Y-20380827D01*
X20597150Y-20302849D01*
X20487885Y-20222209D01*
X20487884Y-20222208D01*
X20487882Y-20222207D01*
X20389641Y-20187831D01*
X20314656Y-20140714D01*
X20267537Y-20065726D01*
X20257621Y-19977719D01*
X20286872Y-19894126D01*
X20349496Y-19831502D01*
X20389637Y-19812170D01*
X20487882Y-19777793D01*
X20597150Y-19697150D01*
X20627277Y-19656330D01*
X20694405Y-19598561D01*
X20779951Y-19575639D01*
X20787392Y-19575500D01*
X21800500Y-19575500D01*
X21886843Y-19595207D01*
X21956084Y-19650426D01*
X21994511Y-19730218D01*
X21999500Y-19774500D01*
X21999500Y-20232876D01*
X22005908Y-20292481D01*
X22056203Y-20427329D01*
X22056207Y-20427335D01*
X22142453Y-20542546D01*
X22228219Y-20606750D01*
X22257669Y-20628796D01*
X22392517Y-20679091D01*
X22452127Y-20685500D01*
X23547872Y-20685499D01*
X23547876Y-20685499D01*
X23587612Y-20681227D01*
X23607483Y-20679091D01*
X23742331Y-20628796D01*
X23857546Y-20542546D01*
X23943796Y-20427331D01*
X23994091Y-20292483D01*
X24000500Y-20232873D01*
X24000499Y-19407128D01*
X24000499Y-19407123D01*
X23994091Y-19347518D01*
X23972485Y-19289587D01*
X23943796Y-19212669D01*
X23921750Y-19183219D01*
X23857546Y-19097453D01*
X23742335Y-19011207D01*
X23742331Y-19011204D01*
X23607483Y-18960909D01*
X23547873Y-18954500D01*
X23547868Y-18954500D01*
X22900254Y-18954500D01*
X22813911Y-18934793D01*
X22744670Y-18879574D01*
X22706243Y-18799782D01*
X22706243Y-18711218D01*
X22744670Y-18631426D01*
X22780997Y-18596193D01*
X22789688Y-18589686D01*
X22838485Y-18524500D01*
X22871628Y-18480226D01*
X22919412Y-18352114D01*
X22925500Y-18295485D01*
X22925499Y-17704516D01*
X22925499Y-17704514D01*
X22925499Y-17704511D01*
X22919412Y-17647888D01*
X22919412Y-17647886D01*
X22871628Y-17519774D01*
X22871626Y-17519771D01*
X22789688Y-17410313D01*
X22789686Y-17410311D01*
X22680227Y-17328372D01*
X22616170Y-17304480D01*
X22552114Y-17280588D01*
X22495485Y-17274500D01*
X21954511Y-17274500D01*
X21897888Y-17280587D01*
X21769771Y-17328373D01*
X21660313Y-17410311D01*
X21660311Y-17410313D01*
X21578372Y-17519772D01*
X21530588Y-17647886D01*
X21524500Y-17704514D01*
X21524500Y-18295488D01*
X21530587Y-18352111D01*
X21530587Y-18352113D01*
X21530588Y-18352114D01*
X21578372Y-18480226D01*
X21578373Y-18480227D01*
X21583346Y-18493560D01*
X21582231Y-18493975D01*
X21602402Y-18565358D01*
X21587121Y-18652593D01*
X21535504Y-18724559D01*
X21457773Y-18767002D01*
X21403661Y-18774500D01*
X20787392Y-18774500D01*
X20701049Y-18754793D01*
X20631808Y-18699574D01*
X20627277Y-18693670D01*
X20597150Y-18652849D01*
X20487885Y-18572209D01*
X20487884Y-18572208D01*
X20487882Y-18572207D01*
X20359699Y-18527354D01*
X20329266Y-18524500D01*
X19670734Y-18524500D01*
X19640301Y-18527354D01*
X19512118Y-18572207D01*
X19512116Y-18572208D01*
X19512114Y-18572209D01*
X19402849Y-18652849D01*
X19372723Y-18693670D01*
X19305595Y-18751439D01*
X19220049Y-18774361D01*
X19212608Y-18774500D01*
X16923321Y-18774500D01*
X16836978Y-18754793D01*
X16782607Y-18716214D01*
X9808786Y-11742393D01*
X9761667Y-11667405D01*
X9750500Y-11601679D01*
X9750500Y-10775328D01*
X9750500Y-10775326D01*
X9735966Y-10702260D01*
X9735962Y-10702255D01*
X9731365Y-10691155D01*
X9716530Y-10603843D01*
X9717636Y-10591280D01*
X9722919Y-10547265D01*
X9735966Y-10527740D01*
X9750500Y-10454674D01*
X9750500Y-9505326D01*
X9735966Y-9432260D01*
X9735962Y-9432255D01*
X9731365Y-9421155D01*
X9716530Y-9333843D01*
X9720186Y-9305452D01*
X9727200Y-9270858D01*
X9735966Y-9257740D01*
X9750500Y-9184674D01*
X9750500Y-8235326D01*
X9735966Y-8162260D01*
X9735962Y-8162255D01*
X9731365Y-8151155D01*
X9716530Y-8063843D01*
X9731365Y-7998845D01*
X9735961Y-7987746D01*
X9735966Y-7987740D01*
X9750500Y-7914674D01*
X9750500Y-6965326D01*
X9735966Y-6892260D01*
X9735962Y-6892255D01*
X9731365Y-6881155D01*
X9716530Y-6793843D01*
X9731365Y-6728845D01*
X9735961Y-6717746D01*
X9735966Y-6717740D01*
X9750500Y-6644674D01*
X9750500Y-5695326D01*
X9735966Y-5622260D01*
X9735962Y-5622255D01*
X9731365Y-5611155D01*
X9716530Y-5523843D01*
X9731365Y-5458845D01*
X9735961Y-5447746D01*
X9735966Y-5447740D01*
X9750500Y-5374674D01*
X9750500Y-4425326D01*
X9735966Y-4352260D01*
X9735962Y-4352255D01*
X9731365Y-4341155D01*
X9716530Y-4253843D01*
X9731365Y-4188845D01*
X9735961Y-4177746D01*
X9735966Y-4177740D01*
X9750500Y-4104674D01*
X9750500Y-3155326D01*
X9735966Y-3082260D01*
X9735962Y-3082255D01*
X9731365Y-3071155D01*
X9716530Y-2983843D01*
X9731365Y-2918845D01*
X9735961Y-2907746D01*
X9735966Y-2907740D01*
X9750500Y-2834674D01*
X9750500Y-1885326D01*
X9735966Y-1812260D01*
X9735962Y-1812255D01*
X9731365Y-1801155D01*
X9716530Y-1713843D01*
X9731365Y-1648845D01*
X9735961Y-1637746D01*
X9735966Y-1637740D01*
X9750500Y-1564674D01*
X9750500Y-615326D01*
X9735966Y-542260D01*
X9735962Y-542255D01*
X9731365Y-531155D01*
X9726310Y-501405D01*
X9717006Y-472703D01*
X9719103Y-458990D01*
X9716530Y-443843D01*
X9728954Y-384949D01*
X9734730Y-369588D01*
X9735966Y-367740D01*
X9736572Y-364692D01*
X9742305Y-349449D01*
X9757963Y-325763D01*
X9769558Y-299847D01*
X9782095Y-289258D01*
X9791145Y-275570D01*
X9815527Y-261024D01*
X9837221Y-242704D01*
X9853111Y-238604D01*
X9867203Y-230198D01*
X9895484Y-227671D01*
X9922976Y-220579D01*
X9928568Y-220500D01*
X16071679Y-220500D01*
X16158022Y-240207D01*
X16212393Y-278786D01*
X22151507Y-6217900D01*
X22198626Y-6292888D01*
X22208542Y-6380895D01*
X22200054Y-6420106D01*
X22176599Y-6492293D01*
X22176596Y-6492306D01*
X22149500Y-6663389D01*
X22149500Y-6836610D01*
X22176596Y-7007693D01*
X22176599Y-7007705D01*
X22230125Y-7172441D01*
X22230126Y-7172444D01*
X22308769Y-7326790D01*
X22308770Y-7326792D01*
X22410581Y-7466923D01*
X22410587Y-7466930D01*
X22533069Y-7589412D01*
X22533076Y-7589418D01*
X22673207Y-7691229D01*
X22673212Y-7691232D01*
X22695676Y-7702677D01*
X22763661Y-7759433D01*
X22800289Y-7840067D01*
X22798304Y-7928608D01*
X22758099Y-8007520D01*
X22695680Y-8057299D01*
X22542453Y-8135373D01*
X22542442Y-8135379D01*
X22488282Y-8174728D01*
X23079756Y-8766202D01*
X23037703Y-8777470D01*
X22912285Y-8849881D01*
X22809881Y-8952285D01*
X22737470Y-9077703D01*
X22726202Y-9119756D01*
X22134728Y-8528282D01*
X22095379Y-8582442D01*
X22095373Y-8582452D01*
X21998909Y-8771773D01*
X21998903Y-8771786D01*
X21933242Y-8973871D01*
X21933241Y-8973878D01*
X21900000Y-9183754D01*
X21900000Y-9396245D01*
X21933241Y-9606121D01*
X21933242Y-9606128D01*
X21998903Y-9808213D01*
X21998911Y-9808232D01*
X22095370Y-9997543D01*
X22095382Y-9997561D01*
X22134728Y-10051717D01*
X22726202Y-9460243D01*
X22737470Y-9502297D01*
X22809881Y-9627715D01*
X22912285Y-9730119D01*
X23037703Y-9802530D01*
X23079755Y-9813797D01*
X22488281Y-10405270D01*
X22542446Y-10444623D01*
X22542456Y-10444629D01*
X22731767Y-10541088D01*
X22731786Y-10541096D01*
X22933871Y-10606757D01*
X22933878Y-10606758D01*
X23143754Y-10640000D01*
X23356246Y-10640000D01*
X23566121Y-10606758D01*
X23566128Y-10606757D01*
X23768213Y-10541096D01*
X23768226Y-10541090D01*
X23957556Y-10444621D01*
X24011716Y-10405271D01*
X24011716Y-10405270D01*
X23420244Y-9813797D01*
X23462297Y-9802530D01*
X23587715Y-9730119D01*
X23690119Y-9627715D01*
X23762530Y-9502297D01*
X23773797Y-9460243D01*
X24409455Y-10095901D01*
X24445864Y-10120523D01*
X24490435Y-10197053D01*
X24499500Y-10256429D01*
X24499500Y-23305107D01*
X24479793Y-23391450D01*
X24424574Y-23460691D01*
X24344782Y-23499118D01*
X24256218Y-23499118D01*
X24176426Y-23460691D01*
X24131128Y-23409577D01*
X24092322Y-23346663D01*
X24092314Y-23346653D01*
X23968346Y-23222685D01*
X23968342Y-23222682D01*
X23819121Y-23130642D01*
X23652700Y-23075495D01*
X23549970Y-23065000D01*
X23250000Y-23065000D01*
X23250000Y-25294999D01*
X23549977Y-25294999D01*
X23549983Y-25294998D01*
X23652695Y-25284506D01*
X23652696Y-25284506D01*
X23819120Y-25229358D01*
X23968342Y-25137317D01*
X23968346Y-25137314D01*
X24092314Y-25013346D01*
X24092320Y-25013338D01*
X24131127Y-24950423D01*
X24193228Y-24887280D01*
X24276575Y-24857335D01*
X24364661Y-24866519D01*
X24440039Y-24913012D01*
X24487780Y-24987606D01*
X24499500Y-25054892D01*
X24499500Y-40993484D01*
X24499074Y-41006500D01*
X24483246Y-41247975D01*
X24479848Y-41273781D01*
X24433914Y-41504712D01*
X24427177Y-41529857D01*
X24351489Y-41752825D01*
X24341528Y-41776873D01*
X24237386Y-41988052D01*
X24224370Y-42010596D01*
X24093556Y-42206372D01*
X24077710Y-42227023D01*
X23922459Y-42404053D01*
X23904053Y-42422459D01*
X23727023Y-42577710D01*
X23706372Y-42593556D01*
X23510596Y-42724370D01*
X23488052Y-42737386D01*
X23276873Y-42841528D01*
X23252825Y-42851489D01*
X23029857Y-42927177D01*
X23004712Y-42933914D01*
X22773781Y-42979848D01*
X22747975Y-42983246D01*
X22531470Y-42997437D01*
X22506498Y-42999074D01*
X22493485Y-42999500D01*
X-8392584Y-42999500D01*
X-8478927Y-42979793D01*
X-8548168Y-42924574D01*
X-8586595Y-42844782D01*
X-8586595Y-42756218D01*
X-8582573Y-42741297D01*
X-8531407Y-42577102D01*
X-8525000Y-42506584D01*
X-8525000Y-42500000D01*
X-10474999Y-42500000D01*
X-10474999Y-42506574D01*
X-10468590Y-42577106D01*
X-10468590Y-42577108D01*
X-10417427Y-42741297D01*
X-10410554Y-42829593D01*
X-10442673Y-42912127D01*
X-10507421Y-42972552D01*
X-10591974Y-42998900D01*
X-10607416Y-42999500D01*
X-22493485Y-42999500D01*
X-22506498Y-42999074D01*
X-22531470Y-42997437D01*
X-22747975Y-42983246D01*
X-22773781Y-42979848D01*
X-23004712Y-42933914D01*
X-23029857Y-42927177D01*
X-23252825Y-42851489D01*
X-23276873Y-42841528D01*
X-23488052Y-42737386D01*
X-23510596Y-42724370D01*
X-23706372Y-42593556D01*
X-23727023Y-42577710D01*
X-23904053Y-42422459D01*
X-23922459Y-42404053D01*
X-24077710Y-42227023D01*
X-24093556Y-42206372D01*
X-24224370Y-42010596D01*
X-24237386Y-41988052D01*
X-24341528Y-41776873D01*
X-24351489Y-41752825D01*
X-24427177Y-41529857D01*
X-24433914Y-41504712D01*
X-24479848Y-41273781D01*
X-24483246Y-41247975D01*
X-24499074Y-41006500D01*
X-24499500Y-40993484D01*
X-24499500Y-40893713D01*
X-23850500Y-40893713D01*
X-23850500Y-41106287D01*
X-23817246Y-41316243D01*
X-23751557Y-41518412D01*
X-23655051Y-41707816D01*
X-23530104Y-41879792D01*
X-23379792Y-42030104D01*
X-23207816Y-42155051D01*
X-23018412Y-42251557D01*
X-22816243Y-42317246D01*
X-22606287Y-42350500D01*
X-22393713Y-42350500D01*
X-22183757Y-42317246D01*
X-21981588Y-42251557D01*
X-21981584Y-42251555D01*
X-21981581Y-42251554D01*
X-21883589Y-42201624D01*
X-21792184Y-42155051D01*
X-21674688Y-42069685D01*
X-21620210Y-42030106D01*
X-21469893Y-41879789D01*
X-21410523Y-41798071D01*
X-21344949Y-41707816D01*
X-21297721Y-41615126D01*
X-21248445Y-41518418D01*
X-21248441Y-41518407D01*
X-21182756Y-41316251D01*
X-21182752Y-41316234D01*
X-21156503Y-41150500D01*
X-21149500Y-41106287D01*
X-21149500Y-40893713D01*
X-21150928Y-40884698D01*
X-21182752Y-40683765D01*
X-21182756Y-40683748D01*
X-21248441Y-40481592D01*
X-21248445Y-40481581D01*
X-21344947Y-40292187D01*
X-21469893Y-40120210D01*
X-21620210Y-39969893D01*
X-21792187Y-39844947D01*
X-21981581Y-39748445D01*
X-21981592Y-39748441D01*
X-22183748Y-39682756D01*
X-22183765Y-39682752D01*
X-22393713Y-39649500D01*
X-22606287Y-39649500D01*
X-22816234Y-39682752D01*
X-22816251Y-39682756D01*
X-23018407Y-39748441D01*
X-23018418Y-39748445D01*
X-23182905Y-39832256D01*
X-23207816Y-39844949D01*
X-23296600Y-39909454D01*
X-23379789Y-39969893D01*
X-23530106Y-40120210D01*
X-23569685Y-40174688D01*
X-23655051Y-40292184D01*
X-23683892Y-40348788D01*
X-23751554Y-40481581D01*
X-23751555Y-40481584D01*
X-23751557Y-40481588D01*
X-23817246Y-40683757D01*
X-23850500Y-40893713D01*
X-24499500Y-40893713D01*
X-24499500Y-34475326D01*
X-22000500Y-34475326D01*
X-22000500Y-35524674D01*
X-21985966Y-35597740D01*
X-21985965Y-35597741D01*
X-21985965Y-35597742D01*
X-21930601Y-35680601D01*
X-21847742Y-35735965D01*
X-21847741Y-35735965D01*
X-21847740Y-35735966D01*
X-21774674Y-35750500D01*
X-21774672Y-35750500D01*
X-20225328Y-35750500D01*
X-20225326Y-35750500D01*
X-20152260Y-35735966D01*
X-20152259Y-35735965D01*
X-20152257Y-35735965D01*
X-20069398Y-35680601D01*
X-20014034Y-35597742D01*
X-20004105Y-35547822D01*
X-17250000Y-35547822D01*
X-17243598Y-35607372D01*
X-17243596Y-35607381D01*
X-17193353Y-35742087D01*
X-17193352Y-35742090D01*
X-17107189Y-35857189D01*
X-16992090Y-35943352D01*
X-16992087Y-35943353D01*
X-16857381Y-35993596D01*
X-16857372Y-35993598D01*
X-16797823Y-36000000D01*
X-16250000Y-36000000D01*
X-15750000Y-36000000D01*
X-15202177Y-36000000D01*
X-15142627Y-35993598D01*
X-15142618Y-35993596D01*
X-15007912Y-35943353D01*
X-15007909Y-35943352D01*
X-14892810Y-35857189D01*
X-14806647Y-35742090D01*
X-14806646Y-35742087D01*
X-14756403Y-35607381D01*
X-14756401Y-35607372D01*
X-14750000Y-35547822D01*
X-14750000Y-35250000D01*
X-15750000Y-35250000D01*
X-15750000Y-36000000D01*
X-16250000Y-36000000D01*
X-16250000Y-35250000D01*
X-17250000Y-35250000D01*
X-17250000Y-35547822D01*
X-20004105Y-35547822D01*
X-19999500Y-35524674D01*
X-19999500Y-34475326D01*
X-20004105Y-34452177D01*
X-17250000Y-34452177D01*
X-17250000Y-34750000D01*
X-16250000Y-34750000D01*
X-15750000Y-34750000D01*
X-14750000Y-34750000D01*
X-14750000Y-34452177D01*
X-14756401Y-34392627D01*
X-14756403Y-34392618D01*
X-14806646Y-34257912D01*
X-14806647Y-34257909D01*
X-14892810Y-34142810D01*
X-15007909Y-34056647D01*
X-15007912Y-34056646D01*
X-15142618Y-34006403D01*
X-15142627Y-34006401D01*
X-15202177Y-34000000D01*
X-15750000Y-34000000D01*
X-15750000Y-34750000D01*
X-16250000Y-34750000D01*
X-16250000Y-34000000D01*
X-16797823Y-34000000D01*
X-16857372Y-34006401D01*
X-16857381Y-34006403D01*
X-16992087Y-34056646D01*
X-16992090Y-34056647D01*
X-17107189Y-34142810D01*
X-17193352Y-34257909D01*
X-17193353Y-34257912D01*
X-17243596Y-34392618D01*
X-17243598Y-34392627D01*
X-17250000Y-34452177D01*
X-20004105Y-34452177D01*
X-20010291Y-34421077D01*
X-20014034Y-34402257D01*
X-20069398Y-34319398D01*
X-20152257Y-34264034D01*
X-20196099Y-34255313D01*
X-20225326Y-34249500D01*
X-21774674Y-34249500D01*
X-21811207Y-34256767D01*
X-21847742Y-34264034D01*
X-21930601Y-34319398D01*
X-21985965Y-34402257D01*
X-21985965Y-34402259D01*
X-21985966Y-34402260D01*
X-22000500Y-34475326D01*
X-24499500Y-34475326D01*
X-24499500Y-4844977D01*
X-23999999Y-4844977D01*
X-23999998Y-4844983D01*
X-23989506Y-4947695D01*
X-23989506Y-4947696D01*
X-23934358Y-5114120D01*
X-23842317Y-5263342D01*
X-23842314Y-5263346D01*
X-23718346Y-5387314D01*
X-23718342Y-5387317D01*
X-23569121Y-5479357D01*
X-23402700Y-5534504D01*
X-23299970Y-5544999D01*
X-23000000Y-5544999D01*
X-22500000Y-5544999D01*
X-22200023Y-5544999D01*
X-22200016Y-5544998D01*
X-22097304Y-5534506D01*
X-22097303Y-5534506D01*
X-21930879Y-5479358D01*
X-21781657Y-5387317D01*
X-21781653Y-5387314D01*
X-21657685Y-5263346D01*
X-21657682Y-5263342D01*
X-21565642Y-5114121D01*
X-21510495Y-4947700D01*
X-21500000Y-4844970D01*
X-21500000Y-4680000D01*
X-22500000Y-4680000D01*
X-22500000Y-5544999D01*
X-23000000Y-5544999D01*
X-23000000Y-4680000D01*
X-23999999Y-4680000D01*
X-23999999Y-4844977D01*
X-24499500Y-4844977D01*
X-24499500Y-4015029D01*
X-24000000Y-4015029D01*
X-24000000Y-4180000D01*
X-23000000Y-4180000D01*
X-22500000Y-4180000D01*
X-21500001Y-4180000D01*
X-21500001Y-4015016D01*
X-21510493Y-3912304D01*
X-21510493Y-3912303D01*
X-21565641Y-3745879D01*
X-21657682Y-3596657D01*
X-21657685Y-3596653D01*
X-21781653Y-3472685D01*
X-21781657Y-3472682D01*
X-21930878Y-3380642D01*
X-22097299Y-3325495D01*
X-22200030Y-3315000D01*
X-22500000Y-3315000D01*
X-22500000Y-4180000D01*
X-23000000Y-4180000D01*
X-23000000Y-3315000D01*
X-23299976Y-3315000D01*
X-23299983Y-3315001D01*
X-23402695Y-3325493D01*
X-23402696Y-3325493D01*
X-23569120Y-3380641D01*
X-23718342Y-3472682D01*
X-23718346Y-3472685D01*
X-23842314Y-3596653D01*
X-23842317Y-3596657D01*
X-23934357Y-3745878D01*
X-23989504Y-3912299D01*
X-24000000Y-4015029D01*
X-24499500Y-4015029D01*
X-24499500Y-1798313D01*
X-20974999Y-1798313D01*
X-20974998Y-1798319D01*
X-20964856Y-1897605D01*
X-20964855Y-1897610D01*
X-20911548Y-2058480D01*
X-20822569Y-2202736D01*
X-20702736Y-2322569D01*
X-20558480Y-2411548D01*
X-20397612Y-2464854D01*
X-20397604Y-2464856D01*
X-20298323Y-2474999D01*
X-20250000Y-2474998D01*
X-20250000Y-1775000D01*
X-20974999Y-1775000D01*
X-20974999Y-1798313D01*
X-24499500Y-1798313D01*
X-24499500Y3993484D01*
X-24499074Y4006499D01*
X-24492534Y4106287D01*
X-23850500Y4106287D01*
X-23850500Y3893713D01*
X-23817246Y3683757D01*
X-23769865Y3537933D01*
X-23751558Y3481592D01*
X-23751554Y3481581D01*
X-23731518Y3442259D01*
X-23655051Y3292184D01*
X-23584206Y3194674D01*
X-23530106Y3120210D01*
X-23379789Y2969893D01*
X-23298071Y2910523D01*
X-23207816Y2844949D01*
X-23207812Y2844947D01*
X-23018418Y2748445D01*
X-23018407Y2748441D01*
X-22816251Y2682756D01*
X-22816244Y2682754D01*
X-22816243Y2682754D01*
X-22816241Y2682753D01*
X-22816234Y2682752D01*
X-22606287Y2649500D01*
X-22393713Y2649500D01*
X-22183765Y2682752D01*
X-22183748Y2682756D01*
X-21981592Y2748441D01*
X-21981581Y2748445D01*
X-21792187Y2844947D01*
X-21620210Y2969893D01*
X-21469893Y3120210D01*
X-21344947Y3292187D01*
X-21248445Y3481581D01*
X-21248441Y3481592D01*
X-21182756Y3683748D01*
X-21182752Y3683765D01*
X-21149500Y3893713D01*
X-21149500Y4106286D01*
X-21182752Y4316234D01*
X-21182756Y4316251D01*
X-21248441Y4518407D01*
X-21248445Y4518418D01*
X-21344947Y4707812D01*
X-21344949Y4707816D01*
X-21415920Y4805500D01*
X-21469893Y4879789D01*
X-21620210Y5030106D01*
X-21684424Y5076759D01*
X-21792184Y5155051D01*
X-21892907Y5206372D01*
X-21981581Y5251554D01*
X-21981584Y5251555D01*
X-21981588Y5251557D01*
X-22183757Y5317246D01*
X-22393713Y5350500D01*
X-22606287Y5350500D01*
X-22816243Y5317246D01*
X-23018412Y5251557D01*
X-23207816Y5155051D01*
X-23379792Y5030104D01*
X-23530104Y4879792D01*
X-23655051Y4707816D01*
X-23751557Y4518412D01*
X-23817246Y4316243D01*
X-23850500Y4106287D01*
X-24492534Y4106287D01*
X-24491168Y4127121D01*
X-24491167Y4127121D01*
X-24491168Y4127123D01*
X-24483246Y4247976D01*
X-24479848Y4273781D01*
X-24433914Y4504712D01*
X-24427177Y4529857D01*
X-24351489Y4752825D01*
X-24341528Y4776873D01*
X-24237386Y4988052D01*
X-24224370Y5010596D01*
X-24093556Y5206372D01*
X-24077710Y5227023D01*
X-23922459Y5404053D01*
X-23904053Y5422459D01*
X-23727023Y5577710D01*
X-23706372Y5593556D01*
X-23510596Y5724370D01*
X-23488052Y5737386D01*
X-23276873Y5841528D01*
X-23252825Y5851489D01*
X-23029857Y5927177D01*
X-23004712Y5933914D01*
X-22773781Y5979848D01*
X-22747975Y5983246D01*
X-22531470Y5997437D01*
X-22506498Y5999074D01*
X-22493485Y5999500D01*
X-22434108Y5999500D01*
X22434108Y5999500D01*
X22493485Y5999500D01*
X22506498Y5999074D01*
G37*
%TD.AperFunction*%
%TA.AperFunction,Conductor*%
G36*
X-1193845Y-13481365D02*
G01*
X-1182744Y-13485963D01*
X-1182740Y-13485966D01*
X-1182734Y-13485967D01*
X-1164631Y-13493466D01*
X-1165965Y-13496687D01*
X-1114847Y-13519558D01*
X-1057704Y-13587221D01*
X-1035579Y-13672976D01*
X-1035500Y-13678568D01*
X-1035500Y-18886683D01*
X-1055206Y-18973022D01*
X-1093782Y-19027389D01*
X-4365491Y-22299098D01*
X-7604786Y-25538393D01*
X-7679774Y-25585512D01*
X-7767781Y-25595428D01*
X-7851374Y-25566177D01*
X-7913998Y-25503553D01*
X-7943249Y-25419960D01*
X-7944500Y-25397679D01*
X-7944500Y-22124005D01*
X-7944500Y-22124000D01*
X-7949431Y-22078132D01*
X-7951481Y-22059060D01*
X-7951482Y-22059059D01*
X-7962691Y-22007534D01*
X-7962693Y-22007524D01*
X-7973643Y-21969346D01*
X-7973645Y-21969343D01*
X-8030324Y-21872429D01*
X-8030326Y-21872426D01*
X-8076081Y-21819622D01*
X-8076085Y-21819618D01*
X-8120809Y-21777448D01*
X-8220888Y-21726561D01*
X-8220894Y-21726559D01*
X-8287929Y-21706875D01*
X-8287933Y-21706874D01*
X-8373996Y-21694500D01*
X-8374000Y-21694500D01*
X-9550500Y-21694500D01*
X-9636843Y-21674793D01*
X-9706084Y-21619574D01*
X-9744511Y-21539782D01*
X-9749500Y-21495500D01*
X-9749500Y-17143296D01*
X-9729793Y-17056953D01*
X-9691214Y-17002582D01*
X-7417050Y-14728418D01*
X-7417048Y-14728416D01*
X-7364987Y-14650500D01*
X-7334916Y-14605495D01*
X-7278342Y-14468913D01*
X-7276116Y-14457726D01*
X-7249500Y-14323917D01*
X-7249500Y-14176082D01*
X-7278341Y-14031089D01*
X-7334916Y-13894504D01*
X-7351364Y-13869887D01*
X-7367813Y-13845270D01*
X-7391342Y-13810054D01*
X-7422924Y-13727316D01*
X-7415480Y-13639066D01*
X-7370482Y-13562786D01*
X-7296844Y-13513584D01*
X-7225878Y-13500500D01*
X-6510328Y-13500500D01*
X-6510326Y-13500500D01*
X-6437260Y-13485966D01*
X-6437255Y-13485962D01*
X-6426155Y-13481365D01*
X-6338843Y-13466530D01*
X-6273845Y-13481365D01*
X-6262746Y-13485961D01*
X-6262740Y-13485966D01*
X-6189674Y-13500500D01*
X-6189672Y-13500500D01*
X-5240328Y-13500500D01*
X-5240326Y-13500500D01*
X-5167260Y-13485966D01*
X-5167255Y-13485962D01*
X-5156155Y-13481365D01*
X-5068843Y-13466530D01*
X-5003845Y-13481365D01*
X-4992746Y-13485961D01*
X-4992740Y-13485966D01*
X-4919674Y-13500500D01*
X-4919672Y-13500500D01*
X-3970328Y-13500500D01*
X-3970326Y-13500500D01*
X-3897260Y-13485966D01*
X-3897255Y-13485962D01*
X-3886155Y-13481365D01*
X-3798843Y-13466530D01*
X-3733845Y-13481365D01*
X-3722746Y-13485961D01*
X-3722740Y-13485966D01*
X-3649674Y-13500500D01*
X-3649672Y-13500500D01*
X-2700328Y-13500500D01*
X-2700326Y-13500500D01*
X-2627260Y-13485966D01*
X-2627255Y-13485962D01*
X-2616155Y-13481365D01*
X-2528843Y-13466530D01*
X-2463845Y-13481365D01*
X-2452746Y-13485961D01*
X-2452740Y-13485966D01*
X-2379674Y-13500500D01*
X-2379672Y-13500500D01*
X-1430328Y-13500500D01*
X-1430326Y-13500500D01*
X-1357260Y-13485966D01*
X-1357255Y-13485962D01*
X-1346155Y-13481365D01*
X-1258843Y-13466530D01*
X-1193845Y-13481365D01*
G37*
%TD.AperFunction*%
%TA.AperFunction,Conductor*%
G36*
X-15497814Y-10370207D02*
G01*
X-15428573Y-10425426D01*
X-15390146Y-10505218D01*
X-15386859Y-10575474D01*
X-15395000Y-10637311D01*
X-15395000Y-10862688D01*
X-15386859Y-10924526D01*
X-15395128Y-11012702D01*
X-15440836Y-11088559D01*
X-15514931Y-11137071D01*
X-15584157Y-11149500D01*
X-16137000Y-11149500D01*
X-16223343Y-11129793D01*
X-16292584Y-11074574D01*
X-16331011Y-10994782D01*
X-16336000Y-10950500D01*
X-16336000Y-10549500D01*
X-16316293Y-10463157D01*
X-16261074Y-10393916D01*
X-16181282Y-10355489D01*
X-16137000Y-10350500D01*
X-15584157Y-10350500D01*
X-15497814Y-10370207D01*
G37*
%TD.AperFunction*%
%TA.AperFunction,Conductor*%
G36*
X24378711Y-7331966D02*
G01*
X24450361Y-7384021D01*
X24492328Y-7462010D01*
X24499500Y-7514952D01*
X24499500Y-8323568D01*
X24479793Y-8409911D01*
X24424574Y-8479152D01*
X24404948Y-8488603D01*
X23773797Y-9119754D01*
X23762530Y-9077703D01*
X23690119Y-8952285D01*
X23587715Y-8849881D01*
X23462297Y-8777470D01*
X23420244Y-8766202D01*
X24011717Y-8174728D01*
X24011717Y-8174727D01*
X23957561Y-8135382D01*
X23957548Y-8135373D01*
X23804319Y-8057299D01*
X23736334Y-8000541D01*
X23699708Y-7919906D01*
X23701696Y-7831365D01*
X23741903Y-7752454D01*
X23804319Y-7702680D01*
X23826788Y-7691232D01*
X23826795Y-7691227D01*
X23966923Y-7589418D01*
X23966930Y-7589412D01*
X24089412Y-7466930D01*
X24089415Y-7466926D01*
X24089418Y-7466923D01*
X24139505Y-7397984D01*
X24206199Y-7339714D01*
X24291571Y-7316152D01*
X24378711Y-7331966D01*
G37*
%TD.AperFunction*%
%TD*%
M02*
