%TF.GenerationSoftware,KiCad,Pcbnew,9.0.3*%
%TF.CreationDate,2025-08-14T00:26:36+08:00*%
%TF.ProjectId,IR_AC,49525f41-432e-46b6-9963-61645f706362,rev?*%
%TF.SameCoordinates,Original*%
%TF.FileFunction,Legend,Top*%
%TF.FilePolarity,Positive*%
%FSLAX46Y46*%
G04 Gerber Fmt 4.6, Leading zero omitted, Abs format (unit mm)*
G04 Created by KiCad (PCBNEW 9.0.3) date 2025-08-14 00:26:36*
%MOMM*%
%LPD*%
G01*
G04 APERTURE LIST*
G04 Aperture macros list*
%AMRoundRect*
0 Rectangle with rounded corners*
0 $1 Rounding radius*
0 $2 $3 $4 $5 $6 $7 $8 $9 X,Y pos of 4 corners*
0 Add a 4 corners polygon primitive as box body*
4,1,4,$2,$3,$4,$5,$6,$7,$8,$9,$2,$3,0*
0 Add four circle primitives for the rounded corners*
1,1,$1+$1,$2,$3*
1,1,$1+$1,$4,$5*
1,1,$1+$1,$6,$7*
1,1,$1+$1,$8,$9*
0 Add four rect primitives between the rounded corners*
20,1,$1+$1,$2,$3,$4,$5,0*
20,1,$1+$1,$4,$5,$6,$7,0*
20,1,$1+$1,$6,$7,$8,$9,0*
20,1,$1+$1,$8,$9,$2,$3,0*%
G04 Aperture macros list end*
%ADD10C,0.100000*%
%ADD11C,0.200000*%
%ADD12C,0.150000*%
%ADD13C,0.120000*%
%ADD14C,2.500000*%
%ADD15RoundRect,0.200000X-0.200000X-0.275000X0.200000X-0.275000X0.200000X0.275000X-0.200000X0.275000X0*%
G04 APERTURE END LIST*
D10*
X146100000Y-103600000D02*
X145900000Y-103800000D01*
X146100000Y-103600000D02*
X146300000Y-103800000D01*
X146100000Y-104400000D02*
X146100000Y-103600000D01*
X145130954Y-105128637D02*
X144845240Y-105128637D01*
X144988097Y-105128637D02*
X144988097Y-104628637D01*
X144988097Y-104628637D02*
X144940478Y-104700066D01*
X144940478Y-104700066D02*
X144892859Y-104747685D01*
X144892859Y-104747685D02*
X144845240Y-104771494D01*
X145440477Y-104628637D02*
X145488096Y-104628637D01*
X145488096Y-104628637D02*
X145535715Y-104652447D01*
X145535715Y-104652447D02*
X145559525Y-104676256D01*
X145559525Y-104676256D02*
X145583334Y-104723875D01*
X145583334Y-104723875D02*
X145607144Y-104819113D01*
X145607144Y-104819113D02*
X145607144Y-104938161D01*
X145607144Y-104938161D02*
X145583334Y-105033399D01*
X145583334Y-105033399D02*
X145559525Y-105081018D01*
X145559525Y-105081018D02*
X145535715Y-105104828D01*
X145535715Y-105104828D02*
X145488096Y-105128637D01*
X145488096Y-105128637D02*
X145440477Y-105128637D01*
X145440477Y-105128637D02*
X145392858Y-105104828D01*
X145392858Y-105104828D02*
X145369049Y-105081018D01*
X145369049Y-105081018D02*
X145345239Y-105033399D01*
X145345239Y-105033399D02*
X145321430Y-104938161D01*
X145321430Y-104938161D02*
X145321430Y-104819113D01*
X145321430Y-104819113D02*
X145345239Y-104723875D01*
X145345239Y-104723875D02*
X145369049Y-104676256D01*
X145369049Y-104676256D02*
X145392858Y-104652447D01*
X145392858Y-104652447D02*
X145440477Y-104628637D01*
X145845239Y-105104828D02*
X145845239Y-105128637D01*
X145845239Y-105128637D02*
X145821429Y-105176256D01*
X145821429Y-105176256D02*
X145797620Y-105200066D01*
X146154762Y-104628637D02*
X146202381Y-104628637D01*
X146202381Y-104628637D02*
X146250000Y-104652447D01*
X146250000Y-104652447D02*
X146273810Y-104676256D01*
X146273810Y-104676256D02*
X146297619Y-104723875D01*
X146297619Y-104723875D02*
X146321429Y-104819113D01*
X146321429Y-104819113D02*
X146321429Y-104938161D01*
X146321429Y-104938161D02*
X146297619Y-105033399D01*
X146297619Y-105033399D02*
X146273810Y-105081018D01*
X146273810Y-105081018D02*
X146250000Y-105104828D01*
X146250000Y-105104828D02*
X146202381Y-105128637D01*
X146202381Y-105128637D02*
X146154762Y-105128637D01*
X146154762Y-105128637D02*
X146107143Y-105104828D01*
X146107143Y-105104828D02*
X146083334Y-105081018D01*
X146083334Y-105081018D02*
X146059524Y-105033399D01*
X146059524Y-105033399D02*
X146035715Y-104938161D01*
X146035715Y-104938161D02*
X146035715Y-104819113D01*
X146035715Y-104819113D02*
X146059524Y-104723875D01*
X146059524Y-104723875D02*
X146083334Y-104676256D01*
X146083334Y-104676256D02*
X146107143Y-104652447D01*
X146107143Y-104652447D02*
X146154762Y-104628637D01*
X146630952Y-104628637D02*
X146678571Y-104628637D01*
X146678571Y-104628637D02*
X146726190Y-104652447D01*
X146726190Y-104652447D02*
X146750000Y-104676256D01*
X146750000Y-104676256D02*
X146773809Y-104723875D01*
X146773809Y-104723875D02*
X146797619Y-104819113D01*
X146797619Y-104819113D02*
X146797619Y-104938161D01*
X146797619Y-104938161D02*
X146773809Y-105033399D01*
X146773809Y-105033399D02*
X146750000Y-105081018D01*
X146750000Y-105081018D02*
X146726190Y-105104828D01*
X146726190Y-105104828D02*
X146678571Y-105128637D01*
X146678571Y-105128637D02*
X146630952Y-105128637D01*
X146630952Y-105128637D02*
X146583333Y-105104828D01*
X146583333Y-105104828D02*
X146559524Y-105081018D01*
X146559524Y-105081018D02*
X146535714Y-105033399D01*
X146535714Y-105033399D02*
X146511905Y-104938161D01*
X146511905Y-104938161D02*
X146511905Y-104819113D01*
X146511905Y-104819113D02*
X146535714Y-104723875D01*
X146535714Y-104723875D02*
X146559524Y-104676256D01*
X146559524Y-104676256D02*
X146583333Y-104652447D01*
X146583333Y-104652447D02*
X146630952Y-104628637D01*
X147107142Y-104628637D02*
X147154761Y-104628637D01*
X147154761Y-104628637D02*
X147202380Y-104652447D01*
X147202380Y-104652447D02*
X147226190Y-104676256D01*
X147226190Y-104676256D02*
X147249999Y-104723875D01*
X147249999Y-104723875D02*
X147273809Y-104819113D01*
X147273809Y-104819113D02*
X147273809Y-104938161D01*
X147273809Y-104938161D02*
X147249999Y-105033399D01*
X147249999Y-105033399D02*
X147226190Y-105081018D01*
X147226190Y-105081018D02*
X147202380Y-105104828D01*
X147202380Y-105104828D02*
X147154761Y-105128637D01*
X147154761Y-105128637D02*
X147107142Y-105128637D01*
X147107142Y-105128637D02*
X147059523Y-105104828D01*
X147059523Y-105104828D02*
X147035714Y-105081018D01*
X147035714Y-105081018D02*
X147011904Y-105033399D01*
X147011904Y-105033399D02*
X146988095Y-104938161D01*
X146988095Y-104938161D02*
X146988095Y-104819113D01*
X146988095Y-104819113D02*
X147011904Y-104723875D01*
X147011904Y-104723875D02*
X147035714Y-104676256D01*
X147035714Y-104676256D02*
X147059523Y-104652447D01*
X147059523Y-104652447D02*
X147107142Y-104628637D01*
X143047620Y-105433609D02*
X143214286Y-105933609D01*
X143214286Y-105933609D02*
X143380953Y-105433609D01*
X143619048Y-105933609D02*
X143571429Y-105909800D01*
X143571429Y-105909800D02*
X143547619Y-105885990D01*
X143547619Y-105885990D02*
X143523810Y-105838371D01*
X143523810Y-105838371D02*
X143523810Y-105695514D01*
X143523810Y-105695514D02*
X143547619Y-105647895D01*
X143547619Y-105647895D02*
X143571429Y-105624085D01*
X143571429Y-105624085D02*
X143619048Y-105600276D01*
X143619048Y-105600276D02*
X143690476Y-105600276D01*
X143690476Y-105600276D02*
X143738095Y-105624085D01*
X143738095Y-105624085D02*
X143761905Y-105647895D01*
X143761905Y-105647895D02*
X143785714Y-105695514D01*
X143785714Y-105695514D02*
X143785714Y-105838371D01*
X143785714Y-105838371D02*
X143761905Y-105885990D01*
X143761905Y-105885990D02*
X143738095Y-105909800D01*
X143738095Y-105909800D02*
X143690476Y-105933609D01*
X143690476Y-105933609D02*
X143619048Y-105933609D01*
X144071429Y-105933609D02*
X144023810Y-105909800D01*
X144023810Y-105909800D02*
X144000000Y-105862180D01*
X144000000Y-105862180D02*
X144000000Y-105433609D01*
X144190477Y-105600276D02*
X144380953Y-105600276D01*
X144261905Y-105433609D02*
X144261905Y-105862180D01*
X144261905Y-105862180D02*
X144285715Y-105909800D01*
X144285715Y-105909800D02*
X144333334Y-105933609D01*
X144333334Y-105933609D02*
X144380953Y-105933609D01*
X144523810Y-105909800D02*
X144571429Y-105933609D01*
X144571429Y-105933609D02*
X144666667Y-105933609D01*
X144666667Y-105933609D02*
X144714286Y-105909800D01*
X144714286Y-105909800D02*
X144738095Y-105862180D01*
X144738095Y-105862180D02*
X144738095Y-105838371D01*
X144738095Y-105838371D02*
X144714286Y-105790752D01*
X144714286Y-105790752D02*
X144666667Y-105766942D01*
X144666667Y-105766942D02*
X144595238Y-105766942D01*
X144595238Y-105766942D02*
X144547619Y-105743133D01*
X144547619Y-105743133D02*
X144523810Y-105695514D01*
X144523810Y-105695514D02*
X144523810Y-105671704D01*
X144523810Y-105671704D02*
X144547619Y-105624085D01*
X144547619Y-105624085D02*
X144595238Y-105600276D01*
X144595238Y-105600276D02*
X144666667Y-105600276D01*
X144666667Y-105600276D02*
X144714286Y-105624085D01*
X145333333Y-105600276D02*
X145333333Y-106100276D01*
X145333333Y-105624085D02*
X145380952Y-105600276D01*
X145380952Y-105600276D02*
X145476190Y-105600276D01*
X145476190Y-105600276D02*
X145523809Y-105624085D01*
X145523809Y-105624085D02*
X145547619Y-105647895D01*
X145547619Y-105647895D02*
X145571428Y-105695514D01*
X145571428Y-105695514D02*
X145571428Y-105838371D01*
X145571428Y-105838371D02*
X145547619Y-105885990D01*
X145547619Y-105885990D02*
X145523809Y-105909800D01*
X145523809Y-105909800D02*
X145476190Y-105933609D01*
X145476190Y-105933609D02*
X145380952Y-105933609D01*
X145380952Y-105933609D02*
X145333333Y-105909800D01*
X145976190Y-105909800D02*
X145928571Y-105933609D01*
X145928571Y-105933609D02*
X145833333Y-105933609D01*
X145833333Y-105933609D02*
X145785714Y-105909800D01*
X145785714Y-105909800D02*
X145761905Y-105862180D01*
X145761905Y-105862180D02*
X145761905Y-105671704D01*
X145761905Y-105671704D02*
X145785714Y-105624085D01*
X145785714Y-105624085D02*
X145833333Y-105600276D01*
X145833333Y-105600276D02*
X145928571Y-105600276D01*
X145928571Y-105600276D02*
X145976190Y-105624085D01*
X145976190Y-105624085D02*
X146000000Y-105671704D01*
X146000000Y-105671704D02*
X146000000Y-105719323D01*
X146000000Y-105719323D02*
X145761905Y-105766942D01*
X146214285Y-105933609D02*
X146214285Y-105600276D01*
X146214285Y-105695514D02*
X146238095Y-105647895D01*
X146238095Y-105647895D02*
X146261904Y-105624085D01*
X146261904Y-105624085D02*
X146309523Y-105600276D01*
X146309523Y-105600276D02*
X146357142Y-105600276D01*
X146880952Y-105790752D02*
X147119047Y-105790752D01*
X146833333Y-105933609D02*
X146999999Y-105433609D01*
X146999999Y-105433609D02*
X147166666Y-105933609D01*
X147333332Y-105933609D02*
X147333332Y-105600276D01*
X147333332Y-105647895D02*
X147357142Y-105624085D01*
X147357142Y-105624085D02*
X147404761Y-105600276D01*
X147404761Y-105600276D02*
X147476189Y-105600276D01*
X147476189Y-105600276D02*
X147523808Y-105624085D01*
X147523808Y-105624085D02*
X147547618Y-105671704D01*
X147547618Y-105671704D02*
X147547618Y-105933609D01*
X147547618Y-105671704D02*
X147571427Y-105624085D01*
X147571427Y-105624085D02*
X147619046Y-105600276D01*
X147619046Y-105600276D02*
X147690475Y-105600276D01*
X147690475Y-105600276D02*
X147738094Y-105624085D01*
X147738094Y-105624085D02*
X147761904Y-105671704D01*
X147761904Y-105671704D02*
X147761904Y-105933609D01*
X147999999Y-105600276D02*
X147999999Y-106100276D01*
X147999999Y-105624085D02*
X148047618Y-105600276D01*
X148047618Y-105600276D02*
X148142856Y-105600276D01*
X148142856Y-105600276D02*
X148190475Y-105624085D01*
X148190475Y-105624085D02*
X148214285Y-105647895D01*
X148214285Y-105647895D02*
X148238094Y-105695514D01*
X148238094Y-105695514D02*
X148238094Y-105838371D01*
X148238094Y-105838371D02*
X148214285Y-105885990D01*
X148214285Y-105885990D02*
X148190475Y-105909800D01*
X148190475Y-105909800D02*
X148142856Y-105933609D01*
X148142856Y-105933609D02*
X148047618Y-105933609D01*
X148047618Y-105933609D02*
X147999999Y-105909800D01*
X148642856Y-105909800D02*
X148595237Y-105933609D01*
X148595237Y-105933609D02*
X148499999Y-105933609D01*
X148499999Y-105933609D02*
X148452380Y-105909800D01*
X148452380Y-105909800D02*
X148428571Y-105862180D01*
X148428571Y-105862180D02*
X148428571Y-105671704D01*
X148428571Y-105671704D02*
X148452380Y-105624085D01*
X148452380Y-105624085D02*
X148499999Y-105600276D01*
X148499999Y-105600276D02*
X148595237Y-105600276D01*
X148595237Y-105600276D02*
X148642856Y-105624085D01*
X148642856Y-105624085D02*
X148666666Y-105671704D01*
X148666666Y-105671704D02*
X148666666Y-105719323D01*
X148666666Y-105719323D02*
X148428571Y-105766942D01*
X148880951Y-105933609D02*
X148880951Y-105600276D01*
X148880951Y-105695514D02*
X148904761Y-105647895D01*
X148904761Y-105647895D02*
X148928570Y-105624085D01*
X148928570Y-105624085D02*
X148976189Y-105600276D01*
X148976189Y-105600276D02*
X149023808Y-105600276D01*
X149380951Y-105909800D02*
X149333332Y-105933609D01*
X149333332Y-105933609D02*
X149238094Y-105933609D01*
X149238094Y-105933609D02*
X149190475Y-105909800D01*
X149190475Y-105909800D02*
X149166666Y-105862180D01*
X149166666Y-105862180D02*
X149166666Y-105671704D01*
X149166666Y-105671704D02*
X149190475Y-105624085D01*
X149190475Y-105624085D02*
X149238094Y-105600276D01*
X149238094Y-105600276D02*
X149333332Y-105600276D01*
X149333332Y-105600276D02*
X149380951Y-105624085D01*
X149380951Y-105624085D02*
X149404761Y-105671704D01*
X149404761Y-105671704D02*
X149404761Y-105719323D01*
X149404761Y-105719323D02*
X149166666Y-105766942D01*
X150184836Y-103600276D02*
X150184836Y-103933609D01*
X150184836Y-103647895D02*
X150208646Y-103624085D01*
X150208646Y-103624085D02*
X150256265Y-103600276D01*
X150256265Y-103600276D02*
X150327693Y-103600276D01*
X150327693Y-103600276D02*
X150375312Y-103624085D01*
X150375312Y-103624085D02*
X150399122Y-103671704D01*
X150399122Y-103671704D02*
X150399122Y-103933609D01*
X150708646Y-103933609D02*
X150661027Y-103909800D01*
X150661027Y-103909800D02*
X150637217Y-103885990D01*
X150637217Y-103885990D02*
X150613408Y-103838371D01*
X150613408Y-103838371D02*
X150613408Y-103695514D01*
X150613408Y-103695514D02*
X150637217Y-103647895D01*
X150637217Y-103647895D02*
X150661027Y-103624085D01*
X150661027Y-103624085D02*
X150708646Y-103600276D01*
X150708646Y-103600276D02*
X150780074Y-103600276D01*
X150780074Y-103600276D02*
X150827693Y-103624085D01*
X150827693Y-103624085D02*
X150851503Y-103647895D01*
X150851503Y-103647895D02*
X150875312Y-103695514D01*
X150875312Y-103695514D02*
X150875312Y-103838371D01*
X150875312Y-103838371D02*
X150851503Y-103885990D01*
X150851503Y-103885990D02*
X150827693Y-103909800D01*
X150827693Y-103909800D02*
X150780074Y-103933609D01*
X150780074Y-103933609D02*
X150708646Y-103933609D01*
X151089598Y-103600276D02*
X151089598Y-103933609D01*
X151089598Y-103647895D02*
X151113408Y-103624085D01*
X151113408Y-103624085D02*
X151161027Y-103600276D01*
X151161027Y-103600276D02*
X151232455Y-103600276D01*
X151232455Y-103600276D02*
X151280074Y-103624085D01*
X151280074Y-103624085D02*
X151303884Y-103671704D01*
X151303884Y-103671704D02*
X151303884Y-103933609D01*
X151732455Y-103909800D02*
X151684836Y-103933609D01*
X151684836Y-103933609D02*
X151589598Y-103933609D01*
X151589598Y-103933609D02*
X151541979Y-103909800D01*
X151541979Y-103909800D02*
X151518170Y-103862180D01*
X151518170Y-103862180D02*
X151518170Y-103671704D01*
X151518170Y-103671704D02*
X151541979Y-103624085D01*
X151541979Y-103624085D02*
X151589598Y-103600276D01*
X151589598Y-103600276D02*
X151684836Y-103600276D01*
X151684836Y-103600276D02*
X151732455Y-103624085D01*
X151732455Y-103624085D02*
X151756265Y-103671704D01*
X151756265Y-103671704D02*
X151756265Y-103719323D01*
X151756265Y-103719323D02*
X151518170Y-103766942D01*
X152303883Y-103600276D02*
X152422931Y-103933609D01*
X152422931Y-103933609D02*
X152541978Y-103600276D01*
X152803883Y-103933609D02*
X152756264Y-103909800D01*
X152756264Y-103909800D02*
X152732454Y-103885990D01*
X152732454Y-103885990D02*
X152708645Y-103838371D01*
X152708645Y-103838371D02*
X152708645Y-103695514D01*
X152708645Y-103695514D02*
X152732454Y-103647895D01*
X152732454Y-103647895D02*
X152756264Y-103624085D01*
X152756264Y-103624085D02*
X152803883Y-103600276D01*
X152803883Y-103600276D02*
X152875311Y-103600276D01*
X152875311Y-103600276D02*
X152922930Y-103624085D01*
X152922930Y-103624085D02*
X152946740Y-103647895D01*
X152946740Y-103647895D02*
X152970549Y-103695514D01*
X152970549Y-103695514D02*
X152970549Y-103838371D01*
X152970549Y-103838371D02*
X152946740Y-103885990D01*
X152946740Y-103885990D02*
X152922930Y-103909800D01*
X152922930Y-103909800D02*
X152875311Y-103933609D01*
X152875311Y-103933609D02*
X152803883Y-103933609D01*
X153256264Y-103933609D02*
X153208645Y-103909800D01*
X153208645Y-103909800D02*
X153184835Y-103862180D01*
X153184835Y-103862180D02*
X153184835Y-103433609D01*
X153375312Y-103600276D02*
X153565788Y-103600276D01*
X153446740Y-103433609D02*
X153446740Y-103862180D01*
X153446740Y-103862180D02*
X153470550Y-103909800D01*
X153470550Y-103909800D02*
X153518169Y-103933609D01*
X153518169Y-103933609D02*
X153565788Y-103933609D01*
X138434836Y-108183609D02*
X138434836Y-107683609D01*
X138434836Y-107874085D02*
X138482455Y-107850276D01*
X138482455Y-107850276D02*
X138577693Y-107850276D01*
X138577693Y-107850276D02*
X138625312Y-107874085D01*
X138625312Y-107874085D02*
X138649122Y-107897895D01*
X138649122Y-107897895D02*
X138672931Y-107945514D01*
X138672931Y-107945514D02*
X138672931Y-108088371D01*
X138672931Y-108088371D02*
X138649122Y-108135990D01*
X138649122Y-108135990D02*
X138625312Y-108159800D01*
X138625312Y-108159800D02*
X138577693Y-108183609D01*
X138577693Y-108183609D02*
X138482455Y-108183609D01*
X138482455Y-108183609D02*
X138434836Y-108159800D01*
X138887217Y-108183609D02*
X138887217Y-107850276D01*
X138887217Y-107683609D02*
X138863408Y-107707419D01*
X138863408Y-107707419D02*
X138887217Y-107731228D01*
X138887217Y-107731228D02*
X138911027Y-107707419D01*
X138911027Y-107707419D02*
X138887217Y-107683609D01*
X138887217Y-107683609D02*
X138887217Y-107731228D01*
X139339598Y-107850276D02*
X139339598Y-108255038D01*
X139339598Y-108255038D02*
X139315788Y-108302657D01*
X139315788Y-108302657D02*
X139291979Y-108326466D01*
X139291979Y-108326466D02*
X139244360Y-108350276D01*
X139244360Y-108350276D02*
X139172931Y-108350276D01*
X139172931Y-108350276D02*
X139125312Y-108326466D01*
X139339598Y-108159800D02*
X139291979Y-108183609D01*
X139291979Y-108183609D02*
X139196741Y-108183609D01*
X139196741Y-108183609D02*
X139149122Y-108159800D01*
X139149122Y-108159800D02*
X139125312Y-108135990D01*
X139125312Y-108135990D02*
X139101503Y-108088371D01*
X139101503Y-108088371D02*
X139101503Y-107945514D01*
X139101503Y-107945514D02*
X139125312Y-107897895D01*
X139125312Y-107897895D02*
X139149122Y-107874085D01*
X139149122Y-107874085D02*
X139196741Y-107850276D01*
X139196741Y-107850276D02*
X139291979Y-107850276D01*
X139291979Y-107850276D02*
X139339598Y-107874085D01*
X139911026Y-107850276D02*
X140030074Y-108183609D01*
X140030074Y-108183609D02*
X140149121Y-107850276D01*
X140411026Y-108183609D02*
X140363407Y-108159800D01*
X140363407Y-108159800D02*
X140339597Y-108135990D01*
X140339597Y-108135990D02*
X140315788Y-108088371D01*
X140315788Y-108088371D02*
X140315788Y-107945514D01*
X140315788Y-107945514D02*
X140339597Y-107897895D01*
X140339597Y-107897895D02*
X140363407Y-107874085D01*
X140363407Y-107874085D02*
X140411026Y-107850276D01*
X140411026Y-107850276D02*
X140482454Y-107850276D01*
X140482454Y-107850276D02*
X140530073Y-107874085D01*
X140530073Y-107874085D02*
X140553883Y-107897895D01*
X140553883Y-107897895D02*
X140577692Y-107945514D01*
X140577692Y-107945514D02*
X140577692Y-108088371D01*
X140577692Y-108088371D02*
X140553883Y-108135990D01*
X140553883Y-108135990D02*
X140530073Y-108159800D01*
X140530073Y-108159800D02*
X140482454Y-108183609D01*
X140482454Y-108183609D02*
X140411026Y-108183609D01*
X140863407Y-108183609D02*
X140815788Y-108159800D01*
X140815788Y-108159800D02*
X140791978Y-108112180D01*
X140791978Y-108112180D02*
X140791978Y-107683609D01*
X140982455Y-107850276D02*
X141172931Y-107850276D01*
X141053883Y-107683609D02*
X141053883Y-108112180D01*
X141053883Y-108112180D02*
X141077693Y-108159800D01*
X141077693Y-108159800D02*
X141125312Y-108183609D01*
X141125312Y-108183609D02*
X141172931Y-108183609D01*
D11*
X136822054Y-97361616D02*
X137298244Y-97361616D01*
X136726816Y-97647331D02*
X137060149Y-96647331D01*
X137060149Y-96647331D02*
X137393482Y-97647331D01*
X137726816Y-97647331D02*
X137726816Y-96647331D01*
X139298244Y-97123521D02*
X138964911Y-97123521D01*
X138964911Y-97647331D02*
X138964911Y-96647331D01*
X138964911Y-96647331D02*
X139441101Y-96647331D01*
X140250625Y-96980664D02*
X140250625Y-97647331D01*
X139822054Y-96980664D02*
X139822054Y-97504473D01*
X139822054Y-97504473D02*
X139869673Y-97599712D01*
X139869673Y-97599712D02*
X139964911Y-97647331D01*
X139964911Y-97647331D02*
X140107768Y-97647331D01*
X140107768Y-97647331D02*
X140203006Y-97599712D01*
X140203006Y-97599712D02*
X140250625Y-97552092D01*
X140679197Y-97599712D02*
X140774435Y-97647331D01*
X140774435Y-97647331D02*
X140964911Y-97647331D01*
X140964911Y-97647331D02*
X141060149Y-97599712D01*
X141060149Y-97599712D02*
X141107768Y-97504473D01*
X141107768Y-97504473D02*
X141107768Y-97456854D01*
X141107768Y-97456854D02*
X141060149Y-97361616D01*
X141060149Y-97361616D02*
X140964911Y-97313997D01*
X140964911Y-97313997D02*
X140822054Y-97313997D01*
X140822054Y-97313997D02*
X140726816Y-97266378D01*
X140726816Y-97266378D02*
X140679197Y-97171140D01*
X140679197Y-97171140D02*
X140679197Y-97123521D01*
X140679197Y-97123521D02*
X140726816Y-97028283D01*
X140726816Y-97028283D02*
X140822054Y-96980664D01*
X140822054Y-96980664D02*
X140964911Y-96980664D01*
X140964911Y-96980664D02*
X141060149Y-97028283D01*
X141536340Y-97647331D02*
X141536340Y-96980664D01*
X141536340Y-96647331D02*
X141488721Y-96694950D01*
X141488721Y-96694950D02*
X141536340Y-96742569D01*
X141536340Y-96742569D02*
X141583959Y-96694950D01*
X141583959Y-96694950D02*
X141536340Y-96647331D01*
X141536340Y-96647331D02*
X141536340Y-96742569D01*
X142155387Y-97647331D02*
X142060149Y-97599712D01*
X142060149Y-97599712D02*
X142012530Y-97552092D01*
X142012530Y-97552092D02*
X141964911Y-97456854D01*
X141964911Y-97456854D02*
X141964911Y-97171140D01*
X141964911Y-97171140D02*
X142012530Y-97075902D01*
X142012530Y-97075902D02*
X142060149Y-97028283D01*
X142060149Y-97028283D02*
X142155387Y-96980664D01*
X142155387Y-96980664D02*
X142298244Y-96980664D01*
X142298244Y-96980664D02*
X142393482Y-97028283D01*
X142393482Y-97028283D02*
X142441101Y-97075902D01*
X142441101Y-97075902D02*
X142488720Y-97171140D01*
X142488720Y-97171140D02*
X142488720Y-97456854D01*
X142488720Y-97456854D02*
X142441101Y-97552092D01*
X142441101Y-97552092D02*
X142393482Y-97599712D01*
X142393482Y-97599712D02*
X142298244Y-97647331D01*
X142298244Y-97647331D02*
X142155387Y-97647331D01*
X142917292Y-96980664D02*
X142917292Y-97647331D01*
X142917292Y-97075902D02*
X142964911Y-97028283D01*
X142964911Y-97028283D02*
X143060149Y-96980664D01*
X143060149Y-96980664D02*
X143203006Y-96980664D01*
X143203006Y-96980664D02*
X143298244Y-97028283D01*
X143298244Y-97028283D02*
X143345863Y-97123521D01*
X143345863Y-97123521D02*
X143345863Y-97647331D01*
X144441102Y-96647331D02*
X145012530Y-96647331D01*
X144726816Y-97647331D02*
X144726816Y-96647331D01*
X145726816Y-97599712D02*
X145631578Y-97647331D01*
X145631578Y-97647331D02*
X145441102Y-97647331D01*
X145441102Y-97647331D02*
X145345864Y-97599712D01*
X145345864Y-97599712D02*
X145298245Y-97504473D01*
X145298245Y-97504473D02*
X145298245Y-97123521D01*
X145298245Y-97123521D02*
X145345864Y-97028283D01*
X145345864Y-97028283D02*
X145441102Y-96980664D01*
X145441102Y-96980664D02*
X145631578Y-96980664D01*
X145631578Y-96980664D02*
X145726816Y-97028283D01*
X145726816Y-97028283D02*
X145774435Y-97123521D01*
X145774435Y-97123521D02*
X145774435Y-97218759D01*
X145774435Y-97218759D02*
X145298245Y-97313997D01*
X146203007Y-96980664D02*
X146203007Y-97647331D01*
X146203007Y-97075902D02*
X146250626Y-97028283D01*
X146250626Y-97028283D02*
X146345864Y-96980664D01*
X146345864Y-96980664D02*
X146488721Y-96980664D01*
X146488721Y-96980664D02*
X146583959Y-97028283D01*
X146583959Y-97028283D02*
X146631578Y-97123521D01*
X146631578Y-97123521D02*
X146631578Y-97647331D01*
X147060150Y-97599712D02*
X147155388Y-97647331D01*
X147155388Y-97647331D02*
X147345864Y-97647331D01*
X147345864Y-97647331D02*
X147441102Y-97599712D01*
X147441102Y-97599712D02*
X147488721Y-97504473D01*
X147488721Y-97504473D02*
X147488721Y-97456854D01*
X147488721Y-97456854D02*
X147441102Y-97361616D01*
X147441102Y-97361616D02*
X147345864Y-97313997D01*
X147345864Y-97313997D02*
X147203007Y-97313997D01*
X147203007Y-97313997D02*
X147107769Y-97266378D01*
X147107769Y-97266378D02*
X147060150Y-97171140D01*
X147060150Y-97171140D02*
X147060150Y-97123521D01*
X147060150Y-97123521D02*
X147107769Y-97028283D01*
X147107769Y-97028283D02*
X147203007Y-96980664D01*
X147203007Y-96980664D02*
X147345864Y-96980664D01*
X147345864Y-96980664D02*
X147441102Y-97028283D01*
X148060150Y-97647331D02*
X147964912Y-97599712D01*
X147964912Y-97599712D02*
X147917293Y-97552092D01*
X147917293Y-97552092D02*
X147869674Y-97456854D01*
X147869674Y-97456854D02*
X147869674Y-97171140D01*
X147869674Y-97171140D02*
X147917293Y-97075902D01*
X147917293Y-97075902D02*
X147964912Y-97028283D01*
X147964912Y-97028283D02*
X148060150Y-96980664D01*
X148060150Y-96980664D02*
X148203007Y-96980664D01*
X148203007Y-96980664D02*
X148298245Y-97028283D01*
X148298245Y-97028283D02*
X148345864Y-97075902D01*
X148345864Y-97075902D02*
X148393483Y-97171140D01*
X148393483Y-97171140D02*
X148393483Y-97456854D01*
X148393483Y-97456854D02*
X148345864Y-97552092D01*
X148345864Y-97552092D02*
X148298245Y-97599712D01*
X148298245Y-97599712D02*
X148203007Y-97647331D01*
X148203007Y-97647331D02*
X148060150Y-97647331D01*
X148822055Y-97647331D02*
X148822055Y-96980664D01*
X148822055Y-97171140D02*
X148869674Y-97075902D01*
X148869674Y-97075902D02*
X148917293Y-97028283D01*
X148917293Y-97028283D02*
X149012531Y-96980664D01*
X149012531Y-96980664D02*
X149107769Y-96980664D01*
X136869673Y-99257275D02*
X136869673Y-98257275D01*
X136869673Y-98257275D02*
X137250625Y-98257275D01*
X137250625Y-98257275D02*
X137345863Y-98304894D01*
X137345863Y-98304894D02*
X137393482Y-98352513D01*
X137393482Y-98352513D02*
X137441101Y-98447751D01*
X137441101Y-98447751D02*
X137441101Y-98590608D01*
X137441101Y-98590608D02*
X137393482Y-98685846D01*
X137393482Y-98685846D02*
X137345863Y-98733465D01*
X137345863Y-98733465D02*
X137250625Y-98781084D01*
X137250625Y-98781084D02*
X136869673Y-98781084D01*
X137869673Y-99257275D02*
X137869673Y-98590608D01*
X137869673Y-98781084D02*
X137917292Y-98685846D01*
X137917292Y-98685846D02*
X137964911Y-98638227D01*
X137964911Y-98638227D02*
X138060149Y-98590608D01*
X138060149Y-98590608D02*
X138155387Y-98590608D01*
X138631578Y-99257275D02*
X138536340Y-99209656D01*
X138536340Y-99209656D02*
X138488721Y-99162036D01*
X138488721Y-99162036D02*
X138441102Y-99066798D01*
X138441102Y-99066798D02*
X138441102Y-98781084D01*
X138441102Y-98781084D02*
X138488721Y-98685846D01*
X138488721Y-98685846D02*
X138536340Y-98638227D01*
X138536340Y-98638227D02*
X138631578Y-98590608D01*
X138631578Y-98590608D02*
X138774435Y-98590608D01*
X138774435Y-98590608D02*
X138869673Y-98638227D01*
X138869673Y-98638227D02*
X138917292Y-98685846D01*
X138917292Y-98685846D02*
X138964911Y-98781084D01*
X138964911Y-98781084D02*
X138964911Y-99066798D01*
X138964911Y-99066798D02*
X138917292Y-99162036D01*
X138917292Y-99162036D02*
X138869673Y-99209656D01*
X138869673Y-99209656D02*
X138774435Y-99257275D01*
X138774435Y-99257275D02*
X138631578Y-99257275D01*
X139822054Y-99209656D02*
X139726816Y-99257275D01*
X139726816Y-99257275D02*
X139536340Y-99257275D01*
X139536340Y-99257275D02*
X139441102Y-99209656D01*
X139441102Y-99209656D02*
X139393483Y-99162036D01*
X139393483Y-99162036D02*
X139345864Y-99066798D01*
X139345864Y-99066798D02*
X139345864Y-98781084D01*
X139345864Y-98781084D02*
X139393483Y-98685846D01*
X139393483Y-98685846D02*
X139441102Y-98638227D01*
X139441102Y-98638227D02*
X139536340Y-98590608D01*
X139536340Y-98590608D02*
X139726816Y-98590608D01*
X139726816Y-98590608D02*
X139822054Y-98638227D01*
X140631578Y-99209656D02*
X140536340Y-99257275D01*
X140536340Y-99257275D02*
X140345864Y-99257275D01*
X140345864Y-99257275D02*
X140250626Y-99209656D01*
X140250626Y-99209656D02*
X140203007Y-99114417D01*
X140203007Y-99114417D02*
X140203007Y-98733465D01*
X140203007Y-98733465D02*
X140250626Y-98638227D01*
X140250626Y-98638227D02*
X140345864Y-98590608D01*
X140345864Y-98590608D02*
X140536340Y-98590608D01*
X140536340Y-98590608D02*
X140631578Y-98638227D01*
X140631578Y-98638227D02*
X140679197Y-98733465D01*
X140679197Y-98733465D02*
X140679197Y-98828703D01*
X140679197Y-98828703D02*
X140203007Y-98923941D01*
X141060150Y-99209656D02*
X141155388Y-99257275D01*
X141155388Y-99257275D02*
X141345864Y-99257275D01*
X141345864Y-99257275D02*
X141441102Y-99209656D01*
X141441102Y-99209656D02*
X141488721Y-99114417D01*
X141488721Y-99114417D02*
X141488721Y-99066798D01*
X141488721Y-99066798D02*
X141441102Y-98971560D01*
X141441102Y-98971560D02*
X141345864Y-98923941D01*
X141345864Y-98923941D02*
X141203007Y-98923941D01*
X141203007Y-98923941D02*
X141107769Y-98876322D01*
X141107769Y-98876322D02*
X141060150Y-98781084D01*
X141060150Y-98781084D02*
X141060150Y-98733465D01*
X141060150Y-98733465D02*
X141107769Y-98638227D01*
X141107769Y-98638227D02*
X141203007Y-98590608D01*
X141203007Y-98590608D02*
X141345864Y-98590608D01*
X141345864Y-98590608D02*
X141441102Y-98638227D01*
X141869674Y-99209656D02*
X141964912Y-99257275D01*
X141964912Y-99257275D02*
X142155388Y-99257275D01*
X142155388Y-99257275D02*
X142250626Y-99209656D01*
X142250626Y-99209656D02*
X142298245Y-99114417D01*
X142298245Y-99114417D02*
X142298245Y-99066798D01*
X142298245Y-99066798D02*
X142250626Y-98971560D01*
X142250626Y-98971560D02*
X142155388Y-98923941D01*
X142155388Y-98923941D02*
X142012531Y-98923941D01*
X142012531Y-98923941D02*
X141917293Y-98876322D01*
X141917293Y-98876322D02*
X141869674Y-98781084D01*
X141869674Y-98781084D02*
X141869674Y-98733465D01*
X141869674Y-98733465D02*
X141917293Y-98638227D01*
X141917293Y-98638227D02*
X142012531Y-98590608D01*
X142012531Y-98590608D02*
X142155388Y-98590608D01*
X142155388Y-98590608D02*
X142250626Y-98638227D01*
X142869674Y-99257275D02*
X142774436Y-99209656D01*
X142774436Y-99209656D02*
X142726817Y-99162036D01*
X142726817Y-99162036D02*
X142679198Y-99066798D01*
X142679198Y-99066798D02*
X142679198Y-98781084D01*
X142679198Y-98781084D02*
X142726817Y-98685846D01*
X142726817Y-98685846D02*
X142774436Y-98638227D01*
X142774436Y-98638227D02*
X142869674Y-98590608D01*
X142869674Y-98590608D02*
X143012531Y-98590608D01*
X143012531Y-98590608D02*
X143107769Y-98638227D01*
X143107769Y-98638227D02*
X143155388Y-98685846D01*
X143155388Y-98685846D02*
X143203007Y-98781084D01*
X143203007Y-98781084D02*
X143203007Y-99066798D01*
X143203007Y-99066798D02*
X143155388Y-99162036D01*
X143155388Y-99162036D02*
X143107769Y-99209656D01*
X143107769Y-99209656D02*
X143012531Y-99257275D01*
X143012531Y-99257275D02*
X142869674Y-99257275D01*
X143631579Y-99257275D02*
X143631579Y-98590608D01*
X143631579Y-98781084D02*
X143679198Y-98685846D01*
X143679198Y-98685846D02*
X143726817Y-98638227D01*
X143726817Y-98638227D02*
X143822055Y-98590608D01*
X143822055Y-98590608D02*
X143917293Y-98590608D01*
X145012532Y-98733465D02*
X145345865Y-98733465D01*
X145488722Y-99257275D02*
X145012532Y-99257275D01*
X145012532Y-99257275D02*
X145012532Y-98257275D01*
X145012532Y-98257275D02*
X145488722Y-98257275D01*
X146345865Y-99257275D02*
X146345865Y-98257275D01*
X146345865Y-99209656D02*
X146250627Y-99257275D01*
X146250627Y-99257275D02*
X146060151Y-99257275D01*
X146060151Y-99257275D02*
X145964913Y-99209656D01*
X145964913Y-99209656D02*
X145917294Y-99162036D01*
X145917294Y-99162036D02*
X145869675Y-99066798D01*
X145869675Y-99066798D02*
X145869675Y-98781084D01*
X145869675Y-98781084D02*
X145917294Y-98685846D01*
X145917294Y-98685846D02*
X145964913Y-98638227D01*
X145964913Y-98638227D02*
X146060151Y-98590608D01*
X146060151Y-98590608D02*
X146250627Y-98590608D01*
X146250627Y-98590608D02*
X146345865Y-98638227D01*
X147250627Y-98590608D02*
X147250627Y-99400132D01*
X147250627Y-99400132D02*
X147203008Y-99495370D01*
X147203008Y-99495370D02*
X147155389Y-99542989D01*
X147155389Y-99542989D02*
X147060151Y-99590608D01*
X147060151Y-99590608D02*
X146917294Y-99590608D01*
X146917294Y-99590608D02*
X146822056Y-99542989D01*
X147250627Y-99209656D02*
X147155389Y-99257275D01*
X147155389Y-99257275D02*
X146964913Y-99257275D01*
X146964913Y-99257275D02*
X146869675Y-99209656D01*
X146869675Y-99209656D02*
X146822056Y-99162036D01*
X146822056Y-99162036D02*
X146774437Y-99066798D01*
X146774437Y-99066798D02*
X146774437Y-98781084D01*
X146774437Y-98781084D02*
X146822056Y-98685846D01*
X146822056Y-98685846D02*
X146869675Y-98638227D01*
X146869675Y-98638227D02*
X146964913Y-98590608D01*
X146964913Y-98590608D02*
X147155389Y-98590608D01*
X147155389Y-98590608D02*
X147250627Y-98638227D01*
X148107770Y-99209656D02*
X148012532Y-99257275D01*
X148012532Y-99257275D02*
X147822056Y-99257275D01*
X147822056Y-99257275D02*
X147726818Y-99209656D01*
X147726818Y-99209656D02*
X147679199Y-99114417D01*
X147679199Y-99114417D02*
X147679199Y-98733465D01*
X147679199Y-98733465D02*
X147726818Y-98638227D01*
X147726818Y-98638227D02*
X147822056Y-98590608D01*
X147822056Y-98590608D02*
X148012532Y-98590608D01*
X148012532Y-98590608D02*
X148107770Y-98638227D01*
X148107770Y-98638227D02*
X148155389Y-98733465D01*
X148155389Y-98733465D02*
X148155389Y-98828703D01*
X148155389Y-98828703D02*
X147679199Y-98923941D01*
X149345866Y-99257275D02*
X149345866Y-98257275D01*
X149345866Y-98257275D02*
X149583961Y-98257275D01*
X149583961Y-98257275D02*
X149726818Y-98304894D01*
X149726818Y-98304894D02*
X149822056Y-98400132D01*
X149822056Y-98400132D02*
X149869675Y-98495370D01*
X149869675Y-98495370D02*
X149917294Y-98685846D01*
X149917294Y-98685846D02*
X149917294Y-98828703D01*
X149917294Y-98828703D02*
X149869675Y-99019179D01*
X149869675Y-99019179D02*
X149822056Y-99114417D01*
X149822056Y-99114417D02*
X149726818Y-99209656D01*
X149726818Y-99209656D02*
X149583961Y-99257275D01*
X149583961Y-99257275D02*
X149345866Y-99257275D01*
X150726818Y-99209656D02*
X150631580Y-99257275D01*
X150631580Y-99257275D02*
X150441104Y-99257275D01*
X150441104Y-99257275D02*
X150345866Y-99209656D01*
X150345866Y-99209656D02*
X150298247Y-99114417D01*
X150298247Y-99114417D02*
X150298247Y-98733465D01*
X150298247Y-98733465D02*
X150345866Y-98638227D01*
X150345866Y-98638227D02*
X150441104Y-98590608D01*
X150441104Y-98590608D02*
X150631580Y-98590608D01*
X150631580Y-98590608D02*
X150726818Y-98638227D01*
X150726818Y-98638227D02*
X150774437Y-98733465D01*
X150774437Y-98733465D02*
X150774437Y-98828703D01*
X150774437Y-98828703D02*
X150298247Y-98923941D01*
X151107771Y-98590608D02*
X151345866Y-99257275D01*
X151345866Y-99257275D02*
X151583961Y-98590608D01*
X151964914Y-99257275D02*
X151964914Y-98590608D01*
X151964914Y-98257275D02*
X151917295Y-98304894D01*
X151917295Y-98304894D02*
X151964914Y-98352513D01*
X151964914Y-98352513D02*
X152012533Y-98304894D01*
X152012533Y-98304894D02*
X151964914Y-98257275D01*
X151964914Y-98257275D02*
X151964914Y-98352513D01*
X152869675Y-99209656D02*
X152774437Y-99257275D01*
X152774437Y-99257275D02*
X152583961Y-99257275D01*
X152583961Y-99257275D02*
X152488723Y-99209656D01*
X152488723Y-99209656D02*
X152441104Y-99162036D01*
X152441104Y-99162036D02*
X152393485Y-99066798D01*
X152393485Y-99066798D02*
X152393485Y-98781084D01*
X152393485Y-98781084D02*
X152441104Y-98685846D01*
X152441104Y-98685846D02*
X152488723Y-98638227D01*
X152488723Y-98638227D02*
X152583961Y-98590608D01*
X152583961Y-98590608D02*
X152774437Y-98590608D01*
X152774437Y-98590608D02*
X152869675Y-98638227D01*
X153679199Y-99209656D02*
X153583961Y-99257275D01*
X153583961Y-99257275D02*
X153393485Y-99257275D01*
X153393485Y-99257275D02*
X153298247Y-99209656D01*
X153298247Y-99209656D02*
X153250628Y-99114417D01*
X153250628Y-99114417D02*
X153250628Y-98733465D01*
X153250628Y-98733465D02*
X153298247Y-98638227D01*
X153298247Y-98638227D02*
X153393485Y-98590608D01*
X153393485Y-98590608D02*
X153583961Y-98590608D01*
X153583961Y-98590608D02*
X153679199Y-98638227D01*
X153679199Y-98638227D02*
X153726818Y-98733465D01*
X153726818Y-98733465D02*
X153726818Y-98828703D01*
X153726818Y-98828703D02*
X153250628Y-98923941D01*
X136726816Y-100200552D02*
X137107768Y-100200552D01*
X136869673Y-100867219D02*
X136869673Y-100010076D01*
X136869673Y-100010076D02*
X136917292Y-99914838D01*
X136917292Y-99914838D02*
X137012530Y-99867219D01*
X137012530Y-99867219D02*
X137107768Y-99867219D01*
X137583959Y-100867219D02*
X137488721Y-100819600D01*
X137488721Y-100819600D02*
X137441102Y-100771980D01*
X137441102Y-100771980D02*
X137393483Y-100676742D01*
X137393483Y-100676742D02*
X137393483Y-100391028D01*
X137393483Y-100391028D02*
X137441102Y-100295790D01*
X137441102Y-100295790D02*
X137488721Y-100248171D01*
X137488721Y-100248171D02*
X137583959Y-100200552D01*
X137583959Y-100200552D02*
X137726816Y-100200552D01*
X137726816Y-100200552D02*
X137822054Y-100248171D01*
X137822054Y-100248171D02*
X137869673Y-100295790D01*
X137869673Y-100295790D02*
X137917292Y-100391028D01*
X137917292Y-100391028D02*
X137917292Y-100676742D01*
X137917292Y-100676742D02*
X137869673Y-100771980D01*
X137869673Y-100771980D02*
X137822054Y-100819600D01*
X137822054Y-100819600D02*
X137726816Y-100867219D01*
X137726816Y-100867219D02*
X137583959Y-100867219D01*
X138345864Y-100867219D02*
X138345864Y-100200552D01*
X138345864Y-100391028D02*
X138393483Y-100295790D01*
X138393483Y-100295790D02*
X138441102Y-100248171D01*
X138441102Y-100248171D02*
X138536340Y-100200552D01*
X138536340Y-100200552D02*
X138631578Y-100200552D01*
X139726817Y-100867219D02*
X139726817Y-99867219D01*
X140345864Y-100867219D02*
X140250626Y-100819600D01*
X140250626Y-100819600D02*
X140203007Y-100771980D01*
X140203007Y-100771980D02*
X140155388Y-100676742D01*
X140155388Y-100676742D02*
X140155388Y-100391028D01*
X140155388Y-100391028D02*
X140203007Y-100295790D01*
X140203007Y-100295790D02*
X140250626Y-100248171D01*
X140250626Y-100248171D02*
X140345864Y-100200552D01*
X140345864Y-100200552D02*
X140488721Y-100200552D01*
X140488721Y-100200552D02*
X140583959Y-100248171D01*
X140583959Y-100248171D02*
X140631578Y-100295790D01*
X140631578Y-100295790D02*
X140679197Y-100391028D01*
X140679197Y-100391028D02*
X140679197Y-100676742D01*
X140679197Y-100676742D02*
X140631578Y-100771980D01*
X140631578Y-100771980D02*
X140583959Y-100819600D01*
X140583959Y-100819600D02*
X140488721Y-100867219D01*
X140488721Y-100867219D02*
X140345864Y-100867219D01*
X140964912Y-99867219D02*
X141536340Y-99867219D01*
X141250626Y-100867219D02*
X141250626Y-99867219D01*
D12*
X146008333Y-101524819D02*
X145675000Y-101048628D01*
X145436905Y-101524819D02*
X145436905Y-100524819D01*
X145436905Y-100524819D02*
X145817857Y-100524819D01*
X145817857Y-100524819D02*
X145913095Y-100572438D01*
X145913095Y-100572438D02*
X145960714Y-100620057D01*
X145960714Y-100620057D02*
X146008333Y-100715295D01*
X146008333Y-100715295D02*
X146008333Y-100858152D01*
X146008333Y-100858152D02*
X145960714Y-100953390D01*
X145960714Y-100953390D02*
X145913095Y-101001009D01*
X145913095Y-101001009D02*
X145817857Y-101048628D01*
X145817857Y-101048628D02*
X145436905Y-101048628D01*
X146960714Y-101524819D02*
X146389286Y-101524819D01*
X146675000Y-101524819D02*
X146675000Y-100524819D01*
X146675000Y-100524819D02*
X146579762Y-100667676D01*
X146579762Y-100667676D02*
X146484524Y-100762914D01*
X146484524Y-100762914D02*
X146389286Y-100810533D01*
D13*
%TO.C,J2*%
X152950000Y-101500000D02*
G75*
G02*
X150050000Y-101500000I-1450000J0D01*
G01*
X150050000Y-101500000D02*
G75*
G02*
X152950000Y-101500000I1450000J0D01*
G01*
%TO.C,J1*%
X141450000Y-105250000D02*
G75*
G02*
X138550000Y-105250000I-1450000J0D01*
G01*
X138550000Y-105250000D02*
G75*
G02*
X141450000Y-105250000I1450000J0D01*
G01*
%TO.C,R1*%
X145937742Y-101977500D02*
X146412258Y-101977500D01*
X145937742Y-103022500D02*
X146412258Y-103022500D01*
%TD*%
%LPC*%
D14*
%TO.C,J2*%
X151500000Y-101500000D03*
%TD*%
%TO.C,J1*%
X140000000Y-105250000D03*
%TD*%
D15*
%TO.C,R1*%
X145350000Y-102500000D03*
X147000000Y-102500000D03*
%TD*%
%LPD*%
M02*
