%TF.GenerationSoftware,KiCad,Pcbnew,9.0.3*%
%TF.CreationDate,2025-09-08T02:13:57+08:00*%
%TF.ProjectId,IR_AC,49525f41-432e-46b6-9963-61645f706362,rev?*%
%TF.SameCoordinates,Original*%
%TF.FileFunction,Copper,L2,Bot*%
%TF.FilePolarity,Positive*%
%FSLAX46Y46*%
G04 Gerber Fmt 4.6, Leading zero omitted, Abs format (unit mm)*
G04 Created by KiCad (PCBNEW 9.0.3) date 2025-09-08 02:13:57*
%MOMM*%
%LPD*%
G01*
G04 APERTURE LIST*
%TA.AperFunction,ComponentPad*%
%ADD10O,1.800000X1.200000*%
%TD*%
%TA.AperFunction,ComponentPad*%
%ADD11O,2.000000X1.100000*%
%TD*%
%TA.AperFunction,ComponentPad*%
%ADD12C,0.800000*%
%TD*%
%TA.AperFunction,HeatsinkPad*%
%ADD13C,0.600000*%
%TD*%
%TA.AperFunction,ComponentPad*%
%ADD14C,1.500000*%
%TD*%
%TA.AperFunction,ComponentPad*%
%ADD15C,1.800000*%
%TD*%
%TA.AperFunction,ComponentPad*%
%ADD16C,1.700000*%
%TD*%
%TA.AperFunction,ComponentPad*%
%ADD17R,1.700000X1.700000*%
%TD*%
%TA.AperFunction,ViaPad*%
%ADD18C,0.600000*%
%TD*%
%TA.AperFunction,ViaPad*%
%ADD19C,1.000000*%
%TD*%
%TA.AperFunction,Conductor*%
%ADD20C,0.500000*%
%TD*%
%TA.AperFunction,Conductor*%
%ADD21C,0.300000*%
%TD*%
%TA.AperFunction,Conductor*%
%ADD22C,1.000000*%
%TD*%
G04 APERTURE END LIST*
D10*
%TO.P,J1,14,SHELL*%
%TO.N,GND*%
X-22380000Y-15070000D03*
D11*
X-18170000Y-15070000D03*
D10*
%TO.P,J1,13,SHELL*%
X-22380000Y-6430000D03*
D11*
X-18170000Y-6430000D03*
D12*
%TO.P,J1,*%
X-18700000Y-13640000D03*
X-18700000Y-7860000D03*
%TD*%
D13*
%TO.P,U3,41,GND*%
%TO.N,GND*%
X-100000Y-3160000D03*
X-100000Y-1760000D03*
X-800000Y-3860000D03*
X-800000Y-2460000D03*
X-800000Y-1060000D03*
X-1500000Y-3160000D03*
X-1500000Y-1760000D03*
X-2200000Y-3860000D03*
X-2200000Y-2460000D03*
X-2200000Y-1060000D03*
X-2900000Y-3160000D03*
X-2900000Y-1760000D03*
%TD*%
D14*
%TO.P,TP4,1,1*%
%TO.N,IR_LED_DRIVE*%
X-15000000Y-39000000D03*
%TD*%
%TO.P,TP2,1,1*%
%TO.N,VDC*%
X-500000Y-25500000D03*
%TD*%
D15*
%TO.P,D6,2,A*%
%TO.N,Net-(D6-A)*%
X1270000Y-40000000D03*
%TO.P,D6,1,K*%
%TO.N,Net-(D6-K)*%
X-1270000Y-40000000D03*
%TD*%
D14*
%TO.P,TP1,1,1*%
%TO.N,+3V3*%
X4000000Y-25500000D03*
%TD*%
D16*
%TO.P,J2,4,Pin_4*%
%TO.N,GND*%
X23250000Y-9290000D03*
%TO.P,J2,3,Pin_3*%
%TO.N,RX*%
X23250000Y-6750000D03*
%TO.P,J2,2,Pin_2*%
%TO.N,TX*%
X23250000Y-4210000D03*
D17*
%TO.P,J2,1,Pin_1*%
%TO.N,+3V3*%
X23250000Y-1670000D03*
%TD*%
D14*
%TO.P,TP3,1,1*%
%TO.N,DEBUG*%
X10000000Y-23337500D03*
%TD*%
D18*
%TO.N,GND*%
X-7750000Y-17750000D03*
X-7750000Y-18750000D03*
X-8750000Y-17750000D03*
X-8750000Y-18750000D03*
D19*
%TO.N,+3V3*%
X-8000000Y-14250000D03*
D18*
X-13750000Y-1750000D03*
%TO.N,GND*%
X-17000000Y-37000000D03*
X-16000000Y-37000000D03*
X-15000000Y-37000000D03*
X-11250000Y-40500000D03*
X-11250000Y-41500000D03*
X-11250000Y-42500000D03*
X-1500000Y-32000000D03*
X-2750000Y-32000000D03*
X7500000Y-30000000D03*
X8750000Y-30000000D03*
X7500000Y-31250000D03*
X8750000Y-31250000D03*
X5750000Y-14750000D03*
X7000000Y-14750000D03*
X5750000Y-16000000D03*
X7000000Y-16000000D03*
X17000000Y-24750000D03*
X18250000Y-24750000D03*
X17000000Y-26000000D03*
X18250000Y-26000000D03*
X20250000Y-12000000D03*
X21500000Y-12000000D03*
X20250000Y-13250000D03*
X21500000Y-13250000D03*
X-14250000Y-6750000D03*
X-15500000Y-6750000D03*
X-13000000Y-6750000D03*
X-13000000Y-5750000D03*
X-14250000Y-5750000D03*
X-15500000Y-5750000D03*
X-18000000Y-16750000D03*
X-19250000Y-16750000D03*
X-23000000Y-21750000D03*
X-23000000Y-19250000D03*
X-23000000Y-18000000D03*
X-23000000Y-20500000D03*
X-21750000Y-16750000D03*
X-20500000Y-16750000D03*
X-23000000Y-16750000D03*
X-23000000Y-8750000D03*
X-20500000Y-8750000D03*
X-21750000Y-8750000D03*
X-23000000Y-9750000D03*
X-20500000Y-9750000D03*
X-21750000Y-9750000D03*
X-23000000Y-12750000D03*
X-20500000Y-12750000D03*
X-21750000Y-12750000D03*
X-23000000Y-11750000D03*
X-20500000Y-11750000D03*
X-21750000Y-11750000D03*
X-23000000Y-10750000D03*
X-21750000Y-10750000D03*
X-20500000Y-10750000D03*
X-5000000Y-9000000D03*
X-2000000Y-9000000D03*
X3000000Y-9000000D03*
X5000000Y-9000000D03*
X-4101377Y-9005221D03*
X4000000Y-9000000D03*
X1000000Y-9000000D03*
X2000000Y-9000000D03*
X-1000000Y-9000000D03*
X0Y-9000000D03*
X-3000000Y-9000000D03*
X6000000Y-8000000D03*
X6000000Y-6000000D03*
X6000000Y-9000000D03*
X6000000Y-3000000D03*
X6000000Y-5000000D03*
X5994779Y101377D03*
X6000000Y2000000D03*
X6000000Y-4000000D03*
X6000000Y-2000000D03*
X6000000Y-7000000D03*
X6000000Y1000000D03*
X6000000Y-1000000D03*
X-6000000Y1000000D03*
X-6000000Y2000000D03*
X-6000000Y-2000000D03*
X-6000000Y-7000000D03*
X-6000000Y-9000000D03*
X-6005221Y101377D03*
X-6000000Y-8000000D03*
X-6000000Y-5000000D03*
X-6000000Y-6000000D03*
X-6000000Y-3000000D03*
X-6000000Y-4000000D03*
X-6000000Y-1000000D03*
X-6000000Y3000000D03*
X-5000000Y3000000D03*
X-2000000Y3000000D03*
X-4101377Y2994779D03*
X-3000000Y3000000D03*
X-1000000Y3000000D03*
X6000000Y3000000D03*
X5000000Y3000000D03*
X4000000Y3000000D03*
X3000000Y3000000D03*
X2000000Y3000000D03*
X1000000Y3000000D03*
X0Y3000000D03*
X-13000000Y-17750000D03*
X-12000000Y-17750000D03*
X-12000000Y-18750000D03*
X-13000000Y-18750000D03*
%TO.N,+3V3*%
X20000000Y-21750000D03*
%TO.N,GND*%
X10500000Y2750000D03*
X11750000Y2750000D03*
X10500000Y4000000D03*
X11750000Y4000000D03*
X11750000Y5250000D03*
X10500000Y5250000D03*
X-12500000Y5250000D03*
X-13750000Y5250000D03*
X-15000000Y5250000D03*
X-17500000Y5250000D03*
%TO.N,+3V3*%
X-11750000Y3000000D03*
X-12750000Y3000000D03*
X-11750000Y4000000D03*
X-12750000Y4000000D03*
X-9250000Y-23500000D03*
X-9250000Y-24250000D03*
X-10500000Y-25000000D03*
%TO.N,VDC*%
X4500000Y-35750000D03*
X5500000Y-35750000D03*
X6500000Y-35750000D03*
X4500000Y-34750000D03*
X5500000Y-34750000D03*
X6500000Y-34750000D03*
X6500000Y-33750000D03*
X5500000Y-33750000D03*
X4500000Y-33750000D03*
X-17500000Y-21000000D03*
X-16500000Y-21000000D03*
X-17500000Y-20250000D03*
X-16500000Y-20250000D03*
X-17500000Y-19500000D03*
X-16500000Y-19500000D03*
X-16500000Y-18750000D03*
X-17500000Y-18750000D03*
%TO.N,+3V3*%
X-9250000Y-25000000D03*
X-10500000Y-24250000D03*
X-10500000Y-23500000D03*
X-10500000Y-22750000D03*
X-9250000Y-22750000D03*
%TO.N,/V_BUS*%
X-16400000Y-13200000D03*
X-16400000Y-8300000D03*
%TO.N,GND*%
X-12500000Y-12500000D03*
X-12500000Y-9000000D03*
X-4000000Y-42500000D03*
X-8000000Y-40500000D03*
X-8000000Y-41500000D03*
X-8000000Y-42500000D03*
X-7000000Y-42500000D03*
X-5967067Y-42494018D03*
X-5000000Y-42500000D03*
%TO.N,/V_BUS*%
X-12000000Y-10750000D03*
%TO.N,GND*%
X-15500000Y-10750000D03*
X-17500000Y4000000D03*
X-16250000Y5250000D03*
X-17500000Y2750000D03*
%TD*%
D20*
%TO.N,/V_BUS*%
X-16400000Y-8300000D02*
X-17550000Y-8300000D01*
X-17550000Y-8300000D02*
X-19000000Y-9750000D01*
X-19000000Y-9750000D02*
X-19000000Y-11750000D01*
X-19000000Y-11750000D02*
X-17550000Y-13200000D01*
X-17550000Y-13200000D02*
X-16400000Y-13200000D01*
D21*
X-12000000Y-10750000D02*
X-11750000Y-10500000D01*
X-16350000Y-8250000D02*
X-16400000Y-8300000D01*
X-11750000Y-10500000D02*
X-11750000Y-8500000D01*
X-12000000Y-8250000D02*
X-16350000Y-8250000D01*
X-11750000Y-8500000D02*
X-12000000Y-8250000D01*
D22*
%TO.N,+3V3*%
X-8000000Y-14250000D02*
X-8000000Y-7000000D01*
X-8000000Y-7000000D02*
X-12750000Y-2250000D01*
D21*
X-13250000Y-2250000D02*
X-12750000Y-2250000D01*
X-13750000Y-1750000D02*
X-13250000Y-2250000D01*
X23250000Y-1670000D02*
X23250000Y-1940000D01*
X23250000Y-1940000D02*
X9720000Y-15470000D01*
X2440000Y-22750000D02*
X9720000Y-15470000D01*
X20000000Y-21750000D02*
X16000000Y-21750000D01*
X16000000Y-21750000D02*
X9720000Y-15470000D01*
D22*
X-12750000Y-2250000D02*
X-12750000Y3000000D01*
D21*
X1250000Y-22750000D02*
X2440000Y-22750000D01*
X4000000Y-25500000D02*
X1250000Y-22750000D01*
X1250000Y-22750000D02*
X-9250000Y-22750000D01*
%TO.N,VDC*%
X-4000000Y-33250000D02*
X-4000000Y-29000000D01*
X-4000000Y-29000000D02*
X-500000Y-25500000D01*
%TD*%
%TA.AperFunction,Conductor*%
%TO.N,GND*%
G36*
X22506498Y5999074D02*
G01*
X22531470Y5997437D01*
X22747975Y5983246D01*
X22773781Y5979848D01*
X23004712Y5933914D01*
X23029857Y5927177D01*
X23252825Y5851489D01*
X23276873Y5841528D01*
X23488052Y5737386D01*
X23510596Y5724370D01*
X23706372Y5593556D01*
X23727023Y5577710D01*
X23904053Y5422459D01*
X23922459Y5404053D01*
X24077710Y5227023D01*
X24093556Y5206372D01*
X24224370Y5010596D01*
X24237386Y4988052D01*
X24341528Y4776873D01*
X24351489Y4752825D01*
X24427177Y4529857D01*
X24433914Y4504712D01*
X24479848Y4273781D01*
X24483246Y4247975D01*
X24499074Y4006500D01*
X24499500Y3993484D01*
X24499500Y-413360D01*
X24479793Y-499703D01*
X24424574Y-568944D01*
X24344782Y-607371D01*
X24256218Y-607371D01*
X24216395Y-590218D01*
X24215850Y-591535D01*
X24197742Y-584034D01*
X24161207Y-576767D01*
X24124674Y-569500D01*
X22375326Y-569500D01*
X22346099Y-575313D01*
X22302257Y-584034D01*
X22219398Y-639398D01*
X22164034Y-722257D01*
X22149500Y-795328D01*
X22149500Y-2391678D01*
X22129793Y-2478021D01*
X22091214Y-2532392D01*
X9474087Y-15149520D01*
X2332393Y-22291214D01*
X2257405Y-22338333D01*
X2191679Y-22349500D01*
X-7745500Y-22349500D01*
X-7831843Y-22329793D01*
X-7901084Y-22274574D01*
X-7939511Y-22194782D01*
X-7944500Y-22150500D01*
X-7944500Y-22124005D01*
X-7944500Y-22124000D01*
X-7948369Y-22088014D01*
X-7951481Y-22059060D01*
X-7951482Y-22059059D01*
X-7962691Y-22007534D01*
X-7962693Y-22007524D01*
X-7973643Y-21969346D01*
X-7973645Y-21969343D01*
X-8030324Y-21872429D01*
X-8030326Y-21872426D01*
X-8076081Y-21819622D01*
X-8076085Y-21819618D01*
X-8120809Y-21777448D01*
X-8220888Y-21726561D01*
X-8220894Y-21726559D01*
X-8287929Y-21706875D01*
X-8287933Y-21706874D01*
X-8373996Y-21694500D01*
X-8374000Y-21694500D01*
X-11626000Y-21694500D01*
X-11652392Y-21697337D01*
X-11690939Y-21701481D01*
X-11690941Y-21701482D01*
X-11742452Y-21712688D01*
X-11742454Y-21712688D01*
X-11742465Y-21712691D01*
X-11742475Y-21712693D01*
X-11780653Y-21723643D01*
X-11780656Y-21723645D01*
X-11877570Y-21780324D01*
X-11877573Y-21780326D01*
X-11930377Y-21826081D01*
X-11930381Y-21826085D01*
X-11972551Y-21870809D01*
X-11972553Y-21870813D01*
X-12023439Y-21970889D01*
X-12023440Y-21970894D01*
X-12043124Y-22037929D01*
X-12043125Y-22037933D01*
X-12047805Y-22070480D01*
X-12055500Y-22124000D01*
X-12055500Y-25876000D01*
X-12048518Y-25940941D01*
X-12037312Y-25992452D01*
X-12037308Y-25992465D01*
X-12037306Y-25992475D01*
X-12026356Y-26030653D01*
X-12026355Y-26030654D01*
X-12026354Y-26030658D01*
X-11969675Y-26127571D01*
X-11960824Y-26137785D01*
X-11923918Y-26180377D01*
X-11923914Y-26180381D01*
X-11879190Y-26222551D01*
X-11879188Y-26222551D01*
X-11879187Y-26222553D01*
X-11779111Y-26273439D01*
X-11712072Y-26293124D01*
X-11712067Y-26293124D01*
X-11712066Y-26293125D01*
X-11695329Y-26295531D01*
X-11626003Y-26305499D01*
X-11626003Y-26305500D01*
X-11626000Y-26305500D01*
X-8374005Y-26305500D01*
X-8374000Y-26305500D01*
X-8309059Y-26298518D01*
X-8257548Y-26287312D01*
X-8257534Y-26287308D01*
X-8257524Y-26287306D01*
X-8219346Y-26276356D01*
X-8219343Y-26276354D01*
X-8219342Y-26276354D01*
X-8122429Y-26219675D01*
X-8122426Y-26219673D01*
X-8069622Y-26173918D01*
X-8069618Y-26173914D01*
X-8027448Y-26129190D01*
X-7976561Y-26029111D01*
X-7976559Y-26029105D01*
X-7956875Y-25962070D01*
X-7956874Y-25962066D01*
X-7944500Y-25876003D01*
X-7944500Y-23349500D01*
X-7924793Y-23263157D01*
X-7869574Y-23193916D01*
X-7789782Y-23155489D01*
X-7745500Y-23150500D01*
X1001679Y-23150500D01*
X1088022Y-23170207D01*
X1142393Y-23208786D01*
X2979960Y-25046353D01*
X3027079Y-25121341D01*
X3036995Y-25209348D01*
X3034422Y-25225889D01*
X2999500Y-25401458D01*
X2999500Y-25598540D01*
X3037948Y-25791832D01*
X3037949Y-25791836D01*
X3113365Y-25973909D01*
X3113369Y-25973916D01*
X3125763Y-25992465D01*
X3222861Y-26137782D01*
X3362218Y-26277139D01*
X3524985Y-26385896D01*
X3526083Y-26386630D01*
X3526090Y-26386634D01*
X3634751Y-26431642D01*
X3708165Y-26462051D01*
X3901459Y-26500500D01*
X3901460Y-26500500D01*
X4098540Y-26500500D01*
X4098541Y-26500500D01*
X4291835Y-26462051D01*
X4473914Y-26386632D01*
X4637782Y-26277139D01*
X4777139Y-26137782D01*
X4886632Y-25973914D01*
X4962051Y-25791835D01*
X5000500Y-25598541D01*
X5000500Y-25401459D01*
X4962051Y-25208165D01*
X4886632Y-25026086D01*
X4777139Y-24862218D01*
X4637782Y-24722861D01*
X4555297Y-24667746D01*
X4473916Y-24613369D01*
X4473909Y-24613365D01*
X4291836Y-24537949D01*
X4291832Y-24537948D01*
X4162389Y-24512200D01*
X4098541Y-24499500D01*
X3901459Y-24499500D01*
X3725889Y-24534422D01*
X3637360Y-24531938D01*
X3558677Y-24491289D01*
X3546353Y-24479960D01*
X2518812Y-23452419D01*
X2516226Y-23448304D01*
X2512239Y-23445524D01*
X2492782Y-23410994D01*
X2471693Y-23377431D01*
X2471148Y-23372599D01*
X2468763Y-23368366D01*
X2466215Y-23328815D01*
X2461777Y-23289424D01*
X2463382Y-23284836D01*
X2463070Y-23279986D01*
X2477936Y-23243243D01*
X2479435Y-23238959D01*
X8999500Y-23238959D01*
X8999500Y-23436040D01*
X9037948Y-23629332D01*
X9037949Y-23629336D01*
X9113365Y-23811409D01*
X9113368Y-23811414D01*
X9222861Y-23975282D01*
X9362218Y-24114639D01*
X9524985Y-24223396D01*
X9526083Y-24224130D01*
X9526090Y-24224134D01*
X9647472Y-24274411D01*
X9708165Y-24299551D01*
X9901459Y-24338000D01*
X9901460Y-24338000D01*
X10098540Y-24338000D01*
X10098541Y-24338000D01*
X10291835Y-24299551D01*
X10473914Y-24224132D01*
X10637782Y-24114639D01*
X10777139Y-23975282D01*
X10886632Y-23811414D01*
X10962051Y-23629335D01*
X11000500Y-23436041D01*
X11000500Y-23238959D01*
X10962051Y-23045665D01*
X10886632Y-22863586D01*
X10777139Y-22699718D01*
X10637782Y-22560361D01*
X10555297Y-22505246D01*
X10473916Y-22450869D01*
X10473909Y-22450865D01*
X10291836Y-22375449D01*
X10291832Y-22375448D01*
X10161382Y-22349500D01*
X10098541Y-22337000D01*
X9901459Y-22337000D01*
X9894758Y-22338333D01*
X9708167Y-22375448D01*
X9708163Y-22375449D01*
X9526090Y-22450865D01*
X9526083Y-22450869D01*
X9362222Y-22560358D01*
X9362214Y-22560364D01*
X9222864Y-22699714D01*
X9222858Y-22699722D01*
X9113369Y-22863583D01*
X9113365Y-22863590D01*
X9037949Y-23045663D01*
X9037948Y-23045667D01*
X8999500Y-23238959D01*
X2479435Y-23238959D01*
X2491028Y-23205831D01*
X2494464Y-23202394D01*
X2496288Y-23197888D01*
X2509991Y-23186867D01*
X2553652Y-23143207D01*
X2561837Y-23138333D01*
X2583325Y-23126224D01*
X2594588Y-23123207D01*
X2685913Y-23070480D01*
X9579285Y-16177105D01*
X9654273Y-16129987D01*
X9742280Y-16120071D01*
X9825873Y-16149322D01*
X9860713Y-16177106D01*
X15754087Y-22070480D01*
X15845412Y-22123207D01*
X15947273Y-22150500D01*
X16052727Y-22150500D01*
X19542293Y-22150500D01*
X19628636Y-22170207D01*
X19656198Y-22187167D01*
X19661983Y-22190507D01*
X19661985Y-22190509D01*
X19787515Y-22262984D01*
X19927525Y-22300500D01*
X19927528Y-22300500D01*
X20072472Y-22300500D01*
X20072475Y-22300500D01*
X20212485Y-22262984D01*
X20338015Y-22190509D01*
X20440509Y-22088015D01*
X20512984Y-21962485D01*
X20550500Y-21822475D01*
X20550500Y-21677525D01*
X20512984Y-21537515D01*
X20440509Y-21411985D01*
X20338015Y-21309491D01*
X20338014Y-21309490D01*
X20212485Y-21237016D01*
X20072477Y-21199500D01*
X20072475Y-21199500D01*
X19927525Y-21199500D01*
X19927522Y-21199500D01*
X19787514Y-21237016D01*
X19650689Y-21316013D01*
X19649873Y-21314600D01*
X19582937Y-21345305D01*
X19542293Y-21349500D01*
X16248321Y-21349500D01*
X16161978Y-21329793D01*
X16107607Y-21291214D01*
X10427107Y-15610714D01*
X10379988Y-15535726D01*
X10370072Y-15447719D01*
X10399323Y-15364126D01*
X10427107Y-15329286D01*
X12996903Y-12759490D01*
X21813628Y-3942764D01*
X21888614Y-3895647D01*
X21976621Y-3885731D01*
X22060214Y-3914982D01*
X22122838Y-3977606D01*
X22152089Y-4061199D01*
X22150891Y-4114605D01*
X22149500Y-4123389D01*
X22149500Y-4296610D01*
X22176596Y-4467693D01*
X22176599Y-4467705D01*
X22230125Y-4632441D01*
X22230126Y-4632444D01*
X22308769Y-4786790D01*
X22308770Y-4786792D01*
X22410581Y-4926923D01*
X22410587Y-4926930D01*
X22533069Y-5049412D01*
X22533076Y-5049418D01*
X22673207Y-5151229D01*
X22673209Y-5151230D01*
X22673212Y-5151232D01*
X22827555Y-5229873D01*
X22992299Y-5283402D01*
X22992603Y-5283450D01*
X22992755Y-5283511D01*
X22999906Y-5285228D01*
X22999653Y-5286278D01*
X23074800Y-5316423D01*
X23134550Y-5381794D01*
X23160019Y-5466616D01*
X23146164Y-5554089D01*
X23095727Y-5626888D01*
X23018699Y-5670593D01*
X22992605Y-5676549D01*
X22992536Y-5676560D01*
X22992302Y-5676597D01*
X22992294Y-5676599D01*
X22827558Y-5730125D01*
X22827555Y-5730126D01*
X22673209Y-5808769D01*
X22673207Y-5808770D01*
X22533076Y-5910581D01*
X22533069Y-5910587D01*
X22410587Y-6033069D01*
X22410581Y-6033076D01*
X22308770Y-6173207D01*
X22308769Y-6173209D01*
X22230126Y-6327555D01*
X22230125Y-6327558D01*
X22176599Y-6492294D01*
X22176596Y-6492306D01*
X22149500Y-6663389D01*
X22149500Y-6836610D01*
X22176596Y-7007693D01*
X22176599Y-7007705D01*
X22230125Y-7172441D01*
X22230126Y-7172444D01*
X22308769Y-7326790D01*
X22308770Y-7326792D01*
X22410581Y-7466923D01*
X22410587Y-7466930D01*
X22533069Y-7589412D01*
X22533076Y-7589418D01*
X22673207Y-7691229D01*
X22673212Y-7691232D01*
X22695676Y-7702677D01*
X22763661Y-7759433D01*
X22800289Y-7840067D01*
X22798304Y-7928608D01*
X22758099Y-8007520D01*
X22695680Y-8057299D01*
X22542453Y-8135373D01*
X22542442Y-8135379D01*
X22488282Y-8174728D01*
X23079756Y-8766202D01*
X23037703Y-8777470D01*
X22912285Y-8849881D01*
X22809881Y-8952285D01*
X22737470Y-9077703D01*
X22726202Y-9119756D01*
X22134728Y-8528282D01*
X22095379Y-8582442D01*
X22095373Y-8582452D01*
X21998909Y-8771773D01*
X21998903Y-8771786D01*
X21933242Y-8973871D01*
X21933241Y-8973878D01*
X21900000Y-9183754D01*
X21900000Y-9396245D01*
X21933241Y-9606121D01*
X21933242Y-9606128D01*
X21998903Y-9808213D01*
X21998911Y-9808232D01*
X22095370Y-9997543D01*
X22095382Y-9997561D01*
X22134728Y-10051717D01*
X22726202Y-9460243D01*
X22737470Y-9502297D01*
X22809881Y-9627715D01*
X22912285Y-9730119D01*
X23037703Y-9802530D01*
X23079755Y-9813797D01*
X22488281Y-10405270D01*
X22542446Y-10444623D01*
X22542456Y-10444629D01*
X22731767Y-10541088D01*
X22731786Y-10541096D01*
X22933871Y-10606757D01*
X22933878Y-10606758D01*
X23143754Y-10640000D01*
X23356246Y-10640000D01*
X23566121Y-10606758D01*
X23566128Y-10606757D01*
X23768213Y-10541096D01*
X23768226Y-10541090D01*
X23957556Y-10444621D01*
X24011716Y-10405271D01*
X24011716Y-10405270D01*
X23420244Y-9813797D01*
X23462297Y-9802530D01*
X23587715Y-9730119D01*
X23690119Y-9627715D01*
X23762530Y-9502297D01*
X23773797Y-9460243D01*
X24409455Y-10095901D01*
X24445864Y-10120523D01*
X24490435Y-10197053D01*
X24499500Y-10256429D01*
X24499500Y-40993484D01*
X24499074Y-41006500D01*
X24483246Y-41247975D01*
X24479848Y-41273781D01*
X24433914Y-41504712D01*
X24427177Y-41529857D01*
X24351489Y-41752825D01*
X24341528Y-41776873D01*
X24237386Y-41988052D01*
X24224370Y-42010596D01*
X24093556Y-42206372D01*
X24077710Y-42227023D01*
X23922459Y-42404053D01*
X23904053Y-42422459D01*
X23727023Y-42577710D01*
X23706372Y-42593556D01*
X23510596Y-42724370D01*
X23488052Y-42737386D01*
X23276873Y-42841528D01*
X23252825Y-42851489D01*
X23029857Y-42927177D01*
X23004712Y-42933914D01*
X22773781Y-42979848D01*
X22747975Y-42983246D01*
X22531470Y-42997437D01*
X22506498Y-42999074D01*
X22493485Y-42999500D01*
X-22493485Y-42999500D01*
X-22506498Y-42999074D01*
X-22531470Y-42997437D01*
X-22747975Y-42983246D01*
X-22773781Y-42979848D01*
X-23004712Y-42933914D01*
X-23029857Y-42927177D01*
X-23252825Y-42851489D01*
X-23276873Y-42841528D01*
X-23488052Y-42737386D01*
X-23510596Y-42724370D01*
X-23706372Y-42593556D01*
X-23727023Y-42577710D01*
X-23904053Y-42422459D01*
X-23922459Y-42404053D01*
X-24077710Y-42227023D01*
X-24093556Y-42206372D01*
X-24224370Y-42010596D01*
X-24237386Y-41988052D01*
X-24341528Y-41776873D01*
X-24351489Y-41752825D01*
X-24427177Y-41529857D01*
X-24433914Y-41504712D01*
X-24479848Y-41273781D01*
X-24483246Y-41247975D01*
X-24499074Y-41006500D01*
X-24499500Y-40993484D01*
X-24499500Y-40893713D01*
X-23850500Y-40893713D01*
X-23850500Y-41106287D01*
X-23817246Y-41316243D01*
X-23751557Y-41518412D01*
X-23655051Y-41707816D01*
X-23530104Y-41879792D01*
X-23379792Y-42030104D01*
X-23207816Y-42155051D01*
X-23018412Y-42251557D01*
X-22816243Y-42317246D01*
X-22606287Y-42350500D01*
X-22393713Y-42350500D01*
X-22183757Y-42317246D01*
X-21981588Y-42251557D01*
X-21981584Y-42251555D01*
X-21981581Y-42251554D01*
X-21883589Y-42201624D01*
X-21792184Y-42155051D01*
X-21674688Y-42069685D01*
X-21620210Y-42030106D01*
X-21469893Y-41879789D01*
X-21410523Y-41798071D01*
X-21344949Y-41707816D01*
X-21341590Y-41701223D01*
X-21248445Y-41518418D01*
X-21248441Y-41518407D01*
X-21182756Y-41316251D01*
X-21182752Y-41316234D01*
X-21149500Y-41106286D01*
X-21149500Y-40893713D01*
X-21182752Y-40683765D01*
X-21182756Y-40683748D01*
X-21248441Y-40481592D01*
X-21248445Y-40481581D01*
X-21344947Y-40292187D01*
X-21469893Y-40120210D01*
X-21620210Y-39969893D01*
X-21792187Y-39844947D01*
X-21981581Y-39748445D01*
X-21981592Y-39748441D01*
X-22183748Y-39682756D01*
X-22183765Y-39682752D01*
X-22393713Y-39649500D01*
X-22606287Y-39649500D01*
X-22816234Y-39682752D01*
X-22816251Y-39682756D01*
X-23018407Y-39748441D01*
X-23018418Y-39748445D01*
X-23201223Y-39841590D01*
X-23207816Y-39844949D01*
X-23296600Y-39909454D01*
X-23379789Y-39969893D01*
X-23530106Y-40120210D01*
X-23569685Y-40174688D01*
X-23655051Y-40292184D01*
X-23669680Y-40320896D01*
X-23751554Y-40481581D01*
X-23751555Y-40481584D01*
X-23751557Y-40481588D01*
X-23817246Y-40683757D01*
X-23850500Y-40893713D01*
X-24499500Y-40893713D01*
X-24499500Y-38901459D01*
X-16000500Y-38901459D01*
X-16000500Y-39098541D01*
X-15962051Y-39291835D01*
X-15886632Y-39473914D01*
X-15777139Y-39637782D01*
X-15637782Y-39777139D01*
X-15473914Y-39886632D01*
X-15291835Y-39962051D01*
X-15098541Y-40000500D01*
X-15098540Y-40000500D01*
X-14901460Y-40000500D01*
X-14901459Y-40000500D01*
X-14708165Y-39962051D01*
X-14647472Y-39936911D01*
X-14581184Y-39909454D01*
X-2420500Y-39909454D01*
X-2420500Y-40090546D01*
X-2392171Y-40269409D01*
X-2336211Y-40441639D01*
X-2253996Y-40602994D01*
X-2147553Y-40749501D01*
X-2019501Y-40877553D01*
X-1872994Y-40983996D01*
X-1711639Y-41066211D01*
X-1539409Y-41122171D01*
X-1360546Y-41150500D01*
X-1179454Y-41150500D01*
X-1000591Y-41122171D01*
X-1000585Y-41122169D01*
X-1000581Y-41122168D01*
X-828367Y-41066213D01*
X-828366Y-41066212D01*
X-828361Y-41066211D01*
X-828355Y-41066207D01*
X-828348Y-41066205D01*
X-667011Y-40983999D01*
X-667008Y-40983997D01*
X-667006Y-40983996D01*
X-520499Y-40877553D01*
X-392447Y-40749501D01*
X-286004Y-40602994D01*
X-286003Y-40602992D01*
X-286000Y-40602988D01*
X-203794Y-40441651D01*
X-203786Y-40441632D01*
X-189260Y-40396923D01*
X-143837Y-40320896D01*
X-69924Y-40272107D01*
X17837Y-40260218D01*
X102066Y-40287585D01*
X166080Y-40348788D01*
X189260Y-40396923D01*
X203786Y-40441632D01*
X203794Y-40441651D01*
X286000Y-40602988D01*
X286003Y-40602992D01*
X286004Y-40602994D01*
X392447Y-40749501D01*
X520499Y-40877553D01*
X667006Y-40983996D01*
X667008Y-40983997D01*
X667011Y-40983999D01*
X828348Y-41066205D01*
X828355Y-41066207D01*
X828361Y-41066211D01*
X828366Y-41066212D01*
X828367Y-41066213D01*
X1000581Y-41122168D01*
X1000585Y-41122169D01*
X1000591Y-41122171D01*
X1179454Y-41150500D01*
X1360546Y-41150500D01*
X1539409Y-41122171D01*
X1711639Y-41066211D01*
X1872994Y-40983996D01*
X1997259Y-40893713D01*
X21149500Y-40893713D01*
X21149500Y-41106286D01*
X21182752Y-41316234D01*
X21182756Y-41316251D01*
X21248441Y-41518407D01*
X21248445Y-41518418D01*
X21341590Y-41701223D01*
X21344949Y-41707816D01*
X21410523Y-41798071D01*
X21469893Y-41879789D01*
X21620210Y-42030106D01*
X21674688Y-42069685D01*
X21792184Y-42155051D01*
X21883589Y-42201624D01*
X21981581Y-42251554D01*
X21981584Y-42251555D01*
X21981588Y-42251557D01*
X22183757Y-42317246D01*
X22393713Y-42350500D01*
X22606287Y-42350500D01*
X22816243Y-42317246D01*
X23018412Y-42251557D01*
X23207816Y-42155051D01*
X23379792Y-42030104D01*
X23530104Y-41879792D01*
X23655051Y-41707816D01*
X23751557Y-41518412D01*
X23817246Y-41316243D01*
X23850500Y-41106287D01*
X23850500Y-40893713D01*
X23817246Y-40683757D01*
X23751557Y-40481588D01*
X23751555Y-40481584D01*
X23751554Y-40481581D01*
X23669680Y-40320896D01*
X23655051Y-40292184D01*
X23569685Y-40174688D01*
X23530106Y-40120210D01*
X23379789Y-39969893D01*
X23296600Y-39909454D01*
X23207816Y-39844949D01*
X23201223Y-39841590D01*
X23018418Y-39748445D01*
X23018407Y-39748441D01*
X22816251Y-39682756D01*
X22816234Y-39682752D01*
X22606287Y-39649500D01*
X22393713Y-39649500D01*
X22183765Y-39682752D01*
X22183748Y-39682756D01*
X21981592Y-39748441D01*
X21981581Y-39748445D01*
X21792187Y-39844947D01*
X21620210Y-39969893D01*
X21469893Y-40120210D01*
X21344947Y-40292187D01*
X21248445Y-40481581D01*
X21248441Y-40481592D01*
X21182756Y-40683748D01*
X21182752Y-40683765D01*
X21149500Y-40893713D01*
X1997259Y-40893713D01*
X2019501Y-40877553D01*
X2147553Y-40749501D01*
X2253996Y-40602994D01*
X2336211Y-40441639D01*
X2392171Y-40269409D01*
X2420500Y-40090546D01*
X2420500Y-39909454D01*
X2392171Y-39730591D01*
X2391294Y-39727893D01*
X2336213Y-39558367D01*
X2336212Y-39558364D01*
X2336211Y-39558361D01*
X2336207Y-39558355D01*
X2336205Y-39558348D01*
X2253999Y-39397011D01*
X2253997Y-39397008D01*
X2253996Y-39397006D01*
X2147553Y-39250499D01*
X2019501Y-39122447D01*
X1872994Y-39016004D01*
X1872992Y-39016003D01*
X1872988Y-39016000D01*
X1711651Y-38933794D01*
X1711632Y-38933786D01*
X1539418Y-38877831D01*
X1539407Y-38877828D01*
X1360546Y-38849500D01*
X1179454Y-38849500D01*
X1000592Y-38877828D01*
X1000581Y-38877831D01*
X828367Y-38933786D01*
X828348Y-38933794D01*
X667011Y-39016000D01*
X520496Y-39122449D01*
X392449Y-39250496D01*
X286000Y-39397011D01*
X203794Y-39558348D01*
X203788Y-39558364D01*
X189260Y-39603077D01*
X143836Y-39679104D01*
X69923Y-39727893D01*
X-17839Y-39739781D01*
X-102067Y-39712413D01*
X-166080Y-39651210D01*
X-189260Y-39603077D01*
X-203788Y-39558364D01*
X-203794Y-39558348D01*
X-286000Y-39397011D01*
X-392449Y-39250496D01*
X-520496Y-39122449D01*
X-667011Y-39016000D01*
X-828348Y-38933794D01*
X-828367Y-38933786D01*
X-1000581Y-38877831D01*
X-1000592Y-38877828D01*
X-1179454Y-38849500D01*
X-1360546Y-38849500D01*
X-1539407Y-38877828D01*
X-1539418Y-38877831D01*
X-1711632Y-38933786D01*
X-1711651Y-38933794D01*
X-1872988Y-39016000D01*
X-1872992Y-39016003D01*
X-1872994Y-39016004D01*
X-2019501Y-39122447D01*
X-2147553Y-39250499D01*
X-2253996Y-39397006D01*
X-2253997Y-39397008D01*
X-2253999Y-39397011D01*
X-2336205Y-39558348D01*
X-2336207Y-39558355D01*
X-2336211Y-39558361D01*
X-2336212Y-39558364D01*
X-2336213Y-39558367D01*
X-2391294Y-39727893D01*
X-2392171Y-39730591D01*
X-2420500Y-39909454D01*
X-14581184Y-39909454D01*
X-14526090Y-39886634D01*
X-14526083Y-39886630D01*
X-14463700Y-39844947D01*
X-14362218Y-39777139D01*
X-14222861Y-39637782D01*
X-14113368Y-39473914D01*
X-14113365Y-39473909D01*
X-14037949Y-39291836D01*
X-14037948Y-39291832D01*
X-13999500Y-39098540D01*
X-13999500Y-38901459D01*
X-14037948Y-38708167D01*
X-14037949Y-38708163D01*
X-14113365Y-38526090D01*
X-14113369Y-38526083D01*
X-14222858Y-38362222D01*
X-14222864Y-38362214D01*
X-14362214Y-38222864D01*
X-14362222Y-38222858D01*
X-14526083Y-38113369D01*
X-14526090Y-38113365D01*
X-14708163Y-38037949D01*
X-14708167Y-38037948D01*
X-14853464Y-38009046D01*
X-14901459Y-37999500D01*
X-15098541Y-37999500D01*
X-15162389Y-38012200D01*
X-15291832Y-38037948D01*
X-15291836Y-38037949D01*
X-15473909Y-38113365D01*
X-15473916Y-38113369D01*
X-15555297Y-38167746D01*
X-15637782Y-38222861D01*
X-15777139Y-38362218D01*
X-15886632Y-38526086D01*
X-15962051Y-38708165D01*
X-16000500Y-38901459D01*
X-24499500Y-38901459D01*
X-24499500Y-18124000D01*
X-20055500Y-18124000D01*
X-20055500Y-29576040D01*
X-20055498Y-29576064D01*
X-20051641Y-29624440D01*
X-20051641Y-29624442D01*
X-20051639Y-29624450D01*
X-20051639Y-29624458D01*
X-20045410Y-29663264D01*
X-20040924Y-29685771D01*
X-19995237Y-29788326D01*
X-19955561Y-29845838D01*
X-19896499Y-29909657D01*
X-11818215Y-36459617D01*
X-11804857Y-36469852D01*
X-11793801Y-36477849D01*
X-11700827Y-36523439D01*
X-11633788Y-36543124D01*
X-11633783Y-36543124D01*
X-11633782Y-36543125D01*
X-11617045Y-36545531D01*
X-11547719Y-36555499D01*
X-11547719Y-36555500D01*
X-11547716Y-36555500D01*
X7625995Y-36555500D01*
X7626000Y-36555500D01*
X7690941Y-36548518D01*
X7742452Y-36537312D01*
X7742468Y-36537307D01*
X7742475Y-36537306D01*
X7780653Y-36526356D01*
X7780654Y-36526355D01*
X7780658Y-36526354D01*
X7877571Y-36469675D01*
X7930375Y-36423920D01*
X7930381Y-36423914D01*
X7972551Y-36379190D01*
X7972553Y-36379187D01*
X8023439Y-36279111D01*
X8043124Y-36212072D01*
X8055500Y-36126000D01*
X8055500Y-33124000D01*
X8048518Y-33059059D01*
X8037312Y-33007548D01*
X8037308Y-33007534D01*
X8037306Y-33007524D01*
X8026356Y-32969346D01*
X8026354Y-32969343D01*
X8026354Y-32969342D01*
X7969675Y-32872429D01*
X7969673Y-32872426D01*
X7923918Y-32819622D01*
X7923914Y-32819618D01*
X7879190Y-32777448D01*
X7779111Y-32726561D01*
X7779105Y-32726559D01*
X7712070Y-32706875D01*
X7712066Y-32706874D01*
X7626003Y-32694500D01*
X7626000Y-32694500D01*
X-3400500Y-32694500D01*
X-3486843Y-32674793D01*
X-3556084Y-32619574D01*
X-3594511Y-32539782D01*
X-3599500Y-32495500D01*
X-3599500Y-29248321D01*
X-3579793Y-29161978D01*
X-3541214Y-29107607D01*
X-953646Y-26520039D01*
X-878658Y-26472920D01*
X-790651Y-26463004D01*
X-774108Y-26465577D01*
X-598541Y-26500500D01*
X-598540Y-26500500D01*
X-401460Y-26500500D01*
X-401459Y-26500500D01*
X-208165Y-26462051D01*
X-134751Y-26431642D01*
X-26090Y-26386634D01*
X-26083Y-26386630D01*
X-25530Y-26386261D01*
X137782Y-26277139D01*
X277139Y-26137782D01*
X386632Y-25973914D01*
X462051Y-25791835D01*
X500500Y-25598541D01*
X500500Y-25401459D01*
X462051Y-25208165D01*
X386632Y-25026086D01*
X277139Y-24862218D01*
X137782Y-24722861D01*
X96259Y-24695116D01*
X-26083Y-24613369D01*
X-26090Y-24613365D01*
X-208163Y-24537949D01*
X-208167Y-24537948D01*
X-353464Y-24509046D01*
X-401459Y-24499500D01*
X-598541Y-24499500D01*
X-662389Y-24512200D01*
X-791832Y-24537948D01*
X-791836Y-24537949D01*
X-973909Y-24613365D01*
X-973916Y-24613369D01*
X-1055297Y-24667746D01*
X-1137782Y-24722861D01*
X-1277139Y-24862218D01*
X-1386632Y-25026086D01*
X-1462051Y-25208165D01*
X-1500500Y-25401458D01*
X-1500500Y-25401459D01*
X-1500500Y-25598540D01*
X-1465577Y-25774109D01*
X-1468061Y-25862637D01*
X-1508709Y-25941321D01*
X-1520039Y-25953646D01*
X-4320480Y-28754087D01*
X-4373207Y-28845412D01*
X-4373207Y-28845413D01*
X-4379988Y-28870719D01*
X-4379988Y-28870720D01*
X-4400500Y-28947272D01*
X-4400500Y-32495500D01*
X-4420207Y-32581843D01*
X-4475426Y-32651084D01*
X-4555218Y-32689511D01*
X-4599500Y-32694500D01*
X-9576056Y-32694500D01*
X-9662399Y-32674793D01*
X-9698701Y-32652213D01*
X-15118145Y-28410908D01*
X-15173995Y-28342175D01*
X-15194492Y-28256016D01*
X-15194500Y-28254195D01*
X-15194500Y-18124005D01*
X-15194500Y-18124000D01*
X-15197124Y-18099591D01*
X-15201481Y-18059060D01*
X-15201482Y-18059059D01*
X-15212691Y-18007534D01*
X-15212693Y-18007524D01*
X-15223643Y-17969346D01*
X-15223645Y-17969343D01*
X-15280324Y-17872429D01*
X-15280326Y-17872426D01*
X-15326081Y-17819622D01*
X-15326085Y-17819618D01*
X-15370809Y-17777448D01*
X-15470888Y-17726561D01*
X-15470894Y-17726559D01*
X-15537929Y-17706875D01*
X-15537933Y-17706874D01*
X-15623996Y-17694500D01*
X-15624000Y-17694500D01*
X-19626000Y-17694500D01*
X-19652392Y-17697337D01*
X-19690939Y-17701481D01*
X-19690941Y-17701482D01*
X-19742452Y-17712688D01*
X-19742454Y-17712688D01*
X-19742465Y-17712691D01*
X-19742475Y-17712693D01*
X-19780653Y-17723643D01*
X-19780656Y-17723645D01*
X-19877570Y-17780324D01*
X-19877573Y-17780326D01*
X-19930377Y-17826081D01*
X-19930381Y-17826085D01*
X-19972551Y-17870809D01*
X-19972553Y-17870813D01*
X-20023439Y-17970889D01*
X-20023440Y-17970894D01*
X-20043124Y-18037929D01*
X-20043125Y-18037933D01*
X-20048051Y-18072199D01*
X-20055500Y-18124000D01*
X-24499500Y-18124000D01*
X-24499500Y-9684108D01*
X-19500500Y-9684108D01*
X-19500500Y-11684108D01*
X-19500500Y-11815892D01*
X-19466392Y-11943186D01*
X-19400500Y-12057314D01*
X-17950500Y-13507314D01*
X-17857314Y-13600500D01*
X-17743186Y-13666392D01*
X-17615892Y-13700500D01*
X-16682207Y-13700500D01*
X-16625656Y-13711748D01*
X-16625083Y-13709608D01*
X-16612486Y-13712983D01*
X-16612485Y-13712984D01*
X-16472475Y-13750500D01*
X-16472472Y-13750500D01*
X-16327528Y-13750500D01*
X-16327525Y-13750500D01*
X-16187515Y-13712984D01*
X-16061985Y-13640509D01*
X-15959491Y-13538015D01*
X-15941765Y-13507314D01*
X-15887016Y-13412485D01*
X-15849500Y-13272477D01*
X-15849500Y-13127522D01*
X-15887016Y-12987514D01*
X-15959490Y-12861985D01*
X-16061985Y-12759490D01*
X-16187514Y-12687016D01*
X-16327522Y-12649500D01*
X-16327525Y-12649500D01*
X-16472475Y-12649500D01*
X-16472477Y-12649500D01*
X-16566160Y-12674603D01*
X-16612485Y-12687016D01*
X-16625083Y-12690392D01*
X-16625656Y-12688251D01*
X-16682207Y-12699500D01*
X-17260258Y-12699500D01*
X-17346601Y-12679793D01*
X-17400972Y-12641214D01*
X-18441214Y-11600972D01*
X-18488333Y-11525984D01*
X-18499500Y-11460258D01*
X-18499500Y-10039742D01*
X-18479793Y-9953399D01*
X-18441214Y-9899028D01*
X-17400972Y-8858786D01*
X-17325984Y-8811667D01*
X-17260258Y-8800500D01*
X-16682207Y-8800500D01*
X-16625656Y-8811748D01*
X-16625083Y-8809608D01*
X-16612486Y-8812983D01*
X-16612485Y-8812984D01*
X-16472475Y-8850500D01*
X-16472472Y-8850500D01*
X-16327528Y-8850500D01*
X-16327525Y-8850500D01*
X-16187515Y-8812984D01*
X-16061985Y-8740509D01*
X-16030262Y-8708786D01*
X-15955274Y-8661667D01*
X-15889548Y-8650500D01*
X-12349500Y-8650500D01*
X-12263157Y-8670207D01*
X-12193916Y-8725426D01*
X-12155489Y-8805218D01*
X-12150500Y-8849500D01*
X-12150500Y-10086336D01*
X-12170207Y-10172679D01*
X-12225426Y-10241920D01*
X-12249999Y-10258674D01*
X-12338011Y-10309488D01*
X-12338014Y-10309490D01*
X-12338015Y-10309491D01*
X-12440509Y-10411985D01*
X-12512984Y-10537515D01*
X-12550500Y-10677525D01*
X-12550500Y-10822475D01*
X-12512984Y-10962485D01*
X-12440509Y-11088015D01*
X-12338015Y-11190509D01*
X-12212485Y-11262984D01*
X-12072475Y-11300500D01*
X-12072472Y-11300500D01*
X-11927528Y-11300500D01*
X-11927525Y-11300500D01*
X-11787515Y-11262984D01*
X-11661985Y-11190509D01*
X-11559491Y-11088015D01*
X-11487016Y-10962485D01*
X-11449500Y-10822477D01*
X-11447798Y-10809544D01*
X-11444066Y-10810035D01*
X-11429793Y-10747498D01*
X-11422838Y-10734340D01*
X-11401438Y-10697275D01*
X-11401439Y-10697275D01*
X-11376791Y-10654584D01*
X-11349500Y-10552726D01*
X-11349500Y-8447275D01*
X-11349500Y-8447273D01*
X-11376793Y-8345413D01*
X-11376792Y-8345413D01*
X-11376794Y-8345409D01*
X-11429515Y-8254092D01*
X-11429518Y-8254088D01*
X-11754087Y-7929519D01*
X-11845410Y-7876793D01*
X-11913319Y-7858597D01*
X-11947273Y-7849500D01*
X-11947274Y-7849500D01*
X-16025968Y-7849500D01*
X-16112311Y-7829793D01*
X-16125468Y-7822839D01*
X-16187514Y-7787016D01*
X-16327522Y-7749500D01*
X-16327525Y-7749500D01*
X-16472475Y-7749500D01*
X-16472477Y-7749500D01*
X-16566160Y-7774603D01*
X-16612485Y-7787016D01*
X-16625083Y-7790392D01*
X-16625656Y-7788251D01*
X-16682207Y-7799500D01*
X-17484107Y-7799500D01*
X-17615892Y-7799500D01*
X-17743186Y-7833608D01*
X-17857314Y-7899500D01*
X-19307314Y-9349500D01*
X-19400500Y-9442686D01*
X-19466392Y-9556814D01*
X-19500500Y-9684108D01*
X-24499500Y-9684108D01*
X-24499500Y-1677525D01*
X-14300500Y-1677525D01*
X-14300500Y-1822475D01*
X-14262984Y-1962485D01*
X-14190509Y-2088015D01*
X-14088015Y-2190509D01*
X-13962485Y-2262984D01*
X-13822475Y-2300500D01*
X-13809876Y-2303876D01*
X-13810298Y-2305453D01*
X-13804999Y-2307419D01*
X-13784535Y-2309725D01*
X-13764004Y-2322625D01*
X-13741271Y-2331058D01*
X-13709550Y-2356840D01*
X-13592284Y-2474107D01*
X-13586865Y-2479526D01*
X-13586861Y-2479531D01*
X-13570480Y-2495911D01*
X-13570480Y-2495913D01*
X-13495913Y-2570480D01*
X-13450250Y-2596843D01*
X-13442606Y-2601256D01*
X-13377684Y-2661482D01*
X-13376753Y-2662859D01*
X-13332952Y-2728416D01*
X-13332949Y-2728418D01*
X-13332949Y-2728419D01*
X-8808786Y-7252581D01*
X-8761667Y-7327569D01*
X-8750500Y-7393295D01*
X-8750500Y-14176082D01*
X-8750500Y-14323918D01*
X-8721658Y-14468913D01*
X-8665084Y-14605495D01*
X-8582951Y-14728416D01*
X-8478416Y-14832951D01*
X-8355495Y-14915084D01*
X-8218913Y-14971658D01*
X-8073918Y-15000500D01*
X-8073917Y-15000500D01*
X-7926083Y-15000500D01*
X-7926082Y-15000500D01*
X-7781087Y-14971658D01*
X-7644505Y-14915084D01*
X-7521584Y-14832951D01*
X-7417049Y-14728416D01*
X-7334916Y-14605495D01*
X-7334915Y-14605494D01*
X-7278341Y-14468910D01*
X-7249500Y-14323917D01*
X-7249500Y-6926082D01*
X-7278341Y-6781089D01*
X-7334915Y-6644505D01*
X-7334917Y-6644502D01*
X-7417046Y-6521588D01*
X-7417054Y-6521578D01*
X-7427564Y-6511068D01*
X-7427565Y-6511065D01*
X-11941214Y-1997417D01*
X-11988333Y-1922429D01*
X-11999500Y-1856703D01*
X-11999500Y1995500D01*
X-11979793Y2081843D01*
X-11924574Y2151084D01*
X-11844782Y2189511D01*
X-11800500Y2194500D01*
X-11374005Y2194500D01*
X-11374000Y2194500D01*
X-11349591Y2197124D01*
X-11309060Y2201481D01*
X-11309059Y2201482D01*
X-11257534Y2212691D01*
X-11257524Y2212693D01*
X-11219346Y2223643D01*
X-11219343Y2223645D01*
X-11122429Y2280324D01*
X-11122426Y2280326D01*
X-11069622Y2326081D01*
X-11069618Y2326085D01*
X-11027448Y2370809D01*
X-10976561Y2470888D01*
X-10976559Y2470894D01*
X-10956875Y2537929D01*
X-10956874Y2537933D01*
X-10944500Y2623996D01*
X-10944500Y4106286D01*
X21149500Y4106286D01*
X21149500Y3893713D01*
X21182752Y3683765D01*
X21182756Y3683748D01*
X21248441Y3481592D01*
X21248445Y3481581D01*
X21344947Y3292187D01*
X21469893Y3120210D01*
X21620210Y2969893D01*
X21792187Y2844947D01*
X21981581Y2748445D01*
X21981592Y2748441D01*
X22183748Y2682756D01*
X22183765Y2682752D01*
X22393713Y2649500D01*
X22606287Y2649500D01*
X22816234Y2682752D01*
X22816241Y2682753D01*
X22816243Y2682754D01*
X22816244Y2682754D01*
X22816251Y2682756D01*
X23018407Y2748441D01*
X23018418Y2748445D01*
X23207812Y2844947D01*
X23207816Y2844949D01*
X23298071Y2910523D01*
X23379789Y2969893D01*
X23530106Y3120210D01*
X23569685Y3174688D01*
X23655051Y3292184D01*
X23701624Y3383589D01*
X23751554Y3481581D01*
X23751558Y3481592D01*
X23817243Y3683748D01*
X23817246Y3683757D01*
X23850500Y3893713D01*
X23850500Y4106287D01*
X23817246Y4316243D01*
X23751557Y4518412D01*
X23655051Y4707816D01*
X23530104Y4879792D01*
X23379792Y5030104D01*
X23207816Y5155051D01*
X23018412Y5251557D01*
X22816243Y5317246D01*
X22606287Y5350500D01*
X22393713Y5350500D01*
X22183757Y5317246D01*
X21981588Y5251557D01*
X21981584Y5251555D01*
X21981581Y5251554D01*
X21892907Y5206372D01*
X21792184Y5155051D01*
X21684424Y5076759D01*
X21620210Y5030106D01*
X21469893Y4879789D01*
X21415920Y4805500D01*
X21344949Y4707816D01*
X21344947Y4707812D01*
X21248445Y4518418D01*
X21248441Y4518407D01*
X21182756Y4316251D01*
X21182752Y4316234D01*
X21149500Y4106286D01*
X-10944500Y4106286D01*
X-10944500Y4375994D01*
X-10944500Y4376000D01*
X-10947649Y4405289D01*
X-10951481Y4440939D01*
X-10951482Y4440940D01*
X-10957810Y4470026D01*
X-10962688Y4492452D01*
X-10962688Y4492454D01*
X-10962691Y4492465D01*
X-10962693Y4492475D01*
X-10973643Y4530653D01*
X-10973645Y4530656D01*
X-11030324Y4627570D01*
X-11030326Y4627573D01*
X-11076081Y4680377D01*
X-11076085Y4680381D01*
X-11120809Y4722551D01*
X-11127264Y4725833D01*
X-11220889Y4773439D01*
X-11287928Y4793124D01*
X-11287930Y4793124D01*
X-11287933Y4793125D01*
X-11325442Y4798518D01*
X-11373997Y4805499D01*
X-11373998Y4805500D01*
X-11374000Y4805500D01*
X-13126000Y4805500D01*
X-13190941Y4798518D01*
X-13242452Y4787312D01*
X-13242468Y4787307D01*
X-13242475Y4787306D01*
X-13280653Y4776356D01*
X-13280654Y4776355D01*
X-13280658Y4776354D01*
X-13377571Y4719675D01*
X-13422925Y4680375D01*
X-13430377Y4673918D01*
X-13430381Y4673914D01*
X-13472551Y4629190D01*
X-13472551Y4629188D01*
X-13472553Y4629187D01*
X-13523439Y4529111D01*
X-13543124Y4462072D01*
X-13555500Y4376000D01*
X-13555500Y2624000D01*
X-13548518Y2559059D01*
X-13537312Y2507548D01*
X-13537308Y2507534D01*
X-13537306Y2507524D01*
X-13526357Y2469350D01*
X-13521459Y2457902D01*
X-13523157Y2457175D01*
X-13501142Y2387192D01*
X-13500500Y2371216D01*
X-13500500Y-1000500D01*
X-13520207Y-1086843D01*
X-13575426Y-1156084D01*
X-13655218Y-1194511D01*
X-13699500Y-1199500D01*
X-13822477Y-1199500D01*
X-13962485Y-1237016D01*
X-14088014Y-1309490D01*
X-14088015Y-1309491D01*
X-14190509Y-1411985D01*
X-14262984Y-1537515D01*
X-14300500Y-1677525D01*
X-24499500Y-1677525D01*
X-24499500Y3993484D01*
X-24499074Y4006499D01*
X-24492534Y4106287D01*
X-23850500Y4106287D01*
X-23850500Y3893713D01*
X-23817246Y3683757D01*
X-23817243Y3683748D01*
X-23751558Y3481592D01*
X-23751554Y3481581D01*
X-23701624Y3383589D01*
X-23655051Y3292184D01*
X-23569685Y3174688D01*
X-23530106Y3120210D01*
X-23379789Y2969893D01*
X-23298071Y2910523D01*
X-23207816Y2844949D01*
X-23207812Y2844947D01*
X-23018418Y2748445D01*
X-23018407Y2748441D01*
X-22816251Y2682756D01*
X-22816244Y2682754D01*
X-22816243Y2682754D01*
X-22816241Y2682753D01*
X-22816234Y2682752D01*
X-22606287Y2649500D01*
X-22393713Y2649500D01*
X-22183765Y2682752D01*
X-22183748Y2682756D01*
X-21981592Y2748441D01*
X-21981581Y2748445D01*
X-21792187Y2844947D01*
X-21620210Y2969893D01*
X-21469893Y3120210D01*
X-21344947Y3292187D01*
X-21248445Y3481581D01*
X-21248441Y3481592D01*
X-21182756Y3683748D01*
X-21182752Y3683765D01*
X-21149500Y3893713D01*
X-21149500Y4106286D01*
X-21182752Y4316234D01*
X-21182756Y4316251D01*
X-21248441Y4518407D01*
X-21248445Y4518418D01*
X-21344947Y4707812D01*
X-21344949Y4707816D01*
X-21415920Y4805500D01*
X-21469893Y4879789D01*
X-21620210Y5030106D01*
X-21684424Y5076759D01*
X-21792184Y5155051D01*
X-21892907Y5206372D01*
X-21981581Y5251554D01*
X-21981584Y5251555D01*
X-21981588Y5251557D01*
X-22183757Y5317246D01*
X-22393713Y5350500D01*
X-22606287Y5350500D01*
X-22816243Y5317246D01*
X-23018412Y5251557D01*
X-23207816Y5155051D01*
X-23379792Y5030104D01*
X-23530104Y4879792D01*
X-23655051Y4707816D01*
X-23751557Y4518412D01*
X-23817246Y4316243D01*
X-23850500Y4106287D01*
X-24492534Y4106287D01*
X-24491168Y4127121D01*
X-24491167Y4127121D01*
X-24491168Y4127123D01*
X-24483246Y4247976D01*
X-24479848Y4273781D01*
X-24433914Y4504712D01*
X-24427177Y4529857D01*
X-24351489Y4752825D01*
X-24341528Y4776873D01*
X-24237386Y4988052D01*
X-24224370Y5010596D01*
X-24093556Y5206372D01*
X-24077710Y5227023D01*
X-23922459Y5404053D01*
X-23904053Y5422459D01*
X-23727023Y5577710D01*
X-23706372Y5593556D01*
X-23510596Y5724370D01*
X-23488052Y5737386D01*
X-23276873Y5841528D01*
X-23252825Y5851489D01*
X-23029857Y5927177D01*
X-23004712Y5933914D01*
X-22773781Y5979848D01*
X-22747975Y5983246D01*
X-22531470Y5997437D01*
X-22506498Y5999074D01*
X-22493485Y5999500D01*
X-22434108Y5999500D01*
X22434108Y5999500D01*
X22493485Y5999500D01*
X22506498Y5999074D01*
G37*
%TD.AperFunction*%
%TA.AperFunction,Conductor*%
G36*
X24378711Y-7331966D02*
G01*
X24450361Y-7384021D01*
X24492328Y-7462010D01*
X24499500Y-7514952D01*
X24499500Y-8323568D01*
X24479793Y-8409911D01*
X24424574Y-8479152D01*
X24404948Y-8488603D01*
X23773797Y-9119754D01*
X23762530Y-9077703D01*
X23690119Y-8952285D01*
X23587715Y-8849881D01*
X23462297Y-8777470D01*
X23420244Y-8766202D01*
X24011717Y-8174728D01*
X24011717Y-8174727D01*
X23957561Y-8135382D01*
X23957548Y-8135373D01*
X23804319Y-8057299D01*
X23736334Y-8000541D01*
X23699708Y-7919906D01*
X23701696Y-7831365D01*
X23741903Y-7752454D01*
X23804319Y-7702680D01*
X23826788Y-7691232D01*
X23826795Y-7691227D01*
X23966923Y-7589418D01*
X23966930Y-7589412D01*
X24089412Y-7466930D01*
X24089415Y-7466926D01*
X24089418Y-7466923D01*
X24139505Y-7397984D01*
X24206199Y-7339714D01*
X24291571Y-7316152D01*
X24378711Y-7331966D01*
G37*
%TD.AperFunction*%
%TD*%
%TA.AperFunction,Conductor*%
%TO.N,VDC*%
G36*
X-15556961Y-18019685D02*
G01*
X-15511206Y-18072489D01*
X-15500000Y-18124000D01*
X-15500000Y-28500000D01*
X-9750000Y-33000000D01*
X7626000Y-33000000D01*
X7693039Y-33019685D01*
X7738794Y-33072489D01*
X7750000Y-33124000D01*
X7750000Y-36126000D01*
X7730315Y-36193039D01*
X7677511Y-36238794D01*
X7626000Y-36250000D01*
X-11547716Y-36250000D01*
X-11614755Y-36230315D01*
X-11625811Y-36222318D01*
X-19704095Y-29672358D01*
X-19743771Y-29614846D01*
X-19750000Y-29576040D01*
X-19750000Y-18124000D01*
X-19730315Y-18056961D01*
X-19677511Y-18011206D01*
X-19626000Y-18000000D01*
X-15624000Y-18000000D01*
X-15556961Y-18019685D01*
G37*
%TD.AperFunction*%
%TD*%
%TA.AperFunction,Conductor*%
%TO.N,+3V3*%
G36*
X-8306961Y-22019685D02*
G01*
X-8261206Y-22072489D01*
X-8250000Y-22124000D01*
X-8250000Y-25876000D01*
X-8269685Y-25943039D01*
X-8322489Y-25988794D01*
X-8374000Y-26000000D01*
X-11626000Y-26000000D01*
X-11693039Y-25980315D01*
X-11738794Y-25927511D01*
X-11750000Y-25876000D01*
X-11750000Y-22124000D01*
X-11730315Y-22056961D01*
X-11677511Y-22011206D01*
X-11626000Y-22000000D01*
X-8374000Y-22000000D01*
X-8306961Y-22019685D01*
G37*
%TD.AperFunction*%
%TD*%
%TA.AperFunction,Conductor*%
%TO.N,+3V3*%
G36*
X-11306961Y4480315D02*
G01*
X-11261206Y4427511D01*
X-11250000Y4376000D01*
X-11250000Y2624000D01*
X-11269685Y2556961D01*
X-11322489Y2511206D01*
X-11374000Y2500000D01*
X-13126000Y2500000D01*
X-13193039Y2519685D01*
X-13238794Y2572489D01*
X-13250000Y2624000D01*
X-13250000Y4376000D01*
X-13230315Y4443039D01*
X-13177511Y4488794D01*
X-13126000Y4500000D01*
X-11374000Y4500000D01*
X-11306961Y4480315D01*
G37*
%TD.AperFunction*%
%TD*%
M02*
