%TF.GenerationSoftware,KiCad,Pcbnew,9.0.3*%
%TF.CreationDate,2025-09-08T02:13:57+08:00*%
%TF.ProjectId,IR_AC,49525f41-432e-46b6-9963-61645f706362,rev?*%
%TF.SameCoordinates,Original*%
%TF.FileFunction,Legend,Bot*%
%TF.FilePolarity,Positive*%
%FSLAX46Y46*%
G04 Gerber Fmt 4.6, Leading zero omitted, Abs format (unit mm)*
G04 Created by KiCad (PCBNEW 9.0.3) date 2025-09-08 02:13:57*
%MOMM*%
%LPD*%
G01*
G04 APERTURE LIST*
%ADD10C,0.200000*%
%ADD11O,1.800000X1.200000*%
%ADD12O,2.000000X1.100000*%
%ADD13C,0.800000*%
%ADD14C,1.500000*%
%ADD15C,2.200000*%
%ADD16C,1.800000*%
%ADD17C,1.700000*%
%ADD18R,1.700000X1.700000*%
G04 APERTURE END LIST*
D10*
X844612Y-15952219D02*
X844612Y-16666504D01*
X844612Y-16666504D02*
X892231Y-16809361D01*
X892231Y-16809361D02*
X987469Y-16904600D01*
X987469Y-16904600D02*
X1130326Y-16952219D01*
X1130326Y-16952219D02*
X1225564Y-16952219D01*
X-107768Y-16952219D02*
X368421Y-16952219D01*
X368421Y-16952219D02*
X368421Y-15952219D01*
X-1012530Y-16856980D02*
X-964911Y-16904600D01*
X-964911Y-16904600D02*
X-822054Y-16952219D01*
X-822054Y-16952219D02*
X-726816Y-16952219D01*
X-726816Y-16952219D02*
X-583959Y-16904600D01*
X-583959Y-16904600D02*
X-488721Y-16809361D01*
X-488721Y-16809361D02*
X-441102Y-16714123D01*
X-441102Y-16714123D02*
X-393483Y-16523647D01*
X-393483Y-16523647D02*
X-393483Y-16380790D01*
X-393483Y-16380790D02*
X-441102Y-16190314D01*
X-441102Y-16190314D02*
X-488721Y-16095076D01*
X-488721Y-16095076D02*
X-583959Y-15999838D01*
X-583959Y-15999838D02*
X-726816Y-15952219D01*
X-726816Y-15952219D02*
X-822054Y-15952219D01*
X-822054Y-15952219D02*
X-964911Y-15999838D01*
X-964911Y-15999838D02*
X-1012530Y-16047457D01*
X-1726816Y-15952219D02*
X-1726816Y-16666504D01*
X-1726816Y-16666504D02*
X-1679197Y-16809361D01*
X-1679197Y-16809361D02*
X-1583959Y-16904600D01*
X-1583959Y-16904600D02*
X-1441102Y-16952219D01*
X-1441102Y-16952219D02*
X-1345864Y-16952219D01*
X-2679197Y-16952219D02*
X-2203007Y-16952219D01*
X-2203007Y-16952219D02*
X-2203007Y-15952219D01*
X-3583959Y-16856980D02*
X-3536340Y-16904600D01*
X-3536340Y-16904600D02*
X-3393483Y-16952219D01*
X-3393483Y-16952219D02*
X-3298245Y-16952219D01*
X-3298245Y-16952219D02*
X-3155388Y-16904600D01*
X-3155388Y-16904600D02*
X-3060150Y-16809361D01*
X-3060150Y-16809361D02*
X-3012531Y-16714123D01*
X-3012531Y-16714123D02*
X-2964912Y-16523647D01*
X-2964912Y-16523647D02*
X-2964912Y-16380790D01*
X-2964912Y-16380790D02*
X-3012531Y-16190314D01*
X-3012531Y-16190314D02*
X-3060150Y-16095076D01*
X-3060150Y-16095076D02*
X-3155388Y-15999838D01*
X-3155388Y-15999838D02*
X-3298245Y-15952219D01*
X-3298245Y-15952219D02*
X-3393483Y-15952219D01*
X-3393483Y-15952219D02*
X-3536340Y-15999838D01*
X-3536340Y-15999838D02*
X-3583959Y-16047457D01*
X-4298245Y-15952219D02*
X-4298245Y-16666504D01*
X-4298245Y-16666504D02*
X-4250626Y-16809361D01*
X-4250626Y-16809361D02*
X-4155388Y-16904600D01*
X-4155388Y-16904600D02*
X-4012531Y-16952219D01*
X-4012531Y-16952219D02*
X-3917293Y-16952219D01*
X-5250626Y-16952219D02*
X-4774436Y-16952219D01*
X-4774436Y-16952219D02*
X-4774436Y-15952219D01*
X-6155388Y-16856980D02*
X-6107769Y-16904600D01*
X-6107769Y-16904600D02*
X-5964912Y-16952219D01*
X-5964912Y-16952219D02*
X-5869674Y-16952219D01*
X-5869674Y-16952219D02*
X-5726817Y-16904600D01*
X-5726817Y-16904600D02*
X-5631579Y-16809361D01*
X-5631579Y-16809361D02*
X-5583960Y-16714123D01*
X-5583960Y-16714123D02*
X-5536341Y-16523647D01*
X-5536341Y-16523647D02*
X-5536341Y-16380790D01*
X-5536341Y-16380790D02*
X-5583960Y-16190314D01*
X-5583960Y-16190314D02*
X-5631579Y-16095076D01*
X-5631579Y-16095076D02*
X-5726817Y-15999838D01*
X-5726817Y-15999838D02*
X-5869674Y-15952219D01*
X-5869674Y-15952219D02*
X-5964912Y-15952219D01*
X-5964912Y-15952219D02*
X-6107769Y-15999838D01*
X-6107769Y-15999838D02*
X-6155388Y-16047457D01*
X-6869674Y-15952219D02*
X-6869674Y-16666504D01*
X-6869674Y-16666504D02*
X-6822055Y-16809361D01*
X-6822055Y-16809361D02*
X-6726817Y-16904600D01*
X-6726817Y-16904600D02*
X-6583960Y-16952219D01*
X-6583960Y-16952219D02*
X-6488722Y-16952219D01*
X-7822055Y-16952219D02*
X-7345865Y-16952219D01*
X-7345865Y-16952219D02*
X-7345865Y-15952219D01*
X-8726817Y-16856980D02*
X-8679198Y-16904600D01*
X-8679198Y-16904600D02*
X-8536341Y-16952219D01*
X-8536341Y-16952219D02*
X-8441103Y-16952219D01*
X-8441103Y-16952219D02*
X-8298246Y-16904600D01*
X-8298246Y-16904600D02*
X-8203008Y-16809361D01*
X-8203008Y-16809361D02*
X-8155389Y-16714123D01*
X-8155389Y-16714123D02*
X-8107770Y-16523647D01*
X-8107770Y-16523647D02*
X-8107770Y-16380790D01*
X-8107770Y-16380790D02*
X-8155389Y-16190314D01*
X-8155389Y-16190314D02*
X-8203008Y-16095076D01*
X-8203008Y-16095076D02*
X-8298246Y-15999838D01*
X-8298246Y-15999838D02*
X-8441103Y-15952219D01*
X-8441103Y-15952219D02*
X-8536341Y-15952219D01*
X-8536341Y-15952219D02*
X-8679198Y-15999838D01*
X-8679198Y-15999838D02*
X-8726817Y-16047457D01*
%LPC*%
D11*
%TO.C,J1*%
X-22380000Y-15070000D03*
D12*
X-18170000Y-15070000D03*
D11*
X-22380000Y-6430000D03*
D12*
X-18170000Y-6430000D03*
D13*
X-18700000Y-13640000D03*
X-18700000Y-7860000D03*
%TD*%
D14*
%TO.C,TP4*%
X-15000000Y-39000000D03*
%TD*%
D15*
%TO.C,H3*%
X-22500000Y-41000000D03*
%TD*%
D14*
%TO.C,TP2*%
X-500000Y-25500000D03*
%TD*%
D16*
%TO.C,D6*%
X1270000Y-40000000D03*
X-1270000Y-40000000D03*
%TD*%
D14*
%TO.C,TP1*%
X4000000Y-25500000D03*
%TD*%
D17*
%TO.C,J2*%
X23250000Y-9290000D03*
X23250000Y-6750000D03*
X23250000Y-4210000D03*
D18*
X23250000Y-1670000D03*
%TD*%
D15*
%TO.C,H4*%
X22500000Y-41000000D03*
%TD*%
%TO.C,H2*%
X22500000Y4000000D03*
%TD*%
%TO.C,H1*%
X-22500000Y4000000D03*
%TD*%
D14*
%TO.C,TP3*%
X10000000Y-23337500D03*
%TD*%
%LPD*%
M02*
