%TF.GenerationSoftware,KiCad,Pcbnew,9.0.3*%
%TF.CreationDate,2025-09-08T02:13:57+08:00*%
%TF.ProjectId,IR_AC,49525f41-432e-46b6-9963-61645f706362,rev?*%
%TF.SameCoordinates,Original*%
%TF.FileFunction,Legend,Top*%
%TF.FilePolarity,Positive*%
%FSLAX46Y46*%
G04 Gerber Fmt 4.6, Leading zero omitted, Abs format (unit mm)*
G04 Created by KiCad (PCBNEW 9.0.3) date 2025-09-08 02:13:57*
%MOMM*%
%LPD*%
G01*
G04 APERTURE LIST*
G04 Aperture macros list*
%AMRoundRect*
0 Rectangle with rounded corners*
0 $1 Rounding radius*
0 $2 $3 $4 $5 $6 $7 $8 $9 X,Y pos of 4 corners*
0 Add a 4 corners polygon primitive as box body*
4,1,4,$2,$3,$4,$5,$6,$7,$8,$9,$2,$3,0*
0 Add four circle primitives for the rounded corners*
1,1,$1+$1,$2,$3*
1,1,$1+$1,$4,$5*
1,1,$1+$1,$6,$7*
1,1,$1+$1,$8,$9*
0 Add four rect primitives between the rounded corners*
20,1,$1+$1,$2,$3,$4,$5,0*
20,1,$1+$1,$4,$5,$6,$7,0*
20,1,$1+$1,$6,$7,$8,$9,0*
20,1,$1+$1,$8,$9,$2,$3,0*%
G04 Aperture macros list end*
%ADD10C,0.150000*%
%ADD11C,0.200000*%
%ADD12C,0.350000*%
%ADD13C,0.240000*%
%ADD14C,0.250000*%
%ADD15C,0.300000*%
%ADD16C,0.100000*%
%ADD17C,0.000000*%
%ADD18C,0.120000*%
%ADD19O,1.800000X1.200000*%
%ADD20O,2.000000X1.100000*%
%ADD21R,1.100000X0.550000*%
%ADD22R,1.100000X0.300000*%
%ADD23C,0.800000*%
%ADD24RoundRect,0.227500X0.382500X-0.227500X0.382500X0.227500X-0.382500X0.227500X-0.382500X-0.227500X0*%
%ADD25RoundRect,0.243750X0.243750X0.456250X-0.243750X0.456250X-0.243750X-0.456250X0.243750X-0.456250X0*%
%ADD26RoundRect,0.200000X-0.200000X-0.275000X0.200000X-0.275000X0.200000X0.275000X-0.200000X0.275000X0*%
%ADD27RoundRect,0.200000X0.200000X0.275000X-0.200000X0.275000X-0.200000X-0.275000X0.200000X-0.275000X0*%
%ADD28RoundRect,0.243750X-0.243750X-0.456250X0.243750X-0.456250X0.243750X0.456250X-0.243750X0.456250X0*%
%ADD29RoundRect,0.155000X0.155000X0.395000X-0.155000X0.395000X-0.155000X-0.395000X0.155000X-0.395000X0*%
%ADD30RoundRect,0.250000X0.250000X0.475000X-0.250000X0.475000X-0.250000X-0.475000X0.250000X-0.475000X0*%
%ADD31RoundRect,0.135000X0.135000X0.185000X-0.135000X0.185000X-0.135000X-0.185000X0.135000X-0.185000X0*%
%ADD32RoundRect,0.150000X-0.587500X-0.150000X0.587500X-0.150000X0.587500X0.150000X-0.587500X0.150000X0*%
%ADD33RoundRect,0.200000X0.275000X-0.200000X0.275000X0.200000X-0.275000X0.200000X-0.275000X-0.200000X0*%
%ADD34RoundRect,0.250000X0.625000X-0.312500X0.625000X0.312500X-0.625000X0.312500X-0.625000X-0.312500X0*%
%ADD35C,0.600000*%
%ADD36R,3.900000X3.900000*%
%ADD37R,1.500000X0.900000*%
%ADD38R,0.900000X1.500000*%
%ADD39RoundRect,0.250000X0.500000X-0.365000X0.500000X0.365000X-0.500000X0.365000X-0.500000X-0.365000X0*%
%ADD40C,1.500000*%
%ADD41RoundRect,0.225000X-0.225000X-0.250000X0.225000X-0.250000X0.225000X0.250000X-0.225000X0.250000X0*%
%ADD42C,2.200000*%
%ADD43C,1.800000*%
%ADD44C,1.700000*%
%ADD45R,1.700000X1.700000*%
%ADD46RoundRect,0.225000X-0.250000X0.225000X-0.250000X-0.225000X0.250000X-0.225000X0.250000X0.225000X0*%
%ADD47RoundRect,0.200000X-0.275000X0.200000X-0.275000X-0.200000X0.275000X-0.200000X0.275000X0.200000X0*%
%ADD48RoundRect,0.140000X0.170000X-0.140000X0.170000X0.140000X-0.170000X0.140000X-0.170000X-0.140000X0*%
%ADD49R,1.500000X1.000000*%
%ADD50RoundRect,0.075000X-0.350000X0.075000X-0.350000X-0.075000X0.350000X-0.075000X0.350000X0.075000X0*%
G04 APERTURE END LIST*
D10*
X21399609Y-8640476D02*
X21437704Y-8564286D01*
X21437704Y-8564286D02*
X21437704Y-8450000D01*
X21437704Y-8450000D02*
X21399609Y-8335714D01*
X21399609Y-8335714D02*
X21323419Y-8259524D01*
X21323419Y-8259524D02*
X21247228Y-8221429D01*
X21247228Y-8221429D02*
X21094847Y-8183333D01*
X21094847Y-8183333D02*
X20980561Y-8183333D01*
X20980561Y-8183333D02*
X20828180Y-8221429D01*
X20828180Y-8221429D02*
X20751990Y-8259524D01*
X20751990Y-8259524D02*
X20675800Y-8335714D01*
X20675800Y-8335714D02*
X20637704Y-8450000D01*
X20637704Y-8450000D02*
X20637704Y-8526191D01*
X20637704Y-8526191D02*
X20675800Y-8640476D01*
X20675800Y-8640476D02*
X20713895Y-8678572D01*
X20713895Y-8678572D02*
X20980561Y-8678572D01*
X20980561Y-8678572D02*
X20980561Y-8526191D01*
X20637704Y-9021429D02*
X21437704Y-9021429D01*
X21437704Y-9021429D02*
X20637704Y-9478572D01*
X20637704Y-9478572D02*
X21437704Y-9478572D01*
X20637704Y-9859524D02*
X21437704Y-9859524D01*
X21437704Y-9859524D02*
X21437704Y-10050000D01*
X21437704Y-10050000D02*
X21399609Y-10164286D01*
X21399609Y-10164286D02*
X21323419Y-10240476D01*
X21323419Y-10240476D02*
X21247228Y-10278571D01*
X21247228Y-10278571D02*
X21094847Y-10316667D01*
X21094847Y-10316667D02*
X20980561Y-10316667D01*
X20980561Y-10316667D02*
X20828180Y-10278571D01*
X20828180Y-10278571D02*
X20751990Y-10240476D01*
X20751990Y-10240476D02*
X20675800Y-10164286D01*
X20675800Y-10164286D02*
X20637704Y-10050000D01*
X20637704Y-10050000D02*
X20637704Y-9859524D01*
X20637704Y-6616667D02*
X21018657Y-6350000D01*
X20637704Y-6159524D02*
X21437704Y-6159524D01*
X21437704Y-6159524D02*
X21437704Y-6464286D01*
X21437704Y-6464286D02*
X21399609Y-6540476D01*
X21399609Y-6540476D02*
X21361514Y-6578571D01*
X21361514Y-6578571D02*
X21285323Y-6616667D01*
X21285323Y-6616667D02*
X21171038Y-6616667D01*
X21171038Y-6616667D02*
X21094847Y-6578571D01*
X21094847Y-6578571D02*
X21056752Y-6540476D01*
X21056752Y-6540476D02*
X21018657Y-6464286D01*
X21018657Y-6464286D02*
X21018657Y-6159524D01*
X21437704Y-6883333D02*
X20637704Y-7416667D01*
X21437704Y-7416667D02*
X20637704Y-6883333D01*
X21437704Y-3640476D02*
X21437704Y-4097619D01*
X20637704Y-3869047D02*
X21437704Y-3869047D01*
X21437704Y-4288095D02*
X20637704Y-4821429D01*
X21437704Y-4821429D02*
X20637704Y-4288095D01*
X21437704Y-759523D02*
X21437704Y-1254761D01*
X21437704Y-1254761D02*
X21132942Y-988095D01*
X21132942Y-988095D02*
X21132942Y-1102380D01*
X21132942Y-1102380D02*
X21094847Y-1178571D01*
X21094847Y-1178571D02*
X21056752Y-1216666D01*
X21056752Y-1216666D02*
X20980561Y-1254761D01*
X20980561Y-1254761D02*
X20790085Y-1254761D01*
X20790085Y-1254761D02*
X20713895Y-1216666D01*
X20713895Y-1216666D02*
X20675800Y-1178571D01*
X20675800Y-1178571D02*
X20637704Y-1102380D01*
X20637704Y-1102380D02*
X20637704Y-873809D01*
X20637704Y-873809D02*
X20675800Y-797618D01*
X20675800Y-797618D02*
X20713895Y-759523D01*
X21437704Y-1483333D02*
X20637704Y-1750000D01*
X20637704Y-1750000D02*
X21437704Y-2016666D01*
X21437704Y-2207142D02*
X21437704Y-2702380D01*
X21437704Y-2702380D02*
X21132942Y-2435714D01*
X21132942Y-2435714D02*
X21132942Y-2549999D01*
X21132942Y-2549999D02*
X21094847Y-2626190D01*
X21094847Y-2626190D02*
X21056752Y-2664285D01*
X21056752Y-2664285D02*
X20980561Y-2702380D01*
X20980561Y-2702380D02*
X20790085Y-2702380D01*
X20790085Y-2702380D02*
X20713895Y-2664285D01*
X20713895Y-2664285D02*
X20675800Y-2626190D01*
X20675800Y-2626190D02*
X20637704Y-2549999D01*
X20637704Y-2549999D02*
X20637704Y-2321428D01*
X20637704Y-2321428D02*
X20675800Y-2245237D01*
X20675800Y-2245237D02*
X20713895Y-2207142D01*
D11*
X12500000Y-18500000D02*
G75*
G02*
X13500000Y-19500000I0J-1000000D01*
G01*
X-2000000Y-31250000D02*
G75*
G02*
X-3000000Y-30250000I-1J999999D01*
G01*
X13500000Y-28000000D02*
G75*
G02*
X12500000Y-29000000I-1000000J0D01*
G01*
X-3000000Y-19500000D02*
G75*
G02*
X-2000000Y-18500000I999999J1D01*
G01*
X6500000Y-30250000D02*
G75*
G02*
X5500000Y-31250000I-1000000J0D01*
G01*
X6500000Y-30000000D02*
G75*
G02*
X7500000Y-29000000I1000000J0D01*
G01*
X6500000Y-30000000D02*
X6500000Y-24000000D01*
X9500000Y-33250000D02*
G75*
G02*
X10500000Y-32250000I1000000J0D01*
G01*
X-10665718Y-29322054D02*
X-11313337Y-29322054D01*
X-11313337Y-29322054D02*
X-11389527Y-29360149D01*
X-11389527Y-29360149D02*
X-11427623Y-29398244D01*
X-11427623Y-29398244D02*
X-11465718Y-29474435D01*
X-11465718Y-29474435D02*
X-11465718Y-29626816D01*
X-11465718Y-29626816D02*
X-11427623Y-29703006D01*
X-11427623Y-29703006D02*
X-11389527Y-29741101D01*
X-11389527Y-29741101D02*
X-11313337Y-29779197D01*
X-11313337Y-29779197D02*
X-10665718Y-29779197D01*
X-10932384Y-30160149D02*
X-11465718Y-30160149D01*
X-11008575Y-30160149D02*
X-10970480Y-30198244D01*
X-10970480Y-30198244D02*
X-10932384Y-30274434D01*
X-10932384Y-30274434D02*
X-10932384Y-30388720D01*
X-10932384Y-30388720D02*
X-10970480Y-30464911D01*
X-10970480Y-30464911D02*
X-11046670Y-30503006D01*
X-11046670Y-30503006D02*
X-11465718Y-30503006D01*
X-11427623Y-30845863D02*
X-11465718Y-30922054D01*
X-11465718Y-30922054D02*
X-11465718Y-31074435D01*
X-11465718Y-31074435D02*
X-11427623Y-31150625D01*
X-11427623Y-31150625D02*
X-11351432Y-31188721D01*
X-11351432Y-31188721D02*
X-11313337Y-31188721D01*
X-11313337Y-31188721D02*
X-11237146Y-31150625D01*
X-11237146Y-31150625D02*
X-11199051Y-31074435D01*
X-11199051Y-31074435D02*
X-11199051Y-30960149D01*
X-11199051Y-30960149D02*
X-11160956Y-30883959D01*
X-11160956Y-30883959D02*
X-11084765Y-30845863D01*
X-11084765Y-30845863D02*
X-11046670Y-30845863D01*
X-11046670Y-30845863D02*
X-10970480Y-30883959D01*
X-10970480Y-30883959D02*
X-10932384Y-30960149D01*
X-10932384Y-30960149D02*
X-10932384Y-31074435D01*
X-10932384Y-31074435D02*
X-10970480Y-31150625D01*
X-11465718Y-31531578D02*
X-10932384Y-31531578D01*
X-10665718Y-31531578D02*
X-10703813Y-31493482D01*
X-10703813Y-31493482D02*
X-10741908Y-31531578D01*
X-10741908Y-31531578D02*
X-10703813Y-31569673D01*
X-10703813Y-31569673D02*
X-10665718Y-31531578D01*
X-10665718Y-31531578D02*
X-10741908Y-31531578D01*
X-11427623Y-32255387D02*
X-11465718Y-32179196D01*
X-11465718Y-32179196D02*
X-11465718Y-32026815D01*
X-11465718Y-32026815D02*
X-11427623Y-31950625D01*
X-11427623Y-31950625D02*
X-11389527Y-31912530D01*
X-11389527Y-31912530D02*
X-11313337Y-31874434D01*
X-11313337Y-31874434D02*
X-11084765Y-31874434D01*
X-11084765Y-31874434D02*
X-11008575Y-31912530D01*
X-11008575Y-31912530D02*
X-10970480Y-31950625D01*
X-10970480Y-31950625D02*
X-10932384Y-32026815D01*
X-10932384Y-32026815D02*
X-10932384Y-32179196D01*
X-10932384Y-32179196D02*
X-10970480Y-32255387D01*
X-11465718Y-32598244D02*
X-10665718Y-32598244D01*
X-11465718Y-32941101D02*
X-11046670Y-32941101D01*
X-11046670Y-32941101D02*
X-10970480Y-32903006D01*
X-10970480Y-32903006D02*
X-10932384Y-32826815D01*
X-10932384Y-32826815D02*
X-10932384Y-32712529D01*
X-10932384Y-32712529D02*
X-10970480Y-32636339D01*
X-10970480Y-32636339D02*
X-11008575Y-32598244D01*
X-10932384Y-33207768D02*
X-10932384Y-33512530D01*
X-10665718Y-33322054D02*
X-11351432Y-33322054D01*
X-11351432Y-33322054D02*
X-11427623Y-33360149D01*
X-11427623Y-33360149D02*
X-11465718Y-33436339D01*
X-11465718Y-33436339D02*
X-11465718Y-33512530D01*
X-11465718Y-33779197D02*
X-10665718Y-33779197D01*
X-10970480Y-33779197D02*
X-10932384Y-33855387D01*
X-10932384Y-33855387D02*
X-10932384Y-34007768D01*
X-10932384Y-34007768D02*
X-10970480Y-34083959D01*
X-10970480Y-34083959D02*
X-11008575Y-34122054D01*
X-11008575Y-34122054D02*
X-11084765Y-34160149D01*
X-11084765Y-34160149D02*
X-11313337Y-34160149D01*
X-11313337Y-34160149D02*
X-11389527Y-34122054D01*
X-11389527Y-34122054D02*
X-11427623Y-34083959D01*
X-11427623Y-34083959D02*
X-11465718Y-34007768D01*
X-11465718Y-34007768D02*
X-11465718Y-33855387D01*
X-11465718Y-33855387D02*
X-11427623Y-33779197D01*
X-11465718Y-34845864D02*
X-11046670Y-34845864D01*
X-11046670Y-34845864D02*
X-10970480Y-34807769D01*
X-10970480Y-34807769D02*
X-10932384Y-34731578D01*
X-10932384Y-34731578D02*
X-10932384Y-34579197D01*
X-10932384Y-34579197D02*
X-10970480Y-34503007D01*
X-11427623Y-34845864D02*
X-11465718Y-34769673D01*
X-11465718Y-34769673D02*
X-11465718Y-34579197D01*
X-11465718Y-34579197D02*
X-11427623Y-34503007D01*
X-11427623Y-34503007D02*
X-11351432Y-34464911D01*
X-11351432Y-34464911D02*
X-11275242Y-34464911D01*
X-11275242Y-34464911D02*
X-11199051Y-34503007D01*
X-11199051Y-34503007D02*
X-11160956Y-34579197D01*
X-11160956Y-34579197D02*
X-11160956Y-34769673D01*
X-11160956Y-34769673D02*
X-11122861Y-34845864D01*
X-11465718Y-35226817D02*
X-10932384Y-35226817D01*
X-11084765Y-35226817D02*
X-11008575Y-35264912D01*
X-11008575Y-35264912D02*
X-10970480Y-35303007D01*
X-10970480Y-35303007D02*
X-10932384Y-35379198D01*
X-10932384Y-35379198D02*
X-10932384Y-35455388D01*
X-11427623Y-36026817D02*
X-11465718Y-35950626D01*
X-11465718Y-35950626D02*
X-11465718Y-35798245D01*
X-11465718Y-35798245D02*
X-11427623Y-35722055D01*
X-11427623Y-35722055D02*
X-11351432Y-35683959D01*
X-11351432Y-35683959D02*
X-11046670Y-35683959D01*
X-11046670Y-35683959D02*
X-10970480Y-35722055D01*
X-10970480Y-35722055D02*
X-10932384Y-35798245D01*
X-10932384Y-35798245D02*
X-10932384Y-35950626D01*
X-10932384Y-35950626D02*
X-10970480Y-36026817D01*
X-10970480Y-36026817D02*
X-11046670Y-36064912D01*
X-11046670Y-36064912D02*
X-11122861Y-36064912D01*
X-11122861Y-36064912D02*
X-11199051Y-35683959D01*
X-11427623Y-36369673D02*
X-11465718Y-36445864D01*
X-11465718Y-36445864D02*
X-11465718Y-36598245D01*
X-11465718Y-36598245D02*
X-11427623Y-36674435D01*
X-11427623Y-36674435D02*
X-11351432Y-36712531D01*
X-11351432Y-36712531D02*
X-11313337Y-36712531D01*
X-11313337Y-36712531D02*
X-11237146Y-36674435D01*
X-11237146Y-36674435D02*
X-11199051Y-36598245D01*
X-11199051Y-36598245D02*
X-11199051Y-36483959D01*
X-11199051Y-36483959D02*
X-11160956Y-36407769D01*
X-11160956Y-36407769D02*
X-11084765Y-36369673D01*
X-11084765Y-36369673D02*
X-11046670Y-36369673D01*
X-11046670Y-36369673D02*
X-10970480Y-36407769D01*
X-10970480Y-36407769D02*
X-10932384Y-36483959D01*
X-10932384Y-36483959D02*
X-10932384Y-36598245D01*
X-10932384Y-36598245D02*
X-10970480Y-36674435D01*
X-12753673Y-29703006D02*
X-12753673Y-29322054D01*
X-12753673Y-29322054D02*
X-11953673Y-29322054D01*
X-12753673Y-29969673D02*
X-12220339Y-29969673D01*
X-11953673Y-29969673D02*
X-11991768Y-29931577D01*
X-11991768Y-29931577D02*
X-12029863Y-29969673D01*
X-12029863Y-29969673D02*
X-11991768Y-30007768D01*
X-11991768Y-30007768D02*
X-11953673Y-29969673D01*
X-11953673Y-29969673D02*
X-12029863Y-29969673D01*
X-12715578Y-30693482D02*
X-12753673Y-30617291D01*
X-12753673Y-30617291D02*
X-12753673Y-30464910D01*
X-12753673Y-30464910D02*
X-12715578Y-30388720D01*
X-12715578Y-30388720D02*
X-12677482Y-30350625D01*
X-12677482Y-30350625D02*
X-12601292Y-30312529D01*
X-12601292Y-30312529D02*
X-12372720Y-30312529D01*
X-12372720Y-30312529D02*
X-12296530Y-30350625D01*
X-12296530Y-30350625D02*
X-12258435Y-30388720D01*
X-12258435Y-30388720D02*
X-12220339Y-30464910D01*
X-12220339Y-30464910D02*
X-12220339Y-30617291D01*
X-12220339Y-30617291D02*
X-12258435Y-30693482D01*
X-12753673Y-31036339D02*
X-11953673Y-31036339D01*
X-12753673Y-31379196D02*
X-12334625Y-31379196D01*
X-12334625Y-31379196D02*
X-12258435Y-31341101D01*
X-12258435Y-31341101D02*
X-12220339Y-31264910D01*
X-12220339Y-31264910D02*
X-12220339Y-31150624D01*
X-12220339Y-31150624D02*
X-12258435Y-31074434D01*
X-12258435Y-31074434D02*
X-12296530Y-31036339D01*
X-12220339Y-31645863D02*
X-12220339Y-31950625D01*
X-11953673Y-31760149D02*
X-12639387Y-31760149D01*
X-12639387Y-31760149D02*
X-12715578Y-31798244D01*
X-12715578Y-31798244D02*
X-12753673Y-31874434D01*
X-12753673Y-31874434D02*
X-12753673Y-31950625D01*
X-5405957Y-30464285D02*
X-5405957Y-30635714D01*
X-5405957Y-30635714D02*
X-5363100Y-30721428D01*
X-5363100Y-30721428D02*
X-5320242Y-30764285D01*
X-5320242Y-30764285D02*
X-5191671Y-30850000D01*
X-5191671Y-30850000D02*
X-5020242Y-30892857D01*
X-5020242Y-30892857D02*
X-4677385Y-30892857D01*
X-4677385Y-30892857D02*
X-4591671Y-30850000D01*
X-4591671Y-30850000D02*
X-4548814Y-30807143D01*
X-4548814Y-30807143D02*
X-4505957Y-30721428D01*
X-4505957Y-30721428D02*
X-4505957Y-30550000D01*
X-4505957Y-30550000D02*
X-4548814Y-30464285D01*
X-4548814Y-30464285D02*
X-4591671Y-30421428D01*
X-4591671Y-30421428D02*
X-4677385Y-30378571D01*
X-4677385Y-30378571D02*
X-4891671Y-30378571D01*
X-4891671Y-30378571D02*
X-4977385Y-30421428D01*
X-4977385Y-30421428D02*
X-5020242Y-30464285D01*
X-5020242Y-30464285D02*
X-5063100Y-30550000D01*
X-5063100Y-30550000D02*
X-5063100Y-30721428D01*
X-5063100Y-30721428D02*
X-5020242Y-30807143D01*
X-5020242Y-30807143D02*
X-4977385Y-30850000D01*
X-4977385Y-30850000D02*
X-4891671Y-30892857D01*
X-4805957Y-31664286D02*
X-5405957Y-31664286D01*
X-4463100Y-31450000D02*
X-5105957Y-31235714D01*
X-5105957Y-31235714D02*
X-5105957Y-31792857D01*
X-4505957Y-32307143D02*
X-4505957Y-32392857D01*
X-4505957Y-32392857D02*
X-4548814Y-32478571D01*
X-4548814Y-32478571D02*
X-4591671Y-32521429D01*
X-4591671Y-32521429D02*
X-4677385Y-32564286D01*
X-4677385Y-32564286D02*
X-4848814Y-32607143D01*
X-4848814Y-32607143D02*
X-5063100Y-32607143D01*
X-5063100Y-32607143D02*
X-5234528Y-32564286D01*
X-5234528Y-32564286D02*
X-5320242Y-32521429D01*
X-5320242Y-32521429D02*
X-5363100Y-32478571D01*
X-5363100Y-32478571D02*
X-5405957Y-32392857D01*
X-5405957Y-32392857D02*
X-5405957Y-32307143D01*
X-5405957Y-32307143D02*
X-5363100Y-32221429D01*
X-5363100Y-32221429D02*
X-5320242Y-32178571D01*
X-5320242Y-32178571D02*
X-5234528Y-32135714D01*
X-5234528Y-32135714D02*
X-5063100Y-32092857D01*
X-5063100Y-32092857D02*
X-4848814Y-32092857D01*
X-4848814Y-32092857D02*
X-4677385Y-32135714D01*
X-4677385Y-32135714D02*
X-4591671Y-32178571D01*
X-4591671Y-32178571D02*
X-4548814Y-32221429D01*
X-4548814Y-32221429D02*
X-4505957Y-32307143D01*
X-4805957Y-32992857D02*
X-5405957Y-32992857D01*
X-4891671Y-32992857D02*
X-4848814Y-33035714D01*
X-4848814Y-33035714D02*
X-4805957Y-33121429D01*
X-4805957Y-33121429D02*
X-4805957Y-33250000D01*
X-4805957Y-33250000D02*
X-4848814Y-33335714D01*
X-4848814Y-33335714D02*
X-4934528Y-33378572D01*
X-4934528Y-33378572D02*
X-5405957Y-33378572D01*
X-5405957Y-33807143D02*
X-4805957Y-33807143D01*
X-4891671Y-33807143D02*
X-4848814Y-33850000D01*
X-4848814Y-33850000D02*
X-4805957Y-33935715D01*
X-4805957Y-33935715D02*
X-4805957Y-34064286D01*
X-4805957Y-34064286D02*
X-4848814Y-34150000D01*
X-4848814Y-34150000D02*
X-4934528Y-34192858D01*
X-4934528Y-34192858D02*
X-5405957Y-34192858D01*
X-4934528Y-34192858D02*
X-4848814Y-34235715D01*
X-4848814Y-34235715D02*
X-4805957Y-34321429D01*
X-4805957Y-34321429D02*
X-4805957Y-34450000D01*
X-4805957Y-34450000D02*
X-4848814Y-34535715D01*
X-4848814Y-34535715D02*
X-4934528Y-34578572D01*
X-4934528Y-34578572D02*
X-5405957Y-34578572D01*
X25000000Y-32250000D02*
X10500000Y-32250000D01*
X9500000Y-43500000D02*
X9500000Y-33250000D01*
X11345863Y-39897247D02*
X10869673Y-39897247D01*
X10869673Y-39897247D02*
X10869673Y-38897247D01*
X12250625Y-39802008D02*
X12203006Y-39849628D01*
X12203006Y-39849628D02*
X12060149Y-39897247D01*
X12060149Y-39897247D02*
X11964911Y-39897247D01*
X11964911Y-39897247D02*
X11822054Y-39849628D01*
X11822054Y-39849628D02*
X11726816Y-39754389D01*
X11726816Y-39754389D02*
X11679197Y-39659151D01*
X11679197Y-39659151D02*
X11631578Y-39468675D01*
X11631578Y-39468675D02*
X11631578Y-39325818D01*
X11631578Y-39325818D02*
X11679197Y-39135342D01*
X11679197Y-39135342D02*
X11726816Y-39040104D01*
X11726816Y-39040104D02*
X11822054Y-38944866D01*
X11822054Y-38944866D02*
X11964911Y-38897247D01*
X11964911Y-38897247D02*
X12060149Y-38897247D01*
X12060149Y-38897247D02*
X12203006Y-38944866D01*
X12203006Y-38944866D02*
X12250625Y-38992485D01*
X10774435Y-40507191D02*
X11441101Y-40507191D01*
X11441101Y-40507191D02*
X11012530Y-41507191D01*
X12536339Y-40459572D02*
X11679197Y-41745286D01*
X12917292Y-41507191D02*
X13107768Y-41507191D01*
X13107768Y-41507191D02*
X13203006Y-41459572D01*
X13203006Y-41459572D02*
X13250625Y-41411952D01*
X13250625Y-41411952D02*
X13345863Y-41269095D01*
X13345863Y-41269095D02*
X13393482Y-41078619D01*
X13393482Y-41078619D02*
X13393482Y-40697667D01*
X13393482Y-40697667D02*
X13345863Y-40602429D01*
X13345863Y-40602429D02*
X13298244Y-40554810D01*
X13298244Y-40554810D02*
X13203006Y-40507191D01*
X13203006Y-40507191D02*
X13012530Y-40507191D01*
X13012530Y-40507191D02*
X12917292Y-40554810D01*
X12917292Y-40554810D02*
X12869673Y-40602429D01*
X12869673Y-40602429D02*
X12822054Y-40697667D01*
X12822054Y-40697667D02*
X12822054Y-40935762D01*
X12822054Y-40935762D02*
X12869673Y-41031000D01*
X12869673Y-41031000D02*
X12917292Y-41078619D01*
X12917292Y-41078619D02*
X13012530Y-41126238D01*
X13012530Y-41126238D02*
X13203006Y-41126238D01*
X13203006Y-41126238D02*
X13298244Y-41078619D01*
X13298244Y-41078619D02*
X13345863Y-41031000D01*
X13345863Y-41031000D02*
X13393482Y-40935762D01*
X14536339Y-40459572D02*
X13679197Y-41745286D01*
X14822054Y-40602429D02*
X14869673Y-40554810D01*
X14869673Y-40554810D02*
X14964911Y-40507191D01*
X14964911Y-40507191D02*
X15203006Y-40507191D01*
X15203006Y-40507191D02*
X15298244Y-40554810D01*
X15298244Y-40554810D02*
X15345863Y-40602429D01*
X15345863Y-40602429D02*
X15393482Y-40697667D01*
X15393482Y-40697667D02*
X15393482Y-40792905D01*
X15393482Y-40792905D02*
X15345863Y-40935762D01*
X15345863Y-40935762D02*
X14774435Y-41507191D01*
X14774435Y-41507191D02*
X15393482Y-41507191D01*
X16012530Y-40507191D02*
X16107768Y-40507191D01*
X16107768Y-40507191D02*
X16203006Y-40554810D01*
X16203006Y-40554810D02*
X16250625Y-40602429D01*
X16250625Y-40602429D02*
X16298244Y-40697667D01*
X16298244Y-40697667D02*
X16345863Y-40888143D01*
X16345863Y-40888143D02*
X16345863Y-41126238D01*
X16345863Y-41126238D02*
X16298244Y-41316714D01*
X16298244Y-41316714D02*
X16250625Y-41411952D01*
X16250625Y-41411952D02*
X16203006Y-41459572D01*
X16203006Y-41459572D02*
X16107768Y-41507191D01*
X16107768Y-41507191D02*
X16012530Y-41507191D01*
X16012530Y-41507191D02*
X15917292Y-41459572D01*
X15917292Y-41459572D02*
X15869673Y-41411952D01*
X15869673Y-41411952D02*
X15822054Y-41316714D01*
X15822054Y-41316714D02*
X15774435Y-41126238D01*
X15774435Y-41126238D02*
X15774435Y-40888143D01*
X15774435Y-40888143D02*
X15822054Y-40697667D01*
X15822054Y-40697667D02*
X15869673Y-40602429D01*
X15869673Y-40602429D02*
X15917292Y-40554810D01*
X15917292Y-40554810D02*
X16012530Y-40507191D01*
X16726816Y-40602429D02*
X16774435Y-40554810D01*
X16774435Y-40554810D02*
X16869673Y-40507191D01*
X16869673Y-40507191D02*
X17107768Y-40507191D01*
X17107768Y-40507191D02*
X17203006Y-40554810D01*
X17203006Y-40554810D02*
X17250625Y-40602429D01*
X17250625Y-40602429D02*
X17298244Y-40697667D01*
X17298244Y-40697667D02*
X17298244Y-40792905D01*
X17298244Y-40792905D02*
X17250625Y-40935762D01*
X17250625Y-40935762D02*
X16679197Y-41507191D01*
X16679197Y-41507191D02*
X17298244Y-41507191D01*
X18203006Y-40507191D02*
X17726816Y-40507191D01*
X17726816Y-40507191D02*
X17679197Y-40983381D01*
X17679197Y-40983381D02*
X17726816Y-40935762D01*
X17726816Y-40935762D02*
X17822054Y-40888143D01*
X17822054Y-40888143D02*
X18060149Y-40888143D01*
X18060149Y-40888143D02*
X18155387Y-40935762D01*
X18155387Y-40935762D02*
X18203006Y-40983381D01*
X18203006Y-40983381D02*
X18250625Y-41078619D01*
X18250625Y-41078619D02*
X18250625Y-41316714D01*
X18250625Y-41316714D02*
X18203006Y-41411952D01*
X18203006Y-41411952D02*
X18155387Y-41459572D01*
X18155387Y-41459572D02*
X18060149Y-41507191D01*
X18060149Y-41507191D02*
X17822054Y-41507191D01*
X17822054Y-41507191D02*
X17726816Y-41459572D01*
X17726816Y-41459572D02*
X17679197Y-41411952D01*
D12*
X10694548Y-33468270D02*
X11051691Y-34968270D01*
X11051691Y-34968270D02*
X11337405Y-33896842D01*
X11337405Y-33896842D02*
X11623120Y-34968270D01*
X11623120Y-34968270D02*
X11980263Y-33468270D01*
X12551691Y-34968270D02*
X12551691Y-33968270D01*
X12551691Y-33468270D02*
X12480263Y-33539699D01*
X12480263Y-33539699D02*
X12551691Y-33611127D01*
X12551691Y-33611127D02*
X12623120Y-33539699D01*
X12623120Y-33539699D02*
X12551691Y-33468270D01*
X12551691Y-33468270D02*
X12551691Y-33611127D01*
X13265977Y-34968270D02*
X13265977Y-33968270D01*
X13265977Y-34253984D02*
X13337406Y-34111127D01*
X13337406Y-34111127D02*
X13408835Y-34039699D01*
X13408835Y-34039699D02*
X13551692Y-33968270D01*
X13551692Y-33968270D02*
X13694549Y-33968270D01*
X14765977Y-34896842D02*
X14623120Y-34968270D01*
X14623120Y-34968270D02*
X14337406Y-34968270D01*
X14337406Y-34968270D02*
X14194548Y-34896842D01*
X14194548Y-34896842D02*
X14123120Y-34753984D01*
X14123120Y-34753984D02*
X14123120Y-34182556D01*
X14123120Y-34182556D02*
X14194548Y-34039699D01*
X14194548Y-34039699D02*
X14337406Y-33968270D01*
X14337406Y-33968270D02*
X14623120Y-33968270D01*
X14623120Y-33968270D02*
X14765977Y-34039699D01*
X14765977Y-34039699D02*
X14837406Y-34182556D01*
X14837406Y-34182556D02*
X14837406Y-34325413D01*
X14837406Y-34325413D02*
X14123120Y-34468270D01*
X15694548Y-34968270D02*
X15551691Y-34896842D01*
X15551691Y-34896842D02*
X15480262Y-34753984D01*
X15480262Y-34753984D02*
X15480262Y-33468270D01*
X16837405Y-34896842D02*
X16694548Y-34968270D01*
X16694548Y-34968270D02*
X16408834Y-34968270D01*
X16408834Y-34968270D02*
X16265976Y-34896842D01*
X16265976Y-34896842D02*
X16194548Y-34753984D01*
X16194548Y-34753984D02*
X16194548Y-34182556D01*
X16194548Y-34182556D02*
X16265976Y-34039699D01*
X16265976Y-34039699D02*
X16408834Y-33968270D01*
X16408834Y-33968270D02*
X16694548Y-33968270D01*
X16694548Y-33968270D02*
X16837405Y-34039699D01*
X16837405Y-34039699D02*
X16908834Y-34182556D01*
X16908834Y-34182556D02*
X16908834Y-34325413D01*
X16908834Y-34325413D02*
X16194548Y-34468270D01*
X17480262Y-34896842D02*
X17623119Y-34968270D01*
X17623119Y-34968270D02*
X17908833Y-34968270D01*
X17908833Y-34968270D02*
X18051690Y-34896842D01*
X18051690Y-34896842D02*
X18123119Y-34753984D01*
X18123119Y-34753984D02*
X18123119Y-34682556D01*
X18123119Y-34682556D02*
X18051690Y-34539699D01*
X18051690Y-34539699D02*
X17908833Y-34468270D01*
X17908833Y-34468270D02*
X17694548Y-34468270D01*
X17694548Y-34468270D02*
X17551690Y-34396842D01*
X17551690Y-34396842D02*
X17480262Y-34253984D01*
X17480262Y-34253984D02*
X17480262Y-34182556D01*
X17480262Y-34182556D02*
X17551690Y-34039699D01*
X17551690Y-34039699D02*
X17694548Y-33968270D01*
X17694548Y-33968270D02*
X17908833Y-33968270D01*
X17908833Y-33968270D02*
X18051690Y-34039699D01*
X18694548Y-34896842D02*
X18837405Y-34968270D01*
X18837405Y-34968270D02*
X19123119Y-34968270D01*
X19123119Y-34968270D02*
X19265976Y-34896842D01*
X19265976Y-34896842D02*
X19337405Y-34753984D01*
X19337405Y-34753984D02*
X19337405Y-34682556D01*
X19337405Y-34682556D02*
X19265976Y-34539699D01*
X19265976Y-34539699D02*
X19123119Y-34468270D01*
X19123119Y-34468270D02*
X18908834Y-34468270D01*
X18908834Y-34468270D02*
X18765976Y-34396842D01*
X18765976Y-34396842D02*
X18694548Y-34253984D01*
X18694548Y-34253984D02*
X18694548Y-34182556D01*
X18694548Y-34182556D02*
X18765976Y-34039699D01*
X18765976Y-34039699D02*
X18908834Y-33968270D01*
X18908834Y-33968270D02*
X19123119Y-33968270D01*
X19123119Y-33968270D02*
X19265976Y-34039699D01*
X21051691Y-34539699D02*
X21765977Y-34539699D01*
X20908834Y-34968270D02*
X21408834Y-33468270D01*
X21408834Y-33468270D02*
X21908834Y-34968270D01*
X23265976Y-34825413D02*
X23194548Y-34896842D01*
X23194548Y-34896842D02*
X22980262Y-34968270D01*
X22980262Y-34968270D02*
X22837405Y-34968270D01*
X22837405Y-34968270D02*
X22623119Y-34896842D01*
X22623119Y-34896842D02*
X22480262Y-34753984D01*
X22480262Y-34753984D02*
X22408833Y-34611127D01*
X22408833Y-34611127D02*
X22337405Y-34325413D01*
X22337405Y-34325413D02*
X22337405Y-34111127D01*
X22337405Y-34111127D02*
X22408833Y-33825413D01*
X22408833Y-33825413D02*
X22480262Y-33682556D01*
X22480262Y-33682556D02*
X22623119Y-33539699D01*
X22623119Y-33539699D02*
X22837405Y-33468270D01*
X22837405Y-33468270D02*
X22980262Y-33468270D01*
X22980262Y-33468270D02*
X23194548Y-33539699D01*
X23194548Y-33539699D02*
X23265976Y-33611127D01*
X10837405Y-37383186D02*
X10837405Y-35883186D01*
X12408834Y-37383186D02*
X11908834Y-36668900D01*
X11551691Y-37383186D02*
X11551691Y-35883186D01*
X11551691Y-35883186D02*
X12123120Y-35883186D01*
X12123120Y-35883186D02*
X12265977Y-35954615D01*
X12265977Y-35954615D02*
X12337406Y-36026043D01*
X12337406Y-36026043D02*
X12408834Y-36168900D01*
X12408834Y-36168900D02*
X12408834Y-36383186D01*
X12408834Y-36383186D02*
X12337406Y-36526043D01*
X12337406Y-36526043D02*
X12265977Y-36597472D01*
X12265977Y-36597472D02*
X12123120Y-36668900D01*
X12123120Y-36668900D02*
X11551691Y-36668900D01*
X14694548Y-36597472D02*
X14908834Y-36668900D01*
X14908834Y-36668900D02*
X14980263Y-36740329D01*
X14980263Y-36740329D02*
X15051691Y-36883186D01*
X15051691Y-36883186D02*
X15051691Y-37097472D01*
X15051691Y-37097472D02*
X14980263Y-37240329D01*
X14980263Y-37240329D02*
X14908834Y-37311758D01*
X14908834Y-37311758D02*
X14765977Y-37383186D01*
X14765977Y-37383186D02*
X14194548Y-37383186D01*
X14194548Y-37383186D02*
X14194548Y-35883186D01*
X14194548Y-35883186D02*
X14694548Y-35883186D01*
X14694548Y-35883186D02*
X14837406Y-35954615D01*
X14837406Y-35954615D02*
X14908834Y-36026043D01*
X14908834Y-36026043D02*
X14980263Y-36168900D01*
X14980263Y-36168900D02*
X14980263Y-36311758D01*
X14980263Y-36311758D02*
X14908834Y-36454615D01*
X14908834Y-36454615D02*
X14837406Y-36526043D01*
X14837406Y-36526043D02*
X14694548Y-36597472D01*
X14694548Y-36597472D02*
X14194548Y-36597472D01*
X15908834Y-37383186D02*
X15765977Y-37311758D01*
X15765977Y-37311758D02*
X15694548Y-37168900D01*
X15694548Y-37168900D02*
X15694548Y-35883186D01*
X17123120Y-37383186D02*
X17123120Y-36597472D01*
X17123120Y-36597472D02*
X17051691Y-36454615D01*
X17051691Y-36454615D02*
X16908834Y-36383186D01*
X16908834Y-36383186D02*
X16623120Y-36383186D01*
X16623120Y-36383186D02*
X16480262Y-36454615D01*
X17123120Y-37311758D02*
X16980262Y-37383186D01*
X16980262Y-37383186D02*
X16623120Y-37383186D01*
X16623120Y-37383186D02*
X16480262Y-37311758D01*
X16480262Y-37311758D02*
X16408834Y-37168900D01*
X16408834Y-37168900D02*
X16408834Y-37026043D01*
X16408834Y-37026043D02*
X16480262Y-36883186D01*
X16480262Y-36883186D02*
X16623120Y-36811758D01*
X16623120Y-36811758D02*
X16980262Y-36811758D01*
X16980262Y-36811758D02*
X17123120Y-36740329D01*
X17765977Y-37311758D02*
X17908834Y-37383186D01*
X17908834Y-37383186D02*
X18194548Y-37383186D01*
X18194548Y-37383186D02*
X18337405Y-37311758D01*
X18337405Y-37311758D02*
X18408834Y-37168900D01*
X18408834Y-37168900D02*
X18408834Y-37097472D01*
X18408834Y-37097472D02*
X18337405Y-36954615D01*
X18337405Y-36954615D02*
X18194548Y-36883186D01*
X18194548Y-36883186D02*
X17980263Y-36883186D01*
X17980263Y-36883186D02*
X17837405Y-36811758D01*
X17837405Y-36811758D02*
X17765977Y-36668900D01*
X17765977Y-36668900D02*
X17765977Y-36597472D01*
X17765977Y-36597472D02*
X17837405Y-36454615D01*
X17837405Y-36454615D02*
X17980263Y-36383186D01*
X17980263Y-36383186D02*
X18194548Y-36383186D01*
X18194548Y-36383186D02*
X18337405Y-36454615D01*
X18837406Y-36383186D02*
X19408834Y-36383186D01*
X19051691Y-35883186D02*
X19051691Y-37168900D01*
X19051691Y-37168900D02*
X19123120Y-37311758D01*
X19123120Y-37311758D02*
X19265977Y-37383186D01*
X19265977Y-37383186D02*
X19408834Y-37383186D01*
X20480263Y-37311758D02*
X20337406Y-37383186D01*
X20337406Y-37383186D02*
X20051692Y-37383186D01*
X20051692Y-37383186D02*
X19908834Y-37311758D01*
X19908834Y-37311758D02*
X19837406Y-37168900D01*
X19837406Y-37168900D02*
X19837406Y-36597472D01*
X19837406Y-36597472D02*
X19908834Y-36454615D01*
X19908834Y-36454615D02*
X20051692Y-36383186D01*
X20051692Y-36383186D02*
X20337406Y-36383186D01*
X20337406Y-36383186D02*
X20480263Y-36454615D01*
X20480263Y-36454615D02*
X20551692Y-36597472D01*
X20551692Y-36597472D02*
X20551692Y-36740329D01*
X20551692Y-36740329D02*
X19837406Y-36883186D01*
X21194548Y-37383186D02*
X21194548Y-36383186D01*
X21194548Y-36668900D02*
X21265977Y-36526043D01*
X21265977Y-36526043D02*
X21337406Y-36454615D01*
X21337406Y-36454615D02*
X21480263Y-36383186D01*
X21480263Y-36383186D02*
X21623120Y-36383186D01*
D11*
X7500000Y-29000000D02*
X12500000Y-29000000D01*
D13*
X-17999999Y-41450139D02*
X-17999999Y-40450139D01*
X-16952381Y-41450139D02*
X-17285714Y-40973948D01*
X-17523809Y-41450139D02*
X-17523809Y-40450139D01*
X-17523809Y-40450139D02*
X-17142857Y-40450139D01*
X-17142857Y-40450139D02*
X-17047619Y-40497758D01*
X-17047619Y-40497758D02*
X-17000000Y-40545377D01*
X-17000000Y-40545377D02*
X-16952381Y-40640615D01*
X-16952381Y-40640615D02*
X-16952381Y-40783472D01*
X-16952381Y-40783472D02*
X-17000000Y-40878710D01*
X-17000000Y-40878710D02*
X-17047619Y-40926329D01*
X-17047619Y-40926329D02*
X-17142857Y-40973948D01*
X-17142857Y-40973948D02*
X-17523809Y-40973948D01*
X-15761904Y-41450139D02*
X-15761904Y-40450139D01*
X-15761904Y-40450139D02*
X-15523809Y-40450139D01*
X-15523809Y-40450139D02*
X-15380952Y-40497758D01*
X-15380952Y-40497758D02*
X-15285714Y-40592996D01*
X-15285714Y-40592996D02*
X-15238095Y-40688234D01*
X-15238095Y-40688234D02*
X-15190476Y-40878710D01*
X-15190476Y-40878710D02*
X-15190476Y-41021567D01*
X-15190476Y-41021567D02*
X-15238095Y-41212043D01*
X-15238095Y-41212043D02*
X-15285714Y-41307281D01*
X-15285714Y-41307281D02*
X-15380952Y-41402520D01*
X-15380952Y-41402520D02*
X-15523809Y-41450139D01*
X-15523809Y-41450139D02*
X-15761904Y-41450139D01*
X-14190476Y-41450139D02*
X-14523809Y-40973948D01*
X-14761904Y-41450139D02*
X-14761904Y-40450139D01*
X-14761904Y-40450139D02*
X-14380952Y-40450139D01*
X-14380952Y-40450139D02*
X-14285714Y-40497758D01*
X-14285714Y-40497758D02*
X-14238095Y-40545377D01*
X-14238095Y-40545377D02*
X-14190476Y-40640615D01*
X-14190476Y-40640615D02*
X-14190476Y-40783472D01*
X-14190476Y-40783472D02*
X-14238095Y-40878710D01*
X-14238095Y-40878710D02*
X-14285714Y-40926329D01*
X-14285714Y-40926329D02*
X-14380952Y-40973948D01*
X-14380952Y-40973948D02*
X-14761904Y-40973948D01*
X-13761904Y-41450139D02*
X-13761904Y-40450139D01*
X-13428571Y-40450139D02*
X-13095238Y-41450139D01*
X-13095238Y-41450139D02*
X-12761905Y-40450139D01*
X-12428571Y-40926329D02*
X-12095238Y-40926329D01*
X-11952381Y-41450139D02*
X-12428571Y-41450139D01*
X-12428571Y-41450139D02*
X-12428571Y-40450139D01*
X-12428571Y-40450139D02*
X-11952381Y-40450139D01*
D11*
X1750000Y-31250000D02*
X1750000Y-24000000D01*
X6500000Y-30250000D02*
X6500000Y-30000000D01*
X-3000000Y-30250000D02*
X-3000000Y-24000000D01*
X-2000000Y-31250000D02*
X5500000Y-31250000D01*
X-3000000Y-24000000D02*
X-3000000Y-21750000D01*
X6500000Y-24000000D02*
X6500000Y-21750000D01*
X-3000000Y-24000000D02*
X6500000Y-24000000D01*
D14*
X3011905Y-22449619D02*
X3630952Y-22449619D01*
X3630952Y-22449619D02*
X3297619Y-22830571D01*
X3297619Y-22830571D02*
X3440476Y-22830571D01*
X3440476Y-22830571D02*
X3535714Y-22878190D01*
X3535714Y-22878190D02*
X3583333Y-22925809D01*
X3583333Y-22925809D02*
X3630952Y-23021047D01*
X3630952Y-23021047D02*
X3630952Y-23259142D01*
X3630952Y-23259142D02*
X3583333Y-23354380D01*
X3583333Y-23354380D02*
X3535714Y-23402000D01*
X3535714Y-23402000D02*
X3440476Y-23449619D01*
X3440476Y-23449619D02*
X3154762Y-23449619D01*
X3154762Y-23449619D02*
X3059524Y-23402000D01*
X3059524Y-23402000D02*
X3011905Y-23354380D01*
X3916667Y-22449619D02*
X4250000Y-23449619D01*
X4250000Y-23449619D02*
X4583333Y-22449619D01*
X4821429Y-22449619D02*
X5440476Y-22449619D01*
X5440476Y-22449619D02*
X5107143Y-22830571D01*
X5107143Y-22830571D02*
X5250000Y-22830571D01*
X5250000Y-22830571D02*
X5345238Y-22878190D01*
X5345238Y-22878190D02*
X5392857Y-22925809D01*
X5392857Y-22925809D02*
X5440476Y-23021047D01*
X5440476Y-23021047D02*
X5440476Y-23259142D01*
X5440476Y-23259142D02*
X5392857Y-23354380D01*
X5392857Y-23354380D02*
X5345238Y-23402000D01*
X5345238Y-23402000D02*
X5250000Y-23449619D01*
X5250000Y-23449619D02*
X4964286Y-23449619D01*
X4964286Y-23449619D02*
X4869048Y-23402000D01*
X4869048Y-23402000D02*
X4821429Y-23354380D01*
D11*
X1750000Y-24000000D02*
X1750000Y-21750000D01*
D14*
X-690476Y-22449619D02*
X-1166666Y-22449619D01*
X-1166666Y-22449619D02*
X-1214285Y-22925809D01*
X-1214285Y-22925809D02*
X-1166666Y-22878190D01*
X-1166666Y-22878190D02*
X-1071428Y-22830571D01*
X-1071428Y-22830571D02*
X-833333Y-22830571D01*
X-833333Y-22830571D02*
X-738095Y-22878190D01*
X-738095Y-22878190D02*
X-690476Y-22925809D01*
X-690476Y-22925809D02*
X-642857Y-23021047D01*
X-642857Y-23021047D02*
X-642857Y-23259142D01*
X-642857Y-23259142D02*
X-690476Y-23354380D01*
X-690476Y-23354380D02*
X-738095Y-23402000D01*
X-738095Y-23402000D02*
X-833333Y-23449619D01*
X-833333Y-23449619D02*
X-1071428Y-23449619D01*
X-1071428Y-23449619D02*
X-1166666Y-23402000D01*
X-1166666Y-23402000D02*
X-1214285Y-23354380D01*
X-357142Y-22449619D02*
X-23809Y-23449619D01*
X-23809Y-23449619D02*
X309523Y-22449619D01*
D11*
X13500000Y-28000000D02*
X13500000Y-21750000D01*
X6500000Y-21750000D02*
X6500000Y-18500000D01*
X13500000Y-21750000D02*
X13500000Y-19500000D01*
X-3000000Y-21750000D02*
X-3000000Y-19500000D01*
X-2000000Y-18500000D02*
X12500000Y-18500000D01*
X-3000000Y-21750000D02*
X13500000Y-21750000D01*
D15*
X-1021428Y-20789542D02*
X-1021428Y-19589542D01*
X-1021428Y-19589542D02*
X-564285Y-19589542D01*
X-564285Y-19589542D02*
X-450000Y-19646685D01*
X-450000Y-19646685D02*
X-392857Y-19703828D01*
X-392857Y-19703828D02*
X-335714Y-19818114D01*
X-335714Y-19818114D02*
X-335714Y-19989542D01*
X-335714Y-19989542D02*
X-392857Y-20103828D01*
X-392857Y-20103828D02*
X-450000Y-20160971D01*
X-450000Y-20160971D02*
X-564285Y-20218114D01*
X-564285Y-20218114D02*
X-1021428Y-20218114D01*
X407142Y-19589542D02*
X635714Y-19589542D01*
X635714Y-19589542D02*
X749999Y-19646685D01*
X749999Y-19646685D02*
X864285Y-19760971D01*
X864285Y-19760971D02*
X921428Y-19989542D01*
X921428Y-19989542D02*
X921428Y-20389542D01*
X921428Y-20389542D02*
X864285Y-20618114D01*
X864285Y-20618114D02*
X749999Y-20732400D01*
X749999Y-20732400D02*
X635714Y-20789542D01*
X635714Y-20789542D02*
X407142Y-20789542D01*
X407142Y-20789542D02*
X292856Y-20732400D01*
X292856Y-20732400D02*
X178571Y-20618114D01*
X178571Y-20618114D02*
X121428Y-20389542D01*
X121428Y-20389542D02*
X121428Y-19989542D01*
X121428Y-19989542D02*
X178571Y-19760971D01*
X178571Y-19760971D02*
X292856Y-19646685D01*
X292856Y-19646685D02*
X407142Y-19589542D01*
X1321428Y-19589542D02*
X1607142Y-20789542D01*
X1607142Y-20789542D02*
X1835714Y-19932400D01*
X1835714Y-19932400D02*
X2064285Y-20789542D01*
X2064285Y-20789542D02*
X2350000Y-19589542D01*
X2807143Y-20160971D02*
X3207143Y-20160971D01*
X3378571Y-20789542D02*
X2807143Y-20789542D01*
X2807143Y-20789542D02*
X2807143Y-19589542D01*
X2807143Y-19589542D02*
X3378571Y-19589542D01*
X4578571Y-20789542D02*
X4178571Y-20218114D01*
X3892857Y-20789542D02*
X3892857Y-19589542D01*
X3892857Y-19589542D02*
X4350000Y-19589542D01*
X4350000Y-19589542D02*
X4464285Y-19646685D01*
X4464285Y-19646685D02*
X4521428Y-19703828D01*
X4521428Y-19703828D02*
X4578571Y-19818114D01*
X4578571Y-19818114D02*
X4578571Y-19989542D01*
X4578571Y-19989542D02*
X4521428Y-20103828D01*
X4521428Y-20103828D02*
X4464285Y-20160971D01*
X4464285Y-20160971D02*
X4350000Y-20218114D01*
X4350000Y-20218114D02*
X3892857Y-20218114D01*
X7314286Y-20789542D02*
X7314286Y-19589542D01*
X7314286Y-19589542D02*
X7600000Y-19589542D01*
X7600000Y-19589542D02*
X7771429Y-19646685D01*
X7771429Y-19646685D02*
X7885714Y-19760971D01*
X7885714Y-19760971D02*
X7942857Y-19875257D01*
X7942857Y-19875257D02*
X8000000Y-20103828D01*
X8000000Y-20103828D02*
X8000000Y-20275257D01*
X8000000Y-20275257D02*
X7942857Y-20503828D01*
X7942857Y-20503828D02*
X7885714Y-20618114D01*
X7885714Y-20618114D02*
X7771429Y-20732400D01*
X7771429Y-20732400D02*
X7600000Y-20789542D01*
X7600000Y-20789542D02*
X7314286Y-20789542D01*
X8514286Y-20160971D02*
X8914286Y-20160971D01*
X9085714Y-20789542D02*
X8514286Y-20789542D01*
X8514286Y-20789542D02*
X8514286Y-19589542D01*
X8514286Y-19589542D02*
X9085714Y-19589542D01*
X10000000Y-20160971D02*
X10171428Y-20218114D01*
X10171428Y-20218114D02*
X10228571Y-20275257D01*
X10228571Y-20275257D02*
X10285714Y-20389542D01*
X10285714Y-20389542D02*
X10285714Y-20560971D01*
X10285714Y-20560971D02*
X10228571Y-20675257D01*
X10228571Y-20675257D02*
X10171428Y-20732400D01*
X10171428Y-20732400D02*
X10057143Y-20789542D01*
X10057143Y-20789542D02*
X9600000Y-20789542D01*
X9600000Y-20789542D02*
X9600000Y-19589542D01*
X9600000Y-19589542D02*
X10000000Y-19589542D01*
X10000000Y-19589542D02*
X10114286Y-19646685D01*
X10114286Y-19646685D02*
X10171428Y-19703828D01*
X10171428Y-19703828D02*
X10228571Y-19818114D01*
X10228571Y-19818114D02*
X10228571Y-19932400D01*
X10228571Y-19932400D02*
X10171428Y-20046685D01*
X10171428Y-20046685D02*
X10114286Y-20103828D01*
X10114286Y-20103828D02*
X10000000Y-20160971D01*
X10000000Y-20160971D02*
X9600000Y-20160971D01*
X10800000Y-19589542D02*
X10800000Y-20560971D01*
X10800000Y-20560971D02*
X10857143Y-20675257D01*
X10857143Y-20675257D02*
X10914286Y-20732400D01*
X10914286Y-20732400D02*
X11028571Y-20789542D01*
X11028571Y-20789542D02*
X11257143Y-20789542D01*
X11257143Y-20789542D02*
X11371428Y-20732400D01*
X11371428Y-20732400D02*
X11428571Y-20675257D01*
X11428571Y-20675257D02*
X11485714Y-20560971D01*
X11485714Y-20560971D02*
X11485714Y-19589542D01*
X12685714Y-19646685D02*
X12571429Y-19589542D01*
X12571429Y-19589542D02*
X12400000Y-19589542D01*
X12400000Y-19589542D02*
X12228571Y-19646685D01*
X12228571Y-19646685D02*
X12114286Y-19760971D01*
X12114286Y-19760971D02*
X12057143Y-19875257D01*
X12057143Y-19875257D02*
X12000000Y-20103828D01*
X12000000Y-20103828D02*
X12000000Y-20275257D01*
X12000000Y-20275257D02*
X12057143Y-20503828D01*
X12057143Y-20503828D02*
X12114286Y-20618114D01*
X12114286Y-20618114D02*
X12228571Y-20732400D01*
X12228571Y-20732400D02*
X12400000Y-20789542D01*
X12400000Y-20789542D02*
X12514286Y-20789542D01*
X12514286Y-20789542D02*
X12685714Y-20732400D01*
X12685714Y-20732400D02*
X12742857Y-20675257D01*
X12742857Y-20675257D02*
X12742857Y-20275257D01*
X12742857Y-20275257D02*
X12514286Y-20275257D01*
D10*
X10806752Y869047D02*
X10806752Y602381D01*
X10387704Y488095D02*
X10387704Y869047D01*
X10387704Y869047D02*
X11187704Y869047D01*
X11187704Y869047D02*
X11187704Y488095D01*
X10425800Y183333D02*
X10387704Y69047D01*
X10387704Y69047D02*
X10387704Y-121428D01*
X10387704Y-121428D02*
X10425800Y-197619D01*
X10425800Y-197619D02*
X10463895Y-235714D01*
X10463895Y-235714D02*
X10540085Y-273809D01*
X10540085Y-273809D02*
X10616276Y-273809D01*
X10616276Y-273809D02*
X10692466Y-235714D01*
X10692466Y-235714D02*
X10730561Y-197619D01*
X10730561Y-197619D02*
X10768657Y-121428D01*
X10768657Y-121428D02*
X10806752Y30952D01*
X10806752Y30952D02*
X10844847Y107142D01*
X10844847Y107142D02*
X10882942Y145237D01*
X10882942Y145237D02*
X10959133Y183333D01*
X10959133Y183333D02*
X11035323Y183333D01*
X11035323Y183333D02*
X11111514Y145237D01*
X11111514Y145237D02*
X11149609Y107142D01*
X11149609Y107142D02*
X11187704Y30952D01*
X11187704Y30952D02*
X11187704Y-159524D01*
X11187704Y-159524D02*
X11149609Y-273809D01*
X10387704Y-616667D02*
X11187704Y-616667D01*
X11187704Y-616667D02*
X11187704Y-921429D01*
X11187704Y-921429D02*
X11149609Y-997619D01*
X11149609Y-997619D02*
X11111514Y-1035714D01*
X11111514Y-1035714D02*
X11035323Y-1073810D01*
X11035323Y-1073810D02*
X10921038Y-1073810D01*
X10921038Y-1073810D02*
X10844847Y-1035714D01*
X10844847Y-1035714D02*
X10806752Y-997619D01*
X10806752Y-997619D02*
X10768657Y-921429D01*
X10768657Y-921429D02*
X10768657Y-616667D01*
X11187704Y-1340476D02*
X11187704Y-1835714D01*
X11187704Y-1835714D02*
X10882942Y-1569048D01*
X10882942Y-1569048D02*
X10882942Y-1683333D01*
X10882942Y-1683333D02*
X10844847Y-1759524D01*
X10844847Y-1759524D02*
X10806752Y-1797619D01*
X10806752Y-1797619D02*
X10730561Y-1835714D01*
X10730561Y-1835714D02*
X10540085Y-1835714D01*
X10540085Y-1835714D02*
X10463895Y-1797619D01*
X10463895Y-1797619D02*
X10425800Y-1759524D01*
X10425800Y-1759524D02*
X10387704Y-1683333D01*
X10387704Y-1683333D02*
X10387704Y-1454762D01*
X10387704Y-1454762D02*
X10425800Y-1378571D01*
X10425800Y-1378571D02*
X10463895Y-1340476D01*
X11111514Y-2140476D02*
X11149609Y-2178572D01*
X11149609Y-2178572D02*
X11187704Y-2254762D01*
X11187704Y-2254762D02*
X11187704Y-2445238D01*
X11187704Y-2445238D02*
X11149609Y-2521429D01*
X11149609Y-2521429D02*
X11111514Y-2559524D01*
X11111514Y-2559524D02*
X11035323Y-2597619D01*
X11035323Y-2597619D02*
X10959133Y-2597619D01*
X10959133Y-2597619D02*
X10844847Y-2559524D01*
X10844847Y-2559524D02*
X10387704Y-2102381D01*
X10387704Y-2102381D02*
X10387704Y-2597619D01*
X10692466Y-2940477D02*
X10692466Y-3550001D01*
X10425800Y-3892857D02*
X10387704Y-4007143D01*
X10387704Y-4007143D02*
X10387704Y-4197619D01*
X10387704Y-4197619D02*
X10425800Y-4273810D01*
X10425800Y-4273810D02*
X10463895Y-4311905D01*
X10463895Y-4311905D02*
X10540085Y-4350000D01*
X10540085Y-4350000D02*
X10616276Y-4350000D01*
X10616276Y-4350000D02*
X10692466Y-4311905D01*
X10692466Y-4311905D02*
X10730561Y-4273810D01*
X10730561Y-4273810D02*
X10768657Y-4197619D01*
X10768657Y-4197619D02*
X10806752Y-4045238D01*
X10806752Y-4045238D02*
X10844847Y-3969048D01*
X10844847Y-3969048D02*
X10882942Y-3930953D01*
X10882942Y-3930953D02*
X10959133Y-3892857D01*
X10959133Y-3892857D02*
X11035323Y-3892857D01*
X11035323Y-3892857D02*
X11111514Y-3930953D01*
X11111514Y-3930953D02*
X11149609Y-3969048D01*
X11149609Y-3969048D02*
X11187704Y-4045238D01*
X11187704Y-4045238D02*
X11187704Y-4235715D01*
X11187704Y-4235715D02*
X11149609Y-4350000D01*
X11187704Y-4616667D02*
X11187704Y-5111905D01*
X11187704Y-5111905D02*
X10882942Y-4845239D01*
X10882942Y-4845239D02*
X10882942Y-4959524D01*
X10882942Y-4959524D02*
X10844847Y-5035715D01*
X10844847Y-5035715D02*
X10806752Y-5073810D01*
X10806752Y-5073810D02*
X10730561Y-5111905D01*
X10730561Y-5111905D02*
X10540085Y-5111905D01*
X10540085Y-5111905D02*
X10463895Y-5073810D01*
X10463895Y-5073810D02*
X10425800Y-5035715D01*
X10425800Y-5035715D02*
X10387704Y-4959524D01*
X10387704Y-4959524D02*
X10387704Y-4730953D01*
X10387704Y-4730953D02*
X10425800Y-4654762D01*
X10425800Y-4654762D02*
X10463895Y-4616667D01*
X10692466Y-5454763D02*
X10692466Y-6064287D01*
X11187704Y-6369048D02*
X10387704Y-6559524D01*
X10387704Y-6559524D02*
X10959133Y-6711905D01*
X10959133Y-6711905D02*
X10387704Y-6864286D01*
X10387704Y-6864286D02*
X11187704Y-7054763D01*
X10387704Y-7816668D02*
X10768657Y-7550001D01*
X10387704Y-7359525D02*
X11187704Y-7359525D01*
X11187704Y-7359525D02*
X11187704Y-7664287D01*
X11187704Y-7664287D02*
X11149609Y-7740477D01*
X11149609Y-7740477D02*
X11111514Y-7778572D01*
X11111514Y-7778572D02*
X11035323Y-7816668D01*
X11035323Y-7816668D02*
X10921038Y-7816668D01*
X10921038Y-7816668D02*
X10844847Y-7778572D01*
X10844847Y-7778572D02*
X10806752Y-7740477D01*
X10806752Y-7740477D02*
X10768657Y-7664287D01*
X10768657Y-7664287D02*
X10768657Y-7359525D01*
X11187704Y-8311906D02*
X11187704Y-8464287D01*
X11187704Y-8464287D02*
X11149609Y-8540477D01*
X11149609Y-8540477D02*
X11073419Y-8616668D01*
X11073419Y-8616668D02*
X10921038Y-8654763D01*
X10921038Y-8654763D02*
X10654371Y-8654763D01*
X10654371Y-8654763D02*
X10501990Y-8616668D01*
X10501990Y-8616668D02*
X10425800Y-8540477D01*
X10425800Y-8540477D02*
X10387704Y-8464287D01*
X10387704Y-8464287D02*
X10387704Y-8311906D01*
X10387704Y-8311906D02*
X10425800Y-8235715D01*
X10425800Y-8235715D02*
X10501990Y-8159525D01*
X10501990Y-8159525D02*
X10654371Y-8121429D01*
X10654371Y-8121429D02*
X10921038Y-8121429D01*
X10921038Y-8121429D02*
X11073419Y-8159525D01*
X11073419Y-8159525D02*
X11149609Y-8235715D01*
X11149609Y-8235715D02*
X11187704Y-8311906D01*
X11187704Y-9150001D02*
X11187704Y-9302382D01*
X11187704Y-9302382D02*
X11149609Y-9378572D01*
X11149609Y-9378572D02*
X11073419Y-9454763D01*
X11073419Y-9454763D02*
X10921038Y-9492858D01*
X10921038Y-9492858D02*
X10654371Y-9492858D01*
X10654371Y-9492858D02*
X10501990Y-9454763D01*
X10501990Y-9454763D02*
X10425800Y-9378572D01*
X10425800Y-9378572D02*
X10387704Y-9302382D01*
X10387704Y-9302382D02*
X10387704Y-9150001D01*
X10387704Y-9150001D02*
X10425800Y-9073810D01*
X10425800Y-9073810D02*
X10501990Y-8997620D01*
X10501990Y-8997620D02*
X10654371Y-8959524D01*
X10654371Y-8959524D02*
X10921038Y-8959524D01*
X10921038Y-8959524D02*
X11073419Y-8997620D01*
X11073419Y-8997620D02*
X11149609Y-9073810D01*
X11149609Y-9073810D02*
X11187704Y-9150001D01*
X10387704Y-9835715D02*
X11187704Y-9835715D01*
X11187704Y-9835715D02*
X10616276Y-10102381D01*
X10616276Y-10102381D02*
X11187704Y-10369048D01*
X11187704Y-10369048D02*
X10387704Y-10369048D01*
D15*
X-19742856Y-4539542D02*
X-20142856Y-3968114D01*
X-20428570Y-4539542D02*
X-20428570Y-3339542D01*
X-20428570Y-3339542D02*
X-19971427Y-3339542D01*
X-19971427Y-3339542D02*
X-19857142Y-3396685D01*
X-19857142Y-3396685D02*
X-19799999Y-3453828D01*
X-19799999Y-3453828D02*
X-19742856Y-3568114D01*
X-19742856Y-3568114D02*
X-19742856Y-3739542D01*
X-19742856Y-3739542D02*
X-19799999Y-3853828D01*
X-19799999Y-3853828D02*
X-19857142Y-3910971D01*
X-19857142Y-3910971D02*
X-19971427Y-3968114D01*
X-19971427Y-3968114D02*
X-20428570Y-3968114D01*
X-19228570Y-3910971D02*
X-18828570Y-3910971D01*
X-18657142Y-4539542D02*
X-19228570Y-4539542D01*
X-19228570Y-4539542D02*
X-19228570Y-3339542D01*
X-19228570Y-3339542D02*
X-18657142Y-3339542D01*
X-18199999Y-4482400D02*
X-18028571Y-4539542D01*
X-18028571Y-4539542D02*
X-17742856Y-4539542D01*
X-17742856Y-4539542D02*
X-17628571Y-4482400D01*
X-17628571Y-4482400D02*
X-17571428Y-4425257D01*
X-17571428Y-4425257D02*
X-17514285Y-4310971D01*
X-17514285Y-4310971D02*
X-17514285Y-4196685D01*
X-17514285Y-4196685D02*
X-17571428Y-4082400D01*
X-17571428Y-4082400D02*
X-17628571Y-4025257D01*
X-17628571Y-4025257D02*
X-17742856Y-3968114D01*
X-17742856Y-3968114D02*
X-17971428Y-3910971D01*
X-17971428Y-3910971D02*
X-18085713Y-3853828D01*
X-18085713Y-3853828D02*
X-18142856Y-3796685D01*
X-18142856Y-3796685D02*
X-18199999Y-3682400D01*
X-18199999Y-3682400D02*
X-18199999Y-3568114D01*
X-18199999Y-3568114D02*
X-18142856Y-3453828D01*
X-18142856Y-3453828D02*
X-18085713Y-3396685D01*
X-18085713Y-3396685D02*
X-17971428Y-3339542D01*
X-17971428Y-3339542D02*
X-17685713Y-3339542D01*
X-17685713Y-3339542D02*
X-17514285Y-3396685D01*
X-16999999Y-3910971D02*
X-16599999Y-3910971D01*
X-16428571Y-4539542D02*
X-16999999Y-4539542D01*
X-16999999Y-4539542D02*
X-16999999Y-3339542D01*
X-16999999Y-3339542D02*
X-16428571Y-3339542D01*
X-16085714Y-3339542D02*
X-15400000Y-3339542D01*
X-15742857Y-4539542D02*
X-15742857Y-3339542D01*
X22839542Y-15414285D02*
X23810971Y-15414285D01*
X23810971Y-15414285D02*
X23925257Y-15357142D01*
X23925257Y-15357142D02*
X23982400Y-15300000D01*
X23982400Y-15300000D02*
X24039542Y-15185714D01*
X24039542Y-15185714D02*
X24039542Y-14957142D01*
X24039542Y-14957142D02*
X23982400Y-14842857D01*
X23982400Y-14842857D02*
X23925257Y-14785714D01*
X23925257Y-14785714D02*
X23810971Y-14728571D01*
X23810971Y-14728571D02*
X22839542Y-14728571D01*
X23696685Y-14214285D02*
X23696685Y-13642857D01*
X24039542Y-14328571D02*
X22839542Y-13928571D01*
X22839542Y-13928571D02*
X24039542Y-13528571D01*
X24039542Y-12442857D02*
X23468114Y-12842857D01*
X24039542Y-13128571D02*
X22839542Y-13128571D01*
X22839542Y-13128571D02*
X22839542Y-12671428D01*
X22839542Y-12671428D02*
X22896685Y-12557143D01*
X22896685Y-12557143D02*
X22953828Y-12500000D01*
X22953828Y-12500000D02*
X23068114Y-12442857D01*
X23068114Y-12442857D02*
X23239542Y-12442857D01*
X23239542Y-12442857D02*
X23353828Y-12500000D01*
X23353828Y-12500000D02*
X23410971Y-12557143D01*
X23410971Y-12557143D02*
X23468114Y-12671428D01*
X23468114Y-12671428D02*
X23468114Y-13128571D01*
X22839542Y-12100000D02*
X22839542Y-11414286D01*
X24039542Y-11757143D02*
X22839542Y-11757143D01*
X23410971Y-29628571D02*
X23468114Y-29457143D01*
X23468114Y-29457143D02*
X23525257Y-29400000D01*
X23525257Y-29400000D02*
X23639542Y-29342857D01*
X23639542Y-29342857D02*
X23810971Y-29342857D01*
X23810971Y-29342857D02*
X23925257Y-29400000D01*
X23925257Y-29400000D02*
X23982400Y-29457143D01*
X23982400Y-29457143D02*
X24039542Y-29571428D01*
X24039542Y-29571428D02*
X24039542Y-30028571D01*
X24039542Y-30028571D02*
X22839542Y-30028571D01*
X22839542Y-30028571D02*
X22839542Y-29628571D01*
X22839542Y-29628571D02*
X22896685Y-29514286D01*
X22896685Y-29514286D02*
X22953828Y-29457143D01*
X22953828Y-29457143D02*
X23068114Y-29400000D01*
X23068114Y-29400000D02*
X23182400Y-29400000D01*
X23182400Y-29400000D02*
X23296685Y-29457143D01*
X23296685Y-29457143D02*
X23353828Y-29514286D01*
X23353828Y-29514286D02*
X23410971Y-29628571D01*
X23410971Y-29628571D02*
X23410971Y-30028571D01*
X22839542Y-28600000D02*
X22839542Y-28371428D01*
X22839542Y-28371428D02*
X22896685Y-28257143D01*
X22896685Y-28257143D02*
X23010971Y-28142857D01*
X23010971Y-28142857D02*
X23239542Y-28085714D01*
X23239542Y-28085714D02*
X23639542Y-28085714D01*
X23639542Y-28085714D02*
X23868114Y-28142857D01*
X23868114Y-28142857D02*
X23982400Y-28257143D01*
X23982400Y-28257143D02*
X24039542Y-28371428D01*
X24039542Y-28371428D02*
X24039542Y-28600000D01*
X24039542Y-28600000D02*
X23982400Y-28714286D01*
X23982400Y-28714286D02*
X23868114Y-28828571D01*
X23868114Y-28828571D02*
X23639542Y-28885714D01*
X23639542Y-28885714D02*
X23239542Y-28885714D01*
X23239542Y-28885714D02*
X23010971Y-28828571D01*
X23010971Y-28828571D02*
X22896685Y-28714286D01*
X22896685Y-28714286D02*
X22839542Y-28600000D01*
X22839542Y-27342857D02*
X22839542Y-27114285D01*
X22839542Y-27114285D02*
X22896685Y-27000000D01*
X22896685Y-27000000D02*
X23010971Y-26885714D01*
X23010971Y-26885714D02*
X23239542Y-26828571D01*
X23239542Y-26828571D02*
X23639542Y-26828571D01*
X23639542Y-26828571D02*
X23868114Y-26885714D01*
X23868114Y-26885714D02*
X23982400Y-27000000D01*
X23982400Y-27000000D02*
X24039542Y-27114285D01*
X24039542Y-27114285D02*
X24039542Y-27342857D01*
X24039542Y-27342857D02*
X23982400Y-27457143D01*
X23982400Y-27457143D02*
X23868114Y-27571428D01*
X23868114Y-27571428D02*
X23639542Y-27628571D01*
X23639542Y-27628571D02*
X23239542Y-27628571D01*
X23239542Y-27628571D02*
X23010971Y-27571428D01*
X23010971Y-27571428D02*
X22896685Y-27457143D01*
X22896685Y-27457143D02*
X22839542Y-27342857D01*
X22839542Y-26485714D02*
X22839542Y-25800000D01*
X24039542Y-26142857D02*
X22839542Y-26142857D01*
D16*
X24500000Y4000000D02*
G75*
G02*
X20500000Y4000000I-2000000J0D01*
G01*
X20500000Y4000000D02*
G75*
G02*
X24500000Y4000000I2000000J0D01*
G01*
X-20500000Y4000000D02*
G75*
G02*
X-24500000Y4000000I-2000000J0D01*
G01*
X-24500000Y4000000D02*
G75*
G02*
X-20500000Y4000000I2000000J0D01*
G01*
X24500000Y-41000000D02*
G75*
G02*
X20500000Y-41000000I-2000000J0D01*
G01*
X20500000Y-41000000D02*
G75*
G02*
X24500000Y-41000000I2000000J0D01*
G01*
X-20500000Y-41000000D02*
G75*
G02*
X-24500000Y-41000000I-2000000J0D01*
G01*
X-24500000Y-41000000D02*
G75*
G02*
X-20500000Y-41000000I2000000J0D01*
G01*
D14*
%TO.C,J1*%
X-21300000Y-15320000D02*
X-19400000Y-15320000D01*
X-24970000Y-15250000D02*
X-24970000Y-6250000D01*
X-24935000Y-15250000D02*
X-23465000Y-15250000D01*
X-24970000Y-6250000D02*
X-23500000Y-6250000D01*
X-21300000Y-6250000D02*
X-19400000Y-6250000D01*
D10*
%TO.C,D1*%
X-13570000Y-15620000D02*
X-13750000Y-15620000D01*
X-15430000Y-15620000D02*
X-15250000Y-15620000D01*
X-15430000Y-17970000D02*
X-13570000Y-17970000D01*
X-13570000Y-18380000D02*
X-13570000Y-15620000D01*
X-15430000Y-18380000D02*
X-15430000Y-15620000D01*
D17*
%TO.C,G\u002A\u002A\u002A*%
G36*
X-18489062Y-26569482D02*
G01*
X-18440557Y-26570338D01*
X-18396872Y-26571517D01*
X-18356580Y-26573101D01*
X-18318256Y-26575172D01*
X-18280472Y-26577813D01*
X-18241804Y-26581107D01*
X-18200824Y-26585135D01*
X-18179649Y-26587383D01*
X-18039189Y-26605703D01*
X-17900404Y-26630027D01*
X-17763412Y-26660309D01*
X-17628329Y-26696498D01*
X-17495274Y-26738547D01*
X-17364363Y-26786406D01*
X-17235714Y-26840028D01*
X-17109446Y-26899363D01*
X-16985674Y-26964364D01*
X-16864517Y-27034981D01*
X-16746093Y-27111166D01*
X-16630518Y-27192871D01*
X-16532571Y-27268251D01*
X-16502077Y-27292989D01*
X-16471470Y-27318473D01*
X-16441289Y-27344212D01*
X-16412072Y-27369715D01*
X-16384358Y-27394492D01*
X-16358687Y-27418054D01*
X-16335596Y-27439909D01*
X-16315626Y-27459567D01*
X-16299314Y-27476540D01*
X-16287200Y-27490335D01*
X-16283980Y-27494416D01*
X-16261623Y-27528786D01*
X-16244855Y-27564997D01*
X-16233548Y-27602485D01*
X-16227574Y-27640689D01*
X-16226803Y-27679048D01*
X-16231108Y-27716999D01*
X-16240361Y-27753980D01*
X-16254431Y-27789431D01*
X-16273192Y-27822788D01*
X-16296514Y-27853491D01*
X-16324270Y-27880976D01*
X-16356330Y-27904684D01*
X-16380990Y-27918593D01*
X-16415859Y-27933766D01*
X-16449872Y-27943726D01*
X-16484846Y-27948910D01*
X-16510993Y-27949931D01*
X-16550109Y-27947493D01*
X-16587041Y-27939929D01*
X-16623370Y-27926865D01*
X-16638834Y-27919644D01*
X-16652465Y-27912410D01*
X-16665511Y-27904374D01*
X-16678921Y-27894812D01*
X-16693643Y-27882997D01*
X-16710623Y-27868202D01*
X-16730809Y-27849701D01*
X-16734159Y-27846574D01*
X-16831588Y-27759544D01*
X-16931817Y-27678075D01*
X-17034790Y-27602193D01*
X-17140449Y-27531926D01*
X-17248739Y-27467300D01*
X-17359603Y-27408341D01*
X-17472983Y-27355076D01*
X-17588825Y-27307531D01*
X-17707070Y-27265734D01*
X-17827663Y-27229710D01*
X-17950547Y-27199486D01*
X-18075666Y-27175088D01*
X-18202962Y-27156544D01*
X-18204652Y-27156339D01*
X-18237594Y-27152457D01*
X-18267494Y-27149194D01*
X-18295345Y-27146498D01*
X-18322137Y-27144316D01*
X-18348863Y-27142596D01*
X-18376515Y-27141287D01*
X-18406084Y-27140336D01*
X-18438563Y-27139690D01*
X-18474942Y-27139298D01*
X-18516215Y-27139108D01*
X-18532817Y-27139078D01*
X-18573735Y-27139084D01*
X-18609364Y-27139236D01*
X-18640664Y-27139573D01*
X-18668596Y-27140137D01*
X-18694120Y-27140967D01*
X-18718197Y-27142105D01*
X-18741788Y-27143592D01*
X-18765852Y-27145467D01*
X-18791352Y-27147772D01*
X-18819246Y-27150546D01*
X-18829729Y-27151633D01*
X-18957091Y-27168025D01*
X-19082486Y-27190337D01*
X-19205829Y-27218533D01*
X-19327037Y-27252573D01*
X-19446028Y-27292419D01*
X-19562718Y-27338033D01*
X-19677023Y-27389376D01*
X-19788861Y-27446410D01*
X-19898149Y-27509096D01*
X-20004803Y-27577397D01*
X-20108741Y-27651274D01*
X-20209878Y-27730687D01*
X-20308132Y-27815600D01*
X-20348497Y-27852873D01*
X-20373412Y-27875484D01*
X-20395792Y-27893774D01*
X-20416798Y-27908468D01*
X-20437587Y-27920291D01*
X-20459318Y-27929967D01*
X-20483150Y-27938219D01*
X-20486818Y-27939332D01*
X-20500426Y-27943043D01*
X-20513173Y-27945575D01*
X-20527034Y-27947187D01*
X-20543980Y-27948138D01*
X-20556504Y-27948500D01*
X-20572793Y-27948750D01*
X-20587405Y-27948752D01*
X-20598903Y-27948522D01*
X-20605850Y-27948075D01*
X-20606510Y-27947972D01*
X-20641615Y-27939772D01*
X-20672711Y-27929022D01*
X-20701788Y-27914932D01*
X-20724124Y-27901263D01*
X-20755966Y-27876436D01*
X-20784008Y-27846981D01*
X-20807804Y-27813549D01*
X-20826903Y-27776790D01*
X-20840857Y-27737354D01*
X-20843008Y-27729134D01*
X-20846482Y-27708989D01*
X-20848305Y-27684910D01*
X-20848504Y-27658987D01*
X-20847106Y-27633306D01*
X-20844136Y-27609957D01*
X-20841309Y-27596763D01*
X-20832606Y-27570117D01*
X-20820592Y-27542340D01*
X-20806454Y-27515894D01*
X-20791428Y-27493301D01*
X-20783727Y-27484220D01*
X-20771892Y-27471669D01*
X-20756544Y-27456239D01*
X-20738303Y-27438517D01*
X-20717790Y-27419092D01*
X-20695625Y-27398554D01*
X-20672430Y-27377492D01*
X-20648823Y-27356494D01*
X-20629660Y-27339792D01*
X-20521363Y-27250453D01*
X-20409535Y-27166217D01*
X-20294363Y-27087166D01*
X-20176033Y-27013385D01*
X-20054732Y-26944956D01*
X-19930649Y-26881964D01*
X-19803969Y-26824492D01*
X-19674881Y-26772624D01*
X-19543570Y-26726443D01*
X-19410225Y-26686032D01*
X-19275032Y-26651476D01*
X-19138178Y-26622857D01*
X-18999850Y-26600260D01*
X-18962558Y-26595238D01*
X-18888326Y-26586438D01*
X-18816603Y-26579532D01*
X-18745803Y-26574433D01*
X-18674340Y-26571057D01*
X-18600628Y-26569315D01*
X-18523081Y-26569123D01*
X-18489062Y-26569482D01*
G37*
G36*
X-18525727Y-27516218D02*
G01*
X-18487411Y-27516744D01*
X-18449611Y-27517651D01*
X-18413641Y-27518917D01*
X-18380819Y-27520522D01*
X-18352459Y-27522446D01*
X-18343732Y-27523201D01*
X-18226504Y-27536799D01*
X-18112392Y-27555659D01*
X-18000943Y-27579911D01*
X-17891705Y-27609685D01*
X-17784227Y-27645110D01*
X-17678055Y-27686315D01*
X-17572737Y-27733430D01*
X-17520193Y-27759278D01*
X-17418238Y-27814076D01*
X-17320320Y-27873170D01*
X-17225815Y-27936986D01*
X-17134097Y-28005952D01*
X-17044544Y-28080493D01*
X-17026382Y-28096513D01*
X-17001401Y-28119148D01*
X-16977744Y-28141326D01*
X-16956006Y-28162450D01*
X-16936777Y-28181919D01*
X-16920653Y-28199136D01*
X-16908225Y-28213501D01*
X-16900753Y-28223403D01*
X-16879664Y-28260139D01*
X-16864273Y-28298673D01*
X-16854627Y-28338425D01*
X-16850771Y-28378817D01*
X-16852753Y-28419269D01*
X-16860618Y-28459202D01*
X-16874414Y-28498038D01*
X-16878082Y-28506026D01*
X-16898950Y-28542742D01*
X-16924450Y-28575625D01*
X-16954124Y-28604246D01*
X-16987515Y-28628178D01*
X-17024165Y-28646991D01*
X-17031745Y-28650062D01*
X-17061071Y-28659807D01*
X-17089853Y-28665728D01*
X-17120285Y-28668166D01*
X-17146480Y-28667874D01*
X-17173105Y-28666061D01*
X-17195747Y-28662790D01*
X-17216606Y-28657539D01*
X-17237879Y-28649785D01*
X-17255578Y-28641943D01*
X-17270931Y-28634431D01*
X-17284440Y-28626934D01*
X-17297172Y-28618661D01*
X-17310196Y-28608818D01*
X-17324577Y-28596611D01*
X-17341385Y-28581249D01*
X-17356208Y-28567195D01*
X-17435447Y-28495418D01*
X-17517289Y-28429307D01*
X-17601699Y-28368878D01*
X-17688640Y-28314148D01*
X-17778078Y-28265134D01*
X-17869978Y-28221851D01*
X-17964303Y-28184318D01*
X-18061018Y-28152550D01*
X-18160088Y-28126564D01*
X-18261478Y-28106378D01*
X-18365151Y-28092007D01*
X-18365609Y-28091957D01*
X-18388501Y-28089925D01*
X-18416334Y-28088203D01*
X-18447806Y-28086814D01*
X-18481615Y-28085779D01*
X-18516458Y-28085120D01*
X-18551032Y-28084860D01*
X-18584036Y-28085019D01*
X-18614165Y-28085620D01*
X-18640119Y-28086685D01*
X-18648457Y-28087204D01*
X-18751966Y-28097498D01*
X-18853755Y-28113773D01*
X-18953665Y-28135960D01*
X-19051536Y-28163988D01*
X-19147209Y-28197786D01*
X-19240525Y-28237284D01*
X-19331324Y-28282410D01*
X-19419447Y-28333095D01*
X-19504735Y-28389266D01*
X-19587029Y-28450855D01*
X-19666169Y-28517790D01*
X-19709220Y-28557745D01*
X-19724403Y-28572080D01*
X-19739544Y-28585965D01*
X-19753513Y-28598395D01*
X-19765180Y-28608363D01*
X-19772848Y-28614447D01*
X-19806406Y-28635535D01*
X-19843258Y-28652097D01*
X-19881747Y-28663425D01*
X-19892152Y-28665485D01*
X-19908716Y-28667413D01*
X-19929160Y-28668305D01*
X-19951204Y-28668194D01*
X-19972569Y-28667112D01*
X-19990975Y-28665091D01*
X-19997060Y-28664014D01*
X-20037217Y-28652677D01*
X-20074724Y-28635907D01*
X-20109145Y-28614115D01*
X-20140044Y-28587713D01*
X-20166986Y-28557113D01*
X-20189534Y-28522727D01*
X-20207254Y-28484966D01*
X-20216609Y-28456536D01*
X-20219328Y-28445365D01*
X-20221203Y-28434054D01*
X-20222374Y-28421069D01*
X-20222978Y-28404879D01*
X-20223154Y-28384360D01*
X-20223066Y-28365003D01*
X-20222659Y-28350330D01*
X-20221762Y-28338774D01*
X-20220202Y-28328769D01*
X-20217807Y-28318751D01*
X-20214801Y-28308450D01*
X-20207866Y-28287418D01*
X-20200278Y-28268281D01*
X-20191532Y-28250363D01*
X-20181122Y-28232989D01*
X-20168546Y-28215482D01*
X-20153297Y-28197169D01*
X-20134872Y-28177372D01*
X-20112766Y-28155418D01*
X-20086474Y-28130630D01*
X-20072069Y-28117390D01*
X-19989734Y-28045229D01*
X-19906767Y-27978708D01*
X-19822285Y-27917224D01*
X-19735401Y-27860170D01*
X-19645234Y-27806942D01*
X-19550897Y-27756936D01*
X-19529815Y-27746464D01*
X-19423651Y-27697469D01*
X-19316819Y-27654489D01*
X-19208942Y-27617423D01*
X-19099644Y-27586174D01*
X-18988546Y-27560643D01*
X-18875272Y-27540731D01*
X-18759445Y-27526339D01*
X-18657833Y-27518322D01*
X-18630611Y-27517123D01*
X-18598642Y-27516387D01*
X-18563242Y-27516092D01*
X-18525727Y-27516218D01*
G37*
G36*
X-18465334Y-28464549D02*
G01*
X-18387536Y-28470701D01*
X-18350437Y-28475298D01*
X-18259980Y-28491020D01*
X-18171360Y-28512647D01*
X-18084816Y-28540071D01*
X-18000584Y-28573183D01*
X-17918901Y-28611874D01*
X-17840006Y-28656036D01*
X-17764137Y-28705560D01*
X-17691529Y-28760337D01*
X-17649896Y-28795446D01*
X-17632276Y-28811381D01*
X-17613581Y-28829084D01*
X-17594644Y-28847695D01*
X-17576294Y-28866357D01*
X-17559362Y-28884211D01*
X-17544679Y-28900399D01*
X-17533077Y-28914063D01*
X-17525912Y-28923553D01*
X-17504565Y-28960296D01*
X-17489004Y-28998644D01*
X-17479183Y-29038045D01*
X-17475056Y-29077947D01*
X-17476579Y-29117797D01*
X-17483705Y-29157041D01*
X-17496389Y-29195128D01*
X-17514586Y-29231504D01*
X-17538249Y-29265617D01*
X-17555720Y-29285464D01*
X-17582237Y-29309197D01*
X-17613177Y-29330328D01*
X-17646938Y-29347924D01*
X-17681918Y-29361053D01*
X-17688964Y-29363072D01*
X-17701137Y-29366014D01*
X-17713165Y-29367998D01*
X-17726752Y-29369187D01*
X-17743605Y-29369748D01*
X-17759285Y-29369854D01*
X-17787403Y-29369150D01*
X-17811344Y-29366760D01*
X-17833050Y-29362269D01*
X-17854464Y-29355262D01*
X-17877530Y-29345323D01*
X-17880423Y-29343951D01*
X-17894229Y-29337124D01*
X-17906293Y-29330496D01*
X-17917531Y-29323364D01*
X-17928854Y-29315024D01*
X-17941176Y-29304774D01*
X-17955411Y-29291909D01*
X-17972472Y-29275726D01*
X-17985875Y-29262739D01*
X-18029002Y-29222827D01*
X-18071345Y-29188087D01*
X-18114051Y-29157744D01*
X-18158267Y-29131024D01*
X-18205141Y-29107152D01*
X-18237969Y-29092633D01*
X-18304263Y-29068115D01*
X-18371188Y-29049786D01*
X-18438543Y-29037638D01*
X-18506128Y-29031665D01*
X-18573740Y-29031859D01*
X-18641180Y-29038215D01*
X-18708245Y-29050725D01*
X-18774735Y-29069383D01*
X-18840448Y-29094182D01*
X-18884303Y-29114408D01*
X-18921271Y-29133681D01*
X-18954793Y-29153324D01*
X-18986191Y-29174290D01*
X-19016787Y-29197529D01*
X-19047902Y-29223994D01*
X-19080859Y-29254636D01*
X-19086010Y-29259620D01*
X-19111911Y-29284141D01*
X-19134872Y-29304310D01*
X-19155791Y-29320706D01*
X-19175569Y-29333910D01*
X-19195104Y-29344503D01*
X-19215295Y-29353063D01*
X-19237043Y-29360172D01*
X-19245498Y-29362506D01*
X-19266893Y-29366809D01*
X-19291597Y-29369596D01*
X-19317348Y-29370771D01*
X-19341881Y-29370237D01*
X-19362933Y-29367896D01*
X-19364607Y-29367589D01*
X-19406465Y-29356644D01*
X-19444972Y-29340439D01*
X-19480284Y-29318891D01*
X-19512553Y-29291914D01*
X-19523235Y-29281091D01*
X-19550262Y-29248192D01*
X-19571419Y-29213157D01*
X-19586745Y-29175887D01*
X-19596279Y-29136282D01*
X-19600062Y-29094243D01*
X-19600136Y-29087235D01*
X-19597555Y-29045736D01*
X-19589638Y-29006959D01*
X-19576124Y-28969980D01*
X-19557098Y-28934428D01*
X-19548915Y-28922890D01*
X-19536786Y-28908032D01*
X-19521467Y-28890645D01*
X-19503720Y-28871521D01*
X-19484301Y-28851454D01*
X-19463971Y-28831235D01*
X-19443487Y-28811658D01*
X-19423610Y-28793514D01*
X-19414643Y-28785664D01*
X-19343780Y-28728679D01*
X-19269601Y-28676973D01*
X-19192222Y-28630600D01*
X-19111758Y-28589616D01*
X-19028325Y-28554076D01*
X-18942040Y-28524034D01*
X-18853019Y-28499545D01*
X-18775035Y-28483091D01*
X-18700800Y-28472037D01*
X-18623450Y-28465244D01*
X-18544467Y-28462739D01*
X-18465334Y-28464549D01*
G37*
G36*
X-18499090Y-29447337D02*
G01*
X-18456924Y-29455044D01*
X-18416234Y-29467924D01*
X-18377494Y-29485710D01*
X-18341176Y-29508136D01*
X-18307755Y-29534935D01*
X-18277705Y-29565842D01*
X-18251500Y-29600591D01*
X-18229612Y-29638915D01*
X-18212517Y-29680548D01*
X-18208062Y-29694777D01*
X-18198546Y-29738647D01*
X-18195043Y-29783169D01*
X-18197447Y-29827714D01*
X-18205654Y-29871654D01*
X-18219557Y-29914358D01*
X-18239053Y-29955197D01*
X-18256173Y-29982630D01*
X-18269040Y-29999277D01*
X-18285512Y-30017697D01*
X-18303976Y-30036296D01*
X-18322821Y-30053481D01*
X-18340435Y-30067656D01*
X-18346474Y-30071925D01*
X-18372337Y-30087387D01*
X-18401678Y-30101699D01*
X-18431775Y-30113637D01*
X-18455379Y-30120868D01*
X-18476520Y-30125127D01*
X-18501217Y-30128233D01*
X-18527362Y-30130068D01*
X-18552845Y-30130513D01*
X-18575560Y-30129450D01*
X-18585949Y-30128204D01*
X-18630568Y-30118259D01*
X-18672664Y-30102962D01*
X-18711891Y-30082739D01*
X-18747901Y-30058012D01*
X-18780348Y-30029206D01*
X-18808884Y-29996744D01*
X-18833161Y-29961050D01*
X-18852834Y-29922548D01*
X-18867554Y-29881662D01*
X-18876975Y-29838815D01*
X-18880749Y-29794432D01*
X-18880258Y-29768905D01*
X-18874607Y-29723756D01*
X-18863004Y-29680160D01*
X-18845644Y-29638538D01*
X-18822724Y-29599312D01*
X-18794437Y-29562906D01*
X-18775818Y-29543411D01*
X-18742428Y-29514258D01*
X-18707678Y-29490715D01*
X-18670482Y-29472148D01*
X-18629758Y-29457923D01*
X-18629704Y-29457908D01*
X-18585954Y-29448502D01*
X-18542258Y-29445067D01*
X-18499090Y-29447337D01*
G37*
G36*
X-7904830Y-28103213D02*
G01*
X-7916116Y-28232058D01*
X-7937326Y-28349189D01*
X-7968656Y-28455119D01*
X-8010301Y-28550361D01*
X-8062455Y-28635428D01*
X-8125314Y-28710834D01*
X-8141909Y-28727448D01*
X-8165222Y-28748516D01*
X-8197420Y-28775590D01*
X-8234697Y-28805563D01*
X-8273244Y-28835326D01*
X-8283560Y-28843060D01*
X-8328139Y-28877115D01*
X-8361143Y-28904850D01*
X-8384200Y-28928300D01*
X-8398942Y-28949499D01*
X-8406996Y-28970481D01*
X-8409994Y-28993282D01*
X-8410152Y-29001107D01*
X-8407501Y-29024317D01*
X-8398894Y-29046844D01*
X-8383402Y-29069284D01*
X-8360098Y-29092233D01*
X-8328054Y-29116288D01*
X-8286344Y-29142043D01*
X-8234039Y-29170094D01*
X-8170212Y-29201038D01*
X-8093936Y-29235470D01*
X-8004282Y-29273987D01*
X-7950110Y-29296639D01*
X-7852906Y-29337583D01*
X-7769064Y-29374322D01*
X-7697143Y-29407653D01*
X-7635702Y-29438372D01*
X-7583299Y-29467277D01*
X-7538492Y-29495164D01*
X-7499841Y-29522830D01*
X-7465904Y-29551072D01*
X-7435239Y-29580687D01*
X-7434050Y-29581921D01*
X-7387027Y-29639530D01*
X-7354864Y-29698060D01*
X-7337393Y-29756365D01*
X-7334444Y-29813301D01*
X-7345849Y-29867721D01*
X-7371440Y-29918479D01*
X-7411046Y-29964431D01*
X-7464501Y-30004430D01*
X-7499055Y-30023147D01*
X-7544788Y-30043048D01*
X-7595573Y-30060791D01*
X-7652856Y-30076647D01*
X-7718083Y-30090885D01*
X-7792701Y-30103777D01*
X-7878155Y-30115593D01*
X-7975892Y-30126604D01*
X-8087359Y-30137081D01*
X-8125007Y-30140268D01*
X-8224600Y-30148529D01*
X-8310017Y-30155658D01*
X-8382657Y-30161787D01*
X-8443919Y-30167044D01*
X-8495203Y-30171560D01*
X-8537907Y-30175464D01*
X-8573430Y-30178885D01*
X-8603172Y-30181954D01*
X-8628532Y-30184800D01*
X-8650909Y-30187552D01*
X-8671701Y-30190341D01*
X-8683635Y-30192033D01*
X-8742221Y-30201602D01*
X-8797634Y-30212760D01*
X-8847869Y-30224914D01*
X-8890920Y-30237470D01*
X-8924784Y-30249836D01*
X-8947456Y-30261419D01*
X-8956930Y-30271624D01*
X-8957090Y-30272944D01*
X-8949707Y-30284753D01*
X-8928611Y-30299151D01*
X-8895379Y-30315511D01*
X-8851590Y-30333205D01*
X-8798820Y-30351604D01*
X-8738647Y-30370081D01*
X-8672649Y-30388007D01*
X-8660196Y-30391146D01*
X-8608174Y-30403686D01*
X-8553121Y-30416083D01*
X-8493526Y-30428616D01*
X-8427877Y-30441566D01*
X-8354664Y-30455212D01*
X-8272377Y-30469835D01*
X-8179503Y-30485713D01*
X-8074533Y-30503128D01*
X-7955955Y-30522359D01*
X-7925776Y-30527200D01*
X-7803987Y-30546835D01*
X-7696195Y-30564521D01*
X-7600931Y-30580527D01*
X-7516724Y-30595121D01*
X-7442104Y-30608572D01*
X-7375601Y-30621149D01*
X-7315745Y-30633120D01*
X-7261065Y-30644755D01*
X-7210092Y-30656322D01*
X-7179636Y-30663594D01*
X-7074167Y-30691326D01*
X-6983672Y-30719744D01*
X-6907503Y-30749270D01*
X-6845011Y-30780328D01*
X-6795548Y-30813342D01*
X-6758464Y-30848736D01*
X-6733112Y-30886933D01*
X-6718841Y-30928356D01*
X-6714936Y-30966982D01*
X-6720099Y-31010426D01*
X-6736372Y-31049275D01*
X-6764358Y-31083886D01*
X-6804661Y-31114612D01*
X-6857886Y-31141810D01*
X-6924635Y-31165834D01*
X-7005513Y-31187039D01*
X-7101124Y-31205779D01*
X-7128852Y-31210353D01*
X-7177808Y-31217830D01*
X-7228033Y-31224803D01*
X-7280677Y-31231357D01*
X-7336888Y-31237582D01*
X-7397816Y-31243564D01*
X-7464611Y-31249391D01*
X-7538422Y-31255149D01*
X-7620398Y-31260928D01*
X-7711689Y-31266813D01*
X-7813445Y-31272893D01*
X-7926814Y-31279255D01*
X-8052947Y-31285987D01*
X-8192992Y-31293174D01*
X-8265641Y-31296820D01*
X-8423182Y-31304841D01*
X-8566117Y-31312494D01*
X-8695458Y-31319873D01*
X-8812218Y-31327072D01*
X-8917409Y-31334187D01*
X-9012045Y-31341312D01*
X-9097138Y-31348542D01*
X-9173701Y-31355970D01*
X-9242746Y-31363693D01*
X-9305286Y-31371804D01*
X-9362334Y-31380398D01*
X-9414903Y-31389569D01*
X-9464004Y-31399413D01*
X-9510652Y-31410024D01*
X-9530938Y-31415030D01*
X-9562910Y-31423778D01*
X-9591236Y-31432715D01*
X-9610646Y-31440154D01*
X-9612975Y-31441303D01*
X-9632912Y-31451892D01*
X-9587380Y-31472163D01*
X-9552438Y-31485562D01*
X-9504584Y-31500702D01*
X-9446348Y-31516926D01*
X-9380258Y-31533572D01*
X-9308844Y-31549981D01*
X-9234635Y-31565493D01*
X-9214918Y-31569351D01*
X-9167578Y-31578296D01*
X-9118982Y-31587083D01*
X-9068015Y-31595871D01*
X-9013566Y-31604821D01*
X-8954521Y-31614090D01*
X-8889768Y-31623840D01*
X-8818194Y-31634228D01*
X-8738685Y-31645415D01*
X-8650130Y-31657560D01*
X-8551415Y-31670822D01*
X-8441428Y-31685361D01*
X-8319055Y-31701336D01*
X-8183185Y-31718906D01*
X-8062503Y-31734413D01*
X-7897036Y-31755789D01*
X-7745988Y-31775669D01*
X-7608243Y-31794233D01*
X-7482684Y-31811663D01*
X-7368196Y-31828139D01*
X-7263662Y-31843842D01*
X-7167966Y-31858952D01*
X-7079991Y-31873652D01*
X-6998621Y-31888121D01*
X-6922740Y-31902541D01*
X-6851231Y-31917092D01*
X-6782978Y-31931955D01*
X-6716865Y-31947311D01*
X-6656167Y-31962232D01*
X-6543366Y-31993168D01*
X-6445686Y-32025425D01*
X-6362655Y-32059310D01*
X-6293802Y-32095129D01*
X-6238654Y-32133188D01*
X-6196740Y-32173791D01*
X-6167588Y-32217246D01*
X-6150726Y-32263859D01*
X-6146371Y-32292705D01*
X-6148134Y-32341657D01*
X-6161872Y-32386925D01*
X-6188004Y-32428772D01*
X-6226949Y-32467459D01*
X-6279126Y-32503251D01*
X-6344955Y-32536409D01*
X-6424855Y-32567197D01*
X-6519246Y-32595877D01*
X-6628546Y-32622713D01*
X-6695232Y-32636794D01*
X-6755136Y-32648453D01*
X-6815948Y-32659501D01*
X-6878713Y-32670053D01*
X-6944479Y-32680227D01*
X-7014289Y-32690139D01*
X-7089192Y-32699905D01*
X-7170232Y-32709641D01*
X-7258455Y-32719464D01*
X-7354909Y-32729489D01*
X-7460638Y-32739834D01*
X-7576688Y-32750614D01*
X-7704107Y-32761946D01*
X-7843939Y-32773946D01*
X-7997230Y-32786730D01*
X-8165028Y-32800415D01*
X-8171885Y-32800969D01*
X-8342384Y-32814915D01*
X-8498119Y-32828047D01*
X-8639927Y-32840464D01*
X-8768642Y-32852269D01*
X-8885100Y-32863564D01*
X-8990136Y-32874449D01*
X-9084586Y-32885027D01*
X-9169287Y-32895399D01*
X-9245072Y-32905666D01*
X-9312777Y-32915929D01*
X-9373239Y-32926291D01*
X-9427293Y-32936853D01*
X-9475773Y-32947715D01*
X-9519516Y-32958981D01*
X-9552829Y-32968711D01*
X-9584149Y-32979460D01*
X-9600949Y-32988213D01*
X-9604087Y-32995743D01*
X-9594421Y-33002823D01*
X-9591894Y-33003904D01*
X-9548395Y-33020577D01*
X-9500902Y-33036605D01*
X-9448568Y-33052136D01*
X-9390547Y-33067315D01*
X-9325992Y-33082289D01*
X-9254056Y-33097207D01*
X-9173891Y-33112213D01*
X-9084653Y-33127455D01*
X-8985493Y-33143079D01*
X-8875565Y-33159233D01*
X-8754022Y-33176063D01*
X-8620017Y-33193716D01*
X-8472703Y-33212339D01*
X-8311234Y-33232077D01*
X-8195324Y-33245927D01*
X-8031071Y-33265541D01*
X-7881451Y-33283733D01*
X-7745550Y-33300648D01*
X-7622454Y-33316431D01*
X-7511247Y-33331226D01*
X-7411017Y-33345180D01*
X-7320849Y-33358437D01*
X-7239828Y-33371142D01*
X-7167040Y-33383441D01*
X-7101571Y-33395478D01*
X-7042508Y-33407398D01*
X-6988935Y-33419347D01*
X-6939938Y-33431469D01*
X-6894604Y-33443911D01*
X-6852018Y-33456816D01*
X-6838054Y-33461318D01*
X-6767182Y-33487098D01*
X-6710678Y-33513714D01*
X-6667283Y-33542122D01*
X-6635738Y-33573278D01*
X-6614786Y-33608137D01*
X-6605043Y-33638263D01*
X-6602543Y-33683412D01*
X-6614721Y-33727892D01*
X-6640650Y-33770232D01*
X-6679401Y-33808962D01*
X-6730047Y-33842612D01*
X-6735973Y-33845767D01*
X-6772104Y-33863313D01*
X-6811963Y-33880030D01*
X-6856506Y-33896119D01*
X-6906689Y-33911781D01*
X-6963467Y-33927217D01*
X-7027798Y-33942628D01*
X-7100637Y-33958214D01*
X-7182941Y-33974177D01*
X-7275665Y-33990717D01*
X-7379766Y-34008035D01*
X-7496200Y-34026332D01*
X-7625923Y-34045810D01*
X-7769891Y-34066668D01*
X-7824207Y-34074386D01*
X-7972940Y-34095626D01*
X-8107101Y-34115233D01*
X-8227639Y-34133393D01*
X-8335502Y-34150289D01*
X-8431638Y-34166103D01*
X-8516995Y-34181021D01*
X-8592523Y-34195224D01*
X-8659169Y-34208898D01*
X-8717881Y-34222225D01*
X-8769609Y-34235388D01*
X-8815300Y-34248572D01*
X-8855903Y-34261960D01*
X-8892367Y-34275735D01*
X-8915759Y-34285628D01*
X-8937704Y-34295570D01*
X-8949430Y-34303100D01*
X-8950157Y-34310328D01*
X-8939107Y-34319364D01*
X-8915504Y-34332319D01*
X-8894586Y-34343058D01*
X-8861400Y-34358593D01*
X-8822511Y-34373908D01*
X-8776772Y-34389297D01*
X-8723039Y-34405049D01*
X-8660168Y-34421454D01*
X-8587014Y-34438805D01*
X-8502432Y-34457391D01*
X-8405277Y-34477503D01*
X-8294405Y-34499433D01*
X-8230482Y-34511740D01*
X-8101333Y-34536773D01*
X-7986621Y-34559847D01*
X-7885325Y-34581265D01*
X-7796422Y-34601333D01*
X-7718889Y-34620355D01*
X-7651703Y-34638636D01*
X-7593842Y-34656481D01*
X-7544282Y-34674193D01*
X-7502002Y-34692078D01*
X-7465978Y-34710441D01*
X-7435188Y-34729585D01*
X-7408608Y-34749816D01*
X-7397086Y-34759965D01*
X-7362200Y-34797545D01*
X-7340505Y-34835383D01*
X-7330053Y-34877629D01*
X-7328372Y-34906531D01*
X-7334798Y-34960733D01*
X-7354918Y-35013325D01*
X-7389059Y-35064648D01*
X-7437544Y-35115046D01*
X-7500701Y-35164861D01*
X-7578853Y-35214435D01*
X-7664041Y-35260008D01*
X-7687216Y-35271143D01*
X-7721811Y-35287225D01*
X-7764934Y-35306935D01*
X-7813691Y-35328956D01*
X-7865187Y-35351968D01*
X-7889474Y-35362733D01*
X-7954680Y-35391638D01*
X-8007568Y-35415335D01*
X-8050160Y-35434826D01*
X-8084476Y-35451113D01*
X-8112538Y-35465198D01*
X-8136367Y-35478084D01*
X-8157984Y-35490772D01*
X-8179411Y-35504264D01*
X-8193442Y-35513445D01*
X-8226022Y-35536200D01*
X-8246487Y-35554452D01*
X-8256591Y-35570898D01*
X-8258087Y-35588236D01*
X-8253729Y-35606209D01*
X-8245284Y-35626456D01*
X-8232661Y-35646145D01*
X-8213947Y-35667290D01*
X-8187225Y-35691901D01*
X-8150581Y-35721991D01*
X-8123100Y-35743463D01*
X-8066509Y-35788575D01*
X-8021616Y-35827994D01*
X-7986595Y-35863860D01*
X-7959623Y-35898313D01*
X-7938876Y-35933491D01*
X-7922528Y-35971535D01*
X-7918253Y-35983696D01*
X-7914714Y-35994800D01*
X-7911741Y-36006253D01*
X-7909286Y-36019459D01*
X-7907299Y-36035824D01*
X-7905730Y-36056750D01*
X-7904531Y-36083642D01*
X-7903653Y-36117905D01*
X-7903045Y-36160943D01*
X-7902659Y-36214160D01*
X-7902445Y-36278959D01*
X-7902354Y-36356746D01*
X-7902337Y-36436973D01*
X-7902337Y-36843003D01*
X-7873038Y-36838501D01*
X-7811668Y-36825231D01*
X-7743646Y-36804070D01*
X-7674378Y-36777071D01*
X-7609268Y-36746284D01*
X-7567115Y-36722378D01*
X-7547287Y-36710612D01*
X-7537723Y-36707021D01*
X-7535746Y-36711028D01*
X-7536807Y-36715856D01*
X-7540108Y-36725407D01*
X-7548389Y-36748458D01*
X-7561226Y-36783851D01*
X-7578195Y-36830425D01*
X-7598871Y-36887021D01*
X-7622830Y-36952477D01*
X-7649648Y-37025633D01*
X-7678901Y-37105330D01*
X-7710163Y-37190408D01*
X-7743011Y-37279706D01*
X-7747990Y-37293232D01*
X-7781435Y-37384103D01*
X-7813666Y-37471695D01*
X-7844222Y-37554755D01*
X-7872640Y-37632028D01*
X-7898461Y-37702261D01*
X-7921224Y-37764198D01*
X-7940467Y-37816587D01*
X-7955730Y-37858174D01*
X-7966552Y-37887703D01*
X-7972472Y-37903922D01*
X-7972716Y-37904598D01*
X-7982351Y-37929306D01*
X-7990535Y-37946868D01*
X-7995432Y-37953429D01*
X-7998551Y-37946311D01*
X-8006583Y-37925822D01*
X-8019046Y-37893256D01*
X-8035461Y-37849908D01*
X-8055348Y-37797071D01*
X-8078226Y-37736041D01*
X-8103615Y-37668112D01*
X-8131035Y-37594578D01*
X-8160007Y-37516735D01*
X-8190049Y-37435876D01*
X-8220682Y-37353296D01*
X-8251426Y-37270291D01*
X-8281801Y-37188153D01*
X-8311326Y-37108179D01*
X-8339521Y-37031661D01*
X-8365907Y-36959896D01*
X-8390002Y-36894177D01*
X-8411328Y-36835800D01*
X-8429404Y-36786058D01*
X-8443750Y-36746245D01*
X-8453885Y-36717658D01*
X-8455884Y-36711898D01*
X-8452627Y-36708669D01*
X-8438359Y-36714459D01*
X-8425158Y-36722034D01*
X-8336860Y-36770438D01*
X-8250498Y-36805836D01*
X-8162265Y-36829754D01*
X-8150399Y-36832111D01*
X-8097662Y-36842170D01*
X-8097691Y-36442663D01*
X-8097725Y-36353082D01*
X-8097843Y-36277792D01*
X-8098091Y-36215460D01*
X-8098514Y-36164749D01*
X-8099158Y-36124327D01*
X-8100070Y-36092857D01*
X-8101294Y-36069007D01*
X-8102877Y-36051441D01*
X-8104864Y-36038824D01*
X-8107301Y-36029822D01*
X-8110233Y-36023101D01*
X-8112183Y-36019716D01*
X-8125194Y-36000965D01*
X-8141971Y-35981741D01*
X-8164608Y-35960084D01*
X-8195201Y-35934035D01*
X-8235845Y-35901635D01*
X-8251350Y-35889579D01*
X-8312031Y-35839877D01*
X-8359792Y-35794150D01*
X-8396137Y-35750371D01*
X-8422573Y-35706512D01*
X-8440606Y-35660547D01*
X-8449688Y-35622578D01*
X-8453268Y-35565119D01*
X-8441857Y-35510903D01*
X-8415151Y-35458541D01*
X-8412791Y-35455042D01*
X-8391063Y-35427313D01*
X-8363708Y-35400088D01*
X-8329490Y-35372616D01*
X-8287173Y-35344145D01*
X-8235521Y-35313925D01*
X-8173297Y-35281205D01*
X-8099265Y-35245233D01*
X-8012190Y-35205258D01*
X-7972654Y-35187635D01*
X-7874653Y-35143468D01*
X-7789822Y-35103553D01*
X-7718551Y-35068085D01*
X-7661229Y-35037259D01*
X-7618245Y-35011270D01*
X-7613192Y-35007891D01*
X-7586214Y-34987713D01*
X-7560410Y-34965242D01*
X-7538734Y-34943426D01*
X-7524140Y-34925211D01*
X-7519501Y-34914440D01*
X-7526673Y-34903224D01*
X-7546707Y-34888952D01*
X-7577380Y-34872647D01*
X-7616469Y-34855330D01*
X-7661754Y-34838025D01*
X-7711010Y-34821753D01*
X-7738265Y-34813815D01*
X-7790345Y-34800245D01*
X-7853983Y-34785231D01*
X-7929955Y-34768609D01*
X-8019039Y-34750213D01*
X-8122012Y-34729879D01*
X-8239653Y-34707442D01*
X-8242202Y-34706963D01*
X-8379861Y-34680500D01*
X-8502847Y-34655507D01*
X-8612016Y-34631682D01*
X-8708220Y-34608723D01*
X-8792312Y-34586329D01*
X-8865146Y-34564200D01*
X-8927576Y-34542034D01*
X-8980456Y-34519530D01*
X-9024638Y-34496387D01*
X-9060976Y-34472303D01*
X-9090323Y-34446977D01*
X-9113534Y-34420109D01*
X-9130316Y-34393555D01*
X-9149008Y-34352803D01*
X-9157149Y-34317324D01*
X-9155656Y-34281778D01*
X-9152324Y-34265327D01*
X-9136654Y-34225195D01*
X-9109294Y-34188073D01*
X-9069687Y-34153668D01*
X-9017275Y-34121689D01*
X-8951498Y-34091844D01*
X-8871800Y-34063840D01*
X-8777620Y-34037385D01*
X-8668652Y-34012240D01*
X-8621428Y-34002615D01*
X-8569513Y-33992725D01*
X-8511655Y-33982371D01*
X-8446605Y-33971353D01*
X-8373113Y-33959472D01*
X-8289930Y-33946529D01*
X-8195806Y-33932324D01*
X-8089491Y-33916657D01*
X-7969735Y-33899330D01*
X-7884493Y-33887139D01*
X-7739295Y-33866250D01*
X-7608657Y-33846994D01*
X-7491619Y-33829188D01*
X-7387224Y-33812646D01*
X-7294510Y-33797183D01*
X-7212519Y-33782613D01*
X-7140292Y-33768752D01*
X-7076869Y-33755414D01*
X-7021290Y-33742415D01*
X-6972596Y-33729569D01*
X-6929829Y-33716690D01*
X-6892027Y-33703595D01*
X-6858233Y-33690097D01*
X-6854023Y-33688276D01*
X-6820239Y-33673534D01*
X-6849844Y-33660772D01*
X-6886142Y-33646849D01*
X-6930777Y-33632889D01*
X-6984376Y-33618787D01*
X-7047567Y-33604439D01*
X-7120976Y-33589738D01*
X-7205233Y-33574581D01*
X-7300965Y-33558861D01*
X-7408798Y-33542474D01*
X-7529361Y-33525315D01*
X-7663281Y-33507278D01*
X-7811186Y-33488258D01*
X-7973703Y-33468151D01*
X-8066958Y-33456900D01*
X-8227871Y-33437557D01*
X-8374243Y-33419770D01*
X-8507062Y-33403391D01*
X-8627321Y-33388270D01*
X-8736010Y-33374259D01*
X-8834119Y-33361208D01*
X-8922640Y-33348969D01*
X-9002561Y-33337393D01*
X-9074876Y-33326330D01*
X-9140573Y-33315633D01*
X-9200643Y-33305151D01*
X-9256078Y-33294736D01*
X-9307867Y-33284239D01*
X-9357001Y-33273512D01*
X-9404472Y-33262404D01*
X-9451269Y-33250768D01*
X-9469845Y-33245978D01*
X-9562012Y-33219654D01*
X-9639301Y-33192300D01*
X-9702452Y-33163379D01*
X-9752205Y-33132354D01*
X-9789301Y-33098690D01*
X-9814479Y-33061848D01*
X-9828479Y-33021292D01*
X-9832143Y-32983246D01*
X-9829944Y-32951875D01*
X-9821506Y-32926510D01*
X-9808644Y-32904697D01*
X-9789558Y-32880351D01*
X-9765236Y-32857630D01*
X-9734996Y-32836396D01*
X-9698158Y-32816510D01*
X-9654041Y-32797835D01*
X-9601964Y-32780233D01*
X-9541246Y-32763566D01*
X-9471206Y-32747696D01*
X-9391164Y-32732485D01*
X-9300438Y-32717794D01*
X-9198348Y-32703487D01*
X-9084213Y-32689425D01*
X-8957351Y-32675469D01*
X-8817083Y-32661483D01*
X-8662727Y-32647327D01*
X-8493602Y-32632865D01*
X-8449246Y-32629211D01*
X-8365659Y-32622370D01*
X-8276497Y-32615071D01*
X-8185261Y-32607600D01*
X-8095450Y-32600244D01*
X-8010566Y-32593289D01*
X-7934108Y-32587022D01*
X-7869577Y-32581730D01*
X-7867179Y-32581533D01*
X-7671820Y-32564846D01*
X-7491632Y-32548062D01*
X-7326160Y-32531114D01*
X-7174948Y-32513936D01*
X-7037542Y-32496460D01*
X-6913485Y-32478620D01*
X-6802324Y-32460349D01*
X-6703603Y-32441580D01*
X-6616866Y-32422247D01*
X-6541659Y-32402281D01*
X-6477527Y-32381618D01*
X-6458831Y-32374678D01*
X-6421431Y-32358897D01*
X-6388070Y-32342283D01*
X-6361521Y-32326461D01*
X-6344556Y-32313055D01*
X-6339741Y-32304908D01*
X-6346247Y-32295523D01*
X-6363613Y-32281497D01*
X-6388608Y-32264948D01*
X-6418004Y-32247992D01*
X-6448571Y-32232748D01*
X-6452421Y-32231021D01*
X-6507837Y-32209082D01*
X-6576484Y-32186166D01*
X-6656045Y-32162898D01*
X-6744208Y-32139903D01*
X-6838657Y-32117807D01*
X-6937079Y-32097236D01*
X-6972592Y-32090408D01*
X-7036832Y-32078512D01*
X-7100074Y-32067178D01*
X-7163690Y-32056206D01*
X-7229052Y-32045396D01*
X-7297529Y-32034548D01*
X-7370492Y-32023460D01*
X-7449313Y-32011934D01*
X-7535362Y-31999768D01*
X-7630010Y-31986763D01*
X-7734628Y-31972717D01*
X-7850587Y-31957431D01*
X-7979257Y-31940705D01*
X-8122010Y-31922337D01*
X-8128914Y-31921453D01*
X-8315521Y-31897331D01*
X-8487267Y-31874644D01*
X-8644835Y-31853251D01*
X-8788909Y-31833008D01*
X-8920174Y-31813775D01*
X-9039314Y-31795408D01*
X-9147013Y-31777766D01*
X-9243955Y-31760706D01*
X-9330824Y-31744087D01*
X-9408305Y-31727765D01*
X-9477082Y-31711600D01*
X-9537839Y-31695448D01*
X-9591260Y-31679167D01*
X-9638029Y-31662616D01*
X-9678831Y-31645653D01*
X-9714350Y-31628134D01*
X-9745270Y-31609918D01*
X-9772274Y-31590863D01*
X-9789943Y-31576312D01*
X-9822620Y-31538053D01*
X-9842270Y-31493685D01*
X-9848292Y-31446116D01*
X-9840084Y-31398255D01*
X-9831199Y-31376607D01*
X-9808975Y-31342688D01*
X-9777083Y-31312058D01*
X-9734744Y-31284432D01*
X-9681177Y-31259527D01*
X-9615602Y-31237058D01*
X-9537240Y-31216742D01*
X-9445311Y-31198295D01*
X-9339036Y-31181433D01*
X-9269609Y-31172153D01*
X-9213947Y-31165478D01*
X-9155406Y-31159152D01*
X-9092755Y-31153090D01*
X-9024758Y-31147207D01*
X-8950184Y-31141417D01*
X-8867799Y-31135635D01*
X-8776370Y-31129776D01*
X-8674663Y-31123755D01*
X-8561446Y-31117486D01*
X-8435486Y-31110885D01*
X-8295548Y-31103866D01*
X-8246108Y-31101445D01*
X-8094677Y-31093921D01*
X-7957777Y-31086789D01*
X-7834321Y-31079959D01*
X-7723221Y-31073338D01*
X-7623390Y-31066835D01*
X-7533740Y-31060361D01*
X-7453185Y-31053823D01*
X-7380636Y-31047130D01*
X-7315007Y-31040191D01*
X-7255210Y-31032915D01*
X-7200158Y-31025212D01*
X-7148763Y-31016989D01*
X-7099938Y-31008155D01*
X-7075418Y-31003334D01*
X-7016680Y-30990559D01*
X-6972656Y-30978934D01*
X-6943573Y-30968534D01*
X-6929660Y-30959439D01*
X-6929073Y-30953885D01*
X-6940011Y-30945726D01*
X-6963379Y-30934364D01*
X-6996551Y-30920788D01*
X-7036905Y-30905989D01*
X-7081816Y-30890955D01*
X-7128660Y-30876676D01*
X-7149149Y-30870903D01*
X-7197712Y-30858245D01*
X-7252502Y-30845248D01*
X-7314623Y-30831701D01*
X-7385179Y-30817399D01*
X-7465274Y-30802131D01*
X-7556013Y-30785691D01*
X-7658499Y-30767869D01*
X-7773836Y-30748458D01*
X-7903129Y-30727249D01*
X-7957028Y-30718534D01*
X-8100962Y-30695067D01*
X-8230432Y-30673338D01*
X-8346473Y-30653109D01*
X-8450124Y-30634146D01*
X-8542420Y-30616213D01*
X-8624398Y-30599075D01*
X-8697095Y-30582497D01*
X-8761547Y-30566241D01*
X-8818791Y-30550074D01*
X-8869863Y-30533760D01*
X-8915801Y-30517062D01*
X-8957640Y-30499746D01*
X-8993389Y-30483075D01*
X-9052918Y-30447809D01*
X-9099559Y-30407411D01*
X-9132741Y-30362826D01*
X-9151895Y-30314997D01*
X-9156453Y-30264867D01*
X-9149405Y-30224415D01*
X-9130597Y-30180171D01*
X-9100981Y-30141025D01*
X-9059862Y-30106623D01*
X-9006543Y-30076612D01*
X-8940328Y-30050638D01*
X-8860519Y-30028348D01*
X-8766421Y-30009390D01*
X-8707163Y-30000088D01*
X-8681653Y-29996505D01*
X-8656523Y-29993191D01*
X-8630224Y-29990002D01*
X-8601212Y-29986794D01*
X-8567939Y-29983423D01*
X-8528858Y-29979743D01*
X-8482422Y-29975612D01*
X-8427086Y-29970885D01*
X-8361302Y-29965418D01*
X-8283523Y-29959067D01*
X-8192203Y-29951687D01*
X-8160166Y-29949109D01*
X-8029028Y-29937340D01*
X-7913391Y-29924366D01*
X-7813176Y-29910171D01*
X-7728303Y-29894740D01*
X-7658692Y-29878058D01*
X-7604265Y-29860108D01*
X-7564941Y-29840876D01*
X-7551066Y-29830900D01*
X-7533394Y-29810082D01*
X-7528653Y-29787235D01*
X-7537166Y-29761105D01*
X-7559254Y-29730438D01*
X-7583332Y-29705244D01*
X-7609134Y-29682604D01*
X-7640702Y-29659540D01*
X-7679239Y-29635439D01*
X-7725948Y-29609687D01*
X-7782029Y-29581669D01*
X-7848687Y-29550771D01*
X-7927122Y-29516380D01*
X-8018538Y-29477882D01*
X-8070316Y-29456563D01*
X-8173895Y-29412820D01*
X-8263380Y-29371938D01*
X-8339887Y-29333188D01*
X-8404532Y-29295840D01*
X-8458428Y-29259166D01*
X-8502693Y-29222437D01*
X-8538440Y-29184925D01*
X-8566784Y-29145900D01*
X-8579456Y-29123845D01*
X-8589808Y-29102706D01*
X-8596331Y-29083836D01*
X-8599892Y-29062519D01*
X-8601356Y-29034040D01*
X-8601599Y-29003247D01*
X-8601264Y-28966415D01*
X-8599511Y-28939938D01*
X-8595218Y-28918547D01*
X-8587265Y-28896973D01*
X-8574529Y-28869948D01*
X-8572228Y-28865285D01*
X-8551359Y-28828355D01*
X-8525973Y-28794428D01*
X-8493725Y-28761103D01*
X-8452273Y-28725981D01*
X-8399273Y-28686662D01*
X-8394555Y-28683327D01*
X-8323537Y-28629272D01*
X-8265920Y-28575953D01*
X-8219796Y-28520991D01*
X-8183254Y-28462002D01*
X-8154384Y-28396604D01*
X-8146408Y-28373796D01*
X-8126421Y-28301268D01*
X-8110888Y-28220544D01*
X-8100932Y-28138692D01*
X-8097662Y-28067052D01*
X-8097662Y-27999692D01*
X-7998794Y-27999692D01*
X-7899927Y-27999692D01*
X-7904830Y-28103213D01*
G37*
D18*
%TO.C,D2*%
X5685000Y-30710000D02*
X5685000Y-28790000D01*
X5685000Y-28790000D02*
X3000000Y-28790000D01*
X3000000Y-30710000D02*
X5685000Y-30710000D01*
%TO.C,R1*%
X3512742Y-27227500D02*
X3987258Y-27227500D01*
X3512742Y-28272500D02*
X3987258Y-28272500D01*
%TO.C,R2*%
X-12742Y-27227500D02*
X-487258Y-27227500D01*
X-12742Y-28272500D02*
X-487258Y-28272500D01*
%TO.C,D3*%
X500000Y-28790000D02*
X-2185000Y-28790000D01*
X-2185000Y-30710000D02*
X500000Y-30710000D01*
X-2185000Y-28790000D02*
X-2185000Y-30710000D01*
D14*
%TO.C,U1*%
X-11870000Y-21800000D02*
X-14670000Y-21800000D01*
X-11870000Y-20800000D02*
X-11870000Y-21800000D01*
X-14670000Y-21800000D02*
X-14670000Y-20800000D01*
X-14670000Y-20800000D02*
X-11870000Y-20800000D01*
X-11469966Y-19779584D02*
G75*
G02*
X-11480000Y-19780000I-33J-120416D01*
G01*
D18*
%TO.C,C3*%
X-12988748Y-25035000D02*
X-13511252Y-25035000D01*
X-12988748Y-23565000D02*
X-13511252Y-23565000D01*
%TO.C,C2*%
X-19538748Y-19735000D02*
X-20061252Y-19735000D01*
X-19538748Y-18265000D02*
X-20061252Y-18265000D01*
%TO.C,R4*%
X-13846359Y-12120000D02*
X-14153641Y-12120000D01*
X-13846359Y-12880000D02*
X-14153641Y-12880000D01*
%TO.C,R3*%
X-13846359Y-8620000D02*
X-14153641Y-8620000D01*
X-13846359Y-9380000D02*
X-14153641Y-9380000D01*
%TO.C,Q1*%
X-6412500Y-38490000D02*
X-6652500Y-38160000D01*
X-6172500Y-38160000D01*
X-6412500Y-38490000D01*
G36*
X-6412500Y-38490000D02*
G01*
X-6652500Y-38160000D01*
X-6172500Y-38160000D01*
X-6412500Y-38490000D01*
G37*
X-5250000Y-41560000D02*
X-4600000Y-41560000D01*
X-5250000Y-41560000D02*
X-5900000Y-41560000D01*
X-5250000Y-38440000D02*
X-4600000Y-38440000D01*
X-5250000Y-38440000D02*
X-5900000Y-38440000D01*
%TO.C,R11*%
X-10022500Y-41662258D02*
X-10022500Y-41187742D01*
X-8977500Y-41662258D02*
X-8977500Y-41187742D01*
%TO.C,R10*%
X-10012742Y-39522500D02*
X-10487258Y-39522500D01*
X-10012742Y-38477500D02*
X-10487258Y-38477500D01*
%TO.C,R8*%
X3590000Y-39264564D02*
X3590000Y-37810436D01*
X5410000Y-39264564D02*
X5410000Y-37810436D01*
%TO.C,U3*%
X-9200000Y6025000D02*
X-9700000Y6025000D01*
X-9200000Y6525000D01*
X-9200000Y6025000D01*
G36*
X-9200000Y6025000D02*
G01*
X-9700000Y6025000D01*
X-9200000Y6525000D01*
X-9200000Y6025000D01*
G37*
X9200000Y-12950000D02*
X9200000Y-11950000D01*
X9200000Y-12950000D02*
X7700000Y-12950000D01*
X9200000Y12900000D02*
X9200000Y6700000D01*
X-9200000Y-12950000D02*
X-7700000Y-12950000D01*
X-9200000Y-11950000D02*
X-9200000Y-12950000D01*
X-9200000Y12900000D02*
X9200000Y12900000D01*
X-9200000Y12900000D02*
X-9200000Y6700000D01*
D10*
%TO.C,SW2*%
X21460000Y-24030000D02*
X22000000Y-24030000D01*
X24540000Y-24030000D02*
X24000000Y-24030000D01*
X21460000Y-19970000D02*
X21460000Y-24030000D01*
X21460000Y-19970000D02*
X22000000Y-19970000D01*
X24540000Y-19970000D02*
X24540000Y-24030000D01*
X24540000Y-19970000D02*
X24000000Y-19970000D01*
D14*
X23900000Y-22000000D02*
G75*
G02*
X22100000Y-22000000I-900000J0D01*
G01*
X22100000Y-22000000D02*
G75*
G02*
X23900000Y-22000000I900000J0D01*
G01*
D18*
%TO.C,TP4*%
X-14050000Y-39000000D02*
G75*
G02*
X-15950000Y-39000000I-950000J0D01*
G01*
X-15950000Y-39000000D02*
G75*
G02*
X-14050000Y-39000000I950000J0D01*
G01*
%TO.C,C7*%
X22859420Y-18510000D02*
X23140580Y-18510000D01*
X22859420Y-17490000D02*
X23140580Y-17490000D01*
%TO.C,C1*%
X-19538748Y-20265000D02*
X-20061252Y-20265000D01*
X-19538748Y-21735000D02*
X-20061252Y-21735000D01*
%TO.C,TP2*%
X450000Y-25500000D02*
G75*
G02*
X-1450000Y-25500000I-950000J0D01*
G01*
X-1450000Y-25500000D02*
G75*
G02*
X450000Y-25500000I950000J0D01*
G01*
D14*
%TO.C,D6*%
X1900000Y-37700000D02*
G75*
G02*
X2900000Y-38700000I0J-1000000D01*
G01*
X-2900000Y-38700000D02*
G75*
G02*
X-1900000Y-37700000I999999J1D01*
G01*
X2900000Y-43200000D02*
X2900000Y-38700000D01*
X2900000Y-43200000D02*
X-2900000Y-43200000D01*
X2830000Y-39910000D02*
X2830000Y-40010000D01*
X1900000Y-37700000D02*
X-1900000Y-37700000D01*
X1240000Y-38220000D02*
X1240000Y-38730000D01*
X990000Y-38480000D02*
X1500000Y-38480000D01*
X-2900000Y-43200000D02*
X-2900000Y-38700000D01*
D18*
%TO.C,TP1*%
X4950000Y-25500000D02*
G75*
G02*
X3050000Y-25500000I-950000J0D01*
G01*
X3050000Y-25500000D02*
G75*
G02*
X4950000Y-25500000I950000J0D01*
G01*
D14*
%TO.C,J2*%
X24520000Y-10560000D02*
X21980000Y-10560000D01*
X24520000Y-2960000D02*
X24520000Y-10560000D01*
X24520000Y-2960000D02*
X21980000Y-2960000D01*
X24520000Y-400000D02*
X24520000Y-2960000D01*
X21980000Y-10560000D02*
X21980000Y-400000D01*
X21980000Y-400000D02*
X24520000Y-400000D01*
D18*
%TO.C,D5*%
X11000000Y-26627500D02*
X8315000Y-26627500D01*
X8315000Y-28547500D02*
X11000000Y-28547500D01*
X8315000Y-26627500D02*
X8315000Y-28547500D01*
%TO.C,C6*%
X-20510000Y-609420D02*
X-20510000Y-890580D01*
X-19490000Y-609420D02*
X-19490000Y-890580D01*
%TO.C,TP3*%
X10950000Y-23337500D02*
G75*
G02*
X9050000Y-23337500I-950000J0D01*
G01*
X9050000Y-23337500D02*
G75*
G02*
X10950000Y-23337500I950000J0D01*
G01*
%TO.C,D7*%
X1000000Y-34790000D02*
X-1685000Y-34790000D01*
X-1685000Y-36710000D02*
X1000000Y-36710000D01*
X-1685000Y-34790000D02*
X-1685000Y-36710000D01*
%TO.C,R9*%
X1762742Y-34522500D02*
X2237258Y-34522500D01*
X1762742Y-33477500D02*
X2237258Y-33477500D01*
%TO.C,R6*%
X-18772500Y-512742D02*
X-18772500Y-987258D01*
X-17727500Y-512742D02*
X-17727500Y-987258D01*
%TO.C,C5*%
X-10390000Y4412164D02*
X-10390000Y4627836D01*
X-11110000Y4412164D02*
X-11110000Y4627836D01*
%TO.C,C4*%
X-14738748Y2765000D02*
X-15261252Y2765000D01*
X-14738748Y4235000D02*
X-15261252Y4235000D01*
%TO.C,R7*%
X19477500Y-19762742D02*
X19477500Y-20237258D01*
X20522500Y-19762742D02*
X20522500Y-20237258D01*
%TO.C,R5*%
X10237258Y-25065000D02*
X9762742Y-25065000D01*
X10237258Y-26110000D02*
X9762742Y-26110000D01*
D14*
%TO.C,U2*%
X-17000000Y-33500000D02*
G75*
G02*
X-20000000Y-33500000I-1500000J0D01*
G01*
X-20000000Y-33500000D02*
G75*
G02*
X-17000000Y-33500000I1500000J0D01*
G01*
X-21000000Y-36000000D02*
X-16000000Y-36000000D01*
X-21000000Y-35730000D02*
X-21000000Y-36000000D01*
X-16000000Y-35730000D02*
X-16000000Y-36000000D01*
X-17500000Y-35700000D02*
X-17100000Y-35300000D01*
X-17100000Y-35700000D02*
X-17500000Y-35700000D01*
X-17100000Y-35300000D02*
X-17100000Y-35700000D01*
X-21000000Y-32730000D02*
X-21000000Y-34270000D01*
X-16000000Y-32730000D02*
X-16000000Y-34270000D01*
X-21000000Y-31000000D02*
X-21000000Y-31270000D01*
X-21000000Y-31000000D02*
X-16000000Y-31000000D01*
X-16000000Y-31000000D02*
X-16000000Y-31270000D01*
%TO.C,SW1*%
X-21850000Y-2250000D02*
G75*
G02*
X-23650000Y-2250000I-900000J0D01*
G01*
X-23650000Y-2250000D02*
G75*
G02*
X-21850000Y-2250000I900000J0D01*
G01*
D10*
X-21210000Y-220000D02*
X-21750000Y-220000D01*
X-21210000Y-220000D02*
X-21210000Y-4280000D01*
X-24290000Y-220000D02*
X-23750000Y-220000D01*
X-24290000Y-220000D02*
X-24290000Y-4280000D01*
X-21210000Y-4280000D02*
X-21750000Y-4280000D01*
X-24290000Y-4280000D02*
X-23750000Y-4280000D01*
%TO.C,D4*%
X-14400000Y-11650000D02*
X-13100000Y-11650000D01*
X-14400000Y-9850000D02*
X-13100000Y-9850000D01*
D11*
X-14809999Y-9760000D02*
X-14809999Y-9760000D01*
X-14809999Y-9760000D01*
X-14809999Y-9760000D01*
X-14809999Y-9760000D01*
X-14809999Y-9760000D01*
X-14809999Y-9760001D01*
X-14809999Y-9760001D01*
X-14809999Y-9760001D01*
X-14809999Y-9760001D01*
X-14809999Y-9760001D01*
X-14809999Y-9760001D01*
X-14810000Y-9760001D01*
X-14810000Y-9760001D01*
X-14810000Y-9760001D01*
X-14810000Y-9760001D01*
X-14810000Y-9760001D01*
X-14810000Y-9760001D01*
X-14810000Y-9760001D01*
X-14810000Y-9760001D01*
X-14810000Y-9760001D01*
X-14810000Y-9760001D01*
X-14810000Y-9760001D01*
X-14810000Y-9760001D01*
X-14810001Y-9760001D01*
X-14810001Y-9760001D01*
X-14810001Y-9760001D01*
X-14810001Y-9760001D01*
X-14810001Y-9760001D01*
X-14810001Y-9760001D01*
X-14810001Y-9760001D01*
X-14810001Y-9760000D01*
X-14810001Y-9760000D01*
X-14810001Y-9760000D01*
X-14810001Y-9760000D01*
X-14810001Y-9760000D01*
X-14810001Y-9760000D01*
X-14810001Y-9760000D02*
X-14810001Y-9760000D01*
X-14810001Y-9760000D01*
X-14810001Y-9760000D01*
X-14810001Y-9760000D01*
X-14810001Y-9760000D01*
X-14810001Y-9760000D01*
X-14810001Y-9759999D01*
X-14810001Y-9759999D01*
X-14810001Y-9759999D01*
X-14810001Y-9759999D01*
X-14810001Y-9759999D01*
X-14810001Y-9759999D01*
X-14810000Y-9759999D01*
X-14810000Y-9759999D01*
X-14810000Y-9759999D01*
X-14810000Y-9759999D01*
X-14810000Y-9759999D01*
X-14810000Y-9759999D01*
X-14810000Y-9759999D01*
X-14810000Y-9759999D01*
X-14810000Y-9759999D01*
X-14810000Y-9759999D01*
X-14810000Y-9759999D01*
X-14810000Y-9759999D01*
X-14809999Y-9759999D01*
X-14809999Y-9759999D01*
X-14809999Y-9759999D01*
X-14809999Y-9759999D01*
X-14809999Y-9759999D01*
X-14809999Y-9760000D01*
X-14809999Y-9760000D01*
X-14809999Y-9760000D01*
X-14809999Y-9760000D01*
X-14809999Y-9760000D01*
X-14809999Y-9760000D01*
X-14809999Y-9760000D01*
%TD*%
%LPC*%
D19*
%TO.C,J1*%
X-22380000Y-15070000D03*
D20*
X-18170000Y-15070000D03*
D19*
X-22380000Y-6430000D03*
D20*
X-18170000Y-6430000D03*
D21*
X-17620000Y-13950000D03*
X-17620000Y-13150000D03*
D22*
X-17620000Y-12500000D03*
X-17620000Y-12000000D03*
X-17620000Y-11500000D03*
X-17620000Y-11000000D03*
X-17620000Y-10500000D03*
X-17620000Y-10000000D03*
X-17620000Y-9500000D03*
X-17620000Y-9000000D03*
D21*
X-17620000Y-8350000D03*
X-17620000Y-7550000D03*
D23*
X-18700000Y-13640000D03*
X-18700000Y-7860000D03*
%TD*%
D24*
%TO.C,D1*%
X-14500000Y-15360000D03*
X-14500000Y-18640000D03*
%TD*%
D25*
%TO.C,D2*%
X4937500Y-29750000D03*
X3062500Y-29750000D03*
%TD*%
D26*
%TO.C,R1*%
X2925000Y-27750000D03*
X4575000Y-27750000D03*
%TD*%
D27*
%TO.C,R2*%
X-1075000Y-27750000D03*
X575000Y-27750000D03*
%TD*%
D28*
%TO.C,D3*%
X437500Y-29750000D03*
X-1437500Y-29750000D03*
%TD*%
D29*
%TO.C,U1*%
X-12300000Y-20000000D03*
X-13250000Y-20000000D03*
X-14200000Y-20000000D03*
X-14200000Y-22600000D03*
X-12300000Y-22600000D03*
%TD*%
D30*
%TO.C,C3*%
X-12300000Y-24300000D03*
X-14200000Y-24300000D03*
%TD*%
%TO.C,C2*%
X-18850000Y-19000000D03*
X-20750000Y-19000000D03*
%TD*%
D31*
%TO.C,R4*%
X-14510000Y-12500000D03*
X-13490000Y-12500000D03*
%TD*%
%TO.C,R3*%
X-14510000Y-9000000D03*
X-13490000Y-9000000D03*
%TD*%
D32*
%TO.C,Q1*%
X-6187500Y-40950000D03*
X-6187500Y-39050000D03*
X-4312500Y-40000000D03*
%TD*%
D33*
%TO.C,R11*%
X-9500000Y-42250000D03*
X-9500000Y-40600000D03*
%TD*%
D27*
%TO.C,R10*%
X-9425000Y-39000000D03*
X-11075000Y-39000000D03*
%TD*%
D34*
%TO.C,R8*%
X4500000Y-40000000D03*
X4500000Y-37075000D03*
%TD*%
D35*
%TO.C,U3*%
X-100000Y-3160000D03*
X-100000Y-1760000D03*
X-800000Y-3860000D03*
X-800000Y-2460000D03*
X-800000Y-1060000D03*
X-1500000Y-3160000D03*
D36*
X-1500000Y-2460000D03*
D35*
X-1500000Y-1760000D03*
X-2200000Y-3860000D03*
X-2200000Y-2460000D03*
X-2200000Y-1060000D03*
X-2900000Y-3160000D03*
X-2900000Y-1760000D03*
D37*
X8750000Y5260000D03*
X8750000Y3990000D03*
X8750000Y2720000D03*
X8750000Y1450000D03*
X8750000Y180000D03*
X8750000Y-1090000D03*
X8750000Y-2360000D03*
X8750000Y-3630000D03*
X8750000Y-4900000D03*
X8750000Y-6170000D03*
X8750000Y-7440000D03*
X8750000Y-8710000D03*
X8750000Y-9980000D03*
X8750000Y-11250000D03*
D38*
X6985000Y-12500000D03*
X5715000Y-12500000D03*
X4445000Y-12500000D03*
X3175000Y-12500000D03*
X1905000Y-12500000D03*
X635000Y-12500000D03*
X-635000Y-12500000D03*
X-1905000Y-12500000D03*
X-3175000Y-12500000D03*
X-4445000Y-12500000D03*
X-5715000Y-12500000D03*
X-6985000Y-12500000D03*
D37*
X-8750000Y-11250000D03*
X-8750000Y-9980000D03*
X-8750000Y-8710000D03*
X-8750000Y-7440000D03*
X-8750000Y-6170000D03*
X-8750000Y-4900000D03*
X-8750000Y-3630000D03*
X-8750000Y-2360000D03*
X-8750000Y-1090000D03*
X-8750000Y180000D03*
X-8750000Y1450000D03*
X-8750000Y2720000D03*
X-8750000Y3990000D03*
X-8750000Y5260000D03*
%TD*%
D39*
%TO.C,SW2*%
X23000000Y-24180000D03*
X23000000Y-19820000D03*
%TD*%
D40*
%TO.C,TP4*%
X-15000000Y-39000000D03*
%TD*%
D41*
%TO.C,C7*%
X23775000Y-18000000D03*
X22225000Y-18000000D03*
%TD*%
D30*
%TO.C,C1*%
X-20750000Y-21000000D03*
X-18850000Y-21000000D03*
%TD*%
D42*
%TO.C,H3*%
X-22500000Y-41000000D03*
%TD*%
D40*
%TO.C,TP2*%
X-500000Y-25500000D03*
%TD*%
D43*
%TO.C,D6*%
X1270000Y-40000000D03*
X-1270000Y-40000000D03*
%TD*%
D40*
%TO.C,TP1*%
X4000000Y-25500000D03*
%TD*%
D44*
%TO.C,J2*%
X23250000Y-9290000D03*
X23250000Y-6750000D03*
X23250000Y-4210000D03*
D45*
X23250000Y-1670000D03*
%TD*%
D28*
%TO.C,D5*%
X10937500Y-27587500D03*
X9062500Y-27587500D03*
%TD*%
D42*
%TO.C,H4*%
X22500000Y-41000000D03*
%TD*%
%TO.C,H2*%
X22500000Y4000000D03*
%TD*%
%TO.C,H1*%
X-22500000Y4000000D03*
%TD*%
D46*
%TO.C,C6*%
X-20000000Y-1525000D03*
X-20000000Y25000D03*
%TD*%
D40*
%TO.C,TP3*%
X10000000Y-23337500D03*
%TD*%
D28*
%TO.C,D7*%
X937500Y-35750000D03*
X-937500Y-35750000D03*
%TD*%
D26*
%TO.C,R9*%
X2825000Y-34000000D03*
X1175000Y-34000000D03*
%TD*%
D47*
%TO.C,R6*%
X-18250000Y-1575000D03*
X-18250000Y75000D03*
%TD*%
D48*
%TO.C,C5*%
X-10750000Y5000000D03*
X-10750000Y4040000D03*
%TD*%
D30*
%TO.C,C4*%
X-15950000Y3500000D03*
X-14050000Y3500000D03*
%TD*%
D47*
%TO.C,R7*%
X20000000Y-20825000D03*
X20000000Y-19175000D03*
%TD*%
D27*
%TO.C,R5*%
X9175000Y-25587500D03*
X10825000Y-25587500D03*
%TD*%
D49*
%TO.C,U2*%
X-16000000Y-32000000D03*
X-16000000Y-35000000D03*
X-21000000Y-35000000D03*
X-21000000Y-32000000D03*
%TD*%
D39*
%TO.C,SW1*%
X-22750000Y-70000D03*
X-22750000Y-4430000D03*
%TD*%
D50*
%TO.C,D4*%
X-13030000Y-10250000D03*
X-14470000Y-10250000D03*
X-13030000Y-11250000D03*
X-14470000Y-11250000D03*
X-14470000Y-10750000D03*
X-13030000Y-10750000D03*
%TD*%
%LPD*%
M02*
