M48
; DRILL file {KiCad 9.0.3} date 2025-09-08T02:13:57+0800
; FORMAT={-:-/ absolute / inch / decimal}
; #@! TF.CreationDate,2025-09-08T02:13:57+08:00
; #@! TF.GenerationSoftware,Kicad,Pcbnew,9.0.3
; #@! TF.FileFunction,Plated,1,2,PTH
FMAT,2
INCH
; #@! TA.AperFunction,Plated,PTH,ComponentDrill
T1C0.0079
; #@! TA.AperFunction,Plated,PTH,ViaDrill
T2C0.0118
; #@! TA.AperFunction,Plated,PTH,ViaDrill
T3C0.0197
; #@! TA.AperFunction,Plated,PTH,ComponentDrill
T4C0.0236
; #@! TA.AperFunction,Plated,PTH,ComponentDrill
T5C0.0276
; #@! TA.AperFunction,Plated,PTH,ComponentDrill
T6C0.0394
; #@! TA.AperFunction,Plated,PTH,ComponentDrill
T7C0.0433
%
G90
G05
T1
X-0.1142Y-0.0693
X-0.1142Y-0.1244
X-0.0866Y-0.0417
X-0.0866Y-0.0969
X-0.0866Y-0.152
X-0.0591Y-0.0693
X-0.0591Y-0.1244
X-0.0315Y-0.0417
X-0.0315Y-0.0969
X-0.0315Y-0.152
X-0.0039Y-0.0693
X-0.0039Y-0.1244
T2
X-0.9055Y-0.3445
X-0.9055Y-0.3839
X-0.9055Y-0.4232
X-0.9055Y-0.4626
X-0.9055Y-0.502
X-0.9055Y-0.6594
X-0.9055Y-0.7087
X-0.9055Y-0.7579
X-0.9055Y-0.8071
X-0.9055Y-0.8563
X-0.8563Y-0.3445
X-0.8563Y-0.3839
X-0.8563Y-0.4232
X-0.8563Y-0.4626
X-0.8563Y-0.502
X-0.8563Y-0.6594
X-0.8071Y-0.3445
X-0.8071Y-0.3839
X-0.8071Y-0.4232
X-0.8071Y-0.4626
X-0.8071Y-0.502
X-0.8071Y-0.6594
X-0.7579Y-0.6594
X-0.7087Y-0.6594
X-0.689Y0.2067
X-0.689Y0.1575
X-0.689Y0.1083
X-0.689Y-0.7382
X-0.689Y-0.7677
X-0.689Y-0.7972
X-0.689Y-0.8268
X-0.6693Y-1.4567
X-0.6496Y-0.7382
X-0.6496Y-0.7677
X-0.6496Y-0.7972
X-0.6496Y-0.8268
X-0.6457Y-0.3268
X-0.6457Y-0.5197
X-0.6398Y0.2067
X-0.6299Y-1.4567
X-0.6102Y-0.2264
X-0.6102Y-0.2657
X-0.6102Y-0.4232
X-0.5906Y0.2067
X-0.5906Y-1.4567
X-0.561Y-0.2264
X-0.561Y-0.2657
X-0.5413Y0.2067
X-0.5413Y-0.0689
X-0.5118Y-0.2264
X-0.5118Y-0.2657
X-0.5118Y-0.6988
X-0.5118Y-0.7382
X-0.502Y0.1575
X-0.502Y0.1181
X-0.4921Y0.2067
X-0.4921Y-0.3543
X-0.4921Y-0.4921
X-0.4724Y-0.4232
X-0.4724Y-0.6988
X-0.4724Y-0.7382
X-0.4626Y0.1575
X-0.4626Y0.1181
X-0.4429Y-1.5945
X-0.4429Y-1.6339
X-0.4429Y-1.6732
X-0.4134Y-0.8957
X-0.4134Y-0.9252
X-0.4134Y-0.9547
X-0.4134Y-0.9843
X-0.3642Y-0.8957
X-0.3642Y-0.9252
X-0.3642Y-0.9547
X-0.3642Y-0.9843
X-0.3445Y-0.6988
X-0.3445Y-0.7382
X-0.315Y-1.5945
X-0.315Y-1.6339
X-0.315Y-1.6732
X-0.3051Y-0.6988
X-0.3051Y-0.7382
X-0.2756Y-1.6732
X-0.2364Y0.004
X-0.2362Y0.1181
X-0.2362Y0.0787
X-0.2362Y0.0394
X-0.2362Y-0.0394
X-0.2362Y-0.0787
X-0.2362Y-0.1181
X-0.2362Y-0.1575
X-0.2362Y-0.1969
X-0.2362Y-0.2362
X-0.2362Y-0.2756
X-0.2362Y-0.315
X-0.2362Y-0.3543
X-0.2349Y-1.673
X-0.1969Y0.1181
X-0.1969Y-0.3543
X-0.1969Y-1.6732
X-0.1615Y0.1179
X-0.1615Y-0.3545
X-0.1575Y-1.6732
X-0.1181Y0.1181
X-0.1181Y-0.3543
X-0.1083Y-1.2598
X-0.0787Y0.1181
X-0.0787Y-0.3543
X-0.0591Y-1.2598
X-0.0394Y0.1181
X-0.0394Y-0.3543
X0.0Y0.1181
X0.0Y-0.3543
X0.0394Y0.1181
X0.0394Y-0.3543
X0.0787Y0.1181
X0.0787Y-0.3543
X0.1181Y0.1181
X0.1181Y-0.3543
X0.1575Y0.1181
X0.1575Y-0.3543
X0.1772Y-1.3287
X0.1772Y-1.3681
X0.1772Y-1.4075
X0.1969Y0.1181
X0.1969Y-0.3543
X0.2165Y-1.3287
X0.2165Y-1.3681
X0.2165Y-1.4075
X0.2264Y-0.5807
X0.2264Y-0.6299
X0.236Y0.004
X0.2362Y0.1181
X0.2362Y0.0787
X0.2362Y0.0394
X0.2362Y-0.0394
X0.2362Y-0.0787
X0.2362Y-0.1181
X0.2362Y-0.1575
X0.2362Y-0.1969
X0.2362Y-0.2362
X0.2362Y-0.2756
X0.2362Y-0.315
X0.2362Y-0.3543
X0.2559Y-1.3287
X0.2559Y-1.3681
X0.2559Y-1.4075
X0.2756Y-0.5807
X0.2756Y-0.6299
X0.2953Y-1.1811
X0.2953Y-1.2303
X0.3445Y-1.1811
X0.3445Y-1.2303
X0.4134Y0.2067
X0.4134Y0.1575
X0.4134Y0.1083
X0.4626Y0.2067
X0.4626Y0.1575
X0.4626Y0.1083
X0.6693Y-0.9744
X0.6693Y-1.0236
X0.7185Y-0.9744
X0.7185Y-1.0236
X0.7874Y-0.8563
X0.7972Y-0.4724
X0.7972Y-0.5217
X0.8465Y-0.4724
X0.8465Y-0.5217
T3
X-0.315Y-0.561
T5
X-0.7362Y-0.3094
X-0.7362Y-0.537
X-0.5906Y-1.5354
X-0.0197Y-1.0039
X0.1575Y-1.0039
X0.3937Y-0.9188
T6
X-0.05Y-1.5748
X0.05Y-1.5748
T7
X0.9154Y-0.0657
X0.9154Y-0.1657
X0.9154Y-0.2657
X0.9154Y-0.3657
T4
G00X-0.8693Y-0.2531
M15
G01X-0.8929Y-0.2531
M16
G05
G00X-0.8693Y-0.5933
M15
G01X-0.8929Y-0.5933
M16
G05
G00X-0.6976Y-0.2531
M15
G01X-0.7331Y-0.2531
M16
G05
G00X-0.6976Y-0.5933
M15
G01X-0.7331Y-0.5933
M16
G05
M30
