%TF.GenerationSoftware,KiCad,Pcbnew,9.0.3*%
%TF.CreationDate,2025-08-14T00:26:36+08:00*%
%TF.ProjectId,IR_AC,49525f41-432e-46b6-9963-61645f706362,rev?*%
%TF.SameCoordinates,Original*%
%TF.FileFunction,Copper,L1,Top*%
%TF.FilePolarity,Positive*%
%FSLAX46Y46*%
G04 Gerber Fmt 4.6, Leading zero omitted, Abs format (unit mm)*
G04 Created by KiCad (PCBNEW 9.0.3) date 2025-08-14 00:26:36*
%MOMM*%
%LPD*%
G01*
G04 APERTURE LIST*
G04 Aperture macros list*
%AMRoundRect*
0 Rectangle with rounded corners*
0 $1 Rounding radius*
0 $2 $3 $4 $5 $6 $7 $8 $9 X,Y pos of 4 corners*
0 Add a 4 corners polygon primitive as box body*
4,1,4,$2,$3,$4,$5,$6,$7,$8,$9,$2,$3,0*
0 Add four circle primitives for the rounded corners*
1,1,$1+$1,$2,$3*
1,1,$1+$1,$4,$5*
1,1,$1+$1,$6,$7*
1,1,$1+$1,$8,$9*
0 Add four rect primitives between the rounded corners*
20,1,$1+$1,$2,$3,$4,$5,0*
20,1,$1+$1,$4,$5,$6,$7,0*
20,1,$1+$1,$6,$7,$8,$9,0*
20,1,$1+$1,$8,$9,$2,$3,0*%
G04 Aperture macros list end*
%TA.AperFunction,SMDPad,CuDef*%
%ADD10C,2.500000*%
%TD*%
%TA.AperFunction,SMDPad,CuDef*%
%ADD11RoundRect,0.200000X-0.200000X-0.275000X0.200000X-0.275000X0.200000X0.275000X-0.200000X0.275000X0*%
%TD*%
G04 APERTURE END LIST*
D10*
%TO.P,J2,1,Pin_1*%
%TO.N,GND*%
X151500000Y-101500000D03*
%TD*%
%TO.P,J1,1,Pin_1*%
%TO.N,+5V*%
X140000000Y-105250000D03*
%TD*%
D11*
%TO.P,R1,1*%
%TO.N,+5V*%
X145350000Y-102500000D03*
%TO.P,R1,2*%
%TO.N,GND*%
X147000000Y-102500000D03*
%TD*%
%TA.AperFunction,Conductor*%
%TO.N,+5V*%
G36*
X145443039Y-95520185D02*
G01*
X145488794Y-95572989D01*
X145500000Y-95624500D01*
X145500000Y-103605000D01*
X145500000Y-109375500D01*
X145480315Y-109442539D01*
X145427511Y-109488294D01*
X145376000Y-109499500D01*
X138003751Y-109499500D01*
X137996264Y-109499274D01*
X137706205Y-109481728D01*
X137691340Y-109479923D01*
X137409201Y-109428219D01*
X137394663Y-109424635D01*
X137120832Y-109339306D01*
X137106831Y-109333997D01*
X136845263Y-109216275D01*
X136832004Y-109209316D01*
X136586540Y-109060928D01*
X136574217Y-109052422D01*
X136348426Y-108875526D01*
X136337218Y-108865596D01*
X136134403Y-108662781D01*
X136124473Y-108651573D01*
X135947573Y-108425776D01*
X135939075Y-108413465D01*
X135790680Y-108167989D01*
X135783727Y-108154743D01*
X135666000Y-107893163D01*
X135660693Y-107879167D01*
X135575364Y-107605336D01*
X135571780Y-107590798D01*
X135520076Y-107308659D01*
X135518271Y-107293794D01*
X135500726Y-107003736D01*
X135500500Y-106996249D01*
X135500500Y-102831582D01*
X144450001Y-102831582D01*
X144456408Y-102902102D01*
X144456409Y-102902107D01*
X144506981Y-103064396D01*
X144594927Y-103209877D01*
X144715122Y-103330072D01*
X144860604Y-103418019D01*
X144860603Y-103418019D01*
X145022894Y-103468590D01*
X145022893Y-103468590D01*
X145093408Y-103474998D01*
X145093426Y-103474999D01*
X145099999Y-103474998D01*
X145100000Y-103474998D01*
X145100000Y-102750000D01*
X144450001Y-102750000D01*
X144450001Y-102831582D01*
X135500500Y-102831582D01*
X135500500Y-102168427D01*
X144450000Y-102168427D01*
X144450000Y-102250000D01*
X145100000Y-102250000D01*
X145100000Y-101525000D01*
X145099999Y-101524999D01*
X145093436Y-101525000D01*
X145093417Y-101525001D01*
X145022897Y-101531408D01*
X145022892Y-101531409D01*
X144860603Y-101581981D01*
X144715122Y-101669927D01*
X144594927Y-101790122D01*
X144506980Y-101935604D01*
X144456409Y-102097893D01*
X144450000Y-102168427D01*
X135500500Y-102168427D01*
X135500500Y-98003750D01*
X135500726Y-97996263D01*
X135518271Y-97706205D01*
X135520076Y-97691340D01*
X135571780Y-97409201D01*
X135575364Y-97394663D01*
X135652096Y-97148422D01*
X135660696Y-97120822D01*
X135665998Y-97106841D01*
X135783731Y-96845249D01*
X135790676Y-96832016D01*
X135939080Y-96586526D01*
X135947567Y-96574230D01*
X136124480Y-96348417D01*
X136134395Y-96337226D01*
X136337226Y-96134395D01*
X136348417Y-96124480D01*
X136574230Y-95947567D01*
X136586526Y-95939080D01*
X136832016Y-95790676D01*
X136845249Y-95783731D01*
X137106841Y-95665998D01*
X137120822Y-95660696D01*
X137394668Y-95575362D01*
X137409197Y-95571780D01*
X137691344Y-95520075D01*
X137706201Y-95518271D01*
X137996264Y-95500726D01*
X138003751Y-95500500D01*
X145376000Y-95500500D01*
X145443039Y-95520185D01*
G37*
%TD.AperFunction*%
%TD*%
%TA.AperFunction,Conductor*%
%TO.N,GND*%
G36*
X152003736Y-95500726D02*
G01*
X152293796Y-95518271D01*
X152308659Y-95520076D01*
X152590798Y-95571780D01*
X152605335Y-95575363D01*
X152879172Y-95660695D01*
X152893163Y-95666000D01*
X153154743Y-95783727D01*
X153167989Y-95790680D01*
X153413465Y-95939075D01*
X153425776Y-95947573D01*
X153651573Y-96124473D01*
X153662781Y-96134403D01*
X153865596Y-96337218D01*
X153875526Y-96348426D01*
X153995481Y-96501538D01*
X154052422Y-96574217D01*
X154060928Y-96586540D01*
X154209316Y-96832004D01*
X154216275Y-96845263D01*
X154333997Y-97106831D01*
X154339306Y-97120832D01*
X154424635Y-97394663D01*
X154428219Y-97409201D01*
X154479923Y-97691340D01*
X154481728Y-97706205D01*
X154499274Y-97996263D01*
X154499500Y-98003750D01*
X154499500Y-105883919D01*
X154479815Y-105950958D01*
X154427011Y-105996713D01*
X154357853Y-106006657D01*
X154294297Y-105977632D01*
X154263780Y-105937721D01*
X154191946Y-105788557D01*
X154149790Y-105721466D01*
X154042523Y-105550752D01*
X153867416Y-105331175D01*
X153668825Y-105132584D01*
X153449248Y-104957477D01*
X153211445Y-104808055D01*
X153211442Y-104808053D01*
X152958411Y-104686200D01*
X152693329Y-104593443D01*
X152693317Y-104593439D01*
X152419512Y-104530945D01*
X152419494Y-104530942D01*
X152140431Y-104499500D01*
X152140425Y-104499500D01*
X151859575Y-104499500D01*
X151859568Y-104499500D01*
X151580505Y-104530942D01*
X151580487Y-104530945D01*
X151306682Y-104593439D01*
X151306670Y-104593443D01*
X151041588Y-104686200D01*
X150788557Y-104808053D01*
X150550753Y-104957476D01*
X150331175Y-105132583D01*
X150132583Y-105331175D01*
X149957476Y-105550753D01*
X149808053Y-105788557D01*
X149686200Y-106041588D01*
X149593443Y-106306670D01*
X149593439Y-106306682D01*
X149530945Y-106580487D01*
X149530942Y-106580505D01*
X149499500Y-106859568D01*
X149499500Y-107140431D01*
X149530942Y-107419494D01*
X149530945Y-107419512D01*
X149593439Y-107693317D01*
X149593443Y-107693329D01*
X149686200Y-107958411D01*
X149808053Y-108211442D01*
X149808055Y-108211445D01*
X149957477Y-108449248D01*
X150132584Y-108668825D01*
X150331175Y-108867416D01*
X150550752Y-109042523D01*
X150788555Y-109191945D01*
X150788560Y-109191948D01*
X150937721Y-109263780D01*
X150989581Y-109310602D01*
X151007894Y-109378029D01*
X150986846Y-109444653D01*
X150933120Y-109489322D01*
X150883920Y-109499500D01*
X146874000Y-109499500D01*
X146806961Y-109479815D01*
X146761206Y-109427011D01*
X146750000Y-109375500D01*
X146750000Y-103474999D01*
X147250000Y-103474999D01*
X147256581Y-103474999D01*
X147327102Y-103468591D01*
X147327107Y-103468590D01*
X147489396Y-103418018D01*
X147634877Y-103330072D01*
X147755072Y-103209877D01*
X147843019Y-103064395D01*
X147893590Y-102902106D01*
X147900000Y-102831572D01*
X147900000Y-102750000D01*
X147250000Y-102750000D01*
X147250000Y-103474999D01*
X146750000Y-103474999D01*
X146750000Y-102250000D01*
X147250000Y-102250000D01*
X147899999Y-102250000D01*
X147899999Y-102168417D01*
X147893591Y-102097897D01*
X147893590Y-102097892D01*
X147843018Y-101935603D01*
X147755072Y-101790122D01*
X147634877Y-101669927D01*
X147489395Y-101581980D01*
X147489396Y-101581980D01*
X147327105Y-101531409D01*
X147327106Y-101531409D01*
X147256572Y-101525000D01*
X147250000Y-101525000D01*
X147250000Y-102250000D01*
X146750000Y-102250000D01*
X146750000Y-95624500D01*
X146769685Y-95557461D01*
X146822489Y-95511706D01*
X146874000Y-95500500D01*
X151934108Y-95500500D01*
X151996249Y-95500500D01*
X152003736Y-95500726D01*
G37*
%TD.AperFunction*%
%TD*%
M02*
